<svg data-name="Layer 1" xmlns="http://www.w3.org/2000/svg" viewBox="0 0 154.04 154.04"><circle cx="77.02" cy="77.02" r="77.02" style="fill:#e6e6e8"/><path d="m80.97 58.73 1.69 11.48c.09.64.69 1.26 1.33 1.37l11.43 2.01c1.35.24 1.44.93.22 1.53l-10.4 5.15c-.58.29-.98 1.05-.89 1.69l1.62 11.49c.19 1.35-.44 1.66-1.39.68l-8.11-8.29c-.45-.46-1.3-.61-1.88-.33L64.16 90.6c-1.23.6-1.71.1-1.08-1.11l5.38-10.28c.3-.57.18-1.42-.27-1.89l-8.06-8.35c-.95-.98-.62-1.6.72-1.37l11.44 1.94c.64.11 1.41-.27 1.71-.84l5.45-10.24c.64-1.21 1.33-1.09 1.53.26Zm52.26-6.41-14.31 14.31c-.34.34-.53 1.01-.43 1.49.67 3.11 1 6.34.94 9.66-.39 22.11-18.19 40.51-40.28 41.59-25.59 1.25-46.47-20.14-44.4-45.89C36.33 53.87 54.47 36 74.1 34.7c4.54-.3 8.95.1 13.12 1.14.49.12 1.18-.06 1.54-.42l14.13-14.13c.91-.91.71-2.12-.48-2.64C94 14.99 84.64 13.1 74.8 13.43 43.37 14.49 15.22 42.01 13.5 73.4c-2.08 37.86 28.85 68.96 66.65 67.15 31.15-1.49 58.89-29.2 60.41-60.35.47-9.72-1.23-19-4.68-27.39-.5-1.22-1.72-1.44-2.65-.5Z" style="fill:#10375b"/><path d="m83.94 69.13-2.07-12.66c-.05-.31.05-.62.27-.84l27.15-26.81c.6-.6 1.63-.18 1.64.67l.24 12.44c0 .49.38.89.87.94l12.57 1.24c.82.08 1.17 1.09.57 1.66L97.52 71.95a.97.97 0 0 1-.84.25l-11.97-2.28a.956.956 0 0 1-.77-.79Z" style="fill:#a4862f"/></svg>