<svg width="1372" height="1492" fill="none" xmlns="http://www.w3.org/2000/svg"><g clip-path="url(#a)"><path fill-rule="evenodd" clip-rule="evenodd" d="M1014.7 1022.03c-6.68-20.37 1.28-43.911-3.92-65.879-1.79-8.689-5.18-40.972-8.58-59.849-1.91-10.559 9.49-13.837 11.24-18.052 12.32-37.861-77.569-126.928-83.056-130.21-8.222-4.713-15.497-8.77-23.531-13.585-23.436-8.165-51.54-30.881-72.786-16.291-36.812-54.353-22.249-121.32-42.224-129.279-19.975-7.959-78.963-24.045-112.687-3.504-20.214 14.835-18.724 40.372-27.947 61.433-5.414 9.914-8.073 24.276-14.376 30.741-21.413 21.97-48.115 25.758-77.968 29.487-2.273.284-4.665-5.85-6.875-5.093-50.356 17.264-108.95 22.301-165.978 118.964-8.054 13.824-29.781 36.004-22.516 51.979-47.868 110.406-94.968 358.908 36.377 420.878 4.198 2.67 32.68-11.62 37.321-11.49 7.736.23-7.087 18.86 0 15.54 52.029 3.91 338.316-6.19 448.054 3.91 75.463-.56 123.262 12.57 140.682-.56-6.96-16.69-6.64-34.58-4.44-52.23 16.04-11.84-3.79-95.26-2.11-119.69 15.01-17.85 3.06-84.79-4.68-107.22Z" fill="#FBD4C5"/><path fill-rule="evenodd" clip-rule="evenodd" d="m555.922 706.879-.483.308c-.08.052-.158.105-.234.162-.514.383-.433 1.075.173 1.307.806.313 1.653.549 2.525.735 2.648 3.81 4.717 8.519 6.162 10.906 4.151 6.858 39.784 49.976 45.11 55.516 8.653 9.003 51.266 42.853 51.844 42.177 6.854 4.062 13.956 7.706 21.333 10.816 43.656 18.4 99.651 20.069 137.168-10.496 2.796.758 29.32-37.122 33.421-50.691 1.999.55 4.476-13.992 3.093-13.771 1.206-8.221-13.321-37.753-14.7-39.165.208-.065.415-.126.623-.185.121.259.398.455.722.371 2.771-.716 5.579-1.094 8.385-1.038 2.134.043 17.369 6.928 17.961 7.21l1.094.522C992 779.676 1010.78 874.119 1015 873.905c-1.77 2.23-49.933 69.766-52.522 75.736-.538-12.907 8.361 331.159 8.983 338.339.255 2.96.274 9.96.695 12.77-3.058.17-110.239-7.09-309.54-5.9-63.642.38-220.943 7.25-220.943 7.25l-.052-.43c-.45-4.21-.058-12.38-.121-16.58 6.041-3.46 11.97-7.14 17.83-10.76 13.343-8.23 95.67-83.02 156.175-149.95 35.869-39.67 80.615-66.37 83.037-68.96.047-.06.07-.12.105-.17.126.09.282.18.482.15 27.871-3.95 69.453 4.55 100.067-11.17 13.667-7.01 60.042-54.786 73.71-67.988.409-.397.705-.815.912-1.242 9.114-5.508 44.63-33.431 47.143-36.88l.748-1.039c2.777-3.899 6.951-8.008 2.112-11.753-5.098-3.947-14.87.794-20.249 3.066l-.749.311a125.25 125.25 0 0 0-7.711 3.458c-3.191-8.868-10.972-9.051-19.357-7.827-5.978.874-11.781 2.902-17.607 4.446a746.823 746.823 0 0 1-22.28 5.537c-13.425 3.117-28.942 8.817-42.523 11.178-.359-.414-.857-.74-1.522-.905-4.65-1.153-9.781-.27-14.551-.183-4.086.076-8.174.083-12.261.026l-2.452-.042c-8.761-.178-20.513-4.218-29.272-4.369l-.523-.319-.518-.325c-2.26-1.447-4.711-3.383-5.379-5.819-.083-.304 8.873-20.747 9.002-37.29.073-9.198-3.11-17.803-3.869-22.366-1.853-11.139-6-3.967-12 6.943-6 10.911-14 20.83-20 28.765-7.734 10.228-15.319 13.318-19.262 19.246a82.758 82.758 0 0 0-1.966 3.104c-1.542-1.525-14.543 28.853-12.27 34.704-1.583-.52-65.502 80.813-204.502 139.343.886-5.48 25-149.779 19-173.584-6-23.805-85.35-111.786-93.601-113.739.826-1.336-31.399 20.502 26.601-36.035 58-56.537 96.649-66.111 125.523-76.616a594.87 594.87 0 0 0 4.825-1.511c-.404.709.513 1.492 1.217.916 3.992-3.275 7.457-1.738 10.357 1.438Z" fill="#9DDADB"/><path fill-rule="evenodd" clip-rule="evenodd" d="M990.779 899.845c-7.199 10.385-13.813 21.076-19.792 32.197-3.083 5.736-5.959 11.587-8.548 17.556-.538-12.907-.656-25.966-2.177-38.745-.109-.923-1.66-1.371-1.823-.246-1.68 11.588-1.957 23.476-2.592 35.188a8.315 8.315 0 0 0-2.429-.35c-8.64 0-17.15.702-25.759 1.394-3.858.31-7.894.547-11.829 1.157a116.712 116.712 0 0 0 8.84-10.957c2.777-3.9 5.951-9.993 1.112-13.738-5.345-4.137-15.827 1.274-20.998 3.377a125.855 125.855 0 0 0-7.711 3.458c-3.191-8.867-12.972-10.043-21.357-8.819-5.978.874-11.781 2.902-17.607 4.447a743.74 743.74 0 0 1-22.28 5.536 737.36 737.36 0 0 1-40.523 8.202c-.359-.413-.857-.74-1.522-.904-4.65-1.153-9.781-.27-14.551-.183-4.904.091-9.809.084-14.713-.017-8.761-.177-17.513-.25-26.272-.4-2.49-1.497-5.647-3.645-6.42-6.463-.965-3.517 2.049-7.412 3.448-10.405 5.373-11.494 7.252-24.357 5.144-36.874-.376-2.232-1.15-4.672-2.268-6.958 9.597 1.018 19.069 1.71 28.718 2.022 19.267.622 38.533 1.274 57.809 1.415 38.541.285 77.083.287 115.624.007 21.792-.157 43.534-.356 65.297-1.46-1.77 2.23-3.5 4.508-5.18 6.821-.35-.103-.804.083-.751.511l.053.448c-3.073 4.257-6.031 8.581-8.943 12.783Zm-42.855 395.235c-8.957-.29-17.912-.57-26.868-.85-17.58-.56-35.16-1.11-52.739-1.67-34.827-1.1-69.653-2.16-104.485-3.11-34.748-.95-69.513-1.96-104.271-.88-34.837 1.08-69.585 3.87-104.357 6.1-19.331 1.25-38.676 2.32-58.043 2.84-18.445.49-37.053-.25-55.469 1.05-.619-4.51-.164-9.02-.231-13.51 6.041-3.46 11.97-7.14 17.83-10.76 21.364-13.18 41.558-28.09 60.606-44.39 2.928-2.5 5.799-5.06 8.641-7.65-1.978 4.29-.395 9.81 5.274 11.63 6.913 2.21 13.991 1.43 21.171 1.26 7.291-.17 14.582-.33 21.874-.49 14.251-.3 28.503-.56 42.755-.8 27.842-.46 55.685-.81 83.529-1.03 56.02-.45 112.001.31 168.012 1.31 15.75.28 31.484.63 47.234.28 7.88-.18 15.792-.23 23.663-.65 6.306-.34 12.65-1.23 18.955-2.02.795 10.89 1.626 21.78 2.552 32.66.613 7.19 1.243 14.37 1.865 21.56.255 2.96.274 5.98.695 8.8-6.053.33-12.069.51-18.193.32Zm6.159-307.563c-.22 8.337-.337 16.683-.397 25.023a7.177 7.177 0 0 0-2.469-.85c-9.795-1.49-20.276-.36-30.186-.2-9.579.16-19.191.11-28.761.56-9.589.45-19.174.98-28.761 1.48-4.498.23-8.947.43-13.41 1.03-3.058.42-6.969.39-10.236 1.25 13.705-13.17 27.336-26.409 41.004-39.611.409-.397.705-.815.912-1.242 9.114-5.508 17.862-11.707 25.784-18.806 6.283 2.402 13.435 2.706 20.096 3.242 8.611.693 17.116 1.394 25.759 1.394.584 0 1.131-.056 1.646-.157a1294.86 1294.86 0 0 0-.981 26.887ZM598.236 1149.48c20.923 6.63 43.592 6.55 65.359 7.88 23.205 1.41 46.375 2.59 69.607 3.49 46.399 1.78 92.768 4.22 139.16 6.15 26.499 1.1 52.992 2.32 79.48 3.64 1.879.1 3.671-.38 5.252-1.26.889 17.3 1.931 34.6 3.144 51.88.151 2.16.319 4.32.474 6.48-12.467-1.55-24.839-3.03-37.399-4.08-14.104-1.18-28.201-2.18-42.325-3.11-27.523-1.81-55.09-4.23-82.663-5.12-56.208-1.8-112.54-1.19-168.769-.79-15.91.11-31.819.27-47.728.46-7.954.09-15.908.2-23.862.31-7.994.12-16.585-.71-24.154 2.06-.072.03-.133.07-.204.09 22.835-21.46 43.292-45.17 64.628-68.08Zm73.552-68.61c34.967 6.31 70.482 5.88 105.926 6.5 36.267.65 72.583.22 108.856.3 20.605.04 41.387.94 61.918-.88 2.426-.22 4.306-1.13 5.647-2.42.374 21.65 1.059 43.31 2.004 64.95a12.616 12.616 0 0 0-4.297-.99c-46.35-2.71-92.703-5.16-139.11-6.66-46.37-1.5-92.797-3.28-139.192-2.72-22.641.27-46.583-1.17-68.913 3.73 8.486-8.95 17.154-17.72 26.221-26.13 13.219-12.25 27.325-23.73 40.94-35.68Zm26.715-25.5c.047-.05.07-.11.105-.16a.8.8 0 0 0 .482.15c32.732-.73 69.453 9.51 100.067-6.21 13.667-7.02 24.985-18.11 35.972-28.77l.019.24c.072.87.441 1.91 1.325 2.29 3.611 1.57 7.84 1.67 11.717 2.23 4.459.65 8.838 1.02 13.336 1.29 9.917.59 19.833 1.22 29.753 1.77 9.898.56 19.841.61 29.752.85 9.938.25 20.349 1.44 30.186.03a7.111 7.111 0 0 0 2.419-.8c.015 12.62.131 25.24.25 37.86.02 2.05.06 4.11.084 6.16-1.328-1.2-3.153-2.05-5.482-2.25-18.241-1.59-36.623-.88-54.928-.82-17.975.06-35.952.11-53.928.17-36.297.12-72.565.48-108.856 1.16-17.648.33-35.219 1.81-52.609 4.64 7.041-6.36 13.886-12.91 20.336-19.83Zm-284.404 229.49c-6.701 2.03-13.353 1.15-20.067 2.54-.413.09-.794.25-1.143.46-20.106-8.52-33.508-25.62-42.68-44.78-9.668-20.2-16.332-41.79-20.796-63.67-9.204-45.12-9.22-91.9-4.456-137.54 4.681-44.847 13.949-89.447 27.175-132.573 9.081-29.612 20.654-59.528 36.723-86.528 18.555 12.331 32.945 30.086 46.501 47.44 16.199 20.739 30.797 42.685 43.864 65.488-1.351 3.907-1.561 8.806-2.209 12.298-1.249 6.733-2.377 13.55-3.264 20.34-1.895 14.515-3.713 29.037-5.65 43.545-3.831 28.69-8.405 57.3-13.458 85.8-.409 2.31.245 4.26 1.448 5.73-10.022 5.24-19.913 10.71-29.55 16.64-21.187 13.04-40.988 28.23-56.534 47.71-.404.51.229 1.19.729.73 33.338-30.55 74.756-49.74 115.421-68.7 20.781-9.68 41.46-19.53 61.398-30.86 20.85-11.84 40.734-25.22 59.792-39.73 21.762-16.56 42.247-34.669 61.45-54.096 2.262-2.29 1.714-5.157.012-6.968.575-.177 1.039-.673 1.069-1.5.461-12.687 4.302-23.495 11.822-33.763 6.976-9.527 15.867-17.378 23.887-25.998 3.564-3.83 6.97-7.821 10.011-12.078 3.131-4.381 5.038-9.217 7.763-13.795 3.183-5.349 5.891-2.616 7.366 2.226 1.673 5.489 1.569 11.915.897 17.558-.711 5.971-2.544 11.793-5.184 17.19-2.48 5.069-5.339 10.226-3.67 16.036 2.743 9.549 14.503 15.079 23.412 17.229 9.92 2.395 20.297 1.929 30.342.688 12.58-1.557 25.1-3.834 37.535-6.256a737.415 737.415 0 0 0 42.921-9.698c6.677-1.719 13.307-3.979 20.049-5.403 2.404-.506 6.853-1.268 9.678-.025-36.315 21.472-75.906 35.777-116.117 48.242-4.996 1.547-2.947 9.031 2.166 7.791 43.199-10.476 83.841-29.92 122.52-51.216.592-.327 1.094-.832 1.463-1.429a124.935 124.935 0 0 1 11.881-3.51c1.803-.435 11.077-3.47 12.236-2.303 1.643 1.651-4.042 7.014-5.462 8.573-10.108 11.106-22.131 20.171-35.145 27.665-13.201 7.6-27.247 13.659-41.359 19.377-15.808 6.406-32.517 11.441-47.883 18.803-6.104 2.93-1.821 12.86 4.61 10.85 8.288-2.6 16.341-6.42 24.395-9.66 6.842-2.76 13.685-5.508 20.488-8.356a449.915 449.915 0 0 0 14.119-6.182c-6.988 6.522-13.977 13.048-20.964 19.568-12.1 11.3-23.597 24.17-38.389 32.1-14.614 7.83-31.286 8.74-47.553 8.57-8.167-.08-16.298-.34-24.465-.02-8.595.35-16.228 1.66-24.373 4.34a.827.827 0 0 0-.351.24c-.285-.34-.768-.52-1.267-.22-22.133 12.98-42.308 29.81-61.711 46.46-19.998 17.15-38.815 35.39-56.744 54.66-17.161 18.44-34.185 36.95-52.859 53.91-18.233 16.57-37.718 31.61-58.064 45.54-11.086 7.58-22.446 14.89-34.2 21.42-6.281 3.49-12.66 7-19.576 9.1Zm1.861-499.311c7.926-8.831 16.457-17.016 25.484-24.588 3.983 1.169 8.164 1.497 12.377 1.539 6.429.064 12.872.33 19.301.264 12.379-.126 24.753-.514 37.135-.58 25.317-.137 50.642-.144 75.959.074 3.317.029 5.71-1.378 7.187-3.421 5.125 5.763 10.407 11.393 15.733 16.934 8.653 9.002 17.878 17.591 27.698 25.418-1.912.012-3.823.029-5.724.016-8.757-.058-17.515-.113-26.271-.159-17.573-.097-35.146-.168-52.719-.215-34.936-.091-69.981.198-104.872 1.972-9.684.492-19.444.692-29.094 1.628-5.234.508-10.462 1.1-15.691 1.652a60.56 60.56 0 0 0-3.103.415c5.121-7.298 10.637-14.307 16.6-20.949Zm139.923-78.713c-.236.159-.491.3-.717.47-.514.383-.433 1.075.173 1.307.806.313 1.653.549 2.525.735 2.648 3.81 4.717 8.52 6.162 10.906 4.151 6.858 8.924 13.39 13.78 19.768a272.169 272.169 0 0 0 2.97 3.811c-23.515-.056-47.018.063-70.519.945-12.373.465-24.788.855-37.135 1.776-5.077.379-10.151 1.014-15.212 1.643 26.34-18.885 55.962-33.306 86.649-44.012-.042.046-.085.081-.127.127-.676.744.333 1.709 1.094 1.086 3.992-3.275 7.457-1.738 10.357 1.438Zm118.816 221.98a83.58 83.58 0 0 0-1.966 3.104c-1.542-1.525-3.696-2.545-6.471-2.63-30.805-.953-61.595-1.786-92.417-1.807-15.2-.01-30.538-.518-45.719.228-7.623.375-15.243.821-22.862 1.25-5.327.299-10.986.672-16.188 2.202a566.536 566.536 0 0 0-39.832-59.918c32.976 4.012 66.517 3.585 99.68 4.699 37.573 1.262 75.167 1.534 112.753 2.417a7413.528 7413.528 0 0 1 46.89 1.254c1.663.049 3.384.095 5.107.05l-.391.798c-2.901 5.943-6.549 11.413-10.8 16.49-9.038 10.793-19.955 20.091-27.784 31.863Zm-40.413 64.07c-1.141-3.146-3.921-5.566-8.35-5.366-25.24 1.137-50.527 1.926-75.738 3.573-12.281.803-24.612 1.344-36.873 2.409-6.324.551-12.637 1.573-18.934 2.387-4.317.558-8.837 1.206-12.978 2.727.803-8.793 1.511-17.593 2.126-26.405.493-7.08.643-14.225.605-21.323a249.397 249.397 0 0 0-.317-10.797c.372.074.745.111 1.111.066.646-.079 1.249-.155 1.809-.304 5.803 2.253 12.371 2.75 18.517 3.185 7.29.515 14.578 1.064 21.868 1.579 15.511 1.098 31.168 1.027 46.713 1.53 30.601.989 61.208 1.564 91.815 2.376-1.42 6.044-1.47 12.25.803 18.101-1.583-.52-3.406-.278-4.962 1.246a586.416 586.416 0 0 1-27.215 25.016Zm-89.034 64.264a9.902 9.902 0 0 0-3.191-4.35c-5.352-4.09-15.122-1.73-21.546-1.42l-22.816 1.11c-2.308.11-14.088.7-22.74 2.53 1.788-13.39 3.41-26.8 4.86-40.24.304-2.82.586-5.64.865-8.47 4.076 1.3 8.506 1.78 12.71 1.98 6.3.3 12.629.8 18.935.9 12.599.2 25.268-.42 37.869-.63 22.692-.37 45.387-1.45 68.069-2.33-22.773 18.33-46.836 35.06-71.936 50.28-.358.21-.721.42-1.079.64Zm-71.672 7.94c1.917.26 3.818.34 5.272.48 7.3.73 14.486 1.4 21.823 1.5 7.275.11 14.549.21 21.824.32 1.547.02 3.094.04 4.641.07-19.156 10.38-38.9 19.67-58.365 29.46a1505.51 1505.51 0 0 0 4.805-31.83Zm208.733-236.327c43.656 18.4 99.651 20.07 137.168-10.496 3.728 1.011 7.851 1.348 11.143 1.675 7.396.737 14.724 1.414 22.156 1.646 14.485.448 28.983 1.119 43.474 1.297 29.315.359 58.632.527 87.948.786 2.495.022 4.491-.732 6.005-1.943a196.729 196.729 0 0 1 8.252 15.359 179.602 179.602 0 0 1 9.351 23.652c-.55-.094-1.12-.16-1.73-.171-38.524-.66-77.08.439-115.614.599-38.543.159-77.081-.004-115.623.267-10.666.077-21.253.079-31.892.863-5.537.409-11.14.588-16.624 1.474-.613.098-1.237.186-1.866.273-7.349-4.26-16.472-3.37-24.872-3.527a7160.922 7160.922 0 0 0-85.805-1.094c-37.625-.256-75.158.697-112.759 1.998-18.708.645-37.345 1.743-55.812 4.599-1.24-1.592-2.468-3.192-3.724-4.771-13.085-16.449-28.597-37.508-50.129-42.605a244.624 244.624 0 0 1 2.515-3.981c14.918 3.902 31.375 3.705 46.617 4.522 17.569.942 35.101 1.592 52.691 2.021 34.965.852 69.923 1.386 104.895 1.913 9.706.147 19.412.301 29.118.461 5.235.087 10.471.187 15.707.266 2.925.045 5.54.037 8.327-.926 2.581-.892 5.097-2.23 7.593-3.338a6.07 6.07 0 0 0 2.157-1.635c6.854 4.062 13.956 7.706 21.333 10.816Zm170.589-61.187c5.491 1.511 11.158 1.762 16.963 2.197 7.62.572 15.222.668 22.862.717 12.181.077 24.365-.006 36.542-.339 5.231-.143 8.287-3.616 9.194-7.593.126.101.256.2.382.303 14.821 12.112 28.25 25.965 39.63 41.298-27.406.086-54.815.103-82.221.286-14.489.097-28.989.687-43.474 1.057-7.106.181-14.108.765-21.184 1.432l-.431.038a96.432 96.432 0 0 0 2.221-2.622c8.458-10.396 15.415-23.205 19.516-36.774ZM1031.09 1313.3c2.42-6.6 1.48-13.68 1.34-20.62-.14-7.12-.22-14.23-.24-21.35-.05-13.92-.14-27.84-.3-41.76-.31-28.16-.64-56.33-1.76-84.47-2.2-55.64-6.46-111.13-13.4-166.387-3.37-26.864-7.56-53.666-13.24-80.151.08-.106.15-.215.23-.322 5.66-7.501 12.1-14.434 17.66-21.985.49-.67.7-1.529.69-2.397.21-.099.41-.202.62-.319 4.61-2.604.44-9.705-4.17-7.066.53-.303-7.12-19.798-7.93-21.761-2.92-7.05-6.2-13.944-9.89-20.625a205.717 205.717 0 0 0-7.12-11.849c-.437-2.892-2.012-5.573-4.718-7.008a223.028 223.028 0 0 0-15.344-19.41c-22.381-25.293-50.336-45.711-80.877-60.254-4.413-2.101-8.957-3.853-13.485-5.687-4.82-1.955-9.29-4.51-14.04-6.562-7.729-3.338-15.36-3.146-22.952.388-.649.302-.184 1.292.476 1.121 4.888-1.263 9.895-1.475 14.795-.103 4.801 1.345 8.451 4.317 12.645 6.797 7.47 4.418 15.821 7.299 23.478 11.423 10.125 5.457 20.02 11.449 29.485 18.028-9.807.514-19.621.886-29.438 1.144-7.291.193-14.579.225-21.86.646-5.182.298-10.571.214-15.75 1.044 1.249-8.515 1.251-17.107-.31-25.402l-.001-.009a65.918 65.918 0 0 0-1.396-5.943c-1.197-4.173-5.032-4.799-7.816-3.22-.276-.201-.554-.399-.821-.615-3.335-2.686-6.337-5.899-8.948-9.277-5.423-7.017-9.806-15.141-13.125-23.329-3.362-8.292-5.744-16.968-8.077-25.588-1.17-4.322-2.436-8.621-3.628-12.939-1.036-3.755-1.79-7.902-3.693-11.323-.357-.64-1.431-.519-1.602.209-1.008 4.285-.475 9.172-.29 13.541.204 4.849.485 9.654 1.136 14.466 1.349 9.987 3.525 19.803 7.012 29.286 3.343 9.093 7.755 17.579 13.747 25.24 3.981 5.089 9.635 11.826 16.184 14.571.856 9.554.758 19.117-1.517 28.576-2.976 12.381-8.675 24.149-16.505 34.232-16.418 21.141-41.818 33.086-68.317 35.548-27.416 2.546-55.472-3.535-80.107-15.495-27.401-13.304-50.132-33.828-70.549-55.98-11.77-12.77-23.974-25.334-34.882-38.844-1.933-2.395-5.027-7.256-8.697-11.635 3.735-.034 7.568-.588 10.874-1.009 6.84-.871 13.525-2.219 20.209-3.905 12.497-3.152 25.675-7.538 36.595-14.476 23.107-14.683 32.127-33.308 35.208-58.967.974-8.111-13.167-10.081-14.484-1.945-2.023 12.508-5.084 18.594-9.109 30.609-3.871 11.548-9.478 15.85-20.195 22.216-10.061 5.977-21.495 9.449-32.579 13.036-6.142 1.988-12.357 3.801-18.551 5.628-3.943 1.164-8.624 2.178-12.624 3.975-2.087-1.817-4.264-3.186-6.456-3.705a.412.412 0 0 0-.452-.607c-.644.128-1.286.269-1.93.401a7.182 7.182 0 0 0-1.934.402c-38.606 8.292-75.68 25.951-107.118 50.006a23.987 23.987 0 0 0-4.577 2.477 3.41 3.41 0 0 0-1.392 2.213 270.353 270.353 0 0 0-13.743 11.908c-35.686 33.106-58.297 77.146-74.126 122.443-15.593 44.626-26.148 91.421-31.952 138.275-5.917 47.76-6.599 96.51 1.983 144 4.608 25.5 12.068 50.56 23.079 74.08 9.888 21.12 25.983 45.18 51.263 47.75.081.09.157.17.248.25 9.919 8.1 24.687 2.5 35.057-2.34 1.644-.77 3.275-1.57 4.899-2.4-.858 3.27-1.245 6.7-1.424 9.92-.373 6.68 9.118 7.05 10.915 1.51 15.385 2.69 31.272 2.72 46.833 2.64 17.387-.1 34.768-.69 52.135-1.5 34.458-1.62 68.875-4.08 103.356-5.2 69.818-2.27 139.827 2.58 209.589 5.02 19.57.68 39.14 1.37 58.71 2.05 19.995.7 39.97.84 59.804 3.52 7.293.98 10.087-6.11 8.03-10.52.513-2.97.002-6.22-.279-9.72a2150.41 2150.41 0 0 1-1.483-19.59 6455.15 6455.15 0 0 1-2.611-38.23c-1.682-25.83-3.129-51.68-4.537-77.52-2.799-51.38-4.942-102.81-6.518-154.241a1894.905 1894.905 0 0 0-1.521-37.607 192.53 192.53 0 0 0 2.236-3.58c2.424-4.01 4.801-8.046 7.256-12.039 4.925-8.002 9.88-15.952 15.058-23.797 4.472-6.774 9.085-13.445 13.905-19.977 5.98 50.123 11.3 100.291 13.74 150.741 2.69 55.56 4.12 111.2 4.9 166.82.21 15.54.36 31.08.53 46.61.08 8.09.17 16.18.1 24.27-.06 7.74-1.24 16.21 1.53 23.53 1.61 4.27 7.26 4.35 8.85 0Z" fill="#000"/><path fill-rule="evenodd" clip-rule="evenodd" d="M650 624.134c4.243-10.577 18.586-6.465 16.987 4.646-.957 6.655-.987 11.678-2.487 20.647-1.5 8.969-1.766 10.419-5.923 13.978a405.749 405.749 0 0 0 22.957 19.711c8.594 6.835 17.631 13.135 26.972 18.926 8.191 5.078 16.752 9.578 24.473 15.372 7.179 5.387 13.719 11.866 17.047 20.324 3.545 9.006 2.004 18.308-.607 27.308l-.299 1.018c-2.667 8.917-7.284 19.666-.882 28.067 3.259 4.277 7.997 7.306 12.088 10.725a93.726 93.726 0 0 1 10.179 9.894c6.825 7.739 12.376 16.447 15.879 26.149l.313.882c3.002 8.589 5.197 19.111 1.14 27.544-1.164 2.417-4.918 1.631-5.57-.722-1.474-5.333-1.397-10.917-2.633-16.325-1.286-5.624-3.426-10.962-6.221-16.013-5.408-9.77-12.732-18.117-21.385-25.173l-2.59-2.089c-6.75-5.495-12.952-11.324-14.322-20.417-1.466-9.73 2.464-18.998 4.991-28.206 1.761-6.418 2.336-12.57.433-18.369-2.325 3.764-5.497 7.337-8.006 10.524-4.997 6.349-10.041 12.659-15.072 18.981-5.158 6.483-10.189 13.068-14.98 19.824a1107.49 1107.49 0 0 0-6.376 9.106c-1.589 2.287-3.805 4.572-5.537 6.905.421 1.248.388 2.686-.375 3.708-9.185 12.309-22.251-13.375-25.659-19.864-6.94-13.215-12.105-27.254-19.068-40.465-7.215-13.696-15.431-27.027-24.588-39.531-5.539-7.563-11.747-14.667-16.814-22.47a86.305 86.305 0 0 1-2.943-4.88 69.46 69.46 0 0 1-1.271-2.398l-.25.208a2.484 2.484 0 0 1-.132.097c-1.359.934-3.36.475-4.48-.573-3.163-2.96-2.092-6.246.019-9.315l.275-.391c2.582-3.587 4.885-7.38 7.268-11.098l1.492-2.325c4-6.211 8.203-12.463 13.537-17.596a29.11 29.11 0 0 1 8.039-5.484c-.245-.514 1.903-1.564 2.512-1.036 9.077-3.295 10.086-4.77 19.982-3.862" fill="#05051A"/><path fill-rule="evenodd" clip-rule="evenodd" d="M814.048 656.933c.599-.302 1.174-.109 1.557.405.547.732.48 1.444-.19 1.946.895 1.814 1.952 6.359 2.103 7.02a317.866 317.866 0 0 0 1.944 8.013c1.374 5.373 2.578 10.788 3.953 16.163 1.458 5.697 3.195 11.334 5.128 16.889.125.36.262.727.406 1.1l.22.563.054-.086c.393-.616 1.211-.185 1.114.466-.09.593-.211 1.183-.313 1.776l.203.531c1.264 3.376 2.13 6.931-.19 9.91-.868 1.113-1.823 1.773-3.013 1.969-1.908 6.239-4.302 12.362-6.865 18.242l-.751 1.717c-3.77 8.58-7.791 17.047-13.794 24.352-6.554 7.974-15.569 13.42-21.278 22.158-2.656 4.065-4.504 8.339-6.004 12.93l-.564 1.742c-1.064 3.247-2.293 6.394-5.364 8.298-.98.607-2.448.414-3.238-.414-6.297-6.607.295-18.944 4.092-25.341 5.278-8.895 12.917-14.585 20.566-21.297 8.245-7.233 13.504-16.91 18.591-26.443 3.116-5.84 6.124-11.806 9.291-17.672-3.308-2.901-4.367-8.663-5.488-12.668l-.103-.359c-1.853-6.413-3.325-12.993-4.255-19.602-.895-6.355-1.268-12.618-1.031-19.008l.068-1.628" fill="#05051A"/><path fill-rule="evenodd" clip-rule="evenodd" d="M826.35 687.177c-.731-.993.479-2.119 1.482-1.912 6.098 1.251 12.06 4.912 17.534 7.873l.584.314c4.369 2.337 8.765 5.2 11.059 9.739 2.495 4.935 2.29 10.618 1.949 15.98l-.032.502c-.417 6.43-.484 13.111-1.856 19.425-.702 3.232-3.653 4.143-6.176 3.379-3.002 9.402-11.435 16.329-17.595 23.748-7.854 9.459-6.376 22.229-5.555 33.621.332 4.612-5.452 5.924-8.431 3.463l-6.865-5.656a919.777 919.777 0 0 1-3.424-2.84 208.064 208.064 0 0 1-2.9-2.464l-1.432-1.254c-.635-.564-3.436-3.667-4.255-3.796-1.984-.313-6.697 4.873-8.31 6.499l-.204.203c-3.036 2.953-5.779 6.13-8.334 9.499-.47.619-1.389.105-1.053-.61 2.289-4.864 4.952-9.515 8.112-13.867l.639-.867c2.103-2.811 4.926-7.774 8.638-8.605 4.533-1.013 9.059 3.496 12.356 5.998l.209.157a320.414 320.414 0 0 1 4.668 3.552c-.162-8.482.918-17.052 5.333-24.361 3.113-5.154 7.777-8.972 11.768-13.402 4.443-4.933 6.763-10.995 10.785-16.132.518-.661 1.232-1.017 2.005-1.13.155-4.13.768-8.3 1.242-12.385l.137-1.223c.479-4.439 1.611-9.861-.58-14.018-2.07-3.926-6.818-6.697-10.335-9.361l-2.871-2.21m-206.206-54.793a22.357 22.357 0 0 0-5.109 4.001c-4.901 5.157-8.405 11.575-11.815 17.748-1.836 3.325-3.606 6.686-5.457 10.003a222.963 222.963 0 0 1-2.47 4.296c-.387.657-1.537 1.962-2.107 2.766a84.636 84.636 0 0 0 1.956 2.605c.255.327 17.835 19.323 23.964 26.757 9.384 11.388 17.772 23.416 24.943 36.291 7.022 12.608 12.368 25.957 18.873 38.808 3.256 6.435 6.892 12.823 11.527 18.392.179.217.368.422.551.637 1.768-4.74 6.301-9.816 8.527-12.73l.209-.275c5.049-6.751 10.381-13.298 15.829-19.734a530.32 530.32 0 0 1 15.304-17.283l1.966-2.117c3.641-3.901 8.266-9.738 13.596-12.525a25.295 25.295 0 0 0-1.992-2.995c-4.994-6.472-12.054-11.17-19.02-15.408l-4.517-2.726c-17.028-10.293-33.791-21.062-48.573-34.435-7.821-7.076-15.534-14.489-22.108-22.742l-2.325-2.918" fill="#05051A"/><path d="M746.5 773.908c5.732-17.054 5.834-28.765 4.5-32.732 0 0 16-1.984 34-9.919 18-7.935 33-15.87 33-15.87 1 2.48 2.667 5.29 4 6.447-3.162 5.489-11.991 23.553-19 33.724-9 13.062-14.021 13.886-21.5 21.822-17.2 18.25-14 29.756-13 35.211-5.5-6.447-30.5-13.39-22-38.683Z" fill="#FBD4C5"/><path d="M1010 784.636c-17-46.122-188-103.651-191.5-112.578l11.5 39.675c-4.841 8.122-8.801 24.066-15.5 35.212-10.469 17.418-25.791 29.037-34.5 43.146-6.246 10.121-9.552 19.662-11.5 22.318-5.2-2.381-14-6.117-19-10.911-27-13.886 7-49.594-10.5-65.96l-135.5-49.594c-89.666 16.697-249.413 30.748-261.5 159.197-12.086 128.448 65 230.119 119 250.449 43.888 16.53 156.248-76.15 197-122.001 10.5-7.439 10-3.471 12-26.78 1.381-16.089 41.5-55.546 47-64.473s10-11.902 16-5.951 7.5 20.83 0 39.675c-7.5 18.846-1.5 23.805 16.5 28.269 18 4.463 109-12.399 124.5-17.358 15.5-4.959 13 4.959 19.5 4.959s16.5-4.463 28.5-6.447-2 13.391-4.5 17.358c-2 3.174-31.833 27.442-46.5 39.179-21 21-67.7 64.37-86.5 69.93-18.8 5.55-65.166 4.3-86 2.97l-70.5 60.01-101 103.65-89 64.48v16.86c12.399 2.96 116.687-3.42 227-4.47 129.909-1.23 268.562 2.84 281 7.94 18.4 7.54 75.33 6.12 101.5 4.46 15-389.31-15.5-484.2-37.5-523.214Z" fill="#05051A"/><path fill-rule="evenodd" clip-rule="evenodd" d="M759.95 873.733c2.102-16.69 21.146-9.654 14.421-6.874-.136.145-.277.287-.426.43 7.691.741 7.152 9.7 6.296 15.431-3.018 12.83-22.569 1.158-20.291-8.987Zm2.591 126.687c-3.398-14.259 17.232-16.633 17.351-1.741.666 6.261-5.092 10.341-6.547 15.781-.307 3.54-4.69 6.04-7.495 3.08-4.68-4.94-5.686-11.64-3.309-17.12Zm.297 95.62c18.42-5.89 13.83 27.38 1.678 31.92-7.343 3.62-9.86-5.43-8.519-10.96-4.77-7.19-.401-16.64 6.841-20.96Zm-1.074 128.73c10.089-9.65 23.606 7.92 5.312 20.34-3.319 6.03-12.391 1.77-10.848-4.54l-.019-1.06c-.135-5.5-.681-12.29 5.555-14.74Z" fill="#FBD4C5"/><path d="M372 1307.85c-138-89.27-31.5-445.847-28-464.693l126 248.463c25.5-17.02 92.301-60.2 155.501-96.705-6.4 83.315 40.666 95.225 65 90.755-93.5 79.52-288.101 235.28-318.501 222.18Z" fill="#05051A"/><path fill-rule="evenodd" clip-rule="evenodd" d="M894.673 463.003c-2.148-18.915.632-58.451.819-60.853 1.177-15.185-5.923-75.148-19.344-69.623-22.515-17.861-52.502-21.805-80.543-23.689-58.245-3.914-120.206 5.071-165.181 44.351-22.242 20.399-43.895 50.068-42.155 80.96-20.208 29.282-48.697 69.449-23.518 103.682 8.558 10.937 22.161 15.01 32.912 23.293 21.626 17.48 35.194 42.566 57.025 59.942 57.838 52.083 156.048 62.963 212.873 3.723 43.943-42.904 36.837-107.09 29.108-161.786-5.196-36.773 2.195 36.901-1.996 0Z" fill="#FBD4C5"/><path fill-rule="evenodd" clip-rule="evenodd" d="M717.798 228.625c15.577-3.15 31.572-5.11 47.48-4.52l1.226.048c11.969.479 27.127 1.54 37.568 8.514.6-.604 1.566-.914 2.442-.495 12.408 5.935 26.055 10.226 39.12 14.49 13.004 4.243 26.496 7.044 40.126 8.173 5.128.425 9.517 5.974 6.27 10.951a218.867 218.867 0 0 0-2.275 3.585c1.254-.131 2.507-.266 3.761-.393 4.124-.416 8.244 3.995 8 8.019a74.222 74.222 0 0 1-.829 7.503c1.571-.033 3.133.203 4.642.842 7.639 3.233 7.108 12.352 6.536 19.29-.793 9.628-4.386 19.826-11.058 27.032 4.982 5.185 8.508 11.377 10.612 18.731 1.525 5.37 2.375 11.09 1.956 16.68l-.134 1.674c-.518 6.066-1.549 12.782-5.904 17.146-2.235 2.25-4.989 3.07-7.615 2.81 1.588 13.98 2.606 28.04 3.564 42.05l.449 6.696c2.137 32.38 3.743 64.971 3.323 97.404-.39 30.31-6.367 59.73-24.917 84.34-16.896 22.41-41.153 38.93-68.595 45.21-14.789 3.39-29.887 3.63-44.856 1.47-7.255-1.05-14.559-2.66-21.445-5.2-7.623-2.82-13.102-6.97-18.231-13.19-2.426-2.95-1.258-9.23 3.573-8.64 7.306.888 13.975 1.958 20.979 4.123l1.003.317c6.977 2.24 14.201 3.91 21.495 4.62 14.939 1.45 30.106-.01 44.417-4.55 23.301-7.4 43.368-23.89 56.231-44.61 15.268-24.56 16.994-52.44 16.774-80.68-.237-30.988-1.242-61.995-2.884-92.951l-.28-5.159c-.868-15.93-1.706-31.87-2.444-47.81-.229-5-.578-10.04-1.208-15.03-5.757-3.38-10.916-8.04-14.279-13.79-6.756 2.8-13.86 4.82-20.398 6.43-15.142 3.732-30.862 4.638-46.275 2.301a136.544 136.544 0 0 1-12.702 4.536 284.073 284.073 0 0 1-3.49 1.523c-10.379 4.45-20.906 8.22-31.862 10.98l-2.692.673c-5.765 1.424-12.028 2.827-18.164 3.267a26.5 26.5 0 0 1-3.284 1.01 53.556 53.556 0 0 1-17.113 1.31c-5.579-.47-9.611-6.12-6.537-11.41 2.245-3.86 4.511-7.71 6.796-11.55-7.953 3.32-16.165 6.08-24.448 8.42-8.362 2.36-16.844 4.35-25.337 6.18-4.541.97-9.1 1.83-13.63 2.8-3.244.69-8.223 1.05-10.869 3.19-2.922 2.35-3.751 7.83-4.859 11.21-1.457 4.39-2.824 8.8-4.072 13.26a275.103 275.103 0 0 0-6.096 27.05c-1.576 9.13-2.635 18.35-3.224 27.6-.588 9.24-.329 18.54-1.276 27.74-.51 4.88-5.738 7.39-9.6 3.98-.453-.4-.91-.804-1.362-1.213l-.674-.617c-3.304-3-6.507-6.18-9.15-9.76-.479-.66-.938-1.35-1.367-2.05-.07 0-.13-.02-.2-.07l-.733-.553c-8.071-6.019-21.554-13.868-29.423-3.867-2.508 3.186-3.792 7.243-4.857 11.156l-1.87 7.005c-1.21 4.572-2.348 9.17-3.014 13.849-1.506 10.48-.748 22.56 6.448 30.96 2.874 3.36 6.835 5.76 11.255 6.39 2.466.34 4.901-.08 7.345-.39 2.485-.31 4.879.19 7.365-.05 3.951-.39 5.678 4.35 4.201 7.33-.798 1.6-1.737 2.98-2.804 4.15.857.74 1.676 1.54 2.465 2.38 2.335.75 4.429 2.36 5.997 4.49 1.267 1.72 1.925 3.59 2.036 5.56.138.49.258.99.369 1.5l2.141 3.482c.471.764.94 1.518 1.41 2.258 5.449 8.6 11.497 15.88 19.011 22.74 7.235 6.6 15.087 12.51 21.884 19.59l.801.841c6.336 6.691 13.015 14.79 10.535 24.519-.639 2.5-4.122 4.3-6.396 2.61-7.315-5.44-10.998-14.06-17.204-20.66-6.388-6.8-13.463-12.91-19.868-19.69-6.058-6.4-10.838-13.65-14.44-21.63-1.438 1.59-3.532 2.72-6.436 3.16-4.989.75-9.641-2.18-11.815-6.51-1.398.62-2.824 1.18-4.262 1.62-7.564 2.32-12.323-6.11-9.469-12.34 1.526-3.34 3.432-6.24 5.798-8.68-7.396-1.02-14.92-4.85-19.779-9.63-12.194-12.01-13.87-30.06-11.126-46.11 1.457-8.51 3.971-17.12 7.235-25.11a72.595 72.595 0 0 1 1.845-4.17 1.292 1.292 0 0 1-.988-.48c-2.205-3.02-4.889-5.49-6.526-8.87-1.507-3.1-3.182-6.24-4.371-9.47-2.444-6.61-3.641-14.07-4.44-21.06-1.646-14.31-1.008-28.53 1.178-42.75 3.721-24.22 12.71-47.398 25.953-67.736a11.552 11.552 0 0 1-2.056-1.38l-.318-.278-.517-.468c-3.779-3.427-3.453-9.85 0-13.321l1.091-1.095c1.38-1.375 2.571-2.464 4.802-3.961a15.95 15.95 0 0 1 1.006-.623c-1.168-2.162-1.573-4.69-.76-7.479 2.834-9.716 16.785-9.372 25.627-5.135 9.782-8.749 20.629-16.344 32.387-22.494 28.001-14.64 59.663-24.85 90.579-31.09Zm-144.744 255.9c5.229-1.71 12.175 1.88 16.875 4.04 5.957 2.74 11.026 6.79 15.936 11.07 2.445 2.14 2.883 5.64 2.275 8.63-.061.3-.12.61-.19.92-.649 3.19-4.202 5.7-7.345 5.61-6.576-.18-9.708-5.87-13.431-10.69-.439.78-.987 1.5-1.667 2.04l-.459.36c-1.545 1.179-3.248 2.121-5.289 2.03a9.814 9.814 0 0 1-4.111-1.11c-3.193-1.69-4.599-5.83-3.732-9.2.539-2.12 1.776-3.78 3.393-4.93l-.603-.413c-1.289-.899-2.465-1.847-3.382-3.246l-.207-.331h.08c-.998-1.72-.348-4.06 1.857-4.78Z" fill="#000"/><path fill-rule="evenodd" clip-rule="evenodd" d="M742.832 569.757c8.002-16 81.391-8.808 81.391-8.808l6.199 50.858s-35.41 11.383-56.489 8.998c-21.079-2.386-39.103-35.048-31.101-51.048Z" fill="#fff"/><path fill-rule="evenodd" clip-rule="evenodd" d="M748.003 596.471c-2.535-5.424 49.931-20.215 66.175-10.107 16.244 10.107 11.165 23.892 11.165 23.892s-68.323 15.584-77.34-13.785Z" fill="#FF8181"/><path fill-rule="evenodd" clip-rule="evenodd" d="M738.281 560.29c12.246-14.23 32.871-15.221 49.956-11.663 10.964 2.284 21.639 6.088 32.775 7.498 5.201.659 10.458.856 15.697.759 5.146-.095 10.3-1.132 15.428-.939.788.029 1.086 1.064.403 1.485-7.035 4.321-16.512 5.707-24.822 6.552.026.615.063 1.215.148 1.724a93.05 93.05 0 0 1 .601 4.071c.377 3.081.799 6.152 1.22 9.227.83 6.052 1.091 12.295 2.55 18.241l.255.989c.338 1.25.415 2.377.302 3.393l.338-.153 1.068-.517.7-.331c2.554-1.184 4.99-2.046 7.993-1.758 2.286.218 4.205 1.777 4.219 4.218.057 10.955-14.707 14.478-23.152 16.575l-2.477.61c-10.749 2.622-21.724 4.92-32.78 5.47-17.742.881-37.679-4.013-49.285-18.404-10.829-13.427-12.814-33.479-1.137-47.047Zm80.571 46.028c-1.862-16.494-22.13-17.401-27.961-6.941-2.587-14.579-40.863-1.26-37.87 1.638 11.344 10.986 28.559 11.975 43.358 9.943 7.537-1.035 15.08-2.72 22.473-4.64Zm-22.494-43.23-5.096-.733-2.007-.277c-12.632-1.691-26.839-2.565-37.225 5.534-3.792 2.956-5.926 6.812-6.723 10.954 9.828-1.457 19.691-2.568 29.584-3.493l2.699-.248c6.19-.558 12.377-1.146 18.561-1.763l4.395-.445 4.393-.456c1.546-.162 11.965-.695 13.924-.337.209-1.76.482-5.569.924-7.282-7.402.251-14.772-.299-22.131-1.277l-1.298-.177Zm23.456-73.721c7.552 4.59 19.058 15.293 10.934 26.673-9.562 10.033-23.329-1.471-30.114-6.674-6.29-4.032-13.358 6.339-7.522 11.047 49.024 36.295 68.919-29.846 30.522-36.443-4.228-.727-5.798 3.977-3.82 5.397Zm13.514 19.337.363-.197.123-.075c.212-.137.077-.122-.406.045l-.362.13v.256c.093-.057.192-.1.282-.159Zm-96.711-40.78-.001-.225c.014-6.377 3.728-20.937 12.908-20.937 5.735 0 9.217 9.909 9.82 20.124l.021.416c.266 6.351-1.477 20.232-9.841 20.232-8.452 0-12.82-13.147-12.907-19.61Zm135.156-2 .001-.225c-.014-6.377-3.728-20.937-12.908-20.937-5.592 0-9.041 9.42-9.769 19.358l-.051.766c-.362 6.136 1.268 20.648 9.82 20.648 8.452 0 12.82-13.147 12.907-19.61Zm-129.918-62.639c7.492-1.139 17.413 1.025 20.906 8.643 1.556 3.394-.287 7.147-4.21 7.335-9.481.454-17.984-1.656-26.306 4.509-3.581 2.654-6.592 6.328-9.119 9.992l-.956 1.395-.792 1.149c-1.716 2.523-3.34 5.263-3.087 8.307.075.901-.846 1.756-1.721 1.72-5.454-.224-6.041-7.062-5.324-11.169 1.334-7.622 5.023-14.777 10.136-20.54 5.37-6.052 12.459-10.122 20.473-11.341Zm103.189 9.25c5.166-3.321 11.774-4.597 17.826-4.108 11.933.961 31.952 11.105 29.317 25.68-.813 4.495-7.065 6.867-10.749 4.373-3.961-2.681-4.925-6.848-7.873-10.352-2.352-2.799-5.333-4.824-8.525-6.549-3.146-1.701-6.786-2.732-10.356-3.108l-.595-.057c-2.149-.183-13.001-.134-11.408 3.917.312.793-.868 1.421-1.41.821-3.327-3.68.441-8.475 3.773-10.617Z" fill="#05051A"/><path fill-rule="evenodd" clip-rule="evenodd" d="M850.595 562.879c2.74 2.81 5.37 5.82 7.85 8.93.69 4.94.85 9.94.22 15.1-.92 7.48-2.96 14.79-5.72 21.81-1.63-.23-3.24-.69-4.81-1.41-4.98-2.29-7.76-6.9-11.13-10.97-6.71-8.09-18.95-12.87-27.51-4.48-3.72 3.65-6.1 8.7-9.42 12.71-3.65 4.41-7.75 8.6-12.03 12.4-.53.48-1.08 1-1.65 1.51a363.17 363.17 0 0 1-7.01-8.24c-6.81-8.28-12.69-17.45-15.78-27.79-.98-3.28-1.59-6.7-1.83-10.15 3.03-3.76 6.49-7.18 10.42-10.01 11.85-8.55 25.5-9.94 39.7-10.68 14.69-.76 27.92.24 38.7 11.27Zm35.84 39.67c-.57-5.72-1.45-11.67-2.75-17.61-4.75-22.04-15.04-44.01-35.67-54.08-9.76-4.77-20.85-6.45-31.37-4.15-18.46-6.91-38.96.14-53.49 12.78-17.14 14.91-25.05 38.31-27.71 60.23-1.85 15.25-2.547 35.625 1.78 46.69 4.327 11.065 31.826 40.654 71.08 40.86 55.91.293 69.5-37.41 71.15-40.71 6.89-13.72 8.49-28.87 6.98-44.01Z" fill="#000"/></g><defs><clipPath id="a"><path fill="#fff" d="M0 0h1372v1492H0z"/></clipPath></defs></svg>