<svg width="1372" height="1492" viewBox="0 0 1372 1492" fill="none" xmlns="http://www.w3.org/2000/svg">
<g clip-path="url(#clip0_188_892)">
<path fill-rule="evenodd" clip-rule="evenodd" d="M721.562 597.682C748.823 599.085 791.269 611.275 793.391 619.066C796.705 631.231 789.584 676.838 801.494 701.404C806.571 711.876 825.85 710.937 833.32 714.348C858.314 725.759 932.306 747.4 947.562 774.651C953.674 785.568 991.235 921.031 1011.19 990.14C1013.44 997.932 1015.99 1005.14 1018.75 1011.81L1019.76 1006.63C1027.9 964.856 1031.97 939.57 1031.97 930.767C1031.97 917.012 1021.45 858.977 1031.97 844.219C1042.38 829.608 1067.48 817.662 1078.77 817.424L1079.11 817.421C1086.53 817.421 1092.96 815.003 1098.41 810.169L1106.41 805.976C1147.07 784.691 1170.83 773.016 1177.68 770.95C1188.62 767.653 1207.23 774.677 1197.92 785.222C1191.72 792.252 1176.13 804.688 1151.16 822.531L1141.75 830.334L1142.88 830.954C1155.05 837.635 1162.21 843.259 1164.35 847.825C1166.56 852.532 1165.5 858.099 1161.17 864.527L1161.83 865.194C1167.3 870.793 1170.03 874.549 1170.03 876.461V885.802C1175.47 894.115 1176.83 901.047 1174.11 906.598C1171.39 912.15 1167.08 916.961 1161.17 921.031C1156.82 932.974 1151.63 941.474 1145.62 946.531C1139.61 951.588 1129.21 955.797 1114.44 959.16L1101.07 992.503L1090.23 1039.35L1084.77 1091.62L1086.36 1092.81C1093.71 1098.39 1098.41 1102.53 1098.41 1106.81C1098.41 1113.47 1068.77 1270.1 1022.65 1277.11C1012.68 1278.63 960.952 1271.19 943.969 1256.78L944.219 1258.34C948.215 1283.51 947.37 1296.58 941.683 1297.56C871.794 1309.51 673.302 1313.2 346.21 1308.63C344.264 1127.56 353.063 1006.97 372.609 946.855C422.597 793.117 477.712 740.607 496.993 736.11C513.883 732.171 572.451 707.857 588.824 701.404C599.511 697.192 601.8 684.562 613.979 684.562L614.963 684.567C626.741 684.691 637.185 686.888 643.053 680.57C658.453 663.99 654.148 641.04 660.536 619.066C664.056 606.958 688.11 595.96 721.562 597.682Z" fill="#FBD4C5"/>
<path d="M613.979 684.562L614.963 684.567C617.874 684.598 620.704 684.755 623.403 684.879L617.716 705.09L617.593 707.213C613.9 776.895 646.615 810.252 715.738 807.285C784.86 804.317 819.243 781.513 818.885 738.872L818.863 737.574L818.864 711.039L819.951 711.256C825.198 712.281 830.254 712.948 833.32 714.348C858.314 725.759 932.306 747.4 947.562 774.651C953.674 785.568 991.235 921.031 1011.19 990.14C1011.92 992.666 1012.68 995.13 1013.47 997.534L1013.47 1011.19L1013.25 1012.02C1006.26 1039.31 1015.57 1061.62 1041.19 1078.95C1059.36 1091.24 1078.01 1099.22 1097.15 1102.88C1097.97 1104.21 1098.41 1105.5 1098.41 1106.81C1098.41 1113.47 1068.77 1270.1 1022.65 1277.11C1012.68 1278.63 960.952 1271.19 943.969 1256.78L944.219 1258.34L944.453 1259.83C948.18 1284.03 947.256 1296.6 941.683 1297.56C871.794 1309.51 673.302 1313.2 346.21 1308.63C344.264 1127.56 353.063 1006.97 372.609 946.855C422.597 793.117 477.712 740.607 496.993 736.11C513.883 732.171 572.451 707.857 588.824 701.404C599.511 697.192 601.8 684.562 613.979 684.562Z" fill="#BA98DE"/>
<path fill-rule="evenodd" clip-rule="evenodd" d="M646.669 641.096C648.269 637.789 652.516 638.217 655.319 639.718C663.725 646.127 654.93 658.551 652.604 666.373C646.623 681.545 636.234 696.371 621.892 703.462C623.081 718.544 624.427 733.592 624.924 748.721C643.261 772.443 674.175 781.102 701.618 787.76C744.721 800.193 793.365 774.72 807.913 730.283C791.356 720.471 785.998 694.78 790.938 676.856C791.367 675.597 793.239 675.04 793.904 676.446C798.438 686.172 797.834 698.037 802.988 707.647C852.46 712.586 916.307 732.056 948.717 773.785C963.08 794.663 968.769 821.816 975.844 846.012C990.938 895.895 1002.96 946.787 1017.77 996.721L1019.51 987.273C1024.29 961.246 1028.64 934.867 1025.41 908.399L1025.35 907.132C1024.3 886.072 1017.98 846.935 1033.64 832.716C1047.8 821.426 1068.32 812.354 1086.1 817.558C1117.73 802.877 1145.03 778.154 1178.72 768.525C1189.09 766.299 1204 768.935 1201.55 783.605C1194.76 809.264 1166.32 819.224 1146.87 832.455C1159.34 835.977 1174.53 851.786 1164.79 865.571C1164.71 865.815 1164.63 866.001 1164.56 866.147C1172.46 869.798 1173.56 878.972 1171.63 886.839C1171.43 888.918 1170.9 887.132 1172.08 889.016C1180.99 897.78 1177.05 922.214 1163.62 923.039C1164.5 934.616 1157.37 945.86 1148.34 952.175C1138.61 958.978 1124.54 959.271 1116.48 968.582C1097.56 1003.38 1091.04 1044.45 1088.97 1084.29C1101.44 1089.16 1112.63 1103.72 1101.3 1116.07C1101.08 1116.1 1100.86 1116.13 1100.63 1116.15C1094.06 1134.43 1091.52 1153.92 1088.05 1173.01C1082.71 1205.59 1068.78 1235.5 1051 1262.64C1030.43 1298.57 975.127 1292.87 947.267 1269.69C947.378 1275.77 948.339 1281.82 946.471 1287.69C943.714 1294.04 936.993 1291.3 936.327 1285.05C921.599 1293.69 918.131 1265.17 934.503 1269.7C933.243 1249.08 932.513 1228.44 931.921 1207.79C913.385 1214.05 912.586 1181.97 931.546 1188.38L931.523 1179.52C931.384 1111.52 932.104 1043.3 940.707 975.844C941.502 970.797 942.85 965.917 943.636 960.9C943.72 960.382 944.497 960.53 944.5 961.026C945.831 1055.47 939.913 1150.11 946.088 1244.58C951.228 1246.22 953.277 1252.37 957.083 1255.95C965.532 1264.09 977.038 1268.05 988.289 1269.43C1019.8 1274.04 1033.4 1264 1047.43 1235.44C1041.1 1239.85 1032.55 1232.06 1036.41 1225.08L1036.53 1224.87C1040.53 1217.47 1051.85 1221.9 1050.41 1230.19C1064.52 1206.63 1071.9 1180.06 1077.36 1153.1L1078.09 1149.88C1080.75 1138.44 1084.19 1125.32 1090.55 1114.97C1051.73 1104.65 1013.76 1073.21 1007.69 1030.08C997.832 1062.37 984.481 1093.94 971.755 1125.35C967.825 1136.27 966.188 1148.01 960.554 1158.15C959.244 1160.49 955.922 1159.88 955.181 1157.41C950.115 1133.79 965.467 1111.32 973.438 1090.05C979.947 1078.03 998.631 1023.14 1010.21 1023.01C997.198 963.5 979.837 904.438 963.303 845.672C947.315 766.323 914.735 751.021 845.715 726.038C858.164 792.209 915.002 856.261 884.758 925.666L884.022 927.466C880.929 935.118 878.359 942.829 880.519 951.228C882.615 959.378 887.387 966.454 891.206 973.784C912.549 1015.19 897.857 1063.54 889.605 1106.66C879.18 1157.23 868.882 1207.84 858.107 1258.33C855.983 1268.4 854.606 1278.77 851.398 1288.53C849.741 1293.57 841.479 1293.09 842.013 1287.22C843.032 1275.82 846.101 1264.7 848.349 1253.51C861.766 1181.02 879.921 1109.4 891.464 1036.6C898.889 982.713 869.657 974.432 870.748 939.613C874.721 921.806 885.239 905.914 884.635 886.937C886.973 828.847 846.405 780.923 841.397 724.426L832.554 721.136C828.134 719.486 823.719 717.822 819.319 716.119C842.484 885.095 835.449 1057.76 823.869 1227.57C821.504 1235.41 823.754 1315.52 813.836 1310.66C813.335 1313.72 811.777 1316.73 808.39 1316.71C777.631 1317.01 746.864 1317.51 716.105 1317.9C701.31 1316.47 680.974 1322.37 668.39 1313.46C653.86 1309.14 652.19 1242.72 648.305 1228.09L646.791 1217.45C622.102 1043.61 600.008 866.184 617.754 690.622C593.063 691.611 587.967 719.406 586.136 739.643C581.557 784.309 553.889 822.774 552.562 867.953C552.449 878.914 554.433 889.532 558.634 899.596C569.779 924.252 589.054 952.757 574.648 980.295C557.61 1001.73 559.085 1007.38 565.337 1033.87C582.926 1121.45 612.137 1205.65 639.925 1290.09C633.887 1322.91 597.572 1201.07 594.155 1191.88C578.08 1200.31 569.299 1172.33 587.737 1170.34C575.894 1128.99 564.995 1087.33 555.921 1045.22L555.681 1044.03C551.672 1024.57 543.788 1001.79 557.102 984.529C591.431 948.319 534.422 907.846 541.613 863.98C535.404 868.783 526.004 863.731 526.145 855.665C525.863 846.584 537.559 841.932 543.186 848.861C548.972 813.271 569.103 782.202 575.195 746.718L575.47 745.051C577.534 732.51 578.116 719.314 584.022 707.884C575.983 713.33 567.422 717.732 558.616 721.616C574.36 735.333 543.872 747.851 546.395 726.663C460.054 752.717 440.539 789.051 408.838 872.492C414.759 866.491 424.903 874.256 421.358 881.909C418.531 889.971 406.194 887.614 406.199 879.021L404.754 882.615C385.531 930.557 368.035 979.663 359.242 1030.97C376.49 1028.43 372.099 1057.18 356.472 1049.08C350.2 1094.7 350.101 1140.98 350.867 1186.98C365.416 1179.02 365.854 1206.06 351.008 1198.35C351.55 1236.04 352.346 1273.74 352.945 1311.43C353.066 1319.46 341.201 1319.42 341.014 1311.43C339.628 1253.51 337.102 1195.49 338.303 1137.55C337.173 1037 364.889 940.077 406.184 849.999C442.723 746.281 493.194 734.485 586.053 704.33C594.624 691.059 612.937 678.507 627.878 686.84C636.238 672.766 640.483 656.092 646.669 641.096ZM487.573 1002.58C487.919 1001.3 489.669 1001.62 489.725 1002.88C490.502 1019.15 489.81 1035.53 488.743 1051.87C488.096 1061.84 487.302 1071.81 486.628 1081.71C484.841 1107.85 483.4 1134.02 482.305 1160.21C482.688 1160.04 483.081 1159.89 483.493 1159.78C485.383 1159.24 487.275 1159.24 489.164 1159.78C490.849 1160.27 492.323 1161.13 493.593 1162.37L493.861 1162.64C494.9 1163.64 495.639 1164.83 496.07 1166.21C496.683 1167.43 496.993 1168.74 496.993 1170.14L496.986 1170.49C496.977 1172.5 496.5 1174.37 495.527 1176.11C494.582 1177.77 493.309 1179.1 491.709 1180.1C490.043 1181.1 488.255 1181.6 486.328 1181.61C486.123 1181.63 485.916 1181.65 485.711 1181.66C484.278 1181.72 482.941 1181.41 481.705 1180.73L481.519 1180.67C481.051 1193.96 480.667 1207.25 480.386 1220.54C480.134 1232.13 479.797 1243.72 479.572 1255.3L479.468 1261.1L479.264 1273.9C479.198 1279.17 479.231 1284.21 477.514 1289.18L477.308 1289.75C476.073 1293.07 475.11 1297.69 471.805 1299.53C469.167 1301.01 465.611 1300.46 464.095 1297.59C462.822 1295.19 463.925 1291.74 465.807 1290.12C465.77 1290.01 465.714 1289.91 465.667 1289.8C465.377 1288.92 464.936 1288.1 464.675 1287.21C463.851 1284.4 464.076 1281.4 464.067 1278.48C464.067 1273.33 464.234 1268.17 464.366 1263.03C464.656 1252.08 464.993 1241.14 465.404 1230.2C466.795 1193.49 469.414 1156.79 472.413 1120.19L473.431 1107.84C474.788 1091.41 476.191 1074.96 478.178 1058.62C478.271 1057.84 478.365 1057.06 478.468 1056.28C477.401 1055.72 476.409 1054.95 475.622 1054.09C472.47 1050.64 470.558 1045.48 468.765 1041.03L468.352 1040.02C466.406 1035.27 464.609 1030.47 463.683 1025.38L463.594 1024.91C463.172 1022.74 462.338 1018.89 464.544 1017.84C465.695 1017.3 466.424 1017.69 466.799 1018.89C466.847 1019.04 466.808 1019.22 466.724 1019.36C467.632 1020.81 469.054 1022.17 469.953 1023.51L473.027 1028.1L474.547 1030.4C476.475 1033.36 478.534 1036.19 480.658 1038.98C482.332 1026.72 484.382 1014.51 487.573 1002.58ZM613.658 1275.76C617.504 1272.62 623.764 1274.32 623.764 1280.12C623.764 1285.95 617.494 1287.63 613.658 1284.48L613.467 1284.34L613.284 1284.18C611.194 1282.48 611.124 1278.05 613.126 1276.2L613.284 1276.06C613.404 1275.95 613.527 1275.86 613.658 1275.76ZM446.446 1264.44C448.187 1264.44 449.805 1264.89 451.312 1265.81C451.967 1266.33 452.613 1266.86 453.268 1267.38C454.465 1268.63 455.289 1270.12 455.747 1271.83L456.095 1274.5C456.14 1275.88 455.869 1277.17 455.261 1278.37C454.868 1279.62 454.203 1280.71 453.268 1281.62C452.388 1282.6 451.359 1283.29 450.162 1283.69C449.106 1284.27 447.98 1284.57 446.776 1284.57L446.446 1284.56C444.697 1284.56 443.077 1284.1 441.571 1283.19C440.916 1282.67 440.27 1282.14 439.615 1281.62C438.427 1280.37 437.594 1278.88 437.136 1277.17C437.023 1276.28 436.912 1275.39 436.789 1274.5C436.743 1273.11 437.023 1271.83 437.622 1270.62C438.015 1269.37 438.679 1268.29 439.615 1267.38C440.495 1266.4 441.524 1265.7 442.722 1265.3C443.777 1264.72 444.91 1264.43 446.116 1264.43L446.446 1264.44ZM884.158 1245.87L886.611 1246.21C888.96 1246.77 890.849 1248.58 892.112 1250.64C892.787 1251.74 893.151 1252.93 893.207 1254.21C893.479 1255.48 893.422 1256.76 893.039 1258.03C892.758 1259.28 892.207 1260.38 891.392 1261.3C891.112 1261.76 890.784 1262.18 890.41 1262.55C889.642 1263.89 888.483 1264.77 887.284 1265.67C886.274 1266.34 885.178 1266.7 883.999 1266.76C883.223 1266.97 882.437 1266.97 881.651 1266.76C880.481 1266.7 879.386 1266.34 878.375 1265.67C877.777 1265.19 877.178 1264.7 876.588 1264.22C876.065 1263.59 875.577 1262.93 875.119 1262.25C874.811 1261.5 874.511 1260.76 874.212 1260.01C873.659 1258.23 873.93 1256.65 874.231 1254.86C874.277 1254.56 874.352 1254.29 874.455 1253.99L874.657 1253.43C875.196 1251.94 875.484 1251.44 876.438 1250.15L876.802 1249.64C876.984 1249.39 877.171 1249.14 877.384 1248.92C877.982 1248.27 878.835 1247.74 879.508 1247.18C880.949 1246.31 882.502 1245.88 884.158 1245.87ZM566.766 1239.63C568.123 1239.64 569.397 1239.99 570.575 1240.7L572.11 1241.94C573.045 1242.92 573.691 1244.08 574.056 1245.41C574.14 1246.12 574.235 1246.82 574.327 1247.51C574.365 1248.6 574.15 1249.61 573.672 1250.56C573.374 1251.53 572.849 1252.37 572.11 1253.1C571.427 1253.86 570.612 1254.4 569.677 1254.73C568.86 1255.17 567.981 1255.4 567.048 1255.4L566.766 1255.4C565.4 1255.4 564.128 1255.04 562.948 1254.32L561.414 1253.1C560.478 1252.11 559.832 1250.95 559.467 1249.61C559.383 1248.91 559.29 1248.21 559.196 1247.51C559.159 1246.43 559.374 1245.41 559.851 1244.48C560.16 1243.5 560.675 1242.65 561.414 1241.94C562.097 1241.17 562.911 1240.62 563.847 1240.31C564.664 1239.86 565.526 1239.63 566.454 1239.62L566.766 1239.63ZM504.698 1236.4C506.652 1236.38 508.637 1236.95 510.237 1238.13C511.791 1239.28 512.969 1240.52 513.728 1242.39C513.934 1242.9 514.139 1243.39 514.317 1243.9C515.122 1246.14 515.272 1248.38 514.158 1250.57C513.082 1252.69 510.761 1253.61 508.683 1254.25C506.925 1254.79 504.932 1254.88 503.182 1254.23C502.311 1253.91 501.46 1253.56 500.674 1253.07C499.205 1252.12 498.409 1251 497.427 1249.61C496.659 1248.24 496.276 1246.76 496.276 1245.18C496.276 1243.59 496.659 1242.11 497.427 1240.74C498.932 1238.05 501.722 1236.41 504.698 1236.4ZM405.506 1238.28C407.978 1238.28 410.148 1239.47 411.637 1241.48C413.142 1243.52 413.694 1246.06 413.03 1248.59C412.328 1251.26 410.205 1253.6 407.574 1254.28C405.629 1254.77 404.037 1254.75 402.1 1254.41C400.463 1254.12 399.21 1253.1 397.955 1252.05C396.523 1250.83 396.083 1248.61 396.317 1246.81C396.542 1245.01 397.338 1243.84 398.545 1242.78L398.554 1242.75L398.104 1243.11C398.274 1242.95 398.441 1242.79 398.611 1242.62C398.666 1242.52 398.713 1242.42 398.76 1242.31C399.452 1241.08 400.388 1240.11 401.557 1239.39C402.783 1238.65 404.093 1238.28 405.506 1238.28ZM981.552 1208.72C982.909 1208.33 984.276 1208.33 985.632 1208.72C986.635 1208.96 987.504 1209.44 988.244 1210.15C988.994 1210.66 989.606 1211.31 990.069 1212.12L990.218 1212.39C991.285 1214.29 991.453 1216.45 990.994 1218.56C990.424 1221.17 988.122 1223.54 985.632 1224.15L985.549 1224.17L985.465 1224.2C984.454 1224.53 983.433 1224.58 982.424 1224.33C981.403 1224.28 980.458 1223.97 979.588 1223.38C978.484 1222.64 977.558 1221.69 976.846 1220.53C976.284 1219.62 975.986 1218.63 975.938 1217.57C975.761 1216.86 975.761 1216.16 975.938 1215.46C975.986 1214.39 976.284 1213.41 976.846 1212.49L978.043 1210.88L978.166 1210.77C979.12 1209.78 980.252 1209.09 981.552 1208.72ZM887.34 1157.06C899.608 1157.06 899.589 1176.92 887.34 1176.92C875.073 1176.92 875.091 1157.06 887.34 1157.06ZM438.192 1154.55C439.484 1154.25 440.776 1154.31 442.058 1154.73C442.834 1155.07 443.602 1155.41 444.369 1155.74L446.334 1157.33C446.699 1157.65 446.877 1158 447.214 1158.46L447.635 1159.03C448.244 1159.88 448.258 1160.06 448.926 1161.88C449.375 1163.61 449.375 1165.35 448.926 1167.09C448.71 1167.93 448.383 1168.72 447.962 1169.45C447.577 1170.15 447.117 1170.77 446.598 1171.34L446.334 1171.62C445.454 1172.6 444.416 1173.29 443.218 1173.7C442.46 1174.16 441.646 1174.39 440.776 1174.39C439.484 1174.69 438.192 1174.63 436.911 1174.21C436.134 1173.87 435.367 1173.53 434.599 1173.2L432.635 1171.62L431.119 1169.57L430.635 1168.36L430.145 1167.16L429.799 1164.47C429.752 1163.08 430.024 1161.79 430.631 1160.58C430.865 1159.73 431.278 1158.98 431.876 1158.35C432.307 1157.59 432.886 1156.99 433.617 1156.54C434.215 1155.91 434.936 1155.48 435.751 1155.24C436.509 1154.78 437.323 1154.55 438.192 1154.55ZM1044.96 1140.37C1045.98 1140.33 1046.93 1140.56 1047.81 1141.05C1048.12 1141.15 1048.42 1141.29 1048.71 1141.45C1049.84 1142.14 1050.74 1143.08 1051.41 1144.25C1051.95 1145.15 1052.25 1146.11 1052.3 1147.16C1052.5 1148.1 1052.48 1149.05 1052.24 1149.99L1052.16 1150.27C1051.95 1151.04 1051.64 1151.75 1051.23 1152.41C1051.19 1152.49 1051.15 1152.56 1051.09 1152.63C1050.46 1153.67 1049.63 1154.52 1048.6 1155.15C1047.46 1155.83 1046.23 1156.18 1044.9 1156.2C1042.26 1156.2 1039.97 1154.7 1038.58 1152.41C1038.38 1152.08 1038.27 1151.68 1038.13 1151.34C1038.01 1151.03 1037.81 1150.63 1037.71 1150.27C1037.35 1148.88 1037.35 1147.5 1037.71 1146.11C1037.94 1145.1 1038.38 1144.21 1039.05 1143.46C1039.58 1142.61 1040.28 1141.94 1041.15 1141.45C1042.23 1140.79 1043.39 1140.44 1044.62 1140.38L1044.96 1140.37ZM526.996 1130.66C528.292 1130.29 529.58 1130.26 530.868 1130.58L531.189 1130.66C532.218 1130.92 533.108 1131.4 533.874 1132.13C534.726 1132.71 535.41 1133.48 535.905 1134.44C536.617 1135.72 536.972 1137.1 536.981 1138.59C536.972 1140.07 536.617 1141.46 535.905 1142.73C535.203 1143.97 534.258 1144.95 533.07 1145.68L532.041 1146.2C531.18 1146.77 530.263 1147.07 529.27 1147.12C528.607 1147.3 527.941 1147.3 527.287 1147.12C526.613 1147.12 525.986 1146.94 525.406 1146.59C524.77 1146.41 524.226 1146.07 523.758 1145.58C522.944 1145.04 522.309 1144.32 521.841 1143.41L521.082 1141.54L520.821 1139.47L521.082 1137.42L521.495 1136.4C521.868 1135 522.543 1133.79 523.525 1132.77C524.507 1131.75 525.667 1131.05 526.996 1130.66ZM991.061 1114.2C992.426 1113.75 993.784 1113.69 995.14 1114C996.057 1114 996.917 1114.25 997.714 1114.73C998.584 1114.99 999.332 1115.43 999.969 1116.1C1001.08 1116.85 1001.95 1117.85 1002.6 1119.09L1003.63 1121.63C1004.24 1123.28 1004.02 1125.71 1003.65 1127.37C1003.34 1128.74 1002.74 1129.93 1001.85 1130.94C1001.4 1131.73 1000.8 1132.36 1000.04 1132.83C999.177 1133.65 998.177 1134.24 997.044 1134.58L996.731 1134.67L996.619 1134.7C996.599 1134.71 996.582 1134.71 996.563 1134.71C996.553 1134.72 996.534 1134.72 996.524 1134.72C996.076 1134.84 995.618 1134.91 995.14 1134.93C993.784 1135.24 992.426 1135.18 991.061 1134.73C990.256 1134.38 989.442 1134.02 988.628 1133.66C987.935 1133.11 987.251 1132.55 986.56 1132C986.026 1131.28 985.493 1130.55 984.959 1129.84C984.21 1128.62 983.808 1127.29 983.752 1125.88C983.508 1124.93 983.508 1124 983.752 1123.05C983.752 1122.08 983.986 1121.19 984.444 1120.36C984.856 1119.04 985.558 1117.9 986.56 1116.93C987.251 1116.37 987.935 1115.82 988.628 1115.27C989.442 1114.91 990.256 1114.55 991.061 1114.2ZM394.231 1079.25C395.643 1078.85 397.057 1078.85 398.47 1079.25L400.369 1080.08C401.304 1080.61 402.045 1081.32 402.606 1082.23C403.317 1083.03 403.793 1083.98 404.037 1085.06C404.59 1086.54 404.524 1088.9 404.084 1090.41C403.589 1092.13 402.821 1093.49 401.633 1094.78C399.658 1096.91 396.626 1097.53 393.941 1096.88C393.201 1096.71 392.499 1096.36 391.862 1095.94C389.833 1094.64 388.467 1092.35 388.476 1089.82C388.476 1089.55 388.495 1089.28 388.532 1089.01C388.401 1088.45 388.353 1087.87 388.373 1087.27L388.654 1085.06L388.672 1085C389.047 1083.61 389.721 1082.4 390.702 1081.37C391.61 1080.43 392.668 1079.76 393.878 1079.35L394.184 1079.25H394.231ZM1100.35 860.087C1097.79 838.227 1088.18 814.708 1058.87 827.545L1056.69 828.396C1049.43 831.26 1040.98 835.023 1036.57 841.639C1033.53 846.197 1034.55 855.03 1034.13 860.35C1032.22 877.645 1033.25 894.916 1035.24 912.138C1037.81 952.506 1029.67 994.331 1013.47 1031.02C1029.69 1058.38 1051.39 1083.9 1080.99 1095.31C1082.24 1064.2 1088.08 1033.66 1094.29 1003.3L1094.54 1001.98C1097.02 988.286 1098.27 974.237 1106.89 962.852C1124.42 942.996 1148.54 954.234 1160.08 922.337C1157.65 921.059 1158.99 916.686 1161.91 917.527C1172.03 919.4 1173.68 899.831 1166.75 895.116C1159.53 890.526 1166.8 882.058 1163.73 875.946C1162.01 873.311 1158.32 873.224 1156.64 870.187C1152.2 859.012 1174.43 851.851 1148.29 839.254C1142.94 837.269 1136.96 838.5 1131.57 838.478C1123.63 839.251 1117.32 845.084 1110.06 846.918C1117.96 868.263 1098.02 888.818 1080.02 871.769C1070.23 881.425 1059.28 903.436 1083.08 893.175C1094.74 885.063 1104.77 874.577 1118.3 869.582L1118.58 869.489C1123.6 867.773 1145.58 856.637 1144.49 866.275C1136.26 874.561 1122.68 874.463 1113.15 881.189C1099.93 887.563 1091.48 903.01 1075.66 902.796C1072.01 925.896 1097.15 911.841 1106.51 905.471L1109.1 904.002C1122.3 896.564 1135.7 889.673 1151.09 889.582C1155.34 889.553 1155.32 896.385 1151.09 896.443C1131.03 896.574 1114.7 909.654 1097.9 919.379C1096.24 932.863 1115.17 926.96 1122.36 924.971C1129.89 923.867 1141.99 915.37 1148.58 919.858C1151.16 926.768 1139.81 926.253 1135.86 928.35C1153.89 937.384 1138.09 943.073 1133.26 929.189L1131.84 929.692C1119.77 933.925 1090.48 942.638 1093.97 921.303C1089.55 923.343 1084.16 924.563 1079.27 923.431C1067.1 942.219 1047.67 934.949 1075.91 922.142C1069.54 919.055 1067.42 907.136 1073.53 902.7C1051.3 901.284 1067.8 876.961 1077 868.855C1076.14 867.939 1075.29 867.005 1074.51 866.059C1069.21 868.695 1063.63 870.295 1057.67 870.862C1051.96 871.397 1050.69 861.267 1056.32 860.438C1062.36 859.549 1067.92 857.871 1073.23 854.707C1081.28 851.079 1084.03 866.668 1092.1 867.221C1096.49 868.129 1099.47 864.107 1100.35 860.087ZM913.215 1061.24C915.161 1061.24 916.891 1062.09 918.304 1063.43C919.717 1064.78 920.326 1066.8 920.41 1068.73C920.447 1069.77 920.241 1070.73 919.792 1071.63C919.502 1072.56 919.006 1073.36 918.304 1074.04C916.994 1075.4 915.057 1076.24 913.215 1076.24C911.268 1076.24 909.537 1075.39 908.123 1074.04C906.711 1072.68 906.102 1070.67 906.018 1068.73C905.98 1067.71 906.187 1066.74 906.635 1065.84C906.896 1065.01 907.324 1064.27 907.919 1063.64L908.123 1063.43C909.434 1062.07 911.37 1061.24 913.215 1061.24ZM972.192 1014.95L972.504 1014.95C974.151 1014.96 975.677 1015.39 977.098 1016.25C977.716 1016.75 978.334 1017.24 978.943 1017.74C980.074 1018.92 980.851 1020.32 981.282 1021.93C981.722 1023.61 981.722 1025.3 981.282 1026.98C981.133 1027.94 980.786 1028.88 980.244 1029.69C979.438 1031.09 978.372 1032.21 977.024 1033.04C975.629 1033.89 974.123 1034.31 972.504 1034.32C970.886 1034.31 969.378 1033.89 967.984 1033.04C966.637 1032.21 965.57 1031.09 964.774 1029.69C964.222 1028.88 963.876 1027.94 963.726 1026.98C963.287 1025.3 963.287 1023.61 963.726 1021.93C964.126 1020.44 964.824 1019.13 965.829 1017.99L966.066 1017.74C966.889 1016.81 967.862 1016.15 968.995 1015.77C969.99 1015.23 971.056 1014.95 972.192 1014.95ZM522.093 1015.47C522.786 1015.27 523.469 1015.27 524.161 1015.47C525.191 1015.52 526.154 1015.84 527.044 1016.43C527.568 1016.86 528.092 1017.28 528.616 1017.7L529.073 1018.27C530.049 1019.51 530.074 1019.72 530.823 1021.61C531.133 1022.66 531.18 1023.72 530.955 1024.77C530.955 1025.48 530.777 1026.15 530.44 1026.76C530.253 1027.44 529.935 1028.02 529.458 1028.51C529.12 1029.1 528.672 1029.58 528.1 1029.94C527.371 1030.63 526.51 1031.11 525.518 1031.35L523.506 1031.63C523.244 1031.59 522.973 1031.56 522.711 1031.53C522.395 1031.52 522.088 1031.48 521.788 1031.42L521.484 1031.35L521.208 1031.27C520.841 1031.16 520.484 1031.01 520.138 1030.82C519.483 1030.63 518.912 1030.29 518.424 1029.78C517.583 1029.21 516.909 1028.45 516.423 1027.5L516.292 1027.19C516.114 1026.86 515.964 1026.52 515.851 1026.15C515.534 1025.56 515.375 1024.94 515.365 1024.26C515.179 1023.37 515.192 1022.48 515.414 1021.59L515.496 1021.3L516.217 1019.51C516.591 1018.91 516.984 1018.29 517.489 1017.79C517.793 1017.51 518.535 1016.91 518.954 1016.6L519.21 1016.43C520.1 1015.84 521.064 1015.52 522.093 1015.47ZM421.377 998.185C425.166 1002.14 423.492 1009.4 418.187 1010.8L417.578 1010.96C412.45 1012.32 407.827 1007.49 409.128 1002.14L409.278 1001.51C410.625 995.979 417.587 994.232 421.377 998.185ZM1051.56 956.371C1051.52 955.825 1052.19 955.63 1052.53 955.952C1057.04 960.169 1059.91 965.225 1065.39 968.493C1070.89 971.774 1076.56 971.509 1082.3 973.627C1084.24 974.35 1084.25 977.064 1082.3 977.776C1071.44 981.729 1052.38 968.328 1051.56 956.371ZM541.519 955.513C542.727 955.122 543.944 955.064 545.151 955.347C545.975 955.347 546.741 955.562 547.443 955.99C548.219 956.215 548.885 956.625 549.455 957.21C550.139 957.631 550.681 958.207 551.092 958.918C551.898 959.837 552.441 960.91 552.72 962.14L553.039 964.668L552.72 967.196C552.412 967.946 552.103 968.709 551.803 969.46L550.967 970.642C550.29 971.585 550.181 971.595 548.538 972.867C547.491 973.559 546.358 973.94 545.151 973.989C544.345 974.223 543.541 974.223 542.727 973.989C541.913 973.989 541.145 973.774 540.435 973.345C539.667 973.12 538.994 972.71 538.422 972.125C537.431 971.451 536.654 970.563 536.083 969.46C535.774 968.709 535.466 967.946 535.167 967.196L534.838 964.668L535.167 962.14L535.184 962.062C535.615 960.481 536.383 959.105 537.486 957.942L539.303 956.478C540.013 956.001 540.752 955.757 541.519 955.513ZM978.344 957.406C980.935 956.664 983.78 957.444 985.679 959.427C987.579 961.408 988.328 964.365 987.617 967.069C986.915 969.704 984.885 971.841 982.349 972.554C981.591 972.768 980.823 972.886 980.047 972.847C978.745 972.838 977.529 972.495 976.397 971.813L974.937 970.631C974.225 969.948 973.73 969.138 973.439 968.201C972.981 967.303 972.775 966.337 972.812 965.293L972.804 965.107C972.775 964.736 972.822 964.365 972.935 964.004C972.935 963.623 972.991 963.252 973.085 962.891C973.768 960.256 975.826 958.128 978.344 957.406ZM419.543 930.976C420.376 930.946 421.153 931.121 421.873 931.522C422.631 931.775 423.277 932.205 423.82 932.829C424.418 933.396 424.83 934.079 425.073 934.86C425.457 935.612 425.626 936.422 425.597 937.29C425.597 938.432 425.317 939.496 424.774 940.472C424.456 940.902 424.138 941.331 423.82 941.75C423.071 942.541 422.182 943.078 421.153 943.38L420.554 943.595C419.674 943.927 418.813 943.947 417.896 943.821C416.932 943.683 416.042 943.41 415.257 942.785C414.489 942.317 413.882 941.682 413.433 940.882L412.918 939.613C412.806 939.184 412.759 938.54 412.731 938.09C412.731 938.022 412.731 937.964 412.721 937.895C412.721 937.514 412.834 936.588 412.926 936.207C413.133 935.406 413.553 934.645 414.031 934.001C414.443 933.328 415.005 932.8 415.697 932.41L415.759 932.361L415.828 932.312C416.042 932.156 416.268 932 416.493 931.833C417.428 931.268 418.448 930.976 419.543 930.976ZM902.762 924.045C904.259 924.045 905.654 924.445 906.945 925.226C906.991 925.245 907.038 925.265 907.075 925.286C908.311 926.046 909.293 927.072 910.024 928.359C910.772 929.696 911.146 931.142 911.146 932.684C911.146 934.235 910.772 935.67 910.024 937.007C909.293 938.296 908.311 939.32 907.075 940.082C907.038 940.111 906.991 940.129 906.945 940.15C905.654 940.931 904.259 941.321 902.762 941.331C901.274 941.321 899.88 940.931 898.588 940.15C896.062 938.608 894.48 935.728 894.48 932.684C894.48 929.637 896.062 926.759 898.588 925.226C899.88 924.445 901.274 924.045 902.762 924.045ZM514.156 912.759L514.411 912.753C515.403 912.713 516.328 912.928 517.18 913.407C518.069 913.709 518.846 914.227 519.502 914.959L520.868 916.149L521.264 916.484C521.33 916.541 521.394 916.599 521.456 916.658C522.374 917.623 523.001 918.755 523.357 920.063C523.469 920.815 523.562 921.556 523.638 922.308C523.843 924.26 522.739 926.262 521.523 927.648C520.868 928.38 520.09 928.896 519.193 929.208C518.332 929.678 517.396 929.892 516.403 929.853C514.373 929.668 512.446 929.218 510.986 927.578C510.817 927.383 510.658 927.178 510.49 926.973L509.321 925.568C508.432 924.632 507.813 923.528 507.477 922.259C507.383 921.586 507.299 920.922 507.215 920.258C507.13 918.257 508.066 916.383 509.321 914.959C510.479 913.639 512.444 912.833 514.156 912.759ZM466.921 892.207C476.652 892.207 476.634 907.951 466.921 907.951C457.198 907.951 457.217 892.207 466.921 892.207ZM956.214 870.134L956.521 870.139C958.131 870.149 959.637 870.569 961.032 871.418L962.846 872.872C963.952 874.043 964.718 875.41 965.149 876.991C965.251 877.82 965.355 878.65 965.467 879.47C965.514 880.758 965.251 881.959 964.691 883.072C964.335 884.223 963.718 885.228 962.846 886.078C962.033 886.986 961.078 887.63 959.965 888.001C958.898 888.586 957.747 888.86 956.521 888.811C954.903 888.8 953.395 888.381 952.001 887.532C951.394 887.044 950.795 886.556 950.186 886.078C949.167 884.997 948.435 883.749 947.997 882.32L947.894 881.959L947.566 879.47C947.52 878.192 947.781 876.991 948.342 875.878C948.699 874.717 949.316 873.721 950.186 872.872C951.001 871.963 951.964 871.319 953.069 870.949C954.046 870.413 955.095 870.137 956.214 870.134ZM912.381 840.663C913.251 840.633 914.056 840.819 914.815 841.229C915.591 841.492 916.264 841.951 916.835 842.585C918.043 843.591 918.782 845.601 918.782 847.231C918.782 848.861 918.043 850.873 916.835 851.877C916.049 852.687 915.123 853.253 914.056 853.566L912.381 853.801C910.753 853.879 909.096 852.991 907.936 851.877C907.702 851.654 907.478 851.429 907.244 851.213C906.187 850.198 905.729 848.685 905.662 847.231C905.634 846.461 905.794 845.739 906.13 845.065C906.346 844.363 906.72 843.766 907.244 843.249C907.478 843.034 907.702 842.811 907.936 842.585C909.2 841.365 910.678 840.751 912.381 840.663ZM1190.1 788.162C1196.25 780.35 1192.67 774.79 1183.42 776.722C1167.51 778.968 1152.53 789.46 1138.51 796.985C1123.21 805.414 1107.44 812.366 1091.83 820.286C1098.27 824.409 1103.06 830.866 1106.72 838.233C1114.02 832.448 1123.36 829.682 1132.47 829.322C1149.01 812.805 1176.39 809.023 1190.1 788.162ZM463.647 814.096C465.314 814.104 466.876 814.513 468.34 815.329L468.652 815.511L470.654 817.131C471.628 818.068 472.311 819.179 472.713 820.459C473.331 821.689 473.611 823.026 473.565 824.451C473.611 825.876 473.331 827.203 472.713 828.433C472.311 829.722 471.628 830.824 470.654 831.761C470.102 832.513 469.391 833.099 468.54 833.529C467.743 833.87 466.958 834.221 466.163 834.572C465.274 834.865 464.244 834.904 463.281 834.953C461.531 834.943 459.903 834.485 458.386 833.567L456.422 831.987C455.476 831.068 454.802 829.985 454.409 828.726C453.852 827.617 453.57 826.434 453.57 825.169L453.577 824.822C453.577 824.745 453.577 824.656 453.587 824.568C453.698 823.651 453.821 822.733 453.941 821.817C454.251 820.469 454.84 819.288 455.72 818.292C455.944 817.824 456.244 817.443 456.628 817.131C457.863 815.842 459.321 814.964 461.007 814.465C461.886 814.349 462.766 814.221 463.647 814.096ZM898.12 788.24C899.383 788.24 900.553 788.572 901.639 789.226C902.116 789.608 902.583 789.987 903.051 790.368C903.923 791.276 904.521 792.349 904.848 793.579L905.102 795.511C905.129 796.517 904.932 797.444 904.492 798.314C904.213 799.211 903.734 799.992 903.051 800.655C902.424 801.367 901.677 801.866 900.806 802.158C899.982 802.617 899.084 802.822 898.12 802.784C896.866 802.784 895.687 802.451 894.601 801.788C894.134 801.417 893.656 801.036 893.188 800.655C892.399 799.823 891.83 798.852 891.489 797.748L891.401 797.444L891.149 795.511C891.112 794.506 891.308 793.579 891.747 792.71C892.028 791.804 892.516 791.022 893.188 790.368C893.825 789.654 894.574 789.158 895.435 788.865C896.184 788.452 896.986 788.245 897.835 788.236L898.12 788.24ZM518.342 777.664L518.668 777.67C520.53 777.679 522.262 778.167 523.871 779.143C524.564 779.701 525.257 780.257 525.948 780.823C527.23 782.159 528.11 783.74 528.607 785.566L528.971 788.416C529.027 789.899 528.728 791.275 528.082 792.554C527.671 793.892 526.959 795.043 525.948 796.019C525.023 797.064 523.918 797.805 522.636 798.235C521.41 798.908 520.091 799.221 518.668 799.162C516.806 799.162 515.075 798.674 513.465 797.698C512.774 797.141 512.081 796.576 511.38 796.019C510.106 794.672 509.226 793.091 508.73 791.275L508.366 788.416C508.309 786.942 508.609 785.557 509.254 784.277C509.666 782.951 510.377 781.788 511.38 780.823C512.315 779.769 513.419 779.026 514.701 778.597C515.832 777.975 517.043 777.669 518.342 777.664ZM864.836 750.829C865.687 750.594 866.538 750.594 867.389 750.829C868.662 750.887 869.851 751.287 870.956 752.019L872.893 753.582C872.92 753.61 872.949 753.64 872.977 753.679C874.146 754.908 874.96 756.364 875.409 758.033L875.747 760.658C875.793 762.015 875.522 763.283 874.933 764.455C874.581 765.581 874 766.561 873.2 767.408L872.893 767.724C872.021 768.7 871.001 769.393 869.813 769.793C869.065 770.252 868.25 770.477 867.389 770.477C866.118 770.779 864.836 770.721 863.562 770.3C862.805 769.959 862.037 769.627 861.27 769.296L861.026 769.149C858.135 767.5 856.347 764.045 856.347 760.658C856.347 757.27 858.135 753.805 861.026 752.156C861.111 752.118 861.185 752.068 861.27 752.019C862.375 751.287 863.562 750.887 864.836 750.829Z" fill="#05051A"/>
<path d="M797.449 668.266C796.513 657.041 793.238 618 793.238 618L774.055 727.804L807.742 731.708C807.742 731.708 798.385 679.49 797.449 668.266Z" fill="#FBD4C5"/>
<path d="M806.34 690.714C851.101 695.269 940.501 726.417 954.191 741.468C971.503 760.501 1000.82 912.924 1022.5 992.796C1043.24 1022.73 1088.94 1061.8 1092.68 1029.4C1095.02 1010.85 1106.72 1022.57 1110.93 1031.35C1114.3 1038.38 1109.22 1093.98 1103.45 1117.73C1097.05 1162.95 1076.68 1259.84 1046.36 1285.61C1008.93 1317.42 952.773 1280.19 945.546 1265.64C950.444 1276.55 947.45 1292.22 945.301 1298.78C910.678 1305.13 831.887 1317.62 793.708 1316.84C755.529 1316.06 482.099 1312.93 350.156 1311.47C347.687 1250.73 338.69 1171.14 343.606 1086.98C351.419 953.208 377.865 816.091 396.476 786.854C426.795 739.223 532.786 700.637 595.794 690.714L664.105 754.644L725.397 741.468C733.351 744.233 745.516 757.182 730.544 786.854C715.572 816.525 752.378 823.292 772.653 822.967C788.873 800.193 819.816 749.471 813.827 728.78C807.838 708.088 806.34 694.781 806.34 690.714Z" fill="#05051A"/>
<path fill-rule="evenodd" clip-rule="evenodd" d="M645.858 633.796C649.828 623.389 663.25 627.434 661.754 638.368C660.858 644.917 660.83 649.86 659.427 658.685C658.023 667.51 657.774 668.938 653.884 672.44C660.808 679.179 667.996 685.671 675.366 691.836C683.408 698.562 691.864 704.761 700.605 710.459C708.27 715.457 716.281 719.884 723.506 725.586C730.224 730.887 736.344 737.262 739.458 745.585C742.776 754.448 741.334 763.6 738.891 772.457L738.61 773.458C736.115 782.233 731.794 792.81 737.785 801.077C740.835 805.286 745.268 808.267 749.097 811.631C752.499 814.622 755.693 817.874 758.622 821.367C765.008 828.982 770.203 837.55 773.481 847.098L773.774 847.965C776.583 856.417 778.637 866.771 774.84 875.069C773.751 877.448 770.238 876.675 769.628 874.359C768.249 869.111 768.321 863.616 767.164 858.295C765.961 852.761 763.958 847.508 761.343 842.538C756.282 832.923 749.429 824.711 741.332 817.767L738.908 815.711C732.592 810.304 726.788 804.569 725.506 795.62C724.134 786.046 727.812 776.926 730.176 767.865C731.824 761.55 732.362 755.496 730.582 749.79C728.406 753.494 725.438 757.009 723.09 760.145C718.414 766.393 713.694 772.602 708.986 778.824C704.159 785.203 699.452 791.683 694.968 798.331C692.963 801.305 690.979 804.296 689.002 807.291C687.515 809.541 685.441 811.79 683.821 814.086C684.214 815.314 684.185 816.729 683.471 817.734C674.876 829.847 662.648 804.573 659.459 798.188C652.965 785.184 648.132 771.37 641.616 758.369C634.864 744.892 627.176 731.774 618.607 719.47C613.424 712.028 607.615 705.038 602.873 697.359C601.28 694.779 600.119 692.557 600.119 692.557C599.709 691.779 599.312 690.992 598.93 690.197L598.696 690.402C598.656 690.435 598.615 690.467 598.573 690.498C597.301 691.417 595.428 690.965 594.38 689.933C591.421 687.021 592.423 683.788 594.398 680.767L594.656 680.383C597.072 676.853 599.227 673.12 601.457 669.462L602.853 667.174C606.596 661.063 610.529 654.911 615.52 649.86C617.832 647.519 620.362 645.768 623.043 644.463C622.814 643.957 624.824 642.924 625.393 643.444C633.887 640.202 634.832 638.749 644.092 639.643" fill="#05051A"/>
<path fill-rule="evenodd" clip-rule="evenodd" d="M799.368 666.071C799.928 665.774 800.466 665.964 800.825 666.47C801.337 667.19 801.274 667.891 800.647 668.385C801.484 670.17 802.474 674.642 802.615 675.293C803.188 677.932 803.797 680.556 804.434 683.177C805.72 688.465 806.846 693.793 808.133 699.082C809.497 704.688 811.123 710.235 812.932 715.702C813.048 716.056 813.177 716.417 813.311 716.784L813.517 717.338L813.568 717.254C813.936 716.647 814.701 717.071 814.61 717.711C814.526 718.295 814.413 718.876 814.318 719.459L814.507 719.982C815.69 723.304 816.501 726.802 814.33 729.733C813.517 730.829 812.624 731.478 811.51 731.672C809.725 737.811 807.485 743.836 805.086 749.622L804.383 751.312C800.855 759.754 797.093 768.086 791.476 775.274C785.343 783.121 776.907 788.48 771.564 797.078C769.079 801.078 767.35 805.284 765.946 809.801L765.418 811.516C764.422 814.71 763.272 817.807 760.399 819.681C759.482 820.279 758.108 820.088 757.369 819.273C751.476 812.772 757.645 800.632 761.198 794.338C766.137 785.585 773.285 779.985 780.443 773.381C788.158 766.263 793.079 756.741 797.84 747.36C800.756 741.613 803.57 735.743 806.534 729.97C803.438 727.116 802.447 721.446 801.398 717.505L801.302 717.152C799.568 710.841 798.191 704.366 797.32 697.863C796.483 691.61 796.133 685.447 796.355 679.159L796.419 677.557" fill="#05051A"/>
<path fill-rule="evenodd" clip-rule="evenodd" d="M810.88 695.832C810.196 694.854 811.328 693.747 812.266 693.951C817.973 695.181 823.552 698.784 828.674 701.697L829.221 702.007C833.309 704.306 837.423 707.123 839.569 711.59C841.904 716.446 841.712 722.038 841.393 727.314L841.363 727.808C840.973 734.136 840.91 740.71 839.626 746.924C838.969 750.104 836.208 751 833.847 750.248C831.038 759.5 823.147 766.316 817.382 773.617C810.033 782.925 811.416 795.491 812.184 806.701C812.495 811.239 807.082 812.53 804.295 810.108L797.87 804.543C796.801 803.614 795.732 802.683 794.667 801.748C793.754 800.947 792.85 800.14 791.953 799.323L790.613 798.089C790.019 797.535 787.398 794.481 786.631 794.354C784.775 794.046 780.365 799.149 778.855 800.749L778.664 800.949C775.823 803.855 773.256 806.981 770.865 810.296C770.426 810.906 769.566 810.4 769.88 809.696C772.022 804.91 774.513 800.333 777.471 796.05L778.069 795.197C780.037 792.431 782.679 787.547 786.152 786.73C790.393 785.733 794.629 790.17 797.715 792.632L797.91 792.786C799.378 793.935 800.83 795.105 802.278 796.282C802.127 787.936 803.137 779.503 807.269 772.31C810.182 767.238 814.546 763.481 818.281 759.122C822.438 754.268 824.609 748.303 828.373 743.248C828.858 742.598 829.526 742.248 830.249 742.136C830.394 738.072 830.967 733.968 831.411 729.948L831.539 728.745C831.988 724.377 833.047 719.042 830.997 714.952C829.06 711.088 824.616 708.361 821.326 705.74L818.639 703.566" fill="#05051A"/>
<path fill-rule="evenodd" clip-rule="evenodd" d="M625.679 649.648C623.961 650.684 622.356 651.974 620.899 653.585C616.312 658.66 613.034 664.975 609.843 671.049C608.125 674.321 606.468 677.629 604.736 680.893C603.983 682.313 603.208 683.717 602.425 685.12C602.063 685.766 600.987 687.05 600.453 687.842C601.046 688.708 601.659 689.561 602.284 690.405C602.522 690.727 618.974 709.419 624.708 716.735C633.489 727.94 641.338 739.777 648.049 752.446C654.62 764.852 659.622 777.987 665.709 790.634C668.756 796.965 672.159 803.252 676.496 808.731C676.664 808.945 676.84 809.147 677.012 809.358C678.667 804.694 682.909 799.7 684.992 796.832L685.186 796.561C689.911 789.918 694.901 783.476 699.999 777.142C704.655 771.359 709.43 765.7 714.32 760.135L716.159 758.053C719.566 754.214 723.894 748.47 728.882 745.728C728.348 744.734 727.729 743.751 727.018 742.781C722.345 736.412 715.739 731.789 709.22 727.618L704.993 724.936C689.059 714.808 673.373 704.211 659.54 691.051C652.221 684.088 645.004 676.794 638.852 668.673L636.677 665.801" fill="#05051A"/>
<path d="M736.158 781.177C741.521 764.395 741.616 752.872 740.369 748.968C740.369 748.968 755.341 747.016 772.185 739.208C789.028 731.399 803.065 723.591 803.065 723.591C804 726.031 805.56 728.797 806.808 729.935C803.849 735.337 795.587 753.111 789.028 763.12C780.606 775.974 775.907 776.785 768.909 784.593C752.814 802.552 755.809 813.874 756.744 819.242C751.598 812.898 728.204 806.066 736.158 781.177Z" fill="#FBD4C5"/>
<path fill-rule="evenodd" clip-rule="evenodd" d="M748.743 879.407C750.71 862.984 768.53 869.907 762.237 872.643C762.11 872.785 761.978 872.925 761.839 873.066C769.036 873.795 768.531 882.611 767.73 888.25C764.906 900.875 746.611 889.389 748.743 879.407Z" fill="#FBD4C5"/>
<path fill-rule="evenodd" clip-rule="evenodd" d="M751.168 1004.07C747.989 990.038 767.293 987.702 767.405 1002.36C768.028 1008.52 762.64 1012.53 761.278 1017.89C760.991 1021.37 756.89 1023.83 754.265 1020.92C749.885 1016.06 748.944 1009.46 751.168 1004.07Z" fill="#FBD4C5"/>
<path fill-rule="evenodd" clip-rule="evenodd" d="M751.446 1098.16C768.683 1092.37 764.388 1125.11 753.016 1129.58C746.145 1133.14 743.79 1124.23 745.044 1118.79C740.581 1111.72 744.669 1102.41 751.446 1098.16Z" fill="#FBD4C5"/>
<path fill-rule="evenodd" clip-rule="evenodd" d="M750.442 1224.83C759.883 1215.34 772.531 1232.63 755.413 1244.84C752.307 1250.78 743.818 1246.59 745.262 1240.38L745.244 1239.33C745.118 1233.93 744.606 1227.25 750.442 1224.83Z" fill="#FBD4C5"/>
<path fill-rule="evenodd" clip-rule="evenodd" d="M894.673 463.003C892.525 444.088 895.305 404.552 895.492 402.15C896.669 386.965 889.569 327.002 876.148 332.527C853.633 314.666 823.646 310.722 795.605 308.838C737.36 304.924 675.399 313.909 630.424 353.189C608.182 373.588 586.529 403.257 588.269 434.149C568.061 463.431 539.572 503.598 564.751 537.831C573.309 548.768 586.912 552.841 597.663 561.124C619.289 578.604 632.857 603.69 654.688 621.066C712.526 673.149 810.736 684.029 867.561 624.789C911.504 581.885 904.398 517.699 896.669 463.003C891.473 426.23 898.864 499.904 894.673 463.003Z" fill="#FBD4C5"/>
<path fill-rule="evenodd" clip-rule="evenodd" d="M717.798 228.625C733.375 225.475 749.37 223.515 765.278 224.105L766.504 224.153C778.473 224.632 793.631 225.693 804.072 232.667C804.672 232.063 805.638 231.753 806.514 232.172C818.922 238.107 832.569 242.398 845.634 246.662C858.638 250.905 872.13 253.706 885.76 254.835C890.888 255.26 895.277 260.809 892.03 265.786C891.257 266.972 890.505 268.17 889.755 269.371C891.009 269.24 892.262 269.105 893.516 268.978C897.64 268.562 901.76 272.973 901.516 276.997C901.363 279.528 901.091 282.029 900.687 284.5C902.258 284.467 903.82 284.703 905.329 285.342C912.968 288.575 912.437 297.694 911.865 304.632C911.072 314.26 907.479 324.458 900.807 331.664C905.789 336.849 909.315 343.041 911.419 350.395C912.944 355.765 913.794 361.485 913.375 367.075L913.241 368.749C912.723 374.815 911.692 381.531 907.337 385.895C905.102 388.145 902.348 388.965 899.722 388.705C901.31 402.685 902.328 416.745 903.286 430.755L903.735 437.451C905.872 469.831 907.478 502.422 907.058 534.855C906.668 565.165 900.691 594.585 882.141 619.195C865.245 641.605 840.988 658.125 813.546 664.405C798.757 667.795 783.659 668.035 768.69 665.875C761.435 664.825 754.131 663.215 747.245 660.675C739.622 657.855 734.143 653.705 729.014 647.485C726.588 644.535 727.756 638.255 732.587 638.845C739.893 639.733 746.562 640.803 753.566 642.968L754.569 643.285C761.546 645.525 768.77 647.195 776.064 647.905C791.003 649.355 806.17 647.895 820.481 643.355C843.782 635.955 863.849 619.465 876.712 598.745C891.98 574.185 893.706 546.305 893.486 518.065C893.249 487.077 892.244 456.07 890.602 425.114L890.322 419.955C889.454 404.025 888.616 388.085 887.878 372.145C887.649 367.145 887.3 362.105 886.67 357.115C880.913 353.735 875.754 349.075 872.391 343.325C865.635 346.125 858.531 348.145 851.993 349.755C836.851 353.487 821.131 354.393 805.718 352.056C801.561 353.777 797.321 355.29 793.016 356.592C791.852 357.109 790.689 357.617 789.526 358.115C779.147 362.565 768.62 366.335 757.664 369.095L754.972 369.768C749.207 371.192 742.944 372.595 736.808 373.035C735.8 373.425 734.712 373.755 733.524 374.045C727.937 375.405 722.138 375.835 716.411 375.355C710.832 374.885 706.8 369.235 709.874 363.945C712.119 360.085 714.385 356.235 716.67 352.395C708.717 355.715 700.505 358.475 692.222 360.815C683.86 363.175 675.378 365.165 666.885 366.995C662.344 367.965 657.785 368.825 653.255 369.795C650.011 370.485 645.032 370.845 642.386 372.985C639.464 375.335 638.635 380.815 637.527 384.195C636.07 388.585 634.703 392.995 633.455 397.455C630.972 406.355 628.936 415.385 627.359 424.505C625.783 433.635 624.724 442.855 624.135 452.105C623.547 461.345 623.806 470.645 622.859 479.845C622.349 484.725 617.121 487.235 613.259 483.825C612.806 483.425 612.349 483.021 611.897 482.612L611.223 481.995C607.919 478.995 604.716 475.815 602.073 472.235C601.594 471.575 601.135 470.885 600.706 470.185C600.636 470.185 600.576 470.165 600.506 470.115L599.773 469.562C591.702 463.543 578.219 455.694 570.35 465.695C567.842 468.881 566.558 472.938 565.493 476.851L563.623 483.856C562.413 488.428 561.275 493.026 560.609 497.705C559.103 508.185 559.861 520.265 567.057 528.665C569.931 532.025 573.892 534.425 578.312 535.055C580.778 535.395 583.213 534.975 585.657 534.665C588.142 534.355 590.536 534.855 593.022 534.615C596.973 534.225 598.7 538.965 597.223 541.945C596.425 543.545 595.486 544.925 594.419 546.095C595.276 546.835 596.095 547.635 596.884 548.475C599.219 549.225 601.313 550.835 602.881 552.965C604.148 554.685 604.806 556.555 604.917 558.525C605.055 559.015 605.175 559.515 605.286 560.025L607.427 563.507C607.898 564.271 608.367 565.025 608.837 565.765C614.286 574.365 620.334 581.645 627.848 588.505C635.083 595.105 642.935 601.015 649.732 608.095L650.533 608.936C656.869 615.627 663.548 623.726 661.068 633.455C660.429 635.955 656.946 637.755 654.672 636.065C647.357 630.625 643.674 622.005 637.468 615.405C631.08 608.605 624.005 602.495 617.6 595.715C611.542 589.315 606.762 582.065 603.16 574.085C601.722 575.675 599.628 576.805 596.724 577.245C591.735 577.995 587.083 575.065 584.909 570.735C583.511 571.355 582.085 571.915 580.647 572.355C573.083 574.675 568.324 566.245 571.178 560.015C572.704 556.675 574.61 553.775 576.976 551.335C569.58 550.315 562.056 546.485 557.197 541.705C545.003 529.695 543.327 511.645 546.071 495.595C547.528 487.085 550.042 478.475 553.306 470.485C553.874 469.095 554.483 467.695 555.151 466.315C554.782 466.305 554.402 466.145 554.163 465.835C551.958 462.815 549.274 460.345 547.637 456.965C546.13 453.865 544.455 450.725 543.266 447.495C540.822 440.885 539.625 433.425 538.826 426.435C537.18 412.125 537.818 397.905 540.004 383.685C543.725 359.465 552.714 336.287 565.957 315.949C565.236 315.569 564.545 315.111 563.901 314.569L563.583 314.291L563.066 313.823C559.287 310.396 559.613 303.973 563.066 300.502L564.157 299.407C565.537 298.032 566.728 296.943 568.959 295.446C569.288 295.225 569.624 295.017 569.965 294.823C568.797 292.661 568.392 290.133 569.205 287.344C572.039 277.628 585.99 277.972 594.832 282.209C604.614 273.46 615.461 265.865 627.219 259.715C655.22 245.075 686.882 234.865 717.798 228.625ZM573.054 484.525C578.283 482.815 585.229 486.405 589.929 488.565C595.886 491.305 600.955 495.355 605.865 499.635C608.31 501.775 608.748 505.275 608.14 508.265C608.079 508.565 608.02 508.875 607.95 509.185C607.301 512.375 603.748 514.885 600.605 514.795C594.029 514.615 590.897 508.925 587.174 504.105C586.735 504.885 586.187 505.605 585.507 506.145L585.048 506.505C583.503 507.684 581.8 508.626 579.759 508.535C578.312 508.465 576.926 508.095 575.648 507.425C572.455 505.735 571.049 501.595 571.916 498.225C572.455 496.105 573.692 494.445 575.309 493.295L574.706 492.882C573.417 491.983 572.241 491.035 571.324 489.636L571.117 489.305H571.197C570.199 487.585 570.849 485.245 573.054 484.525Z" fill="black"/>
<path fill-rule="evenodd" clip-rule="evenodd" d="M742.833 569.757C750.835 553.757 824.224 560.949 824.224 560.949L830.423 611.807C830.423 611.807 795.012 623.19 773.934 620.805C752.855 618.419 734.831 585.757 742.833 569.757Z" fill="white"/>
<path fill-rule="evenodd" clip-rule="evenodd" d="M748.003 596.471C745.468 591.047 797.934 576.256 814.178 586.364C830.422 596.471 825.343 610.256 825.343 610.256C825.343 610.256 757.02 625.84 748.003 596.471Z" fill="#FF8181"/>
<path fill-rule="evenodd" clip-rule="evenodd" d="M738.281 560.29C750.527 546.06 771.152 545.069 788.237 548.627C799.201 550.911 809.876 554.715 821.012 556.125C826.213 556.784 831.47 556.981 836.709 556.884C841.855 556.789 847.009 555.752 852.137 555.945C852.925 555.974 853.223 557.009 852.54 557.43C845.505 561.751 836.028 563.137 827.718 563.982C827.744 564.597 827.781 565.197 827.866 565.706C828.093 567.063 828.3 568.411 828.467 569.777C828.844 572.858 829.266 575.929 829.687 579.004C830.517 585.056 830.778 591.299 832.237 597.245L832.492 598.234C832.83 599.484 832.907 600.611 832.794 601.627L833.132 601.474L834.2 600.957L834.9 600.626C837.454 599.442 839.89 598.58 842.893 598.868C845.179 599.086 847.098 600.645 847.112 603.086C847.169 614.041 832.405 617.564 823.96 619.661L821.483 620.271C810.734 622.893 799.759 625.191 788.703 625.741C770.961 626.622 751.024 621.728 739.418 607.337C728.589 593.91 726.604 573.858 738.281 560.29ZM818.852 606.318C816.99 589.824 796.722 588.917 790.891 599.377C788.304 584.798 750.028 598.117 753.021 601.015C764.365 612.001 781.58 612.99 796.379 610.958C803.916 609.923 811.459 608.238 818.852 606.318ZM796.358 563.088L791.262 562.355L789.255 562.078C776.623 560.387 762.416 559.513 752.03 567.612C748.238 570.568 746.104 574.424 745.307 578.566C755.135 577.109 764.998 575.998 774.891 575.073L777.59 574.825C783.78 574.267 789.967 573.679 796.151 573.062L800.546 572.617L804.939 572.161C806.485 571.999 816.904 571.466 818.863 571.824C819.072 570.064 819.345 566.255 819.787 564.542C812.385 564.793 805.015 564.243 797.656 563.265L796.358 563.088ZM819.814 489.367C827.366 493.957 838.872 504.66 830.748 516.04C821.186 526.073 807.419 514.569 800.634 509.366C794.344 505.334 787.276 515.705 793.112 520.413C842.136 556.708 862.031 490.567 823.634 483.97C819.406 483.243 817.836 487.947 819.814 489.367ZM833.328 508.704L833.691 508.507L833.814 508.432C834.026 508.295 833.891 508.31 833.408 508.477L833.046 508.607V508.863C833.139 508.806 833.238 508.763 833.328 508.704ZM736.617 467.924L736.616 467.699C736.63 461.322 740.344 446.762 749.524 446.762C755.259 446.762 758.741 456.671 759.344 466.886L759.365 467.302C759.631 473.653 757.888 487.534 749.524 487.534C741.072 487.534 736.704 474.387 736.617 467.924ZM871.773 465.924L871.774 465.699C871.76 459.322 868.046 444.762 858.866 444.762C853.274 444.762 849.825 454.182 849.097 464.12L849.046 464.886C848.684 471.022 850.314 485.534 858.866 485.534C867.318 485.534 871.686 472.387 871.773 465.924ZM741.855 403.285C749.347 402.146 759.268 404.31 762.761 411.928C764.317 415.322 762.474 419.075 758.551 419.263C749.07 419.717 740.567 417.607 732.245 423.772C728.664 426.426 725.653 430.1 723.126 433.764L722.17 435.159L721.378 436.308C719.662 438.831 718.038 441.571 718.291 444.615C718.366 445.516 717.445 446.371 716.57 446.335C711.116 446.111 710.529 439.273 711.246 435.166C712.58 427.544 716.269 420.389 721.382 414.626C726.752 408.574 733.841 404.504 741.855 403.285ZM845.044 412.535C850.21 409.214 856.818 407.938 862.87 408.427C874.803 409.388 894.822 419.532 892.187 434.107C891.374 438.602 885.122 440.974 881.438 438.48C877.477 435.799 876.513 431.632 873.565 428.128C871.213 425.329 868.232 423.304 865.04 421.579C861.894 419.878 858.254 418.847 854.684 418.471L854.089 418.414C851.94 418.231 841.088 418.28 842.681 422.331C842.993 423.124 841.813 423.752 841.271 423.152C837.944 419.472 841.712 414.677 845.044 412.535Z" fill="#05051A"/>
<path fill-rule="evenodd" clip-rule="evenodd" d="M850.595 562.879C853.335 565.689 855.965 568.699 858.445 571.809C859.135 576.749 859.295 581.749 858.665 586.909C857.745 594.389 855.705 601.699 852.945 608.719C851.315 608.489 849.705 608.029 848.135 607.309C843.155 605.019 840.375 600.409 837.005 596.339C830.295 588.249 818.055 583.469 809.495 591.859C805.775 595.509 803.395 600.559 800.075 604.569C796.425 608.979 792.325 613.169 788.045 616.969C787.515 617.449 786.965 617.969 786.395 618.479C784.015 615.759 781.675 613.019 779.385 610.239C772.575 601.959 766.695 592.789 763.605 582.449C762.625 579.169 762.015 575.749 761.775 572.299C764.805 568.539 768.265 565.119 772.195 562.289C784.045 553.739 797.695 552.349 811.895 551.609C826.585 550.849 839.815 551.849 850.595 562.879ZM886.435 602.549C885.865 596.829 884.985 590.879 883.685 584.939C878.935 562.899 868.645 540.929 848.015 530.859C838.255 526.089 827.165 524.409 816.645 526.709C798.185 519.799 777.685 526.849 763.155 539.489C746.015 554.399 738.105 577.799 735.445 599.719C733.595 614.969 732.898 635.344 737.225 646.409C741.552 657.474 769.051 687.063 808.305 687.269C864.215 687.562 877.805 649.859 879.455 646.559C886.345 632.839 887.945 617.689 886.435 602.549Z" fill="black"/>
</g>
<defs>
<clipPath id="clip0_188_892">
<rect width="1372" height="1492" fill="white"/>
</clipPath>
</defs>
</svg>
