<svg width="1372" height="1492" viewBox="0 0 1372 1492" fill="none" xmlns="http://www.w3.org/2000/svg">
<g clip-path="url(#clip0_188_892)">
<path fill-rule="evenodd" clip-rule="evenodd" d="M650.438 597.682C623.177 599.085 580.731 611.275 578.609 619.066C575.295 631.231 582.416 676.838 570.506 701.404C565.429 711.876 546.15 710.937 538.68 714.348C513.686 725.759 439.694 747.4 424.438 774.651C418.326 785.568 380.765 921.031 360.807 990.14C358.556 997.932 356.015 1005.14 353.252 1011.81L352.237 1006.63C344.099 964.856 340.03 939.57 340.03 930.767C340.03 917.012 350.55 858.977 340.03 844.219C329.616 829.608 304.518 817.662 293.226 817.424L292.888 817.421C285.474 817.421 279.041 815.003 273.588 810.169L265.594 805.976C224.927 784.691 201.168 773.016 194.316 770.95C183.382 767.653 164.774 774.677 174.078 785.222C180.281 792.252 195.867 804.688 220.838 822.531L230.254 830.334L229.116 830.954C216.948 837.635 209.793 843.259 207.652 847.825C205.444 852.532 206.503 858.099 210.829 864.527L210.173 865.194C204.703 870.793 201.968 874.549 201.968 876.461V885.802C196.527 894.115 195.166 901.047 197.887 906.598C200.608 912.15 204.922 916.961 210.829 921.031C215.182 932.974 220.365 941.474 226.38 946.531C232.394 951.588 242.789 955.797 257.563 959.16L270.933 992.503L281.767 1039.35L287.226 1091.62L285.641 1092.81C278.294 1098.39 273.588 1102.53 273.588 1106.81C273.588 1113.47 303.23 1270.1 349.348 1277.11C359.322 1278.63 411.048 1271.19 428.031 1256.78L427.781 1258.34C423.785 1283.51 424.63 1296.58 430.317 1297.56C500.206 1309.51 698.698 1313.2 1025.79 1308.63C1027.74 1127.56 1018.94 1006.97 999.391 946.855C949.403 793.117 894.288 740.607 875.007 736.11C858.117 732.171 799.549 707.857 783.176 701.404C772.489 697.192 770.2 684.562 758.021 684.562L757.037 684.567C745.259 684.691 734.815 686.888 728.947 680.57C713.547 663.99 717.852 641.04 711.464 619.066C707.944 606.958 683.89 595.96 650.438 597.682Z" fill="#FBD4C5"/>
<path d="M758.021 684.562L757.037 684.567C754.126 684.598 751.296 684.755 748.597 684.879L754.284 705.09L754.407 707.213C758.1 776.895 725.385 810.252 656.262 807.285C587.14 804.317 552.757 781.513 553.115 738.872L553.137 737.574L553.136 711.039L552.049 711.256C546.802 712.281 541.746 712.948 538.68 714.348C513.686 725.759 439.694 747.4 424.438 774.651C418.326 785.568 380.765 921.031 360.807 990.14C360.077 992.666 359.317 995.13 358.529 997.534L358.529 1011.19L358.746 1012.02C365.741 1039.31 356.428 1061.62 330.805 1078.95C312.644 1091.24 293.992 1099.22 274.85 1102.88C274.028 1104.21 273.588 1105.5 273.588 1106.81C273.588 1113.47 303.23 1270.1 349.348 1277.11C359.322 1278.63 411.048 1271.19 428.031 1256.78L427.781 1258.34L427.547 1259.83C423.82 1284.03 424.744 1296.6 430.317 1297.56C500.206 1309.51 698.698 1313.2 1025.79 1308.63C1027.74 1127.56 1018.94 1006.97 999.391 946.855C949.403 793.117 894.288 740.607 875.007 736.11C858.117 732.171 799.549 707.857 783.176 701.404C772.489 697.192 770.2 684.562 758.021 684.562Z" fill="#BA98DE"/>
<path fill-rule="evenodd" clip-rule="evenodd" d="M725.331 641.096C723.731 637.789 719.484 638.217 716.681 639.718C708.275 646.127 717.07 658.551 719.396 666.373C725.377 681.545 735.766 696.371 750.108 703.462C748.919 718.544 747.573 733.592 747.076 748.721C728.739 772.443 697.825 781.102 670.382 787.76C627.279 800.193 578.635 774.72 564.087 730.283C580.644 720.471 586.002 694.78 581.062 676.856C580.633 675.597 578.761 675.04 578.096 676.446C573.562 686.172 574.166 698.037 569.012 707.647C519.54 712.586 455.693 732.056 423.283 773.785C408.92 794.663 403.231 821.816 396.156 846.012C381.062 895.895 369.036 946.787 354.233 996.721L352.488 987.273C347.705 961.246 343.36 934.867 346.59 908.399L346.648 907.132C347.703 886.072 354.022 846.935 338.362 832.716C324.198 821.426 303.678 812.354 285.904 817.558C254.272 802.877 226.97 778.154 193.282 768.525C182.914 766.299 167.997 768.935 170.448 783.605C177.24 809.264 205.683 819.224 225.126 832.455C212.662 835.977 197.468 851.786 207.206 865.571C207.29 865.815 207.365 866.001 207.44 866.147C199.543 869.798 198.437 878.972 200.375 886.839C200.571 888.918 201.095 887.132 199.925 889.016C191.014 897.78 194.953 922.214 208.376 923.039C207.497 934.616 214.627 945.86 223.657 952.175C233.39 958.978 247.463 959.271 255.52 968.582C274.439 1003.38 280.965 1044.45 283.027 1084.29C270.556 1089.16 259.367 1103.72 270.698 1116.07C270.921 1116.1 271.145 1116.13 271.371 1116.15C277.939 1134.43 280.475 1153.92 283.949 1173.01C289.293 1205.59 303.22 1235.5 321.004 1262.64C341.57 1298.57 396.873 1292.87 424.733 1269.69C424.622 1275.77 423.661 1281.82 425.529 1287.69C428.286 1294.04 435.007 1291.3 435.673 1285.05C450.401 1293.69 453.869 1265.17 437.497 1269.7C438.757 1249.08 439.487 1228.44 440.079 1207.79C458.615 1214.05 459.414 1181.97 440.454 1188.38L440.477 1179.52C440.616 1111.52 439.896 1043.3 431.293 975.844C430.498 970.797 429.15 965.917 428.364 960.9C428.28 960.382 427.503 960.53 427.5 961.026C426.169 1055.47 432.087 1150.11 425.912 1244.58C420.772 1246.22 418.723 1252.37 414.917 1255.95C406.468 1264.09 394.962 1268.05 383.711 1269.43C352.203 1274.04 338.6 1264 324.569 1235.44C330.898 1239.85 339.449 1232.06 335.592 1225.08L335.471 1224.87C331.465 1217.47 320.153 1221.9 321.585 1230.19C307.479 1206.63 300.095 1180.06 294.643 1153.1L293.905 1149.88C291.255 1138.44 287.815 1125.32 281.449 1114.97C320.267 1104.65 358.238 1073.21 364.312 1030.08C374.168 1062.37 387.519 1093.94 400.245 1125.35C404.175 1136.27 405.812 1148.01 411.446 1158.15C412.756 1160.49 416.078 1159.88 416.819 1157.41C421.885 1133.79 406.533 1111.32 398.562 1090.05C392.053 1078.03 373.369 1023.14 361.786 1023.01C374.802 963.5 392.163 904.438 408.697 845.672C424.685 766.323 457.265 751.021 526.285 726.038C513.836 792.209 456.998 856.261 487.242 925.666L487.978 927.466C491.071 935.118 493.641 942.829 491.481 951.228C489.385 959.378 484.613 966.454 480.794 973.784C459.451 1015.19 474.143 1063.54 482.395 1106.66C492.82 1157.23 503.118 1207.84 513.893 1258.33C516.017 1268.4 517.394 1278.77 520.602 1288.53C522.259 1293.57 530.521 1293.09 529.987 1287.22C528.968 1275.82 525.899 1264.7 523.651 1253.51C510.234 1181.02 492.079 1109.4 480.536 1036.6C473.111 982.713 502.343 974.432 501.252 939.613C497.279 921.806 486.761 905.914 487.365 886.937C485.027 828.847 525.595 780.923 530.603 724.426L539.446 721.136C543.866 719.486 548.281 717.822 552.681 716.119C529.516 885.095 536.551 1057.76 548.131 1227.57C550.496 1235.41 548.246 1315.52 558.164 1310.66C558.665 1313.72 560.223 1316.73 563.61 1316.71C594.369 1317.01 625.136 1317.51 655.895 1317.9C670.69 1316.47 691.026 1322.37 703.61 1313.46C718.14 1309.14 719.81 1242.72 723.695 1228.09L725.209 1217.45C749.898 1043.61 771.992 866.184 754.246 690.622C778.937 691.611 784.033 719.406 785.864 739.643C790.443 784.309 818.111 822.774 819.438 867.953C819.551 878.914 817.567 889.532 813.366 899.596C802.221 924.252 782.946 952.757 797.352 980.295C814.39 1001.73 812.915 1007.38 806.663 1033.87C789.074 1121.45 759.863 1205.65 732.075 1290.09C738.113 1322.91 774.428 1201.07 777.845 1191.88C793.92 1200.31 802.701 1172.33 784.263 1170.34C796.106 1128.99 807.005 1087.33 816.079 1045.22L816.319 1044.03C820.328 1024.57 828.212 1001.79 814.898 984.529C780.569 948.319 837.578 907.846 830.387 863.98C836.596 868.783 845.996 863.731 845.855 855.665C846.137 846.584 834.441 841.932 828.814 848.861C823.028 813.271 802.897 782.202 796.805 746.718L796.53 745.051C794.466 732.51 793.884 719.314 787.978 707.884C796.017 713.33 804.578 717.732 813.384 721.616C797.64 735.333 828.128 747.851 825.605 726.663C911.946 752.717 931.461 789.051 963.162 872.492C957.241 866.491 947.097 874.256 950.642 881.909C953.469 889.971 965.806 887.614 965.801 879.021L967.246 882.615C986.469 930.557 1003.97 979.663 1012.76 1030.97C995.51 1028.43 999.901 1057.18 1015.53 1049.08C1021.8 1094.7 1021.9 1140.98 1021.13 1186.98C1006.58 1179.02 1006.15 1206.06 1020.99 1198.35C1020.45 1236.04 1019.65 1273.74 1019.06 1311.43C1018.93 1319.46 1030.8 1319.42 1030.99 1311.43C1032.37 1253.51 1034.9 1195.49 1033.7 1137.55C1034.83 1037 1007.11 940.077 965.816 849.999C929.277 746.281 878.806 734.485 785.947 704.33C777.376 691.059 759.063 678.507 744.122 686.84C735.762 672.766 731.517 656.092 725.331 641.096ZM884.427 1002.58C884.081 1001.3 882.331 1001.62 882.275 1002.88C881.498 1019.15 882.19 1035.53 883.257 1051.87C883.904 1061.84 884.698 1071.81 885.372 1081.71C887.159 1107.85 888.6 1134.02 889.695 1160.21C889.312 1160.04 888.919 1159.89 888.507 1159.78C886.617 1159.24 884.725 1159.24 882.836 1159.78C881.151 1160.27 879.677 1161.13 878.407 1162.37L878.139 1162.64C877.1 1163.64 876.361 1164.83 875.93 1166.21C875.317 1167.43 875.007 1168.74 875.007 1170.14L875.014 1170.49C875.023 1172.5 875.5 1174.37 876.473 1176.11C877.418 1177.77 878.691 1179.1 880.291 1180.1C881.957 1181.1 883.745 1181.6 885.672 1181.61C885.877 1181.63 886.084 1181.65 886.289 1181.66C887.722 1181.72 889.059 1181.41 890.295 1180.73L890.481 1180.67C890.949 1193.96 891.333 1207.25 891.614 1220.54C891.866 1232.13 892.203 1243.72 892.428 1255.3L892.532 1261.1L892.736 1273.9C892.802 1279.17 892.769 1284.21 894.486 1289.18L894.692 1289.75C895.927 1293.07 896.89 1297.69 900.195 1299.53C902.833 1301.01 906.389 1300.46 907.905 1297.59C909.178 1295.19 908.075 1291.74 906.193 1290.12C906.23 1290.01 906.286 1289.91 906.333 1289.8C906.623 1288.92 907.064 1288.1 907.325 1287.21C908.149 1284.4 907.924 1281.4 907.933 1278.48C907.933 1273.33 907.766 1268.17 907.634 1263.03C907.344 1252.08 907.007 1241.14 906.596 1230.2C905.205 1193.49 902.586 1156.79 899.587 1120.19L898.569 1107.84C897.212 1091.41 895.809 1074.96 893.822 1058.62C893.729 1057.84 893.635 1057.06 893.532 1056.28C894.599 1055.72 895.591 1054.95 896.378 1054.09C899.53 1050.64 901.442 1045.48 903.235 1041.03L903.648 1040.02C905.594 1035.27 907.391 1030.47 908.317 1025.38L908.406 1024.91C908.828 1022.74 909.662 1018.89 907.456 1017.84C906.305 1017.3 905.576 1017.69 905.201 1018.89C905.153 1019.04 905.192 1019.22 905.276 1019.36C904.368 1020.81 902.946 1022.17 902.047 1023.51L898.973 1028.1L897.453 1030.4C895.525 1033.36 893.466 1036.19 891.342 1038.98C889.668 1026.72 887.618 1014.51 884.427 1002.58ZM758.342 1275.76C754.496 1272.62 748.236 1274.32 748.236 1280.12C748.236 1285.95 754.506 1287.63 758.342 1284.48L758.533 1284.34L758.716 1284.18C760.806 1282.48 760.876 1278.05 758.874 1276.2L758.716 1276.06C758.596 1275.95 758.473 1275.86 758.342 1275.76ZM925.554 1264.44C923.813 1264.44 922.195 1264.89 920.688 1265.81C920.033 1266.33 919.387 1266.86 918.732 1267.38C917.535 1268.63 916.711 1270.12 916.253 1271.83L915.905 1274.5C915.86 1275.88 916.131 1277.17 916.739 1278.37C917.132 1279.62 917.797 1280.71 918.732 1281.62C919.612 1282.6 920.641 1283.29 921.838 1283.69C922.894 1284.27 924.02 1284.57 925.224 1284.57L925.554 1284.56C927.303 1284.56 928.923 1284.1 930.429 1283.19C931.084 1282.67 931.73 1282.14 932.385 1281.62C933.573 1280.37 934.406 1278.88 934.864 1277.17C934.977 1276.28 935.088 1275.39 935.211 1274.5C935.257 1273.11 934.977 1271.83 934.378 1270.62C933.985 1269.37 933.321 1268.29 932.385 1267.38C931.505 1266.4 930.476 1265.7 929.278 1265.3C928.223 1264.72 927.09 1264.43 925.884 1264.43L925.554 1264.44ZM487.842 1245.87L485.389 1246.21C483.04 1246.77 481.151 1248.58 479.888 1250.64C479.213 1251.74 478.849 1252.93 478.793 1254.21C478.521 1255.48 478.578 1256.76 478.961 1258.03C479.242 1259.28 479.793 1260.38 480.608 1261.3C480.888 1261.76 481.216 1262.18 481.59 1262.55C482.358 1263.89 483.517 1264.77 484.716 1265.67C485.726 1266.34 486.822 1266.7 488.001 1266.76C488.777 1266.97 489.563 1266.97 490.349 1266.76C491.519 1266.7 492.614 1266.34 493.625 1265.67C494.223 1265.19 494.822 1264.7 495.412 1264.22C495.935 1263.59 496.423 1262.93 496.881 1262.25C497.189 1261.5 497.489 1260.76 497.788 1260.01C498.341 1258.23 498.07 1256.65 497.769 1254.86C497.723 1254.56 497.648 1254.29 497.545 1253.99L497.343 1253.43C496.804 1251.94 496.516 1251.44 495.562 1250.15L495.198 1249.64C495.016 1249.39 494.829 1249.14 494.616 1248.92C494.018 1248.27 493.165 1247.74 492.492 1247.18C491.051 1246.31 489.498 1245.88 487.842 1245.87ZM805.234 1239.63C803.877 1239.64 802.603 1239.99 801.425 1240.7L799.89 1241.94C798.955 1242.92 798.309 1244.08 797.944 1245.41C797.86 1246.12 797.765 1246.82 797.673 1247.51C797.635 1248.6 797.85 1249.61 798.328 1250.56C798.626 1251.53 799.151 1252.37 799.89 1253.1C800.573 1253.86 801.388 1254.4 802.323 1254.73C803.14 1255.17 804.019 1255.4 804.952 1255.4L805.234 1255.4C806.6 1255.4 807.872 1255.04 809.052 1254.32L810.586 1253.1C811.522 1252.11 812.168 1250.95 812.533 1249.61C812.617 1248.91 812.71 1248.21 812.804 1247.51C812.841 1246.43 812.626 1245.41 812.149 1244.48C811.84 1243.5 811.325 1242.65 810.586 1241.94C809.903 1241.17 809.089 1240.62 808.153 1240.31C807.336 1239.86 806.474 1239.63 805.546 1239.62L805.234 1239.63ZM867.302 1236.4C865.348 1236.38 863.363 1236.95 861.763 1238.13C860.209 1239.28 859.031 1240.52 858.272 1242.39C858.066 1242.9 857.861 1243.39 857.683 1243.9C856.878 1246.14 856.728 1248.38 857.842 1250.57C858.918 1252.69 861.239 1253.61 863.317 1254.25C865.075 1254.79 867.068 1254.88 868.818 1254.23C869.689 1253.91 870.54 1253.56 871.326 1253.07C872.795 1252.12 873.591 1251 874.573 1249.61C875.341 1248.24 875.724 1246.76 875.724 1245.18C875.724 1243.59 875.341 1242.11 874.573 1240.74C873.068 1238.05 870.278 1236.41 867.302 1236.4ZM966.494 1238.28C964.022 1238.28 961.852 1239.47 960.363 1241.48C958.858 1243.52 958.306 1246.06 958.97 1248.59C959.672 1251.26 961.795 1253.6 964.426 1254.28C966.371 1254.77 967.963 1254.75 969.9 1254.41C971.537 1254.12 972.79 1253.1 974.045 1252.05C975.477 1250.83 975.917 1248.61 975.683 1246.81C975.458 1245.01 974.662 1243.84 973.455 1242.78L973.446 1242.75L973.896 1243.11C973.726 1242.95 973.559 1242.79 973.389 1242.62C973.334 1242.52 973.287 1242.42 973.24 1242.31C972.548 1241.08 971.612 1240.11 970.443 1239.39C969.217 1238.65 967.907 1238.28 966.494 1238.28ZM390.448 1208.72C389.091 1208.33 387.724 1208.33 386.368 1208.72C385.365 1208.96 384.496 1209.44 383.756 1210.15C383.006 1210.66 382.394 1211.31 381.931 1212.12L381.782 1212.39C380.715 1214.29 380.547 1216.45 381.006 1218.56C381.576 1221.17 383.878 1223.54 386.368 1224.15L386.451 1224.17L386.535 1224.2C387.546 1224.53 388.567 1224.58 389.576 1224.33C390.597 1224.28 391.542 1223.97 392.412 1223.38C393.516 1222.64 394.442 1221.69 395.154 1220.53C395.716 1219.62 396.014 1218.63 396.062 1217.57C396.239 1216.86 396.239 1216.16 396.062 1215.46C396.014 1214.39 395.716 1213.41 395.154 1212.49L393.957 1210.88L393.834 1210.77C392.88 1209.78 391.748 1209.09 390.448 1208.72ZM484.66 1157.06C472.392 1157.06 472.411 1176.92 484.66 1176.92C496.927 1176.92 496.909 1157.06 484.66 1157.06ZM933.808 1154.55C932.516 1154.25 931.224 1154.31 929.942 1154.73C929.166 1155.07 928.398 1155.41 927.631 1155.74L925.666 1157.33C925.301 1157.65 925.123 1158 924.786 1158.46L924.365 1159.03C923.756 1159.88 923.742 1160.06 923.074 1161.88C922.625 1163.61 922.625 1165.35 923.074 1167.09C923.29 1167.93 923.617 1168.72 924.038 1169.45C924.423 1170.15 924.883 1170.77 925.402 1171.34L925.666 1171.62C926.546 1172.6 927.584 1173.29 928.782 1173.7C929.54 1174.16 930.354 1174.39 931.224 1174.39C932.516 1174.69 933.808 1174.63 935.089 1174.21C935.866 1173.87 936.633 1173.53 937.401 1173.2L939.365 1171.62L940.881 1169.57L941.365 1168.36L941.855 1167.16L942.201 1164.47C942.248 1163.08 941.976 1161.79 941.369 1160.58C941.135 1159.73 940.722 1158.98 940.124 1158.35C939.693 1157.59 939.114 1156.99 938.383 1156.54C937.785 1155.91 937.064 1155.48 936.249 1155.24C935.491 1154.78 934.677 1154.55 933.808 1154.55ZM327.041 1140.37C326.02 1140.33 325.065 1140.56 324.186 1141.05C323.877 1141.15 323.576 1141.29 323.287 1141.45C322.155 1142.14 321.257 1143.08 320.592 1144.25C320.05 1145.15 319.75 1146.11 319.703 1147.16C319.5 1148.1 319.519 1149.05 319.763 1149.99L319.844 1150.27C320.05 1151.04 320.358 1151.75 320.769 1152.41C320.808 1152.49 320.854 1152.56 320.911 1152.63C321.537 1153.67 322.37 1154.52 323.4 1155.15C324.541 1155.83 325.767 1156.18 327.096 1156.2C329.744 1156.2 332.027 1154.7 333.422 1152.41C333.618 1152.08 333.73 1151.68 333.87 1151.34C333.992 1151.03 334.189 1150.63 334.293 1150.27C334.648 1148.88 334.648 1147.5 334.293 1146.11C334.059 1145.1 333.618 1144.21 332.954 1143.46C332.421 1142.61 331.719 1141.94 330.848 1141.45C329.769 1140.79 328.608 1140.44 327.377 1140.38L327.041 1140.37ZM845.004 1130.66C843.708 1130.29 842.42 1130.26 841.132 1130.58L840.811 1130.66C839.782 1130.92 838.892 1131.4 838.126 1132.13C837.274 1132.71 836.59 1133.48 836.095 1134.44C835.383 1135.72 835.028 1137.1 835.019 1138.59C835.028 1140.07 835.383 1141.46 836.095 1142.73C836.797 1143.97 837.742 1144.95 838.93 1145.68L839.959 1146.2C840.82 1146.77 841.737 1147.07 842.73 1147.12C843.393 1147.3 844.059 1147.3 844.713 1147.12C845.387 1147.12 846.014 1146.94 846.594 1146.59C847.23 1146.41 847.774 1146.07 848.242 1145.58C849.056 1145.04 849.691 1144.32 850.159 1143.41L850.918 1141.54L851.179 1139.47L850.918 1137.42L850.505 1136.4C850.132 1135 849.457 1133.79 848.475 1132.77C847.493 1131.75 846.333 1131.05 845.004 1130.66ZM380.939 1114.2C379.574 1113.75 378.216 1113.69 376.86 1114C375.943 1114 375.083 1114.25 374.286 1114.73C373.416 1114.99 372.668 1115.43 372.031 1116.1C370.918 1116.85 370.047 1117.85 369.401 1119.09L368.373 1121.63C367.755 1123.28 367.98 1125.71 368.353 1127.37C368.662 1128.74 369.261 1129.93 370.15 1130.94C370.599 1131.73 371.198 1132.36 371.957 1132.83C372.823 1133.65 373.823 1134.24 374.956 1134.58L375.269 1134.67L375.381 1134.7C375.401 1134.71 375.418 1134.71 375.437 1134.71C375.447 1134.72 375.466 1134.72 375.476 1134.72C375.924 1134.84 376.382 1134.91 376.86 1134.93C378.216 1135.24 379.574 1135.18 380.939 1134.73C381.744 1134.38 382.558 1134.02 383.372 1133.66C384.065 1133.11 384.749 1132.55 385.44 1132C385.974 1131.28 386.507 1130.55 387.041 1129.84C387.79 1128.62 388.192 1127.29 388.248 1125.88C388.492 1124.93 388.492 1124 388.248 1123.05C388.248 1122.08 388.014 1121.19 387.556 1120.36C387.144 1119.04 386.442 1117.9 385.44 1116.93C384.749 1116.37 384.065 1115.82 383.372 1115.27C382.558 1114.91 381.744 1114.55 380.939 1114.2ZM977.769 1079.25C976.357 1078.85 974.943 1078.85 973.53 1079.25L971.631 1080.08C970.696 1080.61 969.955 1081.32 969.394 1082.23C968.683 1083.03 968.207 1083.98 967.963 1085.06C967.41 1086.54 967.476 1088.9 967.916 1090.41C968.411 1092.13 969.179 1093.49 970.367 1094.78C972.342 1096.91 975.374 1097.53 978.059 1096.88C978.799 1096.71 979.501 1096.36 980.138 1095.94C982.167 1094.64 983.533 1092.35 983.524 1089.82C983.524 1089.55 983.505 1089.28 983.468 1089.01C983.599 1088.45 983.647 1087.87 983.627 1087.27L983.346 1085.06L983.328 1085C982.953 1083.61 982.279 1082.4 981.298 1081.37C980.39 1080.43 979.332 1079.76 978.122 1079.35L977.816 1079.25H977.769ZM271.652 860.087C274.208 838.227 283.82 814.708 313.134 827.545L315.312 828.396C322.565 831.26 331.018 835.023 335.433 841.639C338.474 846.197 337.445 855.03 337.866 860.35C339.777 877.645 338.752 894.916 336.761 912.138C334.19 952.506 342.327 994.331 358.528 1031.02C342.314 1058.38 320.615 1083.9 291.014 1095.31C289.762 1064.2 283.922 1033.66 277.706 1003.3L277.462 1001.98C274.976 988.286 273.732 974.237 265.112 962.852C247.578 942.996 223.461 954.234 211.922 922.337C214.346 921.059 213.008 916.686 210.087 917.527C199.967 919.4 198.323 899.831 205.249 895.116C212.467 890.526 205.201 882.058 208.273 875.946C209.985 873.311 213.682 873.224 215.357 870.187C219.799 859.012 197.572 851.851 223.71 839.254C229.06 837.269 235.039 838.5 240.435 838.478C248.372 839.251 254.68 845.084 261.939 846.918C254.035 868.263 273.977 888.818 291.977 871.769C301.771 881.425 312.725 903.436 288.916 893.175C277.263 885.063 267.231 874.577 253.703 869.582L253.417 869.489C248.396 867.773 226.422 856.637 227.511 866.275C235.742 874.561 249.317 874.463 258.85 881.189C272.066 887.563 280.516 903.01 296.337 902.796C299.985 925.896 274.853 911.841 265.495 905.471L262.9 904.002C249.699 896.564 236.3 889.673 220.906 889.582C216.657 889.553 216.676 896.385 220.906 896.443C240.968 896.574 257.297 909.654 274.104 919.379C275.758 932.863 256.827 926.96 249.643 924.971C242.111 923.867 230.014 915.37 223.422 919.858C220.844 926.768 232.19 926.253 236.14 928.35C218.106 937.384 233.906 943.073 238.741 929.189L240.157 929.692C252.234 933.925 281.516 942.638 278.033 921.303C282.453 923.343 287.842 924.563 292.725 923.431C304.904 942.219 324.332 934.949 296.094 922.142C302.457 919.055 304.582 907.136 298.47 902.7C320.697 901.284 304.195 876.961 294.996 868.855C295.864 867.939 296.705 867.005 297.489 866.059C302.794 868.695 308.37 870.295 314.333 870.862C320.04 871.397 321.312 861.267 315.68 860.438C309.644 859.549 304.085 857.871 298.77 854.707C290.715 851.079 287.966 866.668 279.904 867.221C275.507 868.129 272.533 864.107 271.652 860.087ZM458.785 1061.24C456.839 1061.24 455.109 1062.09 453.696 1063.43C452.283 1064.78 451.674 1066.8 451.59 1068.73C451.553 1069.77 451.759 1070.73 452.208 1071.63C452.498 1072.56 452.994 1073.36 453.696 1074.04C455.006 1075.4 456.943 1076.24 458.785 1076.24C460.732 1076.24 462.463 1075.39 463.877 1074.04C465.289 1072.68 465.898 1070.67 465.982 1068.73C466.02 1067.71 465.813 1066.74 465.365 1065.84C465.104 1065.01 464.676 1064.27 464.081 1063.64L463.877 1063.43C462.566 1062.07 460.63 1061.24 458.785 1061.24ZM399.808 1014.95L399.496 1014.95C397.849 1014.96 396.323 1015.39 394.902 1016.25C394.284 1016.75 393.666 1017.24 393.057 1017.74C391.926 1018.92 391.149 1020.32 390.718 1021.93C390.278 1023.61 390.278 1025.3 390.718 1026.98C390.867 1027.94 391.214 1028.88 391.756 1029.69C392.562 1031.09 393.628 1032.21 394.976 1033.04C396.371 1033.89 397.877 1034.31 399.496 1034.32C401.114 1034.31 402.622 1033.89 404.016 1033.04C405.363 1032.21 406.43 1031.09 407.226 1029.69C407.778 1028.88 408.124 1027.94 408.274 1026.98C408.713 1025.3 408.713 1023.61 408.274 1021.93C407.874 1020.44 407.176 1019.13 406.171 1017.99L405.934 1017.74C405.111 1016.81 404.138 1016.15 403.005 1015.77C402.01 1015.23 400.944 1014.95 399.808 1014.95ZM849.907 1015.47C849.214 1015.27 848.531 1015.27 847.839 1015.47C846.809 1015.52 845.846 1015.84 844.956 1016.43C844.432 1016.86 843.908 1017.28 843.384 1017.7L842.927 1018.27C841.951 1019.51 841.926 1019.72 841.177 1021.61C840.867 1022.66 840.82 1023.72 841.045 1024.77C841.045 1025.48 841.223 1026.15 841.56 1026.76C841.747 1027.44 842.065 1028.02 842.542 1028.51C842.88 1029.1 843.328 1029.58 843.9 1029.94C844.629 1030.63 845.49 1031.11 846.482 1031.35L848.494 1031.63C848.756 1031.59 849.027 1031.56 849.289 1031.53C849.605 1031.52 849.912 1031.48 850.212 1031.42L850.516 1031.35L850.792 1031.27C851.159 1031.16 851.516 1031.01 851.862 1030.82C852.517 1030.63 853.088 1030.29 853.576 1029.78C854.417 1029.21 855.091 1028.45 855.577 1027.5L855.708 1027.19C855.886 1026.86 856.036 1026.52 856.149 1026.15C856.466 1025.56 856.625 1024.94 856.635 1024.26C856.821 1023.37 856.808 1022.48 856.586 1021.59L856.504 1021.3L855.783 1019.51C855.409 1018.91 855.016 1018.29 854.511 1017.79C854.207 1017.51 853.465 1016.91 853.046 1016.6L852.79 1016.43C851.9 1015.84 850.936 1015.52 849.907 1015.47ZM950.623 998.185C946.834 1002.14 948.508 1009.4 953.813 1010.8L954.422 1010.96C959.55 1012.32 964.173 1007.49 962.872 1002.14L962.722 1001.51C961.375 995.979 954.413 994.232 950.623 998.185ZM320.443 956.371C320.48 955.825 319.807 955.63 319.47 955.952C314.959 960.169 312.086 965.225 306.612 968.493C301.109 971.774 295.439 971.509 289.703 973.627C287.757 974.35 287.747 977.064 289.703 977.776C300.558 981.729 319.619 968.328 320.443 956.371ZM830.481 955.513C829.273 955.122 828.056 955.064 826.849 955.347C826.025 955.347 825.259 955.562 824.557 955.99C823.781 956.215 823.115 956.625 822.545 957.21C821.861 957.631 821.319 958.207 820.908 958.918C820.102 959.837 819.559 960.91 819.28 962.14L818.961 964.668L819.28 967.196C819.588 967.946 819.897 968.709 820.197 969.46L821.033 970.642C821.71 971.585 821.819 971.595 823.462 972.867C824.509 973.559 825.642 973.94 826.849 973.989C827.655 974.223 828.459 974.223 829.273 973.989C830.087 973.989 830.855 973.774 831.565 973.345C832.333 973.12 833.006 972.71 833.578 972.125C834.569 971.451 835.346 970.563 835.917 969.46C836.226 968.709 836.534 967.946 836.833 967.196L837.162 964.668L836.833 962.14L836.816 962.062C836.385 960.481 835.617 959.105 834.514 957.942L832.697 956.478C831.987 956.001 831.248 955.757 830.481 955.513ZM393.656 957.406C391.065 956.664 388.22 957.444 386.321 959.427C384.421 961.408 383.672 964.365 384.383 967.069C385.085 969.704 387.115 971.841 389.651 972.554C390.409 972.768 391.177 972.886 391.953 972.847C393.255 972.838 394.471 972.495 395.603 971.813L397.063 970.631C397.775 969.948 398.27 969.138 398.561 968.201C399.019 967.303 399.225 966.337 399.188 965.293L399.196 965.107C399.225 964.736 399.178 964.365 399.065 964.004C399.065 963.623 399.009 963.252 398.915 962.891C398.232 960.256 396.174 958.128 393.656 957.406ZM952.457 930.976C951.624 930.946 950.847 931.121 950.127 931.522C949.369 931.775 948.723 932.205 948.18 932.829C947.582 933.396 947.17 934.079 946.927 934.86C946.543 935.612 946.374 936.422 946.403 937.29C946.403 938.432 946.683 939.496 947.226 940.472C947.544 940.902 947.862 941.331 948.18 941.75C948.929 942.541 949.818 943.078 950.847 943.38L951.446 943.595C952.326 943.927 953.187 943.947 954.104 943.821C955.068 943.683 955.958 943.41 956.743 942.785C957.511 942.317 958.118 941.682 958.567 940.882L959.082 939.613C959.194 939.184 959.241 938.54 959.269 938.09C959.269 938.022 959.269 937.964 959.279 937.895C959.279 937.514 959.166 936.588 959.074 936.207C958.867 935.406 958.447 934.645 957.969 934.001C957.557 933.328 956.995 932.8 956.303 932.41L956.241 932.361L956.172 932.312C955.958 932.156 955.732 932 955.507 931.833C954.572 931.268 953.552 930.976 952.457 930.976ZM469.238 924.045C467.741 924.045 466.346 924.445 465.055 925.226C465.009 925.245 464.962 925.265 464.925 925.286C463.689 926.046 462.707 927.072 461.976 928.359C461.228 929.696 460.854 931.142 460.854 932.684C460.854 934.235 461.228 935.67 461.976 937.007C462.707 938.296 463.689 939.32 464.925 940.082C464.962 940.111 465.009 940.129 465.055 940.15C466.346 940.931 467.741 941.321 469.238 941.331C470.726 941.321 472.12 940.931 473.412 940.15C475.938 938.608 477.52 935.728 477.52 932.684C477.52 929.637 475.938 926.759 473.412 925.226C472.12 924.445 470.726 924.045 469.238 924.045ZM857.844 912.759L857.589 912.753C856.597 912.713 855.672 912.928 854.82 913.407C853.931 913.709 853.154 914.227 852.498 914.959L851.132 916.149L850.736 916.484C850.67 916.541 850.606 916.599 850.544 916.658C849.626 917.623 848.999 918.755 848.643 920.063C848.531 920.815 848.438 921.556 848.362 922.308C848.157 924.26 849.261 926.262 850.477 927.648C851.132 928.38 851.91 928.896 852.807 929.208C853.668 929.678 854.604 929.892 855.597 929.853C857.627 929.668 859.554 929.218 861.014 927.578C861.183 927.383 861.342 927.178 861.51 926.973L862.679 925.568C863.568 924.632 864.187 923.528 864.523 922.259C864.617 921.586 864.701 920.922 864.785 920.258C864.87 918.257 863.934 916.383 862.679 914.959C861.521 913.639 859.556 912.833 857.844 912.759ZM905.079 892.207C895.348 892.207 895.366 907.951 905.079 907.951C914.802 907.951 914.783 892.207 905.079 892.207ZM415.786 870.134L415.479 870.139C413.869 870.149 412.363 870.569 410.968 871.418L409.154 872.872C408.048 874.043 407.282 875.41 406.851 876.991C406.749 877.82 406.645 878.65 406.533 879.47C406.486 880.758 406.749 881.959 407.309 883.072C407.665 884.223 408.282 885.228 409.154 886.078C409.967 886.986 410.922 887.63 412.035 888.001C413.102 888.586 414.253 888.86 415.479 888.811C417.097 888.8 418.605 888.381 419.999 887.532C420.606 887.044 421.205 886.556 421.814 886.078C422.833 884.997 423.565 883.749 424.003 882.32L424.106 881.959L424.434 879.47C424.48 878.192 424.219 876.991 423.658 875.878C423.301 874.717 422.684 873.721 421.814 872.872C420.999 871.963 420.036 871.319 418.931 870.949C417.954 870.413 416.905 870.137 415.786 870.134ZM459.619 840.663C458.749 840.633 457.944 840.819 457.185 841.229C456.409 841.492 455.736 841.951 455.165 842.585C453.957 843.591 453.218 845.601 453.218 847.231C453.218 848.861 453.957 850.873 455.165 851.877C455.951 852.687 456.877 853.253 457.944 853.566L459.619 853.801C461.247 853.879 462.904 852.991 464.064 851.877C464.298 851.654 464.522 851.429 464.756 851.213C465.813 850.198 466.271 848.685 466.338 847.231C466.366 846.461 466.206 845.739 465.87 845.065C465.654 844.363 465.28 843.766 464.756 843.249C464.522 843.034 464.298 842.811 464.064 842.585C462.8 841.365 461.322 840.751 459.619 840.663ZM181.903 788.162C175.754 780.35 179.334 774.79 188.575 776.722C204.492 778.968 219.473 789.46 233.492 796.985C248.792 805.414 264.561 812.366 280.168 820.286C273.728 824.409 268.939 830.866 265.28 838.233C257.977 832.448 248.641 829.682 239.527 829.322C222.993 812.805 195.612 809.023 181.903 788.162ZM908.353 814.096C906.686 814.104 905.124 814.513 903.66 815.329L903.348 815.511L901.346 817.131C900.372 818.068 899.689 819.179 899.287 820.459C898.669 821.689 898.389 823.026 898.435 824.451C898.389 825.876 898.669 827.203 899.287 828.433C899.689 829.722 900.372 830.824 901.346 831.761C901.898 832.513 902.609 833.099 903.46 833.529C904.257 833.87 905.042 834.221 905.837 834.572C906.726 834.865 907.756 834.904 908.719 834.953C910.469 834.943 912.097 834.485 913.614 833.567L915.578 831.987C916.524 831.068 917.198 829.985 917.591 828.726C918.148 827.617 918.43 826.434 918.43 825.169L918.423 824.822C918.423 824.745 918.423 824.656 918.413 824.568C918.302 823.651 918.179 822.733 918.059 821.817C917.749 820.469 917.16 819.288 916.28 818.292C916.056 817.824 915.756 817.443 915.372 817.131C914.137 815.842 912.679 814.964 910.993 814.465C910.114 814.349 909.234 814.221 908.353 814.096ZM473.88 788.24C472.617 788.24 471.447 788.572 470.361 789.226C469.884 789.608 469.417 789.987 468.949 790.368C468.077 791.276 467.479 792.349 467.152 793.579L466.898 795.511C466.871 796.517 467.068 797.444 467.508 798.314C467.787 799.211 468.266 799.992 468.949 800.655C469.576 801.367 470.323 801.866 471.194 802.158C472.018 802.617 472.916 802.822 473.88 802.784C475.134 802.784 476.313 802.451 477.399 801.788C477.866 801.417 478.344 801.036 478.812 800.655C479.601 799.823 480.17 798.852 480.511 797.748L480.599 797.444L480.851 795.511C480.888 794.506 480.692 793.579 480.253 792.71C479.972 791.804 479.484 791.022 478.812 790.368C478.175 789.654 477.426 789.158 476.565 788.865C475.816 788.452 475.014 788.245 474.165 788.236L473.88 788.24ZM853.658 777.664L853.332 777.67C851.47 777.679 849.738 778.167 848.129 779.143C847.436 779.701 846.743 780.257 846.052 780.823C844.77 782.159 843.89 783.74 843.393 785.566L843.029 788.416C842.973 789.899 843.272 791.275 843.918 792.554C844.329 793.892 845.041 795.043 846.052 796.019C846.977 797.064 848.082 797.805 849.364 798.235C850.59 798.908 851.909 799.221 853.332 799.162C855.194 799.162 856.925 798.674 858.535 797.698C859.226 797.141 859.919 796.576 860.62 796.019C861.894 794.672 862.774 793.091 863.27 791.275L863.634 788.416C863.691 786.942 863.391 785.557 862.746 784.277C862.334 782.951 861.623 781.788 860.62 780.823C859.685 779.769 858.581 779.026 857.299 778.597C856.168 777.975 854.957 777.669 853.658 777.664ZM507.164 750.829C506.313 750.594 505.462 750.594 504.611 750.829C503.338 750.887 502.149 751.287 501.044 752.019L499.107 753.582C499.08 753.61 499.051 753.64 499.023 753.679C497.854 754.908 497.04 756.364 496.591 758.033L496.253 760.658C496.207 762.015 496.478 763.283 497.067 764.455C497.419 765.581 498 766.561 498.8 767.408L499.107 767.724C499.979 768.7 500.999 769.393 502.187 769.793C502.935 770.252 503.75 770.477 504.611 770.477C505.882 770.779 507.164 770.721 508.438 770.3C509.195 769.959 509.963 769.627 510.73 769.296L510.974 769.149C513.865 767.5 515.653 764.045 515.653 760.658C515.653 757.27 513.865 753.805 510.974 752.156C510.889 752.118 510.815 752.068 510.73 752.019C509.625 751.287 508.438 750.887 507.164 750.829Z" fill="#05051A"/>
<path d="M574.551 668.266C575.487 657.041 578.762 618 578.762 618L597.945 727.804L564.258 731.708C564.258 731.708 573.615 679.49 574.551 668.266Z" fill="#FBD4C5"/>
<path d="M565.66 690.714C520.899 695.269 431.499 726.417 417.809 741.468C400.497 760.501 371.177 912.924 349.498 992.796C328.755 1022.73 283.059 1061.8 279.316 1029.4C276.977 1010.85 265.28 1022.57 261.069 1031.35C257.7 1038.38 262.784 1093.98 268.555 1117.73C274.949 1162.95 295.318 1259.84 325.636 1285.61C363.073 1317.42 419.227 1280.19 426.454 1265.64C421.556 1276.55 424.55 1292.22 426.699 1298.78C461.322 1305.13 540.113 1317.62 578.292 1316.84C616.471 1316.06 889.901 1312.93 1021.84 1311.47C1024.31 1250.73 1033.31 1171.14 1028.39 1086.98C1020.58 953.208 994.135 816.091 975.524 786.854C945.205 739.223 839.214 700.637 776.206 690.714L707.895 754.644L646.603 741.468C638.649 744.233 626.484 757.182 641.456 786.854C656.428 816.525 619.622 823.292 599.347 822.967C583.127 800.193 552.184 749.471 558.173 728.78C564.162 708.088 565.66 694.781 565.66 690.714Z" fill="#05051A"/>
<path fill-rule="evenodd" clip-rule="evenodd" d="M726.142 633.796C722.172 623.389 708.75 627.434 710.246 638.368C711.142 644.917 711.17 649.86 712.573 658.685C713.977 667.51 714.226 668.938 718.116 672.44C711.192 679.179 704.004 685.671 696.634 691.836C688.592 698.562 680.136 704.761 671.395 710.459C663.73 715.457 655.719 719.884 648.494 725.586C641.776 730.887 635.656 737.262 632.542 745.585C629.224 754.448 630.666 763.6 633.109 772.457L633.39 773.458C635.885 782.233 640.206 792.81 634.215 801.077C631.165 805.286 626.732 808.267 622.903 811.631C619.501 814.622 616.307 817.874 613.378 821.367C606.992 828.982 601.797 837.55 598.519 847.098L598.226 847.965C595.417 856.417 593.363 866.771 597.16 875.069C598.249 877.448 601.762 876.675 602.372 874.359C603.751 869.111 603.679 863.616 604.836 858.295C606.039 852.761 608.042 847.508 610.657 842.538C615.718 832.923 622.571 824.711 630.668 817.767L633.092 815.711C639.408 810.304 645.212 804.569 646.494 795.62C647.866 786.046 644.188 776.926 641.824 767.865C640.176 761.55 639.638 755.496 641.418 749.79C643.594 753.494 646.562 757.009 648.91 760.145C653.586 766.393 658.306 772.602 663.014 778.824C667.841 785.203 672.548 791.683 677.032 798.331C679.037 801.305 681.021 804.296 682.998 807.291C684.485 809.541 686.559 811.79 688.179 814.086C687.786 815.314 687.815 816.729 688.529 817.734C697.124 829.847 709.352 804.573 712.541 798.188C719.035 785.184 723.868 771.37 730.384 758.369C737.136 744.892 744.824 731.774 753.393 719.47C758.576 712.028 764.385 705.038 769.127 697.359C770.72 694.779 771.881 692.557 771.881 692.557C772.291 691.779 772.688 690.992 773.07 690.197L773.304 690.402C773.344 690.435 773.385 690.467 773.427 690.498C774.699 691.417 776.572 690.965 777.62 689.933C780.579 687.021 779.577 683.788 777.602 680.767L777.344 680.383C774.928 676.853 772.773 673.12 770.543 669.462L769.147 667.174C765.404 661.063 761.471 654.911 756.48 649.86C754.168 647.519 751.638 645.768 748.957 644.463C749.186 643.957 747.176 642.924 746.607 643.444C738.113 640.202 737.168 638.749 727.908 639.643" fill="#05051A"/>
<path fill-rule="evenodd" clip-rule="evenodd" d="M572.632 666.071C572.072 665.774 571.534 665.964 571.175 666.47C570.663 667.19 570.726 667.891 571.353 668.385C570.516 670.17 569.526 674.642 569.385 675.293C568.812 677.932 568.203 680.556 567.566 683.177C566.28 688.465 565.154 693.793 563.867 699.082C562.503 704.688 560.877 710.235 559.068 715.702C558.952 716.056 558.823 716.417 558.689 716.784L558.483 717.338L558.432 717.254C558.064 716.647 557.299 717.071 557.39 717.711C557.474 718.295 557.587 718.876 557.682 719.459L557.493 719.982C556.31 723.304 555.499 726.802 557.67 729.733C558.483 730.829 559.376 731.478 560.49 731.672C562.275 737.811 564.515 743.836 566.914 749.622L567.617 751.312C571.145 759.754 574.907 768.086 580.524 775.274C586.657 783.121 595.093 788.48 600.436 797.078C602.921 801.078 604.65 805.284 606.054 809.801L606.582 811.516C607.578 814.71 608.728 817.807 611.601 819.681C612.518 820.279 613.892 820.088 614.631 819.273C620.524 812.772 614.355 800.632 610.802 794.338C605.863 785.585 598.715 779.985 591.557 773.381C583.842 766.263 578.921 756.741 574.16 747.36C571.244 741.613 568.43 735.743 565.466 729.97C568.562 727.116 569.553 721.446 570.602 717.505L570.698 717.152C572.432 710.841 573.809 704.366 574.68 697.863C575.517 691.61 575.867 685.447 575.645 679.159L575.581 677.557" fill="#05051A"/>
<path fill-rule="evenodd" clip-rule="evenodd" d="M561.12 695.832C561.804 694.854 560.672 693.747 559.734 693.951C554.027 695.181 548.448 698.784 543.326 701.697L542.779 702.007C538.691 704.306 534.577 707.123 532.431 711.59C530.096 716.446 530.288 722.038 530.607 727.314L530.637 727.808C531.027 734.136 531.09 740.71 532.374 746.924C533.031 750.104 535.792 751 538.153 750.248C540.962 759.5 548.853 766.316 554.618 773.617C561.967 782.925 560.584 795.491 559.816 806.701C559.505 811.239 564.918 812.53 567.705 810.108L574.13 804.543C575.199 803.614 576.268 802.683 577.333 801.748C578.246 800.947 579.15 800.14 580.047 799.323L581.387 798.089C581.981 797.535 584.602 794.481 585.369 794.354C587.225 794.046 591.635 799.149 593.145 800.749L593.336 800.949C596.177 803.855 598.744 806.981 601.135 810.296C601.574 810.906 602.434 810.4 602.12 809.696C599.978 804.91 597.487 800.333 594.529 796.05L593.931 795.197C591.963 792.431 589.321 787.547 585.848 786.73C581.607 785.733 577.371 790.17 574.285 792.632L574.09 792.786C572.622 793.935 571.17 795.105 569.722 796.282C569.873 787.936 568.863 779.503 564.731 772.31C561.818 767.238 557.454 763.481 553.719 759.122C549.562 754.268 547.391 748.303 543.627 743.248C543.142 742.598 542.474 742.248 541.751 742.136C541.606 738.072 541.033 733.968 540.589 729.948L540.461 728.745C540.012 724.377 538.953 719.042 541.003 714.952C542.94 711.088 547.384 708.361 550.674 705.74L553.361 703.566" fill="#05051A"/>
<path fill-rule="evenodd" clip-rule="evenodd" d="M746.321 649.648C748.039 650.684 749.644 651.974 751.101 653.585C755.688 658.66 758.966 664.975 762.157 671.049C763.875 674.321 765.532 677.629 767.264 680.893C768.017 682.313 768.792 683.717 769.575 685.12C769.937 685.766 771.013 687.05 771.547 687.842C770.954 688.708 770.341 689.561 769.716 690.405C769.478 690.727 753.026 709.419 747.292 716.735C738.511 727.94 730.662 739.777 723.951 752.446C717.38 764.852 712.378 777.987 706.291 790.634C703.244 796.965 699.841 803.252 695.504 808.731C695.336 808.945 695.16 809.147 694.988 809.358C693.333 804.694 689.091 799.7 687.008 796.832L686.814 796.561C682.089 789.918 677.099 783.476 672.001 777.142C667.345 771.359 662.57 765.7 657.68 760.135L655.841 758.053C652.434 754.214 648.106 748.47 643.118 745.728C643.652 744.734 644.271 743.751 644.982 742.781C649.655 736.412 656.261 731.789 662.78 727.618L667.007 724.936C682.941 714.808 698.627 704.211 712.46 691.051C719.779 684.088 726.996 676.794 733.148 668.673L735.323 665.801" fill="#05051A"/>
<path d="M635.842 781.177C630.479 764.395 630.384 752.872 631.631 748.968C631.631 748.968 616.659 747.016 599.815 739.208C582.972 731.399 568.935 723.591 568.935 723.591C568 726.031 566.44 728.797 565.192 729.935C568.151 735.337 576.413 753.111 582.972 763.12C591.394 775.974 596.093 776.785 603.091 784.593C619.186 802.552 616.191 813.874 615.256 819.242C620.402 812.898 643.796 806.066 635.842 781.177Z" fill="#FBD4C5"/>
<path fill-rule="evenodd" clip-rule="evenodd" d="M623.257 879.407C621.29 862.984 603.47 869.907 609.763 872.643C609.89 872.785 610.022 872.925 610.161 873.066C602.964 873.795 603.469 882.611 604.27 888.25C607.094 900.875 625.389 889.389 623.257 879.407Z" fill="#FBD4C5"/>
<path fill-rule="evenodd" clip-rule="evenodd" d="M620.832 1004.07C624.011 990.038 604.707 987.702 604.595 1002.36C603.972 1008.52 609.36 1012.53 610.722 1017.89C611.009 1021.37 615.11 1023.83 617.735 1020.92C622.115 1016.06 623.056 1009.46 620.832 1004.07Z" fill="#FBD4C5"/>
<path fill-rule="evenodd" clip-rule="evenodd" d="M620.554 1098.16C603.317 1092.37 607.612 1125.11 618.984 1129.58C625.855 1133.14 628.21 1124.23 626.956 1118.79C631.419 1111.72 627.331 1102.41 620.554 1098.16Z" fill="#FBD4C5"/>
<path fill-rule="evenodd" clip-rule="evenodd" d="M621.558 1224.83C612.117 1215.34 599.469 1232.63 616.587 1244.84C619.693 1250.78 628.182 1246.59 626.738 1240.38L626.756 1239.33C626.882 1233.93 627.394 1227.25 621.558 1224.83Z" fill="#FBD4C5"/>
<path fill-rule="evenodd" clip-rule="evenodd" d="M477.327 463.003C479.475 444.088 476.695 404.552 476.508 402.15C475.331 386.965 482.431 327.002 495.852 332.527C518.367 314.666 548.354 310.722 576.395 308.838C634.64 304.924 696.601 313.909 741.576 353.189C763.818 373.588 785.471 403.257 783.731 434.149C803.939 463.431 832.428 503.598 807.249 537.831C798.691 548.768 785.088 552.841 774.337 561.124C752.711 578.604 739.143 603.69 717.312 621.066C659.474 673.149 561.264 684.029 504.439 624.789C460.496 581.885 467.602 517.699 475.331 463.003C480.527 426.23 473.136 499.904 477.327 463.003Z" fill="#FBD4C5"/>
<path fill-rule="evenodd" clip-rule="evenodd" d="M654.202 228.625C638.625 225.475 622.63 223.515 606.722 224.105L605.496 224.153C593.527 224.632 578.369 225.693 567.928 232.667C567.328 232.063 566.362 231.753 565.486 232.172C553.078 238.107 539.431 242.398 526.366 246.662C513.362 250.905 499.87 253.706 486.24 254.835C481.112 255.26 476.723 260.809 479.97 265.786C480.743 266.972 481.495 268.17 482.245 269.371C480.991 269.24 479.738 269.105 478.484 268.978C474.36 268.562 470.24 272.973 470.484 276.997C470.637 279.528 470.909 282.029 471.313 284.5C469.742 284.467 468.18 284.703 466.671 285.342C459.032 288.575 459.563 297.694 460.135 304.632C460.928 314.26 464.521 324.458 471.193 331.664C466.211 336.849 462.685 343.041 460.581 350.395C459.056 355.765 458.206 361.485 458.625 367.075L458.759 368.749C459.277 374.815 460.308 381.531 464.663 385.895C466.898 388.145 469.652 388.965 472.278 388.705C470.69 402.685 469.672 416.745 468.714 430.755L468.265 437.451C466.128 469.831 464.522 502.422 464.942 534.855C465.332 565.165 471.309 594.585 489.859 619.195C506.755 641.605 531.012 658.125 558.454 664.405C573.243 667.795 588.341 668.035 603.31 665.875C610.565 664.825 617.869 663.215 624.755 660.675C632.378 657.855 637.857 653.705 642.986 647.485C645.412 644.535 644.244 638.255 639.413 638.845C632.107 639.733 625.438 640.803 618.434 642.968L617.431 643.285C610.454 645.525 603.23 647.195 595.936 647.905C580.997 649.355 565.83 647.895 551.519 643.355C528.218 635.955 508.151 619.465 495.288 598.745C480.02 574.185 478.294 546.305 478.514 518.065C478.751 487.077 479.756 456.07 481.398 425.114L481.678 419.955C482.546 404.025 483.384 388.085 484.122 372.145C484.351 367.145 484.7 362.105 485.33 357.115C491.087 353.735 496.246 349.075 499.609 343.325C506.365 346.125 513.469 348.145 520.007 349.755C535.149 353.487 550.869 354.393 566.282 352.056C570.439 353.777 574.679 355.29 578.984 356.592C580.148 357.109 581.311 357.617 582.474 358.115C592.853 362.565 603.38 366.335 614.336 369.095L617.028 369.768C622.793 371.192 629.056 372.595 635.192 373.035C636.2 373.425 637.288 373.755 638.476 374.045C644.063 375.405 649.862 375.835 655.589 375.355C661.168 374.885 665.2 369.235 662.126 363.945C659.881 360.085 657.615 356.235 655.33 352.395C663.283 355.715 671.495 358.475 679.778 360.815C688.14 363.175 696.622 365.165 705.115 366.995C709.656 367.965 714.215 368.825 718.745 369.795C721.989 370.485 726.968 370.845 729.614 372.985C732.536 375.335 733.365 380.815 734.473 384.195C735.93 388.585 737.297 392.995 738.545 397.455C741.028 406.355 743.064 415.385 744.641 424.505C746.217 433.635 747.276 442.855 747.865 452.105C748.453 461.345 748.194 470.645 749.141 479.845C749.651 484.725 754.879 487.235 758.741 483.825C759.194 483.425 759.651 483.021 760.103 482.612L760.777 481.995C764.081 478.995 767.284 475.815 769.927 472.235C770.406 471.575 770.865 470.885 771.294 470.185C771.364 470.185 771.424 470.165 771.494 470.115L772.227 469.562C780.298 463.543 793.781 455.694 801.65 465.695C804.158 468.881 805.442 472.938 806.507 476.851L808.377 483.856C809.587 488.428 810.725 493.026 811.391 497.705C812.897 508.185 812.139 520.265 804.943 528.665C802.069 532.025 798.108 534.425 793.688 535.055C791.222 535.395 788.787 534.975 786.343 534.665C783.858 534.355 781.464 534.855 778.978 534.615C775.027 534.225 773.3 538.965 774.777 541.945C775.575 543.545 776.514 544.925 777.581 546.095C776.724 546.835 775.905 547.635 775.116 548.475C772.781 549.225 770.687 550.835 769.119 552.965C767.852 554.685 767.194 556.555 767.083 558.525C766.945 559.015 766.825 559.515 766.714 560.025L764.573 563.507C764.102 564.271 763.633 565.025 763.163 565.765C757.714 574.365 751.666 581.645 744.152 588.505C736.917 595.105 729.065 601.015 722.268 608.095L721.467 608.936C715.131 615.627 708.452 623.726 710.932 633.455C711.571 635.955 715.054 637.755 717.328 636.065C724.643 630.625 728.326 622.005 734.532 615.405C740.92 608.605 747.995 602.495 754.4 595.715C760.458 589.315 765.238 582.065 768.84 574.085C770.278 575.675 772.372 576.805 775.276 577.245C780.265 577.995 784.917 575.065 787.091 570.735C788.489 571.355 789.915 571.915 791.353 572.355C798.917 574.675 803.676 566.245 800.822 560.015C799.296 556.675 797.39 553.775 795.024 551.335C802.42 550.315 809.944 546.485 814.803 541.705C826.997 529.695 828.673 511.645 825.929 495.595C824.472 487.085 821.958 478.475 818.694 470.485C818.126 469.095 817.517 467.695 816.849 466.315C817.218 466.305 817.598 466.145 817.837 465.835C820.042 462.815 822.726 460.345 824.363 456.965C825.87 453.865 827.545 450.725 828.734 447.495C831.178 440.885 832.375 433.425 833.174 426.435C834.82 412.125 834.182 397.905 831.996 383.685C828.275 359.465 819.286 336.287 806.043 315.949C806.764 315.569 807.455 315.111 808.099 314.569L808.417 314.291L808.934 313.823C812.713 310.396 812.387 303.973 808.934 300.502L807.843 299.407C806.463 298.032 805.272 296.943 803.041 295.446C802.712 295.225 802.376 295.017 802.035 294.823C803.203 292.661 803.608 290.133 802.795 287.344C799.961 277.628 786.01 277.972 777.168 282.209C767.386 273.46 756.539 265.865 744.781 259.715C716.78 245.075 685.118 234.865 654.202 228.625ZM798.946 484.525C793.717 482.815 786.771 486.405 782.071 488.565C776.114 491.305 771.045 495.355 766.135 499.635C763.69 501.775 763.252 505.275 763.86 508.265C763.921 508.565 763.98 508.875 764.05 509.185C764.699 512.375 768.252 514.885 771.395 514.795C777.971 514.615 781.103 508.925 784.826 504.105C785.265 504.885 785.813 505.605 786.493 506.145L786.952 506.505C788.497 507.684 790.2 508.626 792.241 508.535C793.688 508.465 795.074 508.095 796.352 507.425C799.545 505.735 800.951 501.595 800.084 498.225C799.545 496.105 798.308 494.445 796.691 493.295L797.294 492.882C798.583 491.983 799.759 491.035 800.676 489.636L800.883 489.305H800.803C801.801 487.585 801.151 485.245 798.946 484.525Z" fill="black"/>
<path fill-rule="evenodd" clip-rule="evenodd" d="M629.167 569.757C621.165 553.757 547.776 560.949 547.776 560.949L541.577 611.807C541.577 611.807 576.988 623.19 598.066 620.805C619.145 618.419 637.169 585.757 629.167 569.757Z" fill="white"/>
<path fill-rule="evenodd" clip-rule="evenodd" d="M623.997 596.471C626.532 591.047 574.066 576.256 557.822 586.364C541.578 596.471 546.657 610.256 546.657 610.256C546.657 610.256 614.98 625.84 623.997 596.471Z" fill="#FF8181"/>
<path fill-rule="evenodd" clip-rule="evenodd" d="M633.719 560.29C621.473 546.06 600.848 545.069 583.763 548.627C572.799 550.911 562.124 554.715 550.988 556.125C545.787 556.784 540.53 556.981 535.291 556.884C530.145 556.789 524.991 555.752 519.863 555.945C519.075 555.974 518.777 557.009 519.46 557.43C526.495 561.751 535.972 563.137 544.282 563.982C544.256 564.597 544.219 565.197 544.134 565.706C543.907 567.063 543.7 568.411 543.533 569.777C543.156 572.858 542.734 575.929 542.313 579.004C541.483 585.056 541.222 591.299 539.763 597.245L539.508 598.234C539.17 599.484 539.093 600.611 539.206 601.627L538.868 601.474L537.8 600.957L537.1 600.626C534.546 599.442 532.11 598.58 529.107 598.868C526.821 599.086 524.902 600.645 524.888 603.086C524.831 614.041 539.595 617.564 548.04 619.661L550.517 620.271C561.266 622.893 572.241 625.191 583.297 625.741C601.039 626.622 620.976 621.728 632.582 607.337C643.411 593.91 645.396 573.858 633.719 560.29ZM553.148 606.318C555.01 589.824 575.278 588.917 581.109 599.377C583.696 584.798 621.972 598.117 618.979 601.015C607.635 612.001 590.42 612.99 575.621 610.958C568.084 609.923 560.541 608.238 553.148 606.318ZM575.642 563.088L580.738 562.355L582.745 562.078C595.377 560.387 609.584 559.513 619.97 567.612C623.762 570.568 625.896 574.424 626.693 578.566C616.865 577.109 607.002 575.998 597.109 575.073L594.41 574.825C588.22 574.267 582.033 573.679 575.849 573.062L571.454 572.617L567.061 572.161C565.515 571.999 555.096 571.466 553.137 571.824C552.928 570.064 552.655 566.255 552.213 564.542C559.615 564.793 566.985 564.243 574.344 563.265L575.642 563.088ZM552.186 489.367C544.634 493.957 533.128 504.66 541.252 516.04C550.814 526.073 564.581 514.569 571.366 509.366C577.656 505.334 584.724 515.705 578.888 520.413C529.864 556.708 509.969 490.567 548.366 483.97C552.594 483.243 554.164 487.947 552.186 489.367ZM538.672 508.704L538.309 508.507L538.186 508.432C537.974 508.295 538.109 508.31 538.592 508.477L538.954 508.607V508.863C538.861 508.806 538.762 508.763 538.672 508.704ZM635.383 467.924L635.384 467.699C635.37 461.322 631.656 446.762 622.476 446.762C616.741 446.762 613.259 456.671 612.656 466.886L612.635 467.302C612.369 473.653 614.112 487.534 622.476 487.534C630.928 487.534 635.296 474.387 635.383 467.924ZM500.227 465.924L500.226 465.699C500.24 459.322 503.954 444.762 513.134 444.762C518.726 444.762 522.175 454.182 522.903 464.12L522.954 464.886C523.316 471.022 521.686 485.534 513.134 485.534C504.682 485.534 500.314 472.387 500.227 465.924ZM630.145 403.285C622.653 402.146 612.732 404.31 609.239 411.928C607.683 415.322 609.526 419.075 613.449 419.263C622.93 419.717 631.433 417.607 639.755 423.772C643.336 426.426 646.347 430.1 648.874 433.764L649.83 435.159L650.622 436.308C652.338 438.831 653.962 441.571 653.709 444.615C653.634 445.516 654.555 446.371 655.43 446.335C660.884 446.111 661.471 439.273 660.754 435.166C659.42 427.544 655.731 420.389 650.618 414.626C645.248 408.574 638.159 404.504 630.145 403.285ZM526.956 412.535C521.79 409.214 515.182 407.938 509.13 408.427C497.197 409.388 477.178 419.532 479.813 434.107C480.626 438.602 486.878 440.974 490.562 438.48C494.523 435.799 495.487 431.632 498.435 428.128C500.787 425.329 503.768 423.304 506.96 421.579C510.106 419.878 513.746 418.847 517.316 418.471L517.911 418.414C520.06 418.231 530.912 418.28 529.319 422.331C529.007 423.124 530.187 423.752 530.729 423.152C534.056 419.472 530.288 414.677 526.956 412.535Z" fill="#05051A"/>
<path fill-rule="evenodd" clip-rule="evenodd" d="M521.405 562.879C518.665 565.689 516.035 568.699 513.555 571.809C512.865 576.749 512.705 581.749 513.335 586.909C514.255 594.389 516.295 601.699 519.055 608.719C520.685 608.489 522.295 608.029 523.865 607.309C528.845 605.019 531.625 600.409 534.995 596.339C541.705 588.249 553.945 583.469 562.505 591.859C566.225 595.509 568.605 600.559 571.925 604.569C575.575 608.979 579.675 613.169 583.955 616.969C584.485 617.449 585.035 617.969 585.605 618.479C587.985 615.759 590.325 613.019 592.615 610.239C599.425 601.959 605.305 592.789 608.395 582.449C609.375 579.169 609.985 575.749 610.225 572.299C607.195 568.539 603.735 565.119 599.805 562.289C587.955 553.739 574.305 552.349 560.105 551.609C545.415 550.849 532.185 551.849 521.405 562.879ZM485.565 602.549C486.135 596.829 487.015 590.879 488.315 584.939C493.065 562.899 503.355 540.929 523.985 530.859C533.745 526.089 544.835 524.409 555.355 526.709C573.815 519.799 594.315 526.849 608.845 539.489C625.985 554.399 633.895 577.799 636.555 599.719C638.405 614.969 639.102 635.344 634.775 646.409C630.448 657.474 602.949 687.063 563.695 687.269C507.785 687.562 494.195 649.859 492.545 646.559C485.655 632.839 484.055 617.689 485.565 602.549Z" fill="black"/>
</g>
<defs>
<clipPath id="clip0_188_892">
<rect width="1372" height="1492" fill="white" transform="matrix(-1 0 0 1 1372 0)"/>
</clipPath>
</defs>
</svg>
