<svg width="1372" height="1492" viewBox="0 0 1372 1492" fill="none" xmlns="http://www.w3.org/2000/svg">
<g clip-path="url(#clip0_188_848)">
<path fill-rule="evenodd" clip-rule="evenodd" d="M1014.71 1022.03C1008.02 1001.66 1015.98 978.119 1010.78 956.151C1008.99 947.462 1005.6 915.179 1002.2 896.302C1000.29 885.743 1011.69 882.465 1013.44 878.25C1025.76 840.389 935.873 751.322 930.386 748.04C922.164 743.327 914.889 739.27 906.855 734.455C883.419 726.29 855.315 703.574 834.069 718.164C797.257 663.811 811.82 596.844 791.845 588.885C771.87 580.926 712.882 564.84 679.158 585.381C658.944 600.216 660.434 625.753 651.211 646.814C645.797 656.728 643.138 671.09 636.835 677.555C615.422 699.525 588.719 703.313 558.867 707.042C556.594 707.326 554.202 701.192 551.992 701.949C501.636 719.213 443.042 724.25 386.014 820.913C377.96 834.737 356.233 856.917 363.498 872.892C315.63 983.298 268.53 1231.8 399.875 1293.77C404.073 1296.44 432.555 1282.15 437.196 1282.28C444.932 1282.51 430.109 1301.14 437.196 1297.82C489.225 1301.73 775.512 1291.63 885.25 1301.73C960.713 1301.17 1008.51 1314.3 1025.93 1301.17C1018.97 1284.48 1019.29 1266.59 1021.49 1248.94C1037.53 1237.1 1017.71 1153.68 1019.38 1129.25C1034.4 1111.4 1022.44 1044.46 1014.71 1022.03Z" fill="#FBD4C5"/>
<path fill-rule="evenodd" clip-rule="evenodd" d="M555.924 706.879L555.441 707.187C555.361 707.239 555.283 707.292 555.207 707.349C554.693 707.732 554.774 708.424 555.38 708.656C556.186 708.969 557.033 709.205 557.905 709.391C560.553 713.201 562.622 717.91 564.067 720.297C568.218 727.155 603.851 770.273 609.177 775.813C617.83 784.816 660.443 818.666 661.021 817.99C667.875 822.052 674.977 825.696 682.354 828.806C726.01 847.206 782.005 848.875 819.522 818.31C822.318 819.068 848.842 781.188 852.943 767.619C854.942 768.169 857.419 753.627 856.036 753.848C857.242 745.627 842.715 716.095 841.336 714.683C841.544 714.618 841.751 714.557 841.959 714.498C842.08 714.757 842.357 714.953 842.681 714.869C845.452 714.153 848.26 713.775 851.066 713.831C853.2 713.874 868.435 720.759 869.027 721.041C869.389 721.214 869.754 721.388 870.121 721.563C992.002 779.676 1010.79 874.119 1015 873.905C1013.23 876.135 965.069 943.671 962.48 949.641C961.942 936.734 970.841 1280.8 971.463 1287.98C971.718 1290.94 971.737 1297.94 972.158 1300.75C969.1 1300.92 861.919 1293.66 662.618 1294.85C598.976 1295.23 441.675 1302.1 441.675 1302.1L441.623 1301.67C441.173 1297.46 441.565 1289.29 441.502 1285.09C447.543 1281.63 453.472 1277.95 459.332 1274.33C472.675 1266.1 555.002 1191.31 615.507 1124.38C651.376 1084.71 696.122 1058.01 698.544 1055.42C698.591 1055.36 698.614 1055.3 698.649 1055.25C698.775 1055.34 698.931 1055.43 699.131 1055.4C727.002 1051.45 768.584 1059.95 799.198 1044.23C812.865 1037.22 859.24 989.444 872.908 976.242C873.317 975.845 873.613 975.427 873.82 975C882.934 969.492 918.45 941.569 920.963 938.12L921.711 937.081C924.488 933.182 928.662 929.073 923.823 925.328C918.725 921.381 908.953 926.122 903.574 928.394L902.825 928.705C900.208 929.77 897.641 930.93 895.114 932.163C891.923 923.295 884.142 923.112 875.757 924.336C869.779 925.21 863.976 927.238 858.15 928.782C850.753 930.742 843.325 932.587 835.87 934.319C822.445 937.436 806.928 943.136 793.347 945.497C792.988 945.083 792.49 944.757 791.825 944.592C787.175 943.439 782.044 944.322 777.274 944.409C773.188 944.485 769.1 944.492 765.013 944.435L762.561 944.393C753.8 944.215 742.048 940.175 733.289 940.024L732.766 939.705L732.248 939.38C729.988 937.933 727.537 935.997 726.869 933.561C726.786 933.257 735.741 912.814 735.871 896.271C735.944 887.073 732.76 878.468 732.002 873.905C730.149 862.766 726.002 869.938 720.002 880.848C714.002 891.759 706.002 901.678 700.002 909.613C692.268 919.841 684.683 922.931 680.74 928.859C680.072 929.863 679.415 930.9 678.774 931.963C677.232 930.438 664.231 960.816 666.504 966.667C664.921 966.147 601.002 1047.48 462.002 1106.01C462.887 1100.53 487.002 956.231 481.002 932.426C475.002 908.621 395.652 820.64 387.401 818.687C388.227 817.351 356.002 839.189 414.002 782.652C472.002 726.115 510.651 716.541 539.525 706.036C541.141 705.537 542.75 705.034 544.35 704.525C543.946 705.234 544.863 706.017 545.567 705.441C549.559 702.166 553.024 703.703 555.924 706.879Z" fill="#9DDADB"/>
<path fill-rule="evenodd" clip-rule="evenodd" d="M990.779 899.845C983.58 910.23 976.966 920.921 970.987 932.042C967.904 937.778 965.028 943.629 962.439 949.598C961.901 936.691 961.783 923.632 960.262 910.853C960.153 909.93 958.602 909.482 958.439 910.607C956.759 922.195 956.482 934.083 955.847 945.795C955.116 945.573 954.308 945.445 953.418 945.445C944.778 945.445 936.268 946.147 927.659 946.839C923.801 947.149 919.765 947.386 915.83 947.996C918.997 944.526 921.947 940.861 924.67 937.039C927.447 933.139 930.621 927.046 925.782 923.301C920.437 919.164 909.955 924.575 904.784 926.678C902.167 927.744 899.6 928.903 897.073 930.136C893.882 921.269 884.101 920.093 875.716 921.317C869.738 922.191 863.935 924.219 858.109 925.764C850.712 927.724 843.284 929.569 835.829 931.3C822.404 934.417 808.887 937.142 795.306 939.502C794.947 939.089 794.449 938.762 793.784 938.598C789.134 937.445 784.003 938.328 779.233 938.415C774.329 938.506 769.424 938.499 764.52 938.398C755.759 938.221 747.007 938.148 738.248 937.998C735.758 936.501 732.601 934.353 731.828 931.535C730.863 928.018 733.877 924.123 735.276 921.13C740.649 909.636 742.528 896.773 740.42 884.256C740.044 882.024 739.27 879.584 738.152 877.298C747.749 878.316 757.221 879.008 766.87 879.32C786.137 879.942 805.403 880.594 824.679 880.735C863.22 881.02 901.762 881.022 940.303 880.742C962.095 880.585 983.837 880.386 1005.6 879.282C1003.83 881.512 1002.1 883.79 1000.42 886.103C1000.07 886 999.616 886.186 999.669 886.614C999.686 886.764 999.704 886.913 999.722 887.062C996.649 891.319 993.691 895.643 990.779 899.845ZM947.924 1295.08C938.967 1294.79 930.012 1294.51 921.056 1294.23C903.476 1293.67 885.896 1293.12 868.317 1292.56C833.49 1291.46 798.664 1290.4 763.832 1289.45C729.084 1288.5 694.319 1287.49 659.561 1288.57C624.724 1289.65 589.976 1292.44 555.204 1294.67C535.873 1295.92 516.528 1296.99 497.161 1297.51C478.716 1298 460.108 1297.26 441.692 1298.56C441.073 1294.05 441.528 1289.54 441.461 1285.05C447.502 1281.59 453.431 1277.91 459.291 1274.29C480.655 1261.11 500.849 1246.2 519.897 1229.9C522.825 1227.4 525.696 1224.84 528.538 1222.25C526.56 1226.54 528.143 1232.06 533.812 1233.88C540.725 1236.09 547.803 1235.31 554.983 1235.14C562.274 1234.97 569.565 1234.81 576.857 1234.65C591.108 1234.35 605.36 1234.09 619.612 1233.85C647.454 1233.39 675.297 1233.04 703.141 1232.82C759.161 1232.37 815.142 1233.13 871.153 1234.13C886.903 1234.41 902.637 1234.76 918.387 1234.41C926.267 1234.23 934.179 1234.18 942.05 1233.76C948.356 1233.42 954.7 1232.53 961.005 1231.74C961.8 1242.63 962.631 1253.52 963.557 1264.4C964.17 1271.59 964.8 1278.77 965.422 1285.96C965.677 1288.92 965.696 1291.94 966.117 1294.76C960.064 1295.09 954.048 1295.27 947.924 1295.08ZM954.083 987.517C953.863 995.854 953.746 1004.2 953.686 1012.54C952.959 1012.13 952.14 1011.83 951.217 1011.69C941.422 1010.2 930.941 1011.33 921.031 1011.49C911.452 1011.65 901.84 1011.6 892.27 1012.05C882.681 1012.5 873.096 1013.03 863.509 1013.53C859.011 1013.76 854.562 1013.96 850.099 1014.56C847.041 1014.98 843.13 1014.95 839.863 1015.81C853.568 1002.64 867.199 989.401 880.867 976.199C881.276 975.802 881.572 975.384 881.779 974.957C890.893 969.449 899.641 963.25 907.563 956.151C913.846 958.553 920.998 958.857 927.659 959.393C936.27 960.086 944.775 960.787 953.418 960.787C954.002 960.787 954.549 960.731 955.064 960.63C954.641 969.588 954.32 978.546 954.083 987.517ZM598.236 1149.48C619.159 1156.11 641.828 1156.03 663.595 1157.36C686.8 1158.77 709.97 1159.95 733.202 1160.85C779.601 1162.63 825.97 1165.07 872.362 1167C898.861 1168.1 925.354 1169.32 951.842 1170.64C953.721 1170.74 955.513 1170.26 957.094 1169.38C957.983 1186.68 959.025 1203.98 960.238 1221.26C960.389 1223.42 960.557 1225.58 960.712 1227.74C948.245 1226.19 935.873 1224.71 923.313 1223.66C909.209 1222.48 895.112 1221.48 880.988 1220.55C853.465 1218.74 825.898 1216.32 798.325 1215.43C742.117 1213.63 685.785 1214.24 629.556 1214.64C613.646 1214.75 597.737 1214.91 581.828 1215.1C573.874 1215.19 565.92 1215.3 557.966 1215.41C549.972 1215.53 541.381 1214.7 533.812 1217.47C533.74 1217.5 533.679 1217.54 533.608 1217.56C556.443 1196.1 576.9 1172.39 598.236 1149.48ZM671.788 1080.87C706.755 1087.18 742.27 1086.75 777.714 1087.37C813.981 1088.02 850.297 1087.59 886.57 1087.67C907.175 1087.71 927.957 1088.61 948.488 1086.79C950.914 1086.57 952.794 1085.66 954.135 1084.37C954.509 1106.02 955.194 1127.68 956.139 1149.32C954.807 1148.75 953.353 1148.41 951.842 1148.33C905.492 1145.62 859.139 1143.17 812.732 1141.67C766.362 1140.17 719.935 1138.39 673.54 1138.95C650.899 1139.22 626.957 1137.78 604.627 1142.68C613.113 1133.73 621.781 1124.96 630.848 1116.55C644.067 1104.3 658.173 1092.82 671.788 1080.87ZM698.503 1055.37C698.55 1055.32 698.573 1055.26 698.608 1055.21C698.734 1055.3 698.888 1055.36 699.09 1055.36C731.822 1054.63 768.543 1064.87 799.157 1049.15C812.824 1042.13 824.142 1031.04 835.129 1020.38C835.135 1020.46 835.142 1020.54 835.148 1020.62C835.22 1021.49 835.589 1022.53 836.473 1022.91C840.084 1024.48 844.313 1024.58 848.19 1025.14C852.649 1025.79 857.028 1026.16 861.526 1026.43C871.443 1027.02 881.359 1027.65 891.279 1028.2C901.177 1028.76 911.12 1028.81 921.031 1029.05C930.969 1029.3 941.38 1030.49 951.217 1029.08C952.12 1028.95 952.923 1028.67 953.636 1028.28C953.651 1040.9 953.767 1053.52 953.886 1066.14C953.906 1068.19 953.946 1070.25 953.97 1072.3C952.642 1071.1 950.817 1070.25 948.488 1070.05C930.247 1068.46 911.865 1069.17 893.56 1069.23C875.585 1069.29 857.608 1069.34 839.632 1069.4C803.335 1069.52 767.067 1069.88 730.776 1070.56C713.128 1070.89 695.557 1072.37 678.167 1075.2C685.208 1068.84 692.053 1062.29 698.503 1055.37ZM414.099 1284.86C407.398 1286.89 400.746 1286.01 394.032 1287.4C393.619 1287.49 393.238 1287.65 392.889 1287.86C372.783 1279.34 359.381 1262.24 350.209 1243.08C340.541 1222.88 333.877 1201.29 329.413 1179.41C320.209 1134.29 320.193 1087.51 324.957 1041.87C329.638 997.023 338.906 952.423 352.132 909.297C361.213 879.685 372.786 849.769 388.855 822.769C407.41 835.1 421.8 852.855 435.356 870.209C451.555 890.948 466.153 912.894 479.22 935.697C477.869 939.604 477.659 944.503 477.011 947.995C475.762 954.728 474.634 961.545 473.747 968.335C471.852 982.85 470.034 997.372 468.097 1011.88C464.266 1040.57 459.692 1069.18 454.639 1097.68C454.23 1099.99 454.884 1101.94 456.087 1103.41C446.065 1108.65 436.174 1114.12 426.537 1120.05C405.35 1133.09 385.549 1148.28 370.003 1167.76C369.599 1168.27 370.232 1168.95 370.732 1168.49C404.07 1137.94 445.488 1118.75 486.153 1099.79C506.934 1090.11 527.613 1080.26 547.551 1068.93C568.401 1057.09 588.285 1043.71 607.343 1029.2C629.105 1012.64 649.59 994.531 668.793 975.104C671.055 972.814 670.507 969.947 668.805 968.136C669.38 967.959 669.844 967.463 669.874 966.636C670.335 953.949 674.176 943.141 681.696 932.873C688.672 923.346 697.563 915.495 705.583 906.875C709.147 903.045 712.553 899.054 715.594 894.797C718.725 890.416 720.632 885.58 723.357 881.002C726.54 875.653 729.248 878.386 730.723 883.228C732.396 888.717 732.292 895.143 731.62 900.786C730.909 906.757 729.076 912.579 726.436 917.976C723.956 923.045 721.097 928.202 722.766 934.012C725.509 943.561 737.269 949.091 746.178 951.241C756.098 953.636 766.475 953.17 776.52 951.929C789.1 950.372 801.62 948.095 814.055 945.673C828.456 942.869 842.772 939.632 856.976 935.975C863.653 934.256 870.283 931.996 877.025 930.572C879.429 930.066 883.878 929.304 886.703 930.547C850.388 952.019 810.797 966.324 770.586 978.789C765.59 980.336 767.639 987.82 772.752 986.58C815.951 976.104 856.593 956.66 895.272 935.364C895.864 935.037 896.366 934.532 896.735 933.935C900.626 932.577 904.582 931.398 908.616 930.425C910.419 929.99 919.693 926.955 920.852 928.122C922.495 929.773 916.81 935.136 915.39 936.695C905.282 947.801 893.259 956.866 880.245 964.36C867.044 971.96 852.998 978.019 838.886 983.737C823.078 990.143 806.369 995.178 791.003 1002.54C784.899 1005.47 789.182 1015.4 795.613 1013.39C803.901 1010.79 811.954 1006.97 820.008 1003.73C826.85 1000.97 833.693 998.222 840.496 995.374C845.239 993.388 849.95 991.336 854.615 989.192C847.627 995.714 840.638 1002.24 833.651 1008.76C821.551 1020.06 810.054 1032.93 795.262 1040.86C780.648 1048.69 763.976 1049.6 747.709 1049.43C739.542 1049.35 731.411 1049.09 723.244 1049.41C714.649 1049.76 707.016 1051.07 698.871 1053.75C698.721 1053.8 698.612 1053.89 698.52 1053.99C698.235 1053.65 697.752 1053.47 697.253 1053.77C675.12 1066.75 654.945 1083.58 635.542 1100.23C615.544 1117.38 596.727 1135.62 578.798 1154.89C561.637 1173.33 544.613 1191.84 525.939 1208.8C507.706 1225.37 488.221 1240.41 467.875 1254.34C456.789 1261.92 445.429 1269.23 433.675 1275.76C427.394 1279.25 421.015 1282.76 414.099 1284.86ZM415.96 785.549C423.886 776.718 432.417 768.533 441.444 760.961C445.427 762.13 449.608 762.458 453.821 762.5C460.25 762.564 466.693 762.83 473.122 762.764C485.501 762.638 497.875 762.25 510.257 762.184C535.574 762.047 560.899 762.04 586.216 762.258C589.533 762.287 591.926 760.88 593.403 758.837C598.528 764.6 603.81 770.23 609.136 775.771C617.789 784.773 627.014 793.362 636.834 801.189C634.922 801.201 633.011 801.218 631.11 801.205C622.353 801.147 613.595 801.092 604.839 801.046C587.266 800.949 569.693 800.878 552.12 800.831C517.184 800.74 482.139 801.029 447.248 802.803C437.564 803.295 427.804 803.495 418.154 804.431C412.92 804.939 407.692 805.531 402.463 806.083C401.393 806.197 400.367 806.338 399.36 806.498C404.481 799.2 409.997 792.191 415.96 785.549ZM555.883 706.836C555.647 706.995 555.392 707.136 555.166 707.306C554.652 707.689 554.733 708.381 555.339 708.613C556.145 708.926 556.992 709.162 557.864 709.348C560.512 713.158 562.581 717.868 564.026 720.254C568.177 727.112 572.95 733.644 577.806 740.022C578.782 741.303 579.777 742.569 580.776 743.833C557.261 743.777 533.758 743.896 510.257 744.778C497.884 745.243 485.469 745.633 473.122 746.554C468.045 746.933 462.971 747.568 457.91 748.197C484.25 729.312 513.872 714.891 544.559 704.185C544.517 704.231 544.474 704.266 544.432 704.312C543.756 705.056 544.765 706.021 545.526 705.398C549.518 702.123 552.983 703.66 555.883 706.836ZM674.699 928.816C674.031 929.821 673.374 930.857 672.733 931.92C671.191 930.395 669.037 929.375 666.262 929.29C635.457 928.337 604.667 927.504 573.845 927.483C558.645 927.473 543.307 926.965 528.126 927.711C520.503 928.086 512.883 928.532 505.264 928.961C499.937 929.26 494.278 929.633 489.076 931.163C477.087 910.363 463.778 890.366 449.244 871.245C482.22 875.257 515.761 874.83 548.924 875.944C586.497 877.206 624.091 877.478 661.677 878.361C671.987 878.603 682.297 878.869 692.605 879.154C697.925 879.302 703.246 879.455 708.567 879.615C710.23 879.664 711.951 879.71 713.674 879.665C713.544 879.932 713.412 880.199 713.283 880.463C710.382 886.406 706.734 891.876 702.483 896.953C693.445 907.746 682.528 917.044 674.699 928.816ZM634.286 992.886C633.145 989.74 630.365 987.32 625.936 987.52C600.696 988.657 575.409 989.446 550.198 991.093C537.917 991.896 525.586 992.437 513.325 993.502C507.001 994.053 500.688 995.075 494.391 995.889C490.074 996.447 485.554 997.095 481.413 998.616C482.216 989.823 482.924 981.023 483.539 972.211C484.032 965.131 484.182 957.986 484.144 950.888C484.125 947.296 484.002 943.682 483.827 940.091C484.199 940.165 484.572 940.202 484.938 940.157C485.584 940.078 486.187 940.002 486.747 939.853C492.55 942.106 499.118 942.603 505.264 943.038C512.554 943.553 519.842 944.102 527.132 944.617C542.643 945.715 558.3 945.644 573.845 946.147C604.446 947.136 635.053 947.711 665.66 948.523C664.24 954.567 664.19 960.773 666.463 966.624C664.88 966.104 663.057 966.346 661.501 967.87C652.685 976.508 643.606 984.84 634.286 992.886ZM545.252 1057.15C544.629 1055.44 543.453 1053.87 542.061 1052.8C536.709 1048.71 526.939 1051.07 520.515 1051.38C512.91 1051.75 505.304 1052.12 497.699 1052.49C495.391 1052.6 483.611 1053.19 474.959 1055.02C476.747 1041.63 478.369 1028.22 479.819 1014.78C480.123 1011.96 480.405 1009.14 480.684 1006.31C484.76 1007.61 489.19 1008.09 493.394 1008.29C499.694 1008.59 506.023 1009.09 512.329 1009.19C524.928 1009.39 537.597 1008.77 550.198 1008.56C572.89 1008.19 595.585 1007.11 618.267 1006.23C595.494 1024.56 571.431 1041.29 546.331 1056.51C545.973 1056.72 545.61 1056.93 545.252 1057.15ZM473.58 1065.09C475.497 1065.35 477.398 1065.43 478.852 1065.57C486.152 1066.3 493.338 1066.97 500.675 1067.07C507.95 1067.18 515.224 1067.28 522.499 1067.39C524.046 1067.41 525.593 1067.43 527.14 1067.46C507.984 1077.84 488.24 1087.13 468.775 1096.92C470.49 1086.33 472.091 1075.72 473.58 1065.09ZM682.313 828.763C725.969 847.163 781.964 848.833 819.481 818.267C823.209 819.278 827.332 819.615 830.624 819.942C838.02 820.679 845.348 821.356 852.78 821.588C867.265 822.036 881.763 822.707 896.254 822.885C925.569 823.244 954.886 823.412 984.202 823.671C986.697 823.693 988.693 822.939 990.207 821.728C993.176 826.721 995.938 831.839 998.459 837.087C1002.14 844.741 1005.25 852.651 1007.81 860.739C1007.26 860.645 1006.69 860.579 1006.08 860.568C967.556 859.908 929 861.007 890.466 861.167C851.923 861.326 813.385 861.163 774.843 861.434C764.177 861.511 753.59 861.513 742.951 862.297C737.414 862.706 731.811 862.885 726.327 863.771C725.714 863.869 725.09 863.957 724.461 864.044C717.112 859.784 707.989 860.674 699.589 860.517C689.944 860.336 680.3 860.176 670.656 860.034C651.7 859.755 632.742 859.552 613.784 859.423C576.159 859.167 538.626 860.12 501.025 861.421C482.317 862.066 463.68 863.164 445.213 866.02C443.973 864.428 442.745 862.828 441.489 861.249C428.404 844.8 412.892 823.741 391.36 818.644C392.186 817.309 393.024 815.981 393.875 814.663C408.793 818.565 425.25 818.368 440.492 819.185C458.061 820.127 475.593 820.777 493.183 821.206C528.148 822.058 563.106 822.592 598.078 823.119C607.784 823.266 617.49 823.42 627.196 823.58C632.431 823.667 637.667 823.767 642.903 823.846C645.828 823.891 648.443 823.883 651.23 822.92C653.811 822.028 656.327 820.69 658.823 819.582C659.694 819.195 660.402 818.623 660.98 817.947C667.834 822.009 674.936 825.653 682.313 828.763ZM852.902 767.576C858.393 769.087 864.06 769.338 869.865 769.773C877.485 770.345 885.087 770.441 892.727 770.49C904.908 770.567 917.092 770.484 929.269 770.151C934.5 770.008 937.556 766.535 938.463 762.558C938.589 762.659 938.719 762.758 938.845 762.861C953.666 774.973 967.095 788.826 978.475 804.159C951.069 804.245 923.66 804.262 896.254 804.445C881.765 804.542 867.265 805.132 852.78 805.502C845.674 805.683 838.672 806.267 831.596 806.934C831.456 806.947 831.308 806.959 831.165 806.972C831.915 806.114 832.659 805.244 833.386 804.35C841.844 793.954 848.801 781.145 852.902 767.576ZM1031.09 1313.3C1033.51 1306.7 1032.57 1299.62 1032.43 1292.68C1032.29 1285.56 1032.21 1278.45 1032.19 1271.33C1032.14 1257.41 1032.05 1243.49 1031.89 1229.57C1031.58 1201.41 1031.25 1173.24 1030.13 1145.1C1027.93 1089.46 1023.67 1033.97 1016.73 978.713C1013.36 951.849 1009.17 925.047 1003.49 898.562C1003.57 898.456 1003.64 898.347 1003.72 898.24C1009.38 890.739 1015.82 883.806 1021.38 876.255C1021.87 875.585 1022.08 874.726 1022.07 873.858C1022.28 873.759 1022.48 873.656 1022.69 873.539C1027.3 870.935 1023.13 863.834 1018.52 866.473C1019.05 866.17 1011.4 846.675 1010.59 844.712C1007.67 837.662 1004.39 830.768 1000.7 824.087C998.467 820.057 996.08 816.111 993.58 812.238C993.143 809.346 991.568 806.665 988.862 805.23C984.114 798.484 978.985 791.999 973.518 785.82C951.137 760.527 923.182 740.109 892.641 725.566C888.228 723.465 883.684 721.713 879.156 719.879C874.336 717.924 869.866 715.369 865.116 713.317C857.387 709.979 849.756 710.171 842.164 713.705C841.515 714.007 841.98 714.997 842.64 714.826C847.528 713.563 852.535 713.351 857.435 714.723C862.236 716.068 865.886 719.04 870.08 721.52C877.55 725.938 885.901 728.819 893.558 732.943C903.683 738.4 913.578 744.392 923.043 750.971C913.236 751.485 903.422 751.857 893.605 752.115C886.314 752.308 879.026 752.34 871.745 752.761C866.563 753.059 861.174 752.975 855.995 753.805C857.244 745.29 857.246 736.698 855.685 728.403C855.685 728.4 855.684 728.397 855.684 728.394C855.307 726.396 854.85 724.412 854.288 722.451C853.091 718.278 849.256 717.652 846.472 719.231C846.196 719.03 845.918 718.832 845.651 718.616C842.316 715.93 839.314 712.717 836.703 709.339C831.28 702.322 826.897 694.198 823.578 686.01C820.216 677.718 817.834 669.042 815.501 660.422C814.331 656.1 813.065 651.801 811.873 647.483C810.837 643.728 810.083 639.581 808.18 636.16C807.823 635.52 806.749 635.641 806.578 636.369C805.57 640.654 806.103 645.541 806.288 649.91C806.492 654.759 806.773 659.564 807.424 664.376C808.773 674.363 810.949 684.179 814.436 693.662C817.779 702.755 822.191 711.241 828.183 718.902C832.164 723.991 837.818 730.728 844.367 733.473C845.223 743.027 845.125 752.59 842.85 762.049C839.874 774.43 834.175 786.198 826.345 796.281C809.927 817.422 784.527 829.367 758.028 831.829C730.612 834.375 702.556 828.294 677.921 816.334C650.52 803.03 627.789 782.506 607.372 760.354C595.602 747.584 583.398 735.02 572.49 721.51C570.557 719.115 567.463 714.254 563.793 709.875C567.528 709.841 571.361 709.287 574.667 708.866C581.507 707.995 588.192 706.647 594.876 704.961C607.373 701.809 620.551 697.423 631.471 690.485C654.578 675.802 663.598 657.177 666.679 631.518C667.653 623.407 653.512 621.437 652.195 629.573C650.172 642.081 647.111 648.167 643.086 660.182C639.215 671.73 633.608 676.032 622.891 682.398C612.83 688.375 601.396 691.847 590.312 695.434C584.17 697.422 577.955 699.235 571.761 701.062C567.818 702.226 563.137 703.24 559.137 705.037C557.05 703.22 554.873 701.851 552.681 701.332C552.842 701.063 552.633 700.646 552.229 700.725C551.585 700.853 550.943 700.994 550.299 701.126C549.652 701.171 549.008 701.298 548.365 701.528C509.759 709.82 472.685 727.479 441.247 751.534C439.662 752.19 438.129 752.994 436.67 754.011C435.919 754.533 435.421 755.364 435.278 756.224C430.552 760.05 425.966 764.022 421.535 768.132C385.849 801.238 363.238 845.278 347.409 890.575C331.816 935.201 321.261 981.996 315.457 1028.85C309.54 1076.61 308.858 1125.36 317.44 1172.85C322.048 1198.35 329.508 1223.41 340.519 1246.93C350.407 1268.05 366.502 1292.11 391.782 1294.68C391.863 1294.77 391.939 1294.85 392.03 1294.93C401.949 1303.03 416.717 1297.43 427.087 1292.59C428.731 1291.82 430.362 1291.02 431.986 1290.19C431.128 1293.46 430.741 1296.89 430.562 1300.11C430.189 1306.79 439.68 1307.16 441.477 1301.62C456.862 1304.31 472.749 1304.34 488.31 1304.26C505.697 1304.16 523.078 1303.57 540.445 1302.76C574.903 1301.14 609.32 1298.68 643.801 1297.56C713.619 1295.29 783.628 1300.14 853.39 1302.58C872.96 1303.26 892.53 1303.95 912.1 1304.63C932.095 1305.33 952.07 1305.47 971.904 1308.15C979.197 1309.13 981.991 1302.04 979.934 1297.63C980.447 1294.66 979.936 1291.41 979.655 1287.91C979.131 1281.38 978.636 1274.85 978.172 1268.32C977.266 1255.58 976.391 1242.83 975.561 1230.09C973.879 1204.26 972.432 1178.41 971.024 1152.57C968.225 1101.19 966.082 1049.76 964.506 998.329C964.121 985.791 963.619 973.25 962.985 960.722C963.74 959.534 964.493 958.345 965.221 957.142C967.645 953.132 970.022 949.096 972.477 945.103C977.402 937.101 982.357 929.151 987.535 921.306C992.007 914.532 996.62 907.861 1001.44 901.329C1007.42 951.452 1012.74 1001.62 1015.18 1052.07C1017.87 1107.63 1019.3 1163.27 1020.08 1218.89C1020.29 1234.43 1020.44 1249.97 1020.61 1265.5C1020.69 1273.59 1020.78 1281.68 1020.71 1289.77C1020.65 1297.51 1019.47 1305.98 1022.24 1313.3C1023.85 1317.57 1029.5 1317.65 1031.09 1313.3Z" fill="black"/>
<path fill-rule="evenodd" clip-rule="evenodd" d="M650 624.134C654.243 613.557 668.586 617.669 666.987 628.78C666.03 635.435 666 640.458 664.5 649.427C663 658.396 662.734 659.846 658.577 663.405C665.977 670.253 673.658 676.851 681.534 683.116C690.128 689.951 699.165 696.251 708.506 702.042C716.697 707.12 725.258 711.62 732.979 717.414C740.158 722.801 746.698 729.28 750.026 737.738C753.571 746.744 752.03 756.046 749.419 765.046L749.12 766.064C746.453 774.981 741.836 785.73 748.238 794.131C751.497 798.408 756.235 801.437 760.326 804.856C763.962 807.896 767.374 811.201 770.505 814.75C777.329 822.489 782.88 831.197 786.383 840.899L786.697 841.781C789.699 850.37 791.894 860.892 787.837 869.325C786.673 871.742 782.919 870.956 782.267 868.603C780.793 863.27 780.869 857.686 779.633 852.278C778.348 846.654 776.208 841.316 773.413 836.265C768.005 826.495 760.681 818.148 752.028 811.092L749.438 809.003C742.688 803.508 736.486 797.679 735.116 788.586C733.65 778.856 737.58 769.588 740.107 760.38C741.868 753.962 742.443 747.81 740.54 742.011C738.215 745.775 735.043 749.348 732.534 752.535C727.537 758.884 722.493 765.194 717.462 771.516C712.304 777.999 707.273 784.584 702.482 791.34C700.339 794.362 698.219 797.402 696.106 800.446C694.517 802.733 692.3 805.018 690.569 807.351C690.99 808.599 690.957 810.037 690.194 811.059C681.009 823.368 667.943 797.684 664.535 791.195C657.595 777.98 652.43 763.941 645.467 750.73C638.252 737.034 630.036 723.703 620.879 711.199C615.34 703.636 609.132 696.532 604.065 688.729C602.362 686.107 601.122 683.849 601.122 683.849C600.683 683.058 600.259 682.259 599.851 681.451L599.601 681.659C599.558 681.693 599.514 681.725 599.469 681.756C598.11 682.69 596.109 682.231 594.989 681.183C591.826 678.223 592.897 674.937 595.008 671.868L595.283 671.477C597.865 667.89 600.168 664.097 602.551 660.379L604.043 658.054C608.043 651.843 612.246 645.591 617.58 640.458C620.05 638.08 622.754 636.3 625.619 634.974C625.374 634.46 627.522 633.41 628.131 633.938C637.208 630.643 638.217 629.168 648.113 630.076" fill="#05051A"/>
<path fill-rule="evenodd" clip-rule="evenodd" d="M814.047 656.933C814.646 656.631 815.221 656.824 815.604 657.338C816.151 658.07 816.084 658.782 815.414 659.284C816.309 661.098 817.366 665.643 817.517 666.304C818.129 668.986 818.78 671.653 819.461 674.317C820.835 679.69 822.039 685.105 823.414 690.48C824.872 696.177 826.609 701.814 828.542 707.369C828.667 707.729 828.804 708.096 828.948 708.469L829.168 709.032L829.222 708.946C829.615 708.33 830.433 708.761 830.336 709.412C830.246 710.005 830.125 710.595 830.023 711.188L830.226 711.719C831.49 715.095 832.356 718.65 830.036 721.629C829.168 722.742 828.213 723.402 827.023 723.598C825.115 729.837 822.721 735.96 820.158 741.84L819.407 743.557C815.637 752.137 811.616 760.604 805.613 767.909C799.059 775.883 790.044 781.329 784.335 790.067C781.679 794.132 779.831 798.406 778.331 802.997L777.767 804.739C776.703 807.986 775.474 811.133 772.403 813.037C771.423 813.644 769.955 813.451 769.165 812.623C762.868 806.016 769.46 793.679 773.257 787.282C778.535 778.387 786.174 772.697 793.823 765.985C802.068 758.752 807.327 749.075 812.414 739.542C815.53 733.702 818.538 727.736 821.705 721.87C818.397 718.969 817.338 713.207 816.217 709.202L816.114 708.843C814.261 702.43 812.789 695.85 811.859 689.241C810.964 682.886 810.591 676.623 810.828 670.233L810.896 668.605" fill="#05051A"/>
<path fill-rule="evenodd" clip-rule="evenodd" d="M826.351 687.177C825.62 686.184 826.83 685.058 827.833 685.265C833.931 686.516 839.893 690.177 845.367 693.138L845.951 693.452C850.32 695.789 854.716 698.652 857.01 703.191C859.505 708.126 859.3 713.809 858.959 719.171L858.927 719.673C858.51 726.103 858.443 732.784 857.071 739.098C856.369 742.33 853.418 743.241 850.895 742.477C847.893 751.879 839.46 758.806 833.3 766.225C825.446 775.684 826.924 788.454 827.745 799.846C828.077 804.458 822.293 805.77 819.314 803.309L812.449 797.653C811.306 796.709 810.164 795.763 809.025 794.813C808.05 793.999 807.083 793.179 806.125 792.349L804.693 791.095C804.058 790.531 801.257 787.428 800.438 787.299C798.454 786.986 793.741 792.172 792.128 793.798L791.924 794.001C788.888 796.954 786.145 800.131 783.59 803.5C783.12 804.119 782.201 803.605 782.537 802.89C784.826 798.026 787.488 793.375 790.649 789.023L791.288 788.156C793.391 785.345 796.214 780.382 799.926 779.551C804.459 778.538 808.984 783.047 812.282 785.549L812.491 785.706C814.06 786.873 815.611 788.062 817.159 789.258C816.997 780.776 818.077 772.206 822.492 764.897C825.605 759.743 830.269 755.925 834.26 751.495C838.703 746.562 841.023 740.5 845.045 735.363C845.563 734.702 846.277 734.346 847.05 734.233C847.205 730.103 847.818 725.933 848.292 721.848L848.429 720.625C848.908 716.186 850.04 710.764 847.849 706.607C845.779 702.681 841.031 699.91 837.514 697.246L834.643 695.036" fill="#05051A"/>
<path fill-rule="evenodd" clip-rule="evenodd" d="M628.435 640.243C626.599 641.297 624.883 642.607 623.326 644.244C618.425 649.401 614.921 655.819 611.511 661.992C609.675 665.317 607.905 668.678 606.054 671.995C605.249 673.438 604.421 674.866 603.584 676.291C603.197 676.948 602.047 678.253 601.477 679.057C602.11 679.938 602.765 680.804 603.433 681.662C603.688 681.989 621.268 700.985 627.397 708.419C636.781 719.807 645.169 731.835 652.34 744.71C659.362 757.318 664.708 770.667 671.213 783.518C674.469 789.953 678.105 796.341 682.74 801.91C682.919 802.127 683.108 802.332 683.291 802.547C685.06 797.807 689.592 792.731 691.818 789.817L692.027 789.542C697.076 782.791 702.408 776.244 707.856 769.808C712.832 763.93 717.934 758.18 723.16 752.525L725.126 750.408C728.767 746.507 733.392 740.67 738.722 737.883C738.151 736.873 737.49 735.874 736.73 734.888C731.736 728.416 724.676 723.718 717.71 719.48L713.193 716.754C696.165 706.461 679.402 695.692 664.62 682.319C656.799 675.243 649.086 667.83 642.512 659.577L640.187 656.659" fill="#05051A"/>
<path d="M746.5 773.908C752.232 756.854 752.334 745.143 751 741.176C751 741.176 767 739.192 785 731.257C803 723.322 818 715.387 818 715.387C819 717.867 820.667 720.677 822 721.834C818.838 727.323 810.009 745.387 803 755.558C794 768.62 788.979 769.444 781.5 777.38C764.3 795.63 767.5 807.136 768.5 812.591C763 806.144 738 799.201 746.5 773.908Z" fill="#FBD4C5"/>
<path d="M990.5 806.953C973.5 760.831 821.999 680.985 818.499 672.058L829.999 711.733C825.158 719.855 821.198 735.799 814.499 746.945C804.03 764.363 788.708 775.982 779.999 790.091C773.752 800.212 770.446 809.753 768.499 812.409C763.299 810.028 754.499 806.292 749.499 801.498C722.499 787.612 756.499 751.904 738.999 735.538L603.499 685.944C513.832 702.641 372.586 753.888 360.499 882.336C348.413 1010.78 406.999 1075.26 460.999 1095.59C504.887 1112.12 617.246 1019.44 657.999 973.589C668.499 966.15 667.999 970.118 669.999 946.809C671.38 930.72 711.499 891.263 716.999 882.336C722.499 873.409 726.999 870.434 732.999 876.385C738.999 882.336 740.499 897.215 732.999 916.06C725.499 934.906 731.499 939.865 749.499 944.329C767.499 948.792 858.499 931.93 873.999 926.971C889.499 922.012 886.999 931.93 893.499 931.93C899.999 931.93 909.999 927.467 921.999 925.483C933.999 923.499 919.999 938.874 917.499 942.841C915.499 946.015 885.666 970.283 870.999 982.02C849.999 1003.02 803.299 1046.39 784.499 1051.95C765.699 1057.5 719.332 1056.25 698.499 1054.92L627.999 1114.93L526.999 1218.58L437.999 1283.06V1299.92C450.398 1302.88 554.685 1296.5 664.999 1295.45C794.908 1294.22 933.561 1298.29 945.999 1303.39C964.399 1310.93 1021.33 1309.51 1047.5 1307.85C1062.5 918.54 1032 857.043 990.5 806.953Z" fill="#05051A"/>
<path d="M372.001 1307.85C234.001 1218.58 355.001 884.32 358.501 865.474L470.001 1091.62C495.501 1074.6 562.301 1031.42 625.501 994.915C619.101 1078.23 666.168 1090.14 690.501 1085.67C597.001 1165.19 402.401 1320.95 372.001 1307.85Z" fill="#05051A"/>
<path fill-rule="evenodd" clip-rule="evenodd" d="M749.734 264.173C899.929 268.939 908.988 340.43 908.988 460.325C908.988 580.22 831.073 655.771 802.384 668.963C773.694 682.156 698.151 738.821 629.978 712.708C561.804 686.595 581.546 576.272 581.546 528.869C581.546 481.467 599.539 259.408 749.734 264.173Z" fill="#FBD4C5"/>
<path fill-rule="evenodd" clip-rule="evenodd" d="M604.562 454.445C635.618 327.547 692.31 265.634 774.638 268.706C898.132 273.315 896.83 399.451 889.082 387.95C884.02 380.436 848.581 354.187 782.765 309.203L778.697 306.426L604.562 454.445Z" fill="#A58618"/>
<path fill-rule="evenodd" clip-rule="evenodd" d="M678.056 348.348C693.414 334.537 709.919 321.396 727.353 310.307C744.995 299.087 764.264 292.377 785.09 292.217C783.633 293.387 782.246 294.687 780.839 295.896C776.908 299.267 772.986 302.657 769.064 306.037C761.221 312.807 753.357 319.566 745.614 326.447C730.366 340.007 715.068 353.497 699.85 367.087C670.602 393.207 641.984 419.896 613.982 447.357C614.132 446.687 614.292 446.017 614.451 445.348C623.721 406.547 648.938 374.537 678.056 348.348ZM810.665 629.587C783.084 645.017 751.501 645.617 721.833 635.907C704.041 630.098 687.726 621.117 672.457 610.377C659.176 601.027 647.321 590.657 635.575 579.646C625.906 558.277 617.295 536.947 613.263 513.697C609.65 492.827 609.171 471.157 613.362 450.327C644.358 424.777 675.163 399.017 705.927 373.178C721.594 360.017 737.3 346.928 753.197 334.047C761.27 327.507 769.264 320.867 777.306 314.297C778.633 313.217 779.951 312.137 781.278 311.057C797.882 323.237 815.685 333.678 832.171 346.057C840.802 352.547 849.194 359.457 857.187 366.726C861.378 370.537 865.47 374.467 869.462 378.497C873.113 382.178 876.636 387.457 881.816 388.848C882.524 389.037 883.192 389.077 883.821 388.987C890.746 449.747 895.666 515.357 865.998 570.537C853.056 594.607 834.705 616.127 810.665 629.587ZM798.441 293.907C798.541 293.607 798.612 293.316 798.652 293.037C838.618 298.257 871.997 327.726 883.033 366.527C882.075 367.867 881.546 369.457 881.745 371.146C881.845 371.997 881.945 372.857 882.045 373.707C880.678 372.348 879.271 371.077 878.074 369.867C874.092 365.827 870.011 361.896 865.819 358.066C857.247 350.237 848.347 342.917 838.966 336.087C822.651 324.207 804.988 313.287 785.539 307.587C786.816 306.537 788.094 305.487 789.382 304.447C793.223 301.316 796.786 298.737 798.441 293.907ZM865.102 255.925C840.564 229.055 806.585 209.375 770.801 202.535C736.633 195.995 701.257 200.305 668.977 213.015C601.428 239.615 548.131 298.106 523.174 365.885C508.625 405.375 514.45 416 502.476 471C490.501 526 496.987 531.492 471.042 616.5C445.097 701.508 445.097 730 548.378 839.5C651.659 949 653.266 858.614 732.988 858.5C805.417 858.386 878.422 897.133 908.118 829C946.037 742 965.496 727 951.027 655.5C936.558 584 928.01 589.5 928.01 536C928.01 482.5 930.465 468.675 928.01 428.625C924.237 367.245 907.433 302.285 865.102 255.925Z" fill="#05051A"/>
<path fill-rule="evenodd" clip-rule="evenodd" d="M742.833 569.757C750.835 553.757 824.224 560.949 824.224 560.949L830.423 611.807C830.423 611.807 795.012 623.19 773.934 620.805C752.855 618.419 734.831 585.757 742.833 569.757Z" fill="white"/>
<path fill-rule="evenodd" clip-rule="evenodd" d="M748.003 596.471C745.468 591.047 797.934 576.256 814.178 586.364C830.422 596.471 825.343 610.256 825.343 610.256C825.343 610.256 757.02 625.84 748.003 596.471Z" fill="#FF8181"/>
<path fill-rule="evenodd" clip-rule="evenodd" d="M738.281 560.29C750.527 546.06 771.152 545.069 788.237 548.627C799.201 550.911 809.876 554.715 821.012 556.125C826.213 556.784 831.47 556.981 836.709 556.884C841.855 556.789 847.009 555.752 852.137 555.945C852.925 555.974 853.223 557.009 852.54 557.43C845.505 561.751 836.028 563.137 827.718 563.982C827.744 564.597 827.781 565.197 827.866 565.706C828.093 567.063 828.3 568.411 828.467 569.777C828.844 572.858 829.266 575.929 829.687 579.004C830.517 585.056 830.778 591.299 832.237 597.245L832.492 598.234C832.83 599.484 832.907 600.611 832.794 601.627L833.132 601.474L834.2 600.957L834.9 600.626C837.454 599.442 839.89 598.58 842.893 598.868C845.179 599.086 847.098 600.645 847.112 603.086C847.169 614.041 832.405 617.564 823.96 619.661L821.483 620.271C810.734 622.893 799.759 625.191 788.703 625.741C770.961 626.622 751.024 621.728 739.418 607.337C728.589 593.91 726.604 573.858 738.281 560.29ZM818.852 606.318C816.99 589.824 796.722 588.917 790.891 599.377C788.304 584.798 750.028 598.117 753.021 601.015C764.365 612.001 781.58 612.99 796.379 610.958C803.916 609.923 811.459 608.238 818.852 606.318ZM796.358 563.088L791.262 562.355L789.255 562.078C776.623 560.387 762.416 559.513 752.03 567.612C748.238 570.568 746.104 574.424 745.307 578.566C755.135 577.109 764.998 575.998 774.891 575.073L777.59 574.825C783.78 574.267 789.967 573.679 796.151 573.062L800.546 572.617L804.939 572.161C806.485 571.999 816.904 571.466 818.863 571.824C819.072 570.064 819.345 566.255 819.787 564.542C812.385 564.793 805.015 564.243 797.656 563.265L796.358 563.088ZM819.814 489.367C827.366 493.957 838.872 504.66 830.748 516.04C821.186 526.073 807.419 514.569 800.634 509.366C794.344 505.334 787.276 515.705 793.112 520.413C842.136 556.708 862.031 490.567 823.634 483.97C819.406 483.243 817.836 487.947 819.814 489.367ZM833.328 508.704L833.691 508.507L833.814 508.432C834.026 508.295 833.891 508.31 833.408 508.477L833.046 508.607V508.863C833.139 508.806 833.238 508.763 833.328 508.704ZM736.617 467.924L736.616 467.699C736.63 461.322 740.344 446.762 749.524 446.762C755.259 446.762 758.741 456.671 759.344 466.886L759.365 467.302C759.631 473.653 757.888 487.534 749.524 487.534C741.072 487.534 736.704 474.387 736.617 467.924ZM871.773 465.924L871.774 465.699C871.76 459.322 868.046 444.762 858.866 444.762C853.274 444.762 849.825 454.182 849.097 464.12L849.046 464.886C848.684 471.022 850.314 485.534 858.866 485.534C867.318 485.534 871.686 472.387 871.773 465.924ZM741.855 403.285C749.347 402.146 759.268 404.31 762.761 411.928C764.317 415.322 762.474 419.075 758.551 419.263C749.07 419.717 740.567 417.607 732.245 423.772C728.664 426.426 725.653 430.1 723.126 433.764L722.17 435.159L721.378 436.308C719.662 438.831 718.038 441.571 718.291 444.615C718.366 445.516 717.445 446.371 716.57 446.335C711.116 446.111 710.529 439.273 711.246 435.166C712.58 427.544 716.269 420.389 721.382 414.626C726.752 408.574 733.841 404.504 741.855 403.285ZM845.044 412.535C850.21 409.214 856.818 407.938 862.87 408.427C874.803 409.388 894.822 419.532 892.187 434.107C891.374 438.602 885.122 440.974 881.438 438.48C877.477 435.799 876.513 431.632 873.565 428.128C871.213 425.329 868.232 423.304 865.04 421.579C861.894 419.878 858.254 418.847 854.684 418.471L854.089 418.414C851.94 418.231 841.088 418.28 842.681 422.331C842.993 423.124 841.813 423.752 841.271 423.152C837.944 419.472 841.712 414.677 845.044 412.535Z" fill="#05051A"/>
</g>
<defs>
<clipPath id="clip0_188_848">
<rect width="1372" height="1492" fill="white" transform="matrix(-1 0 0 1 1372 0)"/>
</clipPath>
</defs>
</svg>
