<svg width="1372" height="1492" viewBox="0 0 1372 1492" fill="none" xmlns="http://www.w3.org/2000/svg">
<g clip-path="url(#clip0_188_832)">
<path fill-rule="evenodd" clip-rule="evenodd" d="M1029.34 1332C898.69 1351.84 765.676 1352.84 633.945 1345.63C581.811 1341.73 529.518 1341.03 477.426 1346.02C446.644 1348.31 311.684 1358.62 300.657 1331.05C307.597 1184.25 321.653 1036.19 364.773 895.005C382.506 844.872 397.736 803.262 432.347 761.776C443.255 750.449 466.779 726.693 480.257 718.945C491.935 712.234 496.816 714.628 503.522 703.292C510.185 690.769 515.1 669.855 524.561 661.019C534.194 652.022 548.47 655.241 566.165 658.139C562.914 614.208 583.193 603.02 611.129 594.666C660.233 575.925 708.729 585.34 721.089 645.117C744.005 645.117 756.877 654.978 770.793 664.454C776.482 668.327 772.524 678.196 779.319 681.24C791.891 685.716 814.107 684.62 826.211 690.129C881.255 715.178 930.28 751.504 962.476 804.556C1034.66 917.822 1084.24 1156.42 1075.66 1290.66C1079.42 1296.56 1074.22 1305.01 1072.9 1311.35C1071.23 1316.86 1065.83 1320.53 1060.19 1319.91C1052.33 1328.36 1040.16 1330.25 1029.34 1332Z" fill="#FBD4C5"/>
<path fill-rule="evenodd" clip-rule="evenodd" d="M757.535 654.093C749.486 645.695 736.864 640.681 724.911 640.963L724.351 640.981L720.293 641.162L723.004 654.465L723.141 655.095L723.694 657.405L724.43 660.429L724.692 661.54L724.969 662.771C725.012 662.971 725.055 663.168 725.096 663.364L725.217 663.946L726.373 669.598L726.157 670.1L726.22 671.385C726.399 676.027 725.399 678.579 723.195 679.398L723.019 679.459L721.762 679.862L720.736 682.088C718.375 687.178 716.173 691.624 713.913 695.812C707.319 708.025 699.453 720.234 690.383 732.503C681.766 744.161 672.789 755.289 663.455 765.856C659.258 770.607 654.825 775.377 650.107 780.233L646.045 784.393L644.754 785.7L643.885 786.567L642.801 787.628L641.24 789.117L640.108 790.231L639.741 790.58C639.279 791.009 638.922 791.299 638.6 791.505L638.481 791.579L638.124 791.791L619.294 811.594L612.644 815.251L609.485 817.001L608.845 815.728L608.716 815.319L601.717 799.95L597.444 790.537C588.673 771.171 581.849 755.765 575.608 741.096L574.831 739.266L572.53 733.808L571.312 730.896C565.734 717.53 561.614 707.213 557.926 697.192L557.402 695.762L556.626 693.62L555.472 690.391L555.262 689.839C554.261 687.275 556.721 677.956 559.145 672.85L559.282 672.566L559.912 671.301L560.594 669.967C562.196 666.839 563.357 663.368 564.333 659.166C564.491 658.486 564.64 657.801 564.779 657.111L564.983 656.07L565.111 655.387L565.291 654.431L565.548 653.061L560.125 652.155L557.15 651.67L555.853 651.466C554.171 651.207 552.675 650.993 551.266 650.815L550.742 650.749L549.799 650.638L549.765 650.824L547.83 651.015L546.394 651.163C539.317 651.912 533.859 652.736 529.982 653.65L529.6 653.742L528.908 653.917L528.592 654C525.066 654.949 522.349 657 520.199 660.024C518.725 662.099 517.768 664.086 516.253 667.851L515.71 669.21L513.907 673.666C513.696 674.209 513.37 675.076 512.929 676.268L511.399 680.433L503.732 701.605L495.886 705.733C492.239 707.641 489.571 709.017 488.254 709.668L487.786 709.895L487.452 710.048L484.748 711.12L485.038 711.964L484.712 712.151C452.409 730.732 427.499 759.317 408.105 797.266L407.519 798.419L406.919 799.613C391.461 830.524 380.388 865.02 369.575 911.074L368.906 913.937L368.38 916.214L365.561 928.505C354.969 974.908 347.691 1009.51 341.667 1043.46L341.276 1045.68L340.272 1051.44C332.708 1095.39 326.374 1138.94 321.306 1182.06L320.465 1189.32C318.35 1207.84 316.44 1227 314.367 1250L314.09 1253.09L313.177 1263.42C312.206 1274.55 311.318 1285.66 310.514 1296.74L310.119 1302.29L309.308 1314.33L308.831 1321.2L308.773 1322.13L308.58 1325.71L308.527 1326.55C308.454 1327.62 308.372 1328.53 308.268 1329.37L308.186 1329.99L308.094 1330.59C307.826 1332.23 307.298 1333.7 306.423 1335.33L306.197 1335.75L304.696 1338.43L307.417 1339.87C321.606 1347.34 349.542 1350.63 387.865 1350.8L389.029 1350.8H391.425C410.047 1350.79 429.783 1350.08 450.376 1348.85L455.034 1348.56L458.921 1348.32C460.595 1348.21 462.225 1348.1 463.914 1347.98L466.507 1347.8L477.335 1347C526.043 1342.34 577.122 1342.42 633.405 1346.63C780.141 1354.66 906.794 1351.27 1025.84 1333.5L1029.44 1332.96L1032.1 1332.53L1033.68 1332.26C1046.31 1330.11 1054.24 1327.34 1060.42 1321.55L1060.75 1321.24L1061.02 1320.97L1061.13 1320.98C1067.36 1320.95 1073.07 1316.87 1075.18 1310.86L1075.29 1310.54L1075.43 1310.09L1075.53 1309.65C1075.63 1309.21 1075.75 1308.75 1075.9 1308.24L1076.02 1307.85L1077 1304.63L1073.69 1304.02C1073.4 1303.97 1073.1 1303.77 1072.82 1303.35L1072.54 1302.96L1072.06 1302.29L1070.91 1300.71C1069.68 1298.99 1069.08 1297.91 1068.78 1296.82C1068.51 1295.86 1068.41 1294.62 1068.44 1292.91L1068.46 1292.07L1068.59 1289.03C1068.6 1288.79 1068.61 1288.57 1068.61 1288.37L1068.61 1288.06L1068.62 1283.78L1068.61 1279.08C1068.6 1277.03 1068.59 1275.03 1068.57 1273.06L1068.54 1270.14L1068.52 1267.78C1068.36 1254.76 1067.98 1241.74 1067.37 1228.75C1066.19 1203.37 1064.16 1178.04 1061.29 1152.8C1055.36 1100.69 1046.28 1050.16 1033.93 1001.32L1032.69 996.446C1019.34 944.254 1006.46 904.018 990.095 866.81C969.28 819.486 943.901 780.538 911.947 749.402C894.378 732.281 874.922 717.831 854.245 706.748C844.736 701.651 834.63 697.128 823.792 693.059L822.239 692.481L819.732 691.565L817.808 690.855L811.611 688.539C810.308 688.051 808.89 687.505 807.214 686.846L806.176 686.436L795.078 682.009L793.235 681.284L791.186 680.487L789.679 679.909C787.217 678.969 784.987 678.15 782.916 677.427L781.693 677.005L780.582 676.632L775.846 674.993L775.938 679.301C776 682.166 775.262 684.331 773.622 685.886L773.568 685.935L773.511 685.981L773.46 686.014L773.173 686.006L772.054 686.001C771.939 685.937 771.83 685.863 771.729 685.777C770.136 684.424 769.395 682.61 768.676 678.45L768.486 677.292L768.154 675.124L768.021 674.303C767.543 671.417 767.125 669.822 766.314 667.998C765.141 665.362 763.591 662.795 761.766 660.435L761.34 659.894L759.636 657.845L759.375 657.522C758.778 656.757 758.471 656.217 758.343 655.721L758.312 655.587L758.142 654.727L757.535 654.093Z" fill="#05051A"/>
<path fill-rule="evenodd" clip-rule="evenodd" d="M488.576 715.624C489.378 715.177 488.672 714.031 487.866 714.41C449.121 732.586 419.398 764.475 398.484 801.32C376.828 839.471 364.485 882.788 353.844 925.124L353.46 926.654C342.113 971.944 332.465 1017.7 323.779 1063.57C314.982 1110.02 307.921 1156.76 302.241 1203.69C299.431 1226.9 296.926 1250.15 294.972 1273.44C293.996 1285.08 293.109 1296.73 292.312 1308.38C291.993 1313.04 291.694 1317.7 291.436 1322.37L291.252 1325.87C291.093 1329.04 290.716 1332.22 291.5 1335.35C292.177 1338.05 293.606 1340.5 294.863 1342.98C297.349 1347.87 304.164 1347.07 306.843 1342.98L307.621 1341.78C309.397 1339.04 310.873 1336.49 311.431 1333.07C311.97 1329.76 311.99 1326.29 312.232 1322.95C312.677 1316.8 313.056 1310.65 313.488 1304.5C314.395 1291.55 315.414 1278.61 316.542 1265.68C318.773 1240.15 321.166 1214.65 324.105 1189.19C329.327 1143.95 335.88 1098.83 343.605 1053.95C351.153 1010.11 360.694 966.713 370.649 923.371L371.68 918.887C389.109 843.213 415.971 756.065 488.576 715.624ZM901.263 1011.95C900.978 1011.19 899.752 1011.02 899.545 1011.95C896.935 1023.7 896.677 1035.8 896.278 1047.83C895.885 1059.7 895.901 1071.62 896.074 1083.5C896.712 1127.14 897.91 1170.75 898.946 1214.38C899.464 1236.21 899.95 1258.04 900.323 1279.87C900.464 1288.06 900.583 1296.24 900.681 1304.43L900.802 1315.23C900.862 1320 900.987 1324.72 901.569 1329.49C901.953 1332.63 902.771 1335.62 904.503 1338.31C905.732 1340.22 907.484 1341.19 909.192 1342.48L909.511 1342.73C911.689 1344.45 913.983 1344.46 916.14 1342.73L916.767 1342.23C918.827 1340.62 920.608 1339.36 921.923 1336.82C923.753 1333.27 924.046 1329.42 924.357 1325.52C924.829 1319.6 924.516 1313.59 924.455 1307.66C924.333 1295.75 924.168 1283.84 923.959 1271.93C923.192 1228.26 921.676 1184.58 918.913 1140.99C917.612 1120.45 915.847 1099.85 913.479 1079.4L913.028 1075.57C912.31 1069.55 911.655 1063.43 910.917 1057.28C921.934 1049.54 931.618 1040.13 939.876 1029.47C940.484 1028.68 939.483 1027.58 938.749 1028.34C930.311 1037.08 920.636 1044.04 909.925 1049.52C908.17 1036.66 905.757 1023.87 901.263 1011.95ZM717.211 622.66C717.06 622.543 716.824 622.492 716.68 622.66C714.312 625.421 714.792 629.642 714.716 633.141L714.707 633.466C714.537 638.581 714.505 643.68 714.522 648.798L714.575 665.089C714.582 667.329 714.764 669.661 714.649 671.914L714.589 672.786C713.345 674.06 712.767 675.901 713.189 677.75C713.265 680.122 714.505 682.101 716.314 683.345L712.437 688.846L708.556 694.343C700.557 705.688 692.47 716.932 684.042 727.965C675.448 739.214 666.28 750.039 656.686 760.447C651.999 765.533 647.232 770.548 642.354 775.451C640.371 777.444 638.34 779.387 636.331 781.352L634.332 783.327C633.151 784.508 631.665 785.676 630.881 787.173C630.42 788.056 630.315 790.232 630.15 790.592C628.67 793.845 631.195 799.032 635.391 797.409L635.2 797.283C634.436 796.751 634.926 796.744 636.67 797.26C637.77 797.257 638.801 797.004 639.765 796.502L640.052 796.344C641.409 795.655 642.62 794.32 643.722 793.253L643.996 792.992C646.517 790.63 648.92 788.125 651.336 785.656C656.379 780.505 661.308 775.244 666.08 769.842C675.6 759.064 684.625 747.849 693.172 736.286C701.878 724.509 709.97 712.127 716.929 699.237C719.57 694.345 721.991 689.359 724.312 684.315C728.83 682.865 729.879 678.06 729.564 672.647C731.231 668.765 732.733 664.803 733.621 660.755C733.742 660.2 733.029 659.677 732.602 660.162C731.157 661.804 729.819 663.552 728.533 665.345C727.757 661.55 726.775 658.057 726.313 655.83L724.31 646.002C735.597 645.414 747.965 650.051 755.746 658.169C756.164 660.283 757.791 661.796 759.377 663.772C761.189 666.031 762.77 668.566 763.949 671.217C766.564 677.093 765.088 685.752 770.163 690.063C770.692 690.512 771.283 690.824 771.893 691.017C769.485 702.825 770.577 715.836 770.63 727.815L770.632 728.869C770.62 742.276 771.068 755.694 771.586 769.09L772.113 782.348C772.796 800.03 773.239 817.721 771.521 835.305C763.676 828.357 755.564 821.726 747.173 815.409C741.655 811.255 736.027 807.248 730.297 803.391L725.641 800.28C720.062 796.539 714.347 792.69 708.239 790.01C700.249 786.507 692.651 787.711 684.937 791.304C677.255 794.883 669.802 799.04 662.267 802.919C654.603 806.863 646.923 810.774 639.248 814.695C634.164 817.293 626.714 819.638 622.985 824.42C622.747 823.362 622.47 822.307 622.146 821.256C622.516 819.653 622.373 817.921 621.474 816.27C608.944 793.247 597.351 769.674 585.839 746.13C580.012 734.215 574.472 722.159 568.634 710.251L562.958 698.654C562.01 696.722 561.059 694.791 560.103 692.863C558.671 689.977 557.18 687.119 555.732 684.24C555.12 683.024 554.353 681.816 553.757 680.588L553.475 679.972C553.461 679.94 552.086 675.616 553.148 676.028L553.24 676.072C553.782 676.379 554.216 675.697 553.865 675.262C552.363 673.405 550.271 675.05 549.414 676.769C547.052 681.5 551.379 688.926 553.043 693.456L553.135 693.709C558.3 708.328 564.148 722.673 570.14 736.968C581.629 764.375 593.971 791.361 606.286 818.394L606.432 818.859C603.806 816.846 601.002 815.019 598.601 813.241C592.544 808.754 586.31 804.488 580.086 800.236C568.672 792.438 556.948 785.154 545.031 778.158L542.645 776.762C536.692 773.294 530.795 770.482 523.729 771.523C517.164 772.491 511.061 776.017 505.131 778.882L504.518 779.175L486.193 787.887C488.152 780.075 490.273 772.301 492.486 764.556C496.802 749.449 501.551 734.469 506.701 719.623C511.511 705.752 516.71 692.033 522.21 678.422L523.866 674.338C526.109 668.734 528.339 662.623 534.748 660.897C541.153 659.172 548.5 661.73 554.354 658.079C554.886 657.747 554.82 656.87 554.175 656.708L550.562 655.798C543.78 654.111 535.829 652.414 529.416 654.054C522.437 655.842 516.663 661.699 513.277 667.788C509.512 674.562 506.858 682.142 504.001 689.365L503.548 690.502C500.269 698.676 497.115 706.899 494.097 715.174C488.063 731.714 482.57 748.453 477.598 765.343C475.202 773.483 472.929 781.662 470.744 789.861C470.116 792.219 469.08 795.078 468.23 798.06C467.256 799.01 466.334 800.07 465.469 801.279C464.034 803.285 465.064 805.637 466.848 806.838C466.917 808.89 467.373 810.82 468.463 812.474C472.718 818.933 483.967 817.269 483.51 808.586C483.441 807.257 482.923 805.988 482.139 804.916L482.161 804.742L482.25 804.424C484.203 803.488 486.164 802.445 488.231 801.424L507.463 791.921C513.033 789.168 519.207 784.915 525.401 783.866C531.175 782.889 537.268 787.191 542.23 789.787L542.552 789.953C554.547 796.101 566.453 802.453 578.312 808.857C584.101 811.984 589.815 815.241 595.582 818.405C600.404 821.051 605.608 824.849 611.028 826.342C613.343 828.142 616.093 827.901 618.303 826.54C617.293 832.795 617.355 839.214 617.045 845.609C616.628 854.159 616.564 862.732 616.427 871.293L616.371 874.502C616.007 893.428 615.812 912.359 615.74 931.289C615.484 998.697 616.229 1066.13 616.403 1133.53C616.491 1167.4 617.162 1201.3 618.042 1235.15C618.415 1249.5 619.195 1263.83 620.037 1278.15L620.501 1285.96C621.482 1302.45 622.061 1319.12 625.113 1335.38C625.511 1337.5 629.101 1337.55 629.453 1335.38C632.261 1317.95 632.418 1300.14 632.958 1282.51L633.072 1278.99C633.721 1260.06 634.029 1241.14 633.963 1222.2C633.723 1154.77 631.97 1087.37 630.536 1019.96C629.815 986.086 629.33 952.199 628.21 918.338C627.65 901.395 627.016 884.463 626.264 867.527C625.928 859.966 625.605 852.412 625.102 844.861L624.876 841.625C624.72 839.514 624.594 837.429 624.441 835.363C631.264 837.855 637.504 833.241 643.642 830.084C650.716 826.445 657.787 822.8 664.864 819.168L671.946 815.543L686.121 808.31C692.503 805.053 697.42 801.812 704.227 805.632C728.75 819.39 751.285 837.696 771.707 856.905C775.623 860.589 783.898 859.599 784.89 853.425C789.127 827.05 786.55 800.293 784.387 773.837L783.589 764.015C782.623 752.284 781.57 740.553 780.168 728.869C779.54 723.643 778.916 718.42 778.225 713.203L777.693 709.292C776.829 703.109 776.265 696.963 774.423 691.033C775.004 690.845 775.563 690.537 776.063 690.063C781.601 684.809 778.931 675.692 776.404 669.442C773.909 663.273 770.104 657.889 765.339 653.255C764.3 652.243 762.835 651.592 761.363 651.558C749.81 643.904 737.136 640.084 723.945 644.262C723.574 642.491 723.196 640.722 722.799 638.958L722.394 637.195C721.368 632.818 720.987 625.588 717.211 622.66ZM598.805 1313.88C595.22 1312.89 591.295 1313.93 588.668 1316.56C586.042 1319.19 585.002 1323.11 585.99 1326.7C586.484 1328.46 587.377 1329.99 588.668 1331.29C589.875 1332.49 591.283 1333.35 592.891 1333.86L593.266 1333.97L593.852 1334.22C595.649 1334.7 597.447 1334.7 599.243 1334.22C600.961 1333.73 602.452 1332.87 603.718 1331.61C604.975 1330.34 605.844 1328.85 606.326 1327.13C606.809 1325.34 606.809 1323.54 606.326 1321.74L606.081 1321.16C605.587 1319.39 604.694 1317.86 603.403 1316.56C602.103 1315.27 600.57 1314.37 598.805 1313.88ZM385.936 956.641C385.347 955.965 384.392 956.831 384.758 957.55C390.342 968.497 396.566 979.366 402.683 990.035C402.193 992.992 401.707 995.925 401.148 998.784C398.765 1010.97 395.846 1022.94 393.943 1035.24C387.103 1079.46 383.552 1124.16 380.505 1168.77C377.449 1213.55 377.058 1258.34 376.599 1303.21C376.559 1307.1 379.55 1311.61 383.558 1312.35C385.393 1312.68 386.766 1312.62 388.597 1312.35C392.768 1311.73 395.377 1306.96 395.556 1303.21C396.752 1278.13 398.361 1253.09 400.225 1228.06C403.529 1183.67 405.548 1139.17 408.217 1094.74L409.157 1079.21C410.165 1062.39 411.088 1045.55 411.389 1028.7C411.589 1017.54 410.992 1006.37 411.359 995.224C411.698 984.929 412.742 973.735 410.472 963.62C410.388 963.241 409.789 963.145 409.616 963.508C407.256 968.476 405.761 973.876 404.609 979.388C398.527 971.696 392.333 963.987 385.936 956.641ZM784.332 684.695C783.478 684.631 783.512 685.914 784.332 686.009C796.268 687.394 807.799 692.251 819.069 696.379L820.034 696.731C831.42 700.862 842.521 705.666 853.204 711.392C874.091 722.588 893.271 737.024 910.229 753.55C977.934 819.522 1008.79 914.656 1031.4 1004.06C1043.96 1053.73 1052.89 1104.24 1058.68 1155.14C1061.55 1180.31 1063.57 1205.58 1064.75 1230.89C1065.35 1243.86 1065.74 1256.84 1065.89 1269.82C1065.98 1276.47 1066 1283.12 1065.99 1289.77C1065.99 1292.82 1065.44 1296.66 1066.26 1299.62C1067.02 1302.36 1069.15 1304.77 1070.72 1307.06C1072.59 1309.77 1075.95 1309.62 1077.85 1307.06L1078.55 1306.12C1080.57 1303.44 1082.54 1300.88 1082.83 1297.37C1083.14 1293.62 1082.92 1289.75 1082.94 1285.97C1082.97 1278.37 1082.88 1270.77 1082.72 1263.17C1082.43 1248.6 1081.86 1234.04 1081 1219.5C1079.27 1189.99 1076.42 1160.53 1072.34 1131.25C1065.08 1079.2 1054.21 1027.64 1039.96 977.06C1026.52 929.341 1010.6 881.763 987.917 837.561C966.857 796.521 939.229 758.342 902.773 729.66C885.82 716.322 867.365 705.206 847.468 696.835C837.433 692.613 826.895 689.166 816.178 687.201C805.58 685.258 795.028 685.529 784.332 684.695ZM596.75 1229.53C594.857 1229.52 592.746 1229.93 591.122 1230.98L588.952 1232.66C588.364 1233.41 587.779 1234.17 587.196 1234.93C585.839 1236.7 585.659 1239.56 585.942 1241.67C586.006 1243.07 586.424 1244.38 587.196 1245.6L588.848 1247.73C590.436 1249.03 591.76 1249.95 593.683 1250.58C594.689 1250.9 595.657 1250.97 596.622 1250.92L596.943 1250.9L596.75 1250.93L597.088 1250.89C597.402 1250.86 597.717 1250.83 598.033 1250.78C598.248 1250.76 598.464 1250.74 598.679 1250.71C598.886 1250.69 599.086 1250.69 599.295 1250.7C601.739 1250.93 604.196 1249.55 605.931 1247.96C607.494 1246.52 608.897 1243.48 608.679 1241.32L608.586 1240.42C608.422 1238.9 608.287 1238.3 607.642 1236.77C607.016 1235.29 606.141 1233.98 604.95 1232.87C602.67 1230.75 599.879 1229.55 596.75 1229.53ZM604.316 1118.25C601.072 1114.71 595.501 1114.45 591.478 1116.59C590.498 1117.11 589.598 1117.95 588.734 1118.65C586.557 1120.41 585.702 1123.58 585.582 1126.26C585.463 1128.9 586.858 1132.05 588.734 1133.87L589.189 1134.31C590.31 1135.4 591.916 1136.35 593.484 1136.64C596.013 1137.1 598.137 1137.09 600.492 1136.1C602.515 1135.24 604.259 1133.87 605.445 1132.01L605.638 1131.69C605.719 1131.56 605.796 1131.43 605.868 1131.29L605.973 1131.09C608.227 1126.75 607.621 1121.85 604.316 1118.25ZM602.636 1006.38C601.173 1005.92 599.711 1005.86 598.248 1006.18C597.255 1006.19 596.329 1006.44 595.471 1006.93C594.539 1007.2 593.729 1007.67 593.043 1008.35C592.217 1008.84 591.558 1009.5 591.069 1010.32C590.096 1011.39 589.44 1012.63 589.099 1014.07L588.707 1016.99L589.099 1019.92L590.209 1022.55C590.514 1022.94 590.821 1023.34 591.131 1023.74C591.621 1024.57 592.281 1025.23 593.11 1025.72C593.649 1026.25 594.267 1026.65 594.958 1026.93C597.408 1028.69 600.672 1029.26 603.575 1028.46C605.299 1027.98 606.796 1027.11 608.065 1025.85C609.326 1024.58 610.199 1023.08 610.681 1021.36L610.879 1019.98C611.135 1018.13 611.176 1017.11 610.654 1014.76C610.425 1013.73 609.76 1012.28 609.412 1011.66C607.924 1009.05 605.493 1007.26 602.636 1006.38ZM475.603 925.898C471.402 925.868 467.201 925.877 463.001 925.923L459.851 925.965C454.576 926.048 450.058 925.504 445.911 929.164C442.901 931.82 444.227 936.276 447.084 938.277C451.413 941.307 456.843 939.783 461.819 939.449C467.067 939.097 472.319 938.805 477.573 938.569C487.746 938.114 497.923 937.824 508.106 937.779C518.267 937.736 528.443 937.832 538.603 937.996C548.941 938.164 559.705 939.127 569.985 938.057C571.397 937.91 571.715 936.053 570.321 935.57C560.634 932.219 549.737 931.133 539.585 929.852C529.114 928.529 518.643 927.593 508.106 926.986C497.283 926.365 486.444 925.974 475.603 925.898ZM602.655 892.984L602.308 892.991C600.459 892.996 598.729 893.431 597.115 894.296L596.771 894.488L594.551 896.202C593.192 897.572 592.251 899.185 591.731 901.043L591.339 903.959C591.281 905.469 591.597 906.877 592.283 908.185C592.726 909.545 593.482 910.721 594.551 911.715C595.545 912.784 596.722 913.54 598.081 913.983C599.289 914.616 600.581 914.934 601.961 914.934L602.308 914.928C604.287 914.921 606.133 914.422 607.843 913.43L610.064 911.715C611.423 910.346 612.364 908.733 612.884 906.875L613.277 903.959C613.333 902.449 613.019 901.039 612.331 899.733C611.889 898.373 611.133 897.196 610.064 896.202C609.07 895.133 607.894 894.377 606.533 893.935C605.327 893.301 604.034 892.983 602.655 892.984ZM570.136 635.314C567.773 631.891 563.49 634.935 564.103 637.687C563.941 645.416 563.546 652.917 561.787 660.488C560.982 663.954 559.927 667.424 558.3 670.599L557.617 671.936C555.511 676.096 553.876 680.02 556.712 684.585C558.049 686.737 560.465 688.353 563.084 688.24C574.699 687.739 576.295 671.572 577.001 662.547C577.729 653.252 575.465 643.037 570.136 635.314Z" fill="#05051A"/>
<path fill-rule="evenodd" clip-rule="evenodd" d="M622.266 264.173C472.071 268.939 463.012 340.43 463.012 460.325C463.012 580.22 540.927 655.771 569.616 668.963C598.306 682.156 673.849 738.821 742.022 712.708C810.196 686.595 790.454 576.272 790.454 528.869C790.454 481.467 772.461 259.408 622.266 264.173Z" fill="#FBD4C5"/>
<path fill-rule="evenodd" clip-rule="evenodd" d="M767.438 454.445C736.382 327.547 679.69 265.634 597.362 268.706C473.868 273.315 475.17 399.451 482.918 387.95C487.98 380.436 523.419 354.187 589.235 309.203L593.303 306.426L767.438 454.445Z" fill="#A58618"/>
<path fill-rule="evenodd" clip-rule="evenodd" d="M693.946 348.348C678.588 334.537 662.083 321.396 644.649 310.307C627.007 299.087 607.738 292.377 586.912 292.217C588.369 293.387 589.756 294.687 591.163 295.896C595.094 299.267 599.016 302.657 602.938 306.037C610.781 312.807 618.645 319.566 626.388 326.447C641.636 340.007 656.934 353.497 672.152 367.087C701.4 393.207 730.018 419.896 758.02 447.357C757.869 446.687 757.71 446.017 757.551 445.348C748.281 406.547 723.064 374.537 693.946 348.348ZM561.337 629.587C588.918 645.017 620.501 645.617 650.169 635.907C667.961 630.098 684.276 621.117 699.544 610.377C712.826 601.027 724.681 590.657 736.426 579.646C746.096 558.277 754.707 536.947 758.739 513.697C762.352 492.827 762.831 471.157 758.64 450.327C727.644 424.777 696.839 399.017 666.075 373.178C650.408 360.017 634.702 346.928 618.805 334.047C610.732 327.507 602.738 320.867 594.696 314.297C593.369 313.217 592.051 312.137 590.724 311.057C574.12 323.237 556.317 333.678 539.831 346.057C531.2 352.547 522.808 359.457 514.815 366.726C510.624 370.537 506.532 374.467 502.54 378.497C498.889 382.178 495.366 387.457 490.186 388.848C489.478 389.037 488.81 389.077 488.181 388.987C481.256 449.747 476.336 515.357 506.004 570.537C518.946 594.607 537.296 616.127 561.337 629.587ZM573.56 293.907C573.461 293.607 573.39 293.316 573.35 293.037C533.384 298.257 500.005 327.726 488.969 366.527C489.927 367.867 490.456 369.457 490.257 371.146C490.157 371.997 490.057 372.857 489.957 373.707C491.324 372.348 492.731 371.077 493.928 369.867C497.91 365.827 501.991 361.896 506.183 358.066C514.755 350.237 523.655 342.917 533.036 336.087C549.351 324.207 567.014 313.287 586.463 307.587C585.186 306.537 583.908 305.487 582.62 304.447C578.779 301.316 575.216 298.737 573.56 293.907ZM506.9 255.925C531.438 229.055 565.417 209.375 601.201 202.535C635.369 195.995 670.745 200.305 703.025 213.015C770.573 239.615 823.871 298.106 848.828 365.885C863.377 405.375 857.552 416 869.526 471C881.501 526 875.015 531.492 900.96 616.5C926.905 701.508 926.905 730 823.624 839.5C720.342 949 718.736 858.614 639.014 858.5C566.585 858.386 493.58 897.133 463.884 829C425.965 742 406.506 727 420.975 655.5C435.444 584 443.992 589.5 443.992 536C443.992 482.5 441.537 468.675 443.992 428.625C447.765 367.245 464.569 302.285 506.9 255.925Z" fill="#05051A"/>
<path fill-rule="evenodd" clip-rule="evenodd" d="M551.958 585.159C559.325 587.292 567.232 587.483 574.741 585.28C581.552 583.281 588.545 578.882 593.558 573.062C598.011 567.891 600.895 561.608 600.781 554.901C600.768 554.135 600.494 553.495 600.073 552.999C599.62 552.465 598.986 552.098 598.307 551.939C597.609 551.775 596.872 551.833 596.243 552.119C595.674 552.377 595.187 552.816 594.882 553.457C594.112 554.469 593.345 555.466 592.574 556.435C586.38 564.084 580.382 569.799 571.068 571.849C566.015 572.962 560.968 572.469 556.337 570.771C551.38 568.954 546.898 565.76 543.387 561.671C541.8 559.824 539.926 559.07 538.095 559.057C536.018 559.043 533.966 560.007 532.421 561.549C530.901 563.065 529.884 565.124 529.791 567.279C529.71 569.17 530.327 571.145 531.968 572.907C537.374 578.711 544.379 582.964 551.958 585.159ZM552.186 489.367C544.634 493.957 533.128 504.66 541.252 516.04C550.814 526.073 564.582 514.569 571.366 509.366C577.657 505.334 584.725 515.704 578.888 520.413C529.864 556.708 509.969 490.567 548.366 483.97C552.594 483.243 554.164 487.947 552.186 489.367ZM622.825 469.17C625.252 467.618 628.107 467.085 631.271 468.525C633.744 469.649 638.081 473.398 641.099 478.325C643.164 481.697 644.628 485.651 644.323 489.771C644.252 490.728 644.606 491.433 645.163 491.955C645.604 492.367 646.24 492.669 646.987 492.764C647.621 492.844 648.331 492.772 648.909 492.592C650.007 492.249 650.588 491.536 650.807 490.955C652.92 485.343 652.01 479.08 649.642 473.43C646.445 465.805 640.641 459.418 636.838 457.358C630.33 453.833 622.653 453.671 616.136 457.262C610.589 460.319 607.12 465.253 603.67 470.283C602.937 471.353 602.209 472.414 601.456 473.457C599.949 475.546 599.799 477.619 600.383 479.396C601.029 481.364 602.679 483.025 604.741 483.895C606.647 484.699 608.859 484.812 610.817 483.986C612.471 483.288 613.988 481.929 614.949 479.622C616.566 475.736 619.261 471.45 622.825 469.17ZM499.559 477.814C501.221 478.68 502.522 478.942 504.366 478.389C505.385 478.083 506.393 477.496 507.182 476.707C507.964 475.925 508.528 474.953 508.748 473.874C509.287 471.211 510.744 468.719 512.819 467.095C514.594 465.706 516.833 464.97 519.317 465.385C521.998 465.833 524.551 467.552 526.31 469.579C526.898 470.257 527.359 471.027 527.822 471.792C528.689 473.223 529.531 474.553 530.726 475.603C531.179 476.003 531.862 476.28 532.523 476.28C532.792 476.28 533.065 476.236 533.324 476.155C535.992 473.478 536.505 471.446 536.419 469.431C536.329 467.319 535.496 465.179 534.15 463.184C530.993 458.502 524.997 454.663 520.952 453.793C515.411 452.603 509.909 454.032 505.497 457.126C500.958 460.31 497.595 465.254 496.546 470.825C496.294 472.167 496.401 473.615 496.912 474.871C497.411 476.098 498.281 477.149 499.559 477.814ZM610.606 419.253C613.931 422.492 617.866 422.994 621.847 423.44C624.059 423.691 625.825 423.892 627.563 424.284C632.339 425.363 637.061 426.986 641.368 429.325C645.871 431.77 650.778 434.718 654.308 438.495C655.147 439.394 655.938 440.337 656.731 441.282C657.453 442.144 658.149 442.974 658.883 443.774C659.726 444.693 660.526 445.656 661.321 446.617C661.813 447.427 661.91 447.627 662.01 447.834C662.159 448.146 662.332 448.495 662.53 448.869C662.802 449.382 663.119 449.943 663.452 450.452C664.006 451.383 664.303 451.639 664.56 451.753C664.986 451.943 665.39 452.037 665.782 451.986C666.149 451.939 666.496 451.762 666.838 451.473C668.545 450.031 669.048 447.664 668.996 445.151C668.918 441.338 667.512 437.117 666.215 434.522C663.201 428.492 659.021 422.224 653.994 417.724C648.258 412.587 641.982 408.698 634.774 406.018C630.295 404.352 625.109 402.823 620.229 403.016C616.716 403.155 613.363 404.199 610.593 406.807C608.893 408.408 608.077 410.685 608.077 412.96C608.077 415.28 608.924 417.615 610.606 419.253ZM492.797 448.918C493.008 449.264 493.301 449.503 493.627 449.646C493.968 449.797 494.349 449.84 494.715 449.778C495.079 449.717 495.425 449.552 495.7 449.3C495.963 449.058 496.163 448.737 496.253 448.345C498.46 438.649 502.747 431.435 511.896 426.784C516.396 424.495 521.571 423.041 526.47 421.882C527.894 421.545 529.398 421.327 530.913 421.106C535.661 420.412 540.443 419.619 543.538 415.781C545.403 413.469 546.186 410.513 545.744 407.809C545.327 405.263 543.839 402.929 541.135 401.53C534.403 398.049 526.036 401.465 519.237 404.374C518.733 404.59 518.238 404.802 517.754 405.007C511.105 407.813 505.041 411.517 500.056 416.815C496.101 421.018 492.437 427.231 490.961 433.623C489.733 438.94 490.022 444.369 492.797 448.918Z" fill="#05051A"/>
</g>
<defs>
<clipPath id="clip0_188_832">
<rect width="1372" height="1492" fill="white"/>
</clipPath>
</defs>
</svg>
