<svg width="271" height="274" fill="none" xmlns="http://www.w3.org/2000/svg"><rect y="109" width="271" height="134" rx="30" fill="#E6E6E8"/><g clip-path="url(#a)"><mask id="c" style="mask-type:luminance" maskUnits="userSpaceOnUse" x="0" y="0" width="252" height="274"><path d="M252 0H0v274h252V0Z" fill="#fff"/></mask><g filter="url(#b)" mask="url(#c)"><path fill-rule="evenodd" clip-rule="evenodd" d="M199.881 123.16c-1.896-5.059-.472-11.463-4.377-15.649-1.155-.681-1.769-.302-2.245.884-.286 1.562-.958 6.939 1.461 6.936.303 3.358.113 6.74-.632 10.036-1.786-.278-3.086.611-4.388 1.273-.972.493-1.943.859-3.115.521-4.843-.827-6.222 4.1-6.281 8.122-.071 1.963-.262 6.537-1.153 8.442-4.037-8.103-12.515-11.792-20.593-13.614-1.267-.339-2.347-.803-3.159-1.596-6.807-2.604-3.537-11.138-6.668-16.042-4.901-5.83-10.787-7.508-18.203-6.509-6.487.695-10.898 7.083-10.498 13.112.12 1.23-.641 2.524-1.09 3.79-4.478 5.194-11.446 7.518-17.44 10.656-19.99 9.469-26.918 16.706-34.687 36.855-3.634 7.582-7.983 14.938-9.427 23.289-1.698 9.838-1.703 19.911-1.112 29.846-1.103.129.097 7.766 1.065 10.413.331.907 1.126 1.561 2.116 1.544 1.99.939 6.665 4.718 8.748 4.593 6.728-.402 13.269.219 19.751-.103 7.014-.347 13.959-1.614 21.002-1.45 12.283.288 3.489.993 16.197 1.553 8.021.358 37.288-3.888 45.287-3.195 6.506 1.328 9.475-.909 8.482-7.497-.367-2.525-1.539-8.141 2.316-8.379 1.824.203 3.334 1.97 4.7 3.002 12.066 8.707 24.394 2.437 25.365-11.876 1.83-12.007 4.394-14.842-1.181-26.831-17.636-44.632 8.934-38.568-9.005-59.473-1.401 1.183-1.045-1.973-1.236-2.653Z" fill="#FBD4C5"/><path fill-rule="evenodd" clip-rule="evenodd" d="M193.179 107.354c.962-.917 2.492-.688 3.431.127.955.827 1.53 2.129 2.02 3.25 2.2 5.044 1.688 10.565 2.801 15.842 2.037 1.066 3.876 2.458 5.178 4.331 1.978 2.845 2.917 6.158 1.925 9.529-.513 1.745-1.383 3.361-2.004 5.068a23.24 23.24 0 0 0-1.264 5.626c-.191 1.883-.217 3.777-.161 5.667.029.98.082 1.957.135 2.934.048.876.208 1.79-.007 2.648l-.027.099c.084-.012.167-.028.249-.046.709-.153 1.334-.392 2.074-.298.577.074.876.54.632 1.067a1.924 1.924 0 0 1-.419.585c1.488 10.664 4.087 21.156 5.797 31.785.775 4.823 1.247 9.66.981 14.541l-.028.485c-.272 4.483-.939 9.423-3.29 13.344-1.098 1.836-2.608 3.465-4.437 4.637-.838.538-1.736.959-2.711 1.168-5.055 1.952-10.4 1.473-15.166-1.106-2.143-1.16-4.281-2.51-6.032-4.187-.85-.815-1.671-1.855-2.174-2.988.001.256-.046.515.007.766l.106.496c.794 3.684 3.819 17.303 3.859 18.447.022.615-5.335.601-5.916.621h-.016c-8.676.351-17.358.163-26.029-.184l-.685-.027c-9.222-.38-19.008-1.365-27.751-1.111-6.56-.147-13.122-1.561-19.682-1.229-5.212.263-10.41.72-15.612 1.115l-.131-1.082c-1.442-11.784-3.703-27.336-2.618-38.993.085-.913-1.385-.908-1.47 0-1.121 12.054 1.334 28.246 2.763 40.185-2.215.162-4.43.31-6.648.422l-.566.03c-7.547.365-15.338.387-22.724-1.291-.228-.052-.305-.272-.257-.456-.074.041-.184.019-.215-.082-.86-2.749-1.298-9.748-1.688-12.777l-.026-.198c-.4-2.942-.63-5.919-.795-8.879a134.037 134.037 0 0 1 .158-17.768c1.438-18.868 7.165-37.93 19.185-53.094 2.905-3.665 6.213-7.019 10.183-9.612 3.893-2.546 8.261-4.339 12.693-5.795 2.93-.963 5.905-1.787 8.881-2.609.112-.055.225-.109.338-.162l.171-.079c1.057-.486 2.099-1.018 3.183-1.451l.239-.094c1.57-.611 3.4-1.151 5.1-1.132 2.753-1.344 5.066-3.375 4.842-6.633-.092-1.339 2.075-1.337 2.152 0 .202 3.557-2.059 6.079-4.941 7.772l.014.014.014.015c.45.494.931.954 1.451 1.381 3.111 2.567 7.048 4.698 10.982 6.101 4.616 1.646 9.228 2.139 14.001.808a25.887 25.887 0 0 0 7.018-3.158 22.34 22.34 0 0 0 1.903-1.364 12.262 12.262 0 0 1-1.419-2.453c-.775-1.751-1.417-4.125-.625-5.974.195-.456.968-.737 1.238-.157.744 1.588 1.054 3.304 1.921 4.857.331.591.711 1.151 1.137 1.68 0 .029 3.255.568 3.255.568 3.934-.002 7.639 1.463 11.119 3.293 2.058 1.082 4.08 2.233 6.096 3.385l3.94 2.253c.291.166.616.326.941.497-.38-1.82-.566-3.675-.441-5.514.189-2.773 1.302-5.806 4.25-6.794 1.394-.469 3.007-.324 4.36.196.625.24 1.304.558 1.885.984.281-1.225 1.466-2.143 2.656-2.549.385-.132.78-.216 1.181-.257a7.933 7.933 0 0 1-.009-.6l.001-.154c.019-.908.011-1.816-.009-2.722a60.733 60.733 0 0 0-.301-5.113c-.151-1.418-.411-2.819-.604-4.231l-.081-.607c-.164-1.196-.439-2.685.533-3.609Zm-6.846 20.134c-3.218-.458-4.775 2.332-4.997 5.018-.201 2.439.207 4.885.844 7.256.239.88.507 1.748.788 2.603.452 1.372.942 2.743 1.539 4.064.182.399.366.799.572 1.184.705.559 1.307 1.314 1.855 2.039l.36.479.097.129a21.696 21.696 0 0 1 2.377 3.911c.619 1.327 1.08 2.711 1.438 4.124l.088.353c.276 1.087.682 2.385.191 3.397.964.288 1.923.549 2.948.688 1.414.193 2.886.205 4.313.155a61.263 61.263 0 0 0 4.129-.295l.99-.105.306-.036a.626.626 0 0 1-.095-.155c-.353-.819-.307-1.768-.345-2.649l-.006-.098a73.526 73.526 0 0 1-.095-2.933c-.024-1.837.027-3.68.235-5.508.18-1.6.461-3.201.9-4.755.442-1.575 1.118-3.055 1.743-4.568.617-1.495 1.126-3.031 1.071-4.662a8.479 8.479 0 0 0-.669-2.996.102.102 0 0 1-.07.023c-1.251-.044-2.435-.395-3.644-.691a31.98 31.98 0 0 0-3.907-.726l-.279-.032c-1.093-.119-2.283-.176-3.293.278-1.093.493-1.782 1.59-2.197 2.642l-.046.121c-.738 1.994-.569 4.656 1.712 5.6.707.294 2.322.473 2.685-.456.164-.423-.172-1.05-.299-1.45-.149-.478-.246-.948-.235-1.446.009-.437.354-.767.792-.802l.04-.003c.797-.033 2.441-.924 2.601.358.031.249-.165.511-.373.632-.419.24-.856.401-1.311.498.062.268.15.529.236.789a.482.482 0 0 1 .169-.046c.675-.054 1.341.05 2.015.057l.37.002c.523.005.978.032 1.485.295.469.242.386.849 0 1.109-1.012.68-2.725.281-3.78-.409.046.35.024.708-.13 1.084-.455 1.114-1.761 1.669-2.93 1.718a4.795 4.795 0 0 1-2.858-.83c-.168.586-.44 1.148-.558 1.755-.154.798.029 1.731-.257 2.48-.287.755-1.394 1.26-2.035.52-.939-1.083-.647-2.797.178-3.893.439-.581 1.236-1.246 2.048-1.352a5.13 5.13 0 0 1-1.3-1.851.104.104 0 0 1-.07.004c-2.64-.7-4.076-3.018-4.164-5.451a5.497 5.497 0 0 1-.608.365c-.505.263-1.154.032-1.31-.515-.143-.509.274-1.137.86-1.095.334.027.67.029 1.003-.024a6.48 6.48 0 0 0 .136-.025c.029-.187.068-.374.115-.559-.997.11-2.04-.048-3.004-.255-.831-.176-.638-1.456.198-1.426l.134.006c1.097.051 2.717.223 3.655-.451a5.99 5.99 0 0 1 .547-.657c.026-.051.048-.106.068-.163.506-1.41-1.888-2.215-2.966-2.368Zm7.755-1.796c-1.424 0-2.768.45-3.845 1.677.384.354.691.765.86 1.248a8.013 8.013 0 0 1 1.657-.654c1.743-.471 4.127-.464 5.593.694.767.606-.076 1.692-.902 1.505-.74-.168-1.383-.477-2.16-.513a6.01 6.01 0 0 0-1.982.242c-.986.289-1.883.835-2.542 1.588-.22.253-.413.527-.575.823-1.231 2.264-.303 5.511 1.396 7.375-.667-2.147-.002-4.679 1.326-6.457 1.6-2.141 3.989-2.384 6.509-2.049l.083.011c2.437.333 5.455.915 7.277 2.65-.182-.4-.391-.788-.626-1.164-1.381-2.204-3.672-3.923-6.048-5.15-.399-.208-.801-.4-1.202-.578-1.522-.679-3.219-1.248-4.819-1.248Zm.779-16.819-.006.025-.004.014c-.084.724.114 1.555.217 2.285l.013.104c.213 1.663.494 3.327.586 5.002.09 1.611.055 3.282-.145 4.886l-.03.229c-.117.874-.187 1.899-.492 2.796 1.172.109 2.344.474 3.409.862.382.141.762.288 1.141.445-.474-2.441-.728-4.917-1.242-7.35l-.101-.485c-.558-2.692-1.084-5.401-2.529-7.809a7.249 7.249 0 0 0-.636-.876.35.35 0 0 0-.181-.128Z" fill="#05051A"/><path fill-rule="evenodd" clip-rule="evenodd" d="M120.49 114.594c.779-1.898 3.414-1.16 3.12.834-.176 1.194-.181 2.096-.457 3.706-.275 1.609-.324 1.869-1.088 2.508a74.164 74.164 0 0 0 4.217 3.538 51.816 51.816 0 0 0 4.954 3.396c1.504.912 3.077 1.719 4.495 2.759 1.318.967 2.52 2.13 3.131 3.648.651 1.616.368 3.286-.112 4.901l-.054.183c-.49 1.6-1.338 3.529-.162 5.037.598.768 1.468 1.311 2.22 1.925a16.877 16.877 0 0 1 1.869 1.776c1.254 1.388 2.274 2.951 2.917 4.693l.057.158c.552 1.541.955 3.43.21 4.943-.214.434-.903.293-1.023-.129-.271-.957-.257-1.96-.484-2.93a10.832 10.832 0 0 0-1.142-2.874c-.994-1.754-2.339-3.252-3.928-4.518l-.476-.375c-1.24-.986-2.379-2.032-2.631-3.664-.269-1.746.453-3.41.917-5.063.324-1.151.429-2.255.08-3.296-.427.675-1.01 1.317-1.471 1.888-.918 1.14-1.844 2.273-2.768 3.407a81.12 81.12 0 0 0-2.752 3.558c-.393.543-.783 1.088-1.171 1.634-.292.411-.699.821-1.017 1.24.078.224.072.482-.069.665-1.687 2.209-4.087-2.4-4.712-3.565-1.275-2.372-2.224-4.891-3.503-7.262a56.745 56.745 0 0 0-4.516-7.095c-1.017-1.357-2.158-2.632-3.088-4.033-.313-.47-.541-.876-.541-.876-.08-.142-.158-.285-.233-.43l-.046.037-.024.018c-.25.167-.618.085-.823-.103-.581-.531-.384-1.121.003-1.672l.051-.07c.474-.644.897-1.325 1.335-1.992l.274-.417c.734-1.115 1.506-2.237 2.486-3.158.454-.427.95-.746 1.477-.984-.045-.093.349-.281.461-.186 1.667-.592 1.853-.856 3.67-.693" fill="#05051A"/><path fill-rule="evenodd" clip-rule="evenodd" d="M150.621 120.481c.11-.055.216-.02.286.072.1.132.088.259-.035.35.164.325.358 1.141.386 1.26.113.481.232.959.357 1.438.253.964.474 1.936.726 2.9.268 1.023.587 2.034.942 3.031.023.065.048.131.075.198l.04.101.01-.015c.072-.111.223-.034.205.083-.017.107-.039.213-.058.319l.038.095c.232.606.391 1.244-.035 1.779-.16.2-.335.318-.554.353-.35 1.12-.79 2.219-1.261 3.274l-.138.308c-.692 1.54-1.431 3.06-2.533 4.371-1.204 1.431-2.86 2.408-3.908 3.977-.488.729-.828 1.496-1.103 2.32l-.104.313c-.195.582-.421 1.147-.985 1.489a.51.51 0 0 1-.595-.074c-1.156-1.186.054-3.4.752-4.548.969-1.597 2.372-2.618 3.777-3.823 1.515-1.298 2.481-3.034 3.415-4.745.572-1.049 1.125-2.119 1.706-3.172-.607-.521-.802-1.555-1.008-2.273l-.018-.065a24.979 24.979 0 0 1-.782-3.518 18.746 18.746 0 0 1-.189-3.411l.012-.293" fill="#05051A"/><path fill-rule="evenodd" clip-rule="evenodd" d="M152.881 125.909c-.135-.179.088-.381.272-.344 1.12.225 2.215.882 3.22 1.413l.108.057c.802.419 1.61.933 2.031 1.748.458.885.42 1.905.358 2.868l-.006.09c-.077 1.154-.089 2.353-.341 3.486-.129.58-.671.744-1.134.607-.552 1.687-2.101 2.93-3.232 4.262-1.443 1.697-1.171 3.989-1.02 6.034.061.827-1.002 1.063-1.549.621l-1.261-1.015c-.21-.169-.42-.339-.629-.51a37.747 37.747 0 0 1-.532-.442l-.263-.225c-.117-.101-.631-.658-.782-.681-.364-.056-1.23.874-1.526 1.166l-.038.037c-.557.53-1.061 1.1-1.53 1.705-.087.111-.256.018-.194-.11.421-.873.91-1.708 1.49-2.489l.117-.155c.387-.505.905-1.396 1.587-1.545.833-.181 1.664.628 2.27 1.077l.038.028c.288.21.573.423.857.637-.029-1.522.169-3.06.98-4.372.572-.925 1.428-1.61 2.161-2.405.816-.885 1.242-1.973 1.981-2.895a.561.561 0 0 1 .368-.203c.029-.741.142-1.49.229-2.223l.025-.219c.088-.797.296-1.77-.107-2.516-.38-.705-1.252-1.202-1.898-1.68l-.527-.397m-37.875-9.834a4.115 4.115 0 0 0-.938.718c-.9.926-1.544 2.078-2.17 3.186-.338.596-.663 1.2-1.003 1.795-.148.259-.3.515-.453.771-.071.118-.283.352-.387.496.116.158.236.314.359.468.047.059 3.276 3.468 4.401 4.802 1.724 2.044 3.265 4.203 4.582 6.513 1.29 2.263 2.271 4.659 3.466 6.965.598 1.155 1.266 2.302 2.117 3.301.033.039.068.076.102.114.324-.85 1.157-1.761 1.566-2.284l.038-.05a76.124 76.124 0 0 1 2.908-3.541 95.856 95.856 0 0 1 2.811-3.102l.361-.38c.668-.7 1.518-1.748 2.497-2.248a4.52 4.52 0 0 0-.366-.537c-.917-1.162-2.214-2.005-3.493-2.766l-.83-.489c-3.128-1.847-6.207-3.78-8.922-6.18-1.436-1.27-2.853-2.601-4.06-4.082l-.427-.524" fill="#05051A"/><path d="M138.214 141.474c1.053-3.06 1.072-5.162.827-5.874 0 0 2.939-.356 6.245-1.78a106.48 106.48 0 0 0 6.061-2.849c.184.445.49.95.735 1.158-.581.985-2.203 4.227-3.49 6.052-1.653 2.344-2.575 2.492-3.949 3.916-3.159 3.276-2.572 5.341-2.388 6.32-1.01-1.157-5.602-2.403-4.041-6.943Z" fill="#FBD4C5"/><path fill-rule="evenodd" clip-rule="evenodd" d="M140.685 156.397c.386-2.996 3.884-1.733 2.648-1.234-.025.026-.05.052-.078.077 1.413.133 1.314 1.741 1.157 2.77-.555 2.302-4.146.207-3.727-1.613Zm.476 22.736c-.625-2.558 3.165-2.984 3.187-.312.122 1.124-.936 1.856-1.203 2.833-.056.635-.861 1.083-1.377.552-.859-.886-1.044-2.089-.607-3.073Zm.054 17.161c3.383-1.056 2.54 4.916.308 5.731-1.348.649-1.811-.977-1.564-1.968-.876-1.29-.074-2.988 1.256-3.763Zm-.197 23.104c1.853-1.731 4.336 1.422.976 3.649-.61 1.084-2.276.32-1.993-.813l-.003-.191c-.025-.986-.125-2.204 1.02-2.645Z" fill="#FBD4C5"/><path d="m86.786 240.451-4.96-41.21 6.613-.981 2.204 42.013-3.857.178ZM72.46 143.133c7.702-8.099 17.57-12.224 32.693-14.42-16.622 27.534-49.978 82.226-50.418 80.73-.551-1.868 6.888-54.917 17.724-66.31Z" fill="#05051A"/><path fill-rule="evenodd" clip-rule="evenodd" d="M164.328 85.029c-.395-3.474.116-10.735.15-11.176.216-2.788-1.088-13.8-3.553-12.786-4.135-3.28-9.643-4.004-14.793-4.35-10.699-.719-22.079.931-30.34 8.145-4.085 3.746-8.062 9.195-7.743 14.868-3.711 5.377-8.944 12.754-4.319 19.04 1.572 2.009 4.07 2.757 6.045 4.278 3.972 3.21 6.464 7.817 10.474 11.008 10.623 9.565 28.662 11.563 39.099.684 8.071-7.879 6.766-19.667 5.346-29.711-.954-6.754.403 6.776-.366 0Z" fill="#FBD4C5"/><path fill-rule="evenodd" clip-rule="evenodd" d="M131.84 41.986c2.862-.578 5.799-.938 8.721-.83l.225.009c2.199.088 4.983.283 6.901 1.563a.395.395 0 0 1 .448-.09c2.279 1.09 4.786 1.877 7.186 2.66a32.429 32.429 0 0 0 7.37 1.501c.942.078 1.748 1.098 1.151 2.011-.142.218-.28.438-.417.659l.69-.072c.758-.077 1.514.733 1.47 1.472a13.66 13.66 0 0 1-.153 1.378 2.05 2.05 0 0 1 .853.155c1.403.594 1.305 2.268 1.2 3.542-.145 1.768-.805 3.641-2.031 4.965.915.952 1.563 2.09 1.95 3.44.28.986.436 2.036.359 3.063l-.025.307c-.095 1.114-.284 2.348-1.084 3.149a1.704 1.704 0 0 1-1.399.516c.292 2.567.479 5.15.655 7.722l.082 1.23c.393 5.947.688 11.932.611 17.888-.072 5.566-1.17 10.969-4.577 15.489-3.103 4.115-7.559 7.149-12.599 8.302-2.717.623-5.49.667-8.239.27-1.333-.193-2.674-.488-3.939-.955-1.4-.518-2.406-1.28-3.348-2.422-.446-.542-.232-1.695.656-1.587 1.342.163 2.567.36 3.853.757l.184.059c1.282.411 2.609.718 3.948.848 2.744.266 5.53-.002 8.159-.835 4.279-1.359 7.965-4.388 10.328-8.193 2.804-4.51 3.121-9.63 3.081-14.816a376.792 376.792 0 0 0-.53-17.07l-.051-.948c-.16-2.925-.314-5.853-.449-8.78a35.07 35.07 0 0 0-.222-2.76c-1.058-.621-2.005-1.477-2.623-2.533-1.241.514-2.546.885-3.746 1.181-2.782.685-5.669.852-8.5.423-.763.316-1.542.594-2.333.833-.214.095-.427.188-.641.28-1.906.817-3.84 1.509-5.852 2.016l-.495.123c-1.059.262-2.209.52-3.336.6a4.845 4.845 0 0 1-.603.186 9.834 9.834 0 0 1-3.143.24c-1.025-.086-1.766-1.124-1.201-2.095.412-.709.829-1.416 1.248-2.121a39.588 39.588 0 0 1-4.49 1.546 76.346 76.346 0 0 1-4.654 1.135c-.834.178-1.671.336-2.503.514-.596.127-1.511.193-1.997.586-.536.432-.689 1.438-.892 2.059a50.634 50.634 0 0 0-1.868 7.403 47.642 47.642 0 0 0-.592 5.068c-.108 1.697-.06 3.405-.234 5.095-.094.896-1.054 1.357-1.764.73l-.25-.222-.124-.114c-.606-.55-1.195-1.135-1.68-1.792a5.915 5.915 0 0 1-.251-.376.06.06 0 0 1-.037-.013l-.135-.102c-1.482-1.105-3.958-2.547-5.404-.71-.46.585-.696 1.33-.892 2.049l-.343 1.286c-.223.84-.432 1.684-.554 2.543-.277 1.925-.137 4.144 1.184 5.686.528.617 1.256 1.058 2.068 1.174.453.062.9-.015 1.349-.072.456-.057.896.035 1.352-.01.726-.07 1.043.8.772 1.347a3.34 3.34 0 0 1-.515.762c.157.136.308.283.453.437.429.138.813.434 1.101.825.233.316.354.659.374 1.021.026.09.048.182.068.275l.393.64c.087.14.173.279.259.414a20.013 20.013 0 0 0 3.492 4.177c1.329 1.212 2.771 2.297 4.02 3.597l.147.155c1.163 1.228 2.39 2.716 1.935 4.502-.118.46-.757.79-1.175.48-1.344-.999-2.02-2.582-3.16-3.794-1.173-1.249-2.473-2.371-3.649-3.616a14.291 14.291 0 0 1-2.653-3.973c-.264.292-.648.5-1.182.581-.916.137-1.77-.401-2.17-1.196a6.879 6.879 0 0 1-.783.298c-1.389.426-2.263-1.122-1.739-2.267a5.65 5.65 0 0 1 1.065-1.594c-1.358-.187-2.74-.89-3.633-1.768-2.239-2.206-2.547-5.52-2.043-8.468a22.225 22.225 0 0 1 1.329-4.611c.104-.256.216-.513.339-.766a.239.239 0 0 1-.182-.088c-.405-.555-.898-1.009-1.199-1.63-.276-.569-.584-1.145-.802-1.738-.45-1.214-.67-2.584-.816-3.868-.302-2.628-.185-5.24.216-7.85a31.688 31.688 0 0 1 4.767-12.44 2.125 2.125 0 0 1-.377-.254l-.059-.05-.095-.087c-.694-.63-.634-1.809 0-2.446l.201-.201a5.248 5.248 0 0 1 1.066-.842 1.771 1.771 0 0 1-.139-1.373c.52-1.785 3.083-1.722 4.707-.944a29.298 29.298 0 0 1 5.949-4.13c5.143-2.689 10.958-4.564 16.636-5.71Zm-26.585 46.995c.96-.314 2.236.345 3.099.742 1.094.503 2.026 1.247 2.927 2.033.449.393.53 1.036.418 1.585-.011.055-.022.112-.035.169-.119.586-.771 1.046-1.349 1.03-1.208-.033-1.783-1.078-2.467-1.963-.08.143-.181.275-.306.374l-.084.067c-.284.216-.597.39-.972.372a1.806 1.806 0 0 1-.755-.204c-.586-.31-.844-1.07-.685-1.689a1.57 1.57 0 0 1 .623-.905l-.111-.076c-.236-.165-.452-.34-.621-.596l-.038-.061h.015a.595.595 0 0 1 .341-.878Z" fill="#000"/><path fill-rule="evenodd" clip-rule="evenodd" d="M150.62 107.462c-1.353.392-2.805.427-4.185.022-1.251-.367-2.535-1.175-3.456-2.243-.818-.95-1.347-2.104-1.327-3.336a.545.545 0 0 1 .131-.349.611.611 0 0 1 .703-.162.502.502 0 0 1 .25.246c.141.186.282.369.424.547 1.138 1.405 2.239 2.454 3.95 2.831a4.814 4.814 0 0 0 2.706-.198 5.807 5.807 0 0 0 2.378-1.671c.292-.34.636-.478.972-.48.382-.003.759.174 1.042.457.28.279.466.657.483 1.053a1.4 1.4 0 0 1-.399 1.033 8.134 8.134 0 0 1-3.672 2.25Zm-.042-17.592c1.387.843 3.501 2.809 2.008 4.898-1.756 1.843-4.285-.27-5.531-1.225-1.155-.74-2.453 1.164-1.381 2.029 9.004 6.665 12.658-5.481 5.606-6.693-.777-.133-1.065.73-.702.991Zm-12.974-3.709c-.446-.285-.971-.383-1.552-.118-.454.206-1.251.895-1.805 1.8-.379.618-.648 1.345-.592 2.102a.476.476 0 0 1-.154.4.602.602 0 0 1-.335.15.867.867 0 0 1-.353-.033.524.524 0 0 1-.349-.3c-.388-1.03-.221-2.18.214-3.219.587-1.4 1.653-2.573 2.352-2.951 1.195-.647 2.605-.677 3.802-.018 1.019.562 1.656 1.468 2.29 2.392.135.196.268.39.407.582.276.384.304.765.197 1.091-.119.362-.422.667-.801.826a1.44 1.44 0 0 1-1.116.017c-.304-.128-.582-.378-.759-.801-.297-.714-.792-1.501-1.446-1.92Zm22.64 1.588c-.305.159-.544.207-.883.105a1.256 1.256 0 0 1-.517-.309 1.032 1.032 0 0 1-.287-.52 2.132 2.132 0 0 0-.748-1.245 1.502 1.502 0 0 0-1.194-.314c-.492.082-.961.398-1.284.77-.108.125-.193.266-.278.407-.159.263-.314.507-.533.7a.489.489 0 0 1-.477.101c-.49-.492-.585-.865-.569-1.235.017-.388.17-.78.417-1.147.58-.86 1.681-1.565 2.424-1.725 1.018-.218 2.028.044 2.839.612.833.585 1.451 1.493 1.644 2.516.046.247.026.513-.068.743a1.032 1.032 0 0 1-.486.54Zm-20.396-10.755c-.611.595-1.334.687-2.065.769a9.76 9.76 0 0 0-1.05.155c-.877.198-1.744.496-2.535.926-.827.449-1.729.99-2.377 1.684-.154.165-.299.338-.445.512-.133.158-.26.31-.395.457-.155.17-.302.346-.448.522-.09.15-.108.186-.127.224a5.083 5.083 0 0 1-.095.19 3.53 3.53 0 0 1-.17.29c-.101.171-.156.219-.203.24a.418.418 0 0 1-.224.042.372.372 0 0 1-.194-.094c-.314-.265-.406-.7-.397-1.16.015-.701.273-1.476.511-1.953.554-1.107 1.321-2.258 2.245-3.085a10.916 10.916 0 0 1 3.53-2.15c.823-.305 1.775-.586 2.671-.55.646.025 1.262.216 1.77.695.313.294.462.712.462 1.13 0 .427-.155.855-.464 1.156Zm21.638 5.448a.329.329 0 0 1-.152.134.352.352 0 0 1-.482-.24c-.406-1.78-1.193-3.105-2.874-3.959-.826-.42-1.777-.687-2.677-.9-.261-.062-.537-.102-.816-.143-.872-.127-1.75-.273-2.318-.978a1.878 1.878 0 0 1-.406-1.463c.077-.468.35-.897.847-1.154 1.236-.639 2.773-.012 4.022.523l.272.116c1.222.515 2.335 1.195 3.251 2.168.726.772 1.399 1.913 1.671 3.087.225.977.172 1.974-.338 2.809Z" fill="#05051A"/><path fill-rule="evenodd" clip-rule="evenodd" d="M156.232 103.37a22.21 22.21 0 0 1 1.442 1.64c.126.908.156 1.826.04 2.773-.169 1.374-.544 2.717-1.051 4.006a3.172 3.172 0 0 1-.883-.259c-.915-.421-1.425-1.267-2.044-2.015-1.233-1.485-3.481-2.363-5.053-.823-.684.671-1.121 1.598-1.73 2.335a21.029 21.029 0 0 1-2.21 2.277c-.097.088-.198.183-.303.277a68.144 68.144 0 0 1-1.288-1.513c-1.25-1.521-2.33-3.205-2.898-5.104a8.597 8.597 0 0 1-.336-1.864 9.924 9.924 0 0 1 1.914-1.838c2.176-1.57 4.683-1.825 7.292-1.961 2.698-.14 5.128.044 7.108 2.069Zm6.583 7.286a28.318 28.318 0 0 0-.506-3.234c-.872-4.048-2.762-8.083-6.551-9.932-1.793-.876-3.83-1.184-5.762-.762-3.391-1.27-7.156.026-9.825 2.347-3.148 2.738-4.601 7.035-5.089 11.061-.34 2.801-.468 6.542.327 8.574.794 2.032 5.845 7.466 13.055 7.504 10.269.054 12.765-6.87 13.069-7.476 1.265-2.52 1.559-5.302 1.282-8.082Z" fill="#000"/></g></g><defs><clipPath id="a"><path fill="#fff" d="M0 0h252v274H0z"/></clipPath><filter id="b" x="49.367" y="41.137" width="170.227" height="210.843" filterUnits="userSpaceOnUse" color-interpolation-filters="sRGB"><feFlood flood-opacity="0" result="BackgroundImageFix"/><feColorMatrix in="SourceAlpha" values="0 0 0 0 0 0 0 0 0 0 0 0 0 0 0 0 0 0 127 0" result="hardAlpha"/><feOffset dy="5"/><feGaussianBlur stdDeviation="2.5"/><feComposite in2="hardAlpha" operator="out"/><feColorMatrix values="0 0 0 0 0 0 0 0 0 0 0 0 0 0 0 0 0 0 0.35 0"/><feBlend in2="BackgroundImageFix" result="effect1_dropShadow_22_25"/><feBlend in="SourceGraphic" in2="effect1_dropShadow_22_25" result="shape"/></filter></defs></svg>