<svg width="1372" height="1492" viewBox="0 0 1372 1492" fill="none" xmlns="http://www.w3.org/2000/svg">
<g clip-path="url(#clip0_156_531)">
<rect x="726" y="897" width="229" height="282" fill="#DDDBFF"/>
<path fill-rule="evenodd" clip-rule="evenodd" d="M659.207 621.173C683.892 602.376 745.865 593.923 772.211 612.022C798.233 630.197 801.069 659.589 813.195 686.627C824.636 681.232 843.53 688.958 846.847 699.574C850.961 704.581 851.146 718.649 853.983 725.38C977.425 745.029 996.166 841.267 1011.02 950.525C1030.68 1061.39 1075.3 1172.02 1055.93 1286.11C1058.45 1289.76 1060.44 1293.31 1062.28 1297.53C1066.69 1305.03 1061.01 1315.65 1052.12 1315.24C1040.61 1314.22 1029.21 1312.84 1017.65 1312.41C985.588 1311.3 953.499 1311.43 921.427 1311.84L917.054 1311.9C755.421 1313.91 593.797 1317.87 432.157 1318.93C426.293 1318.93 423.422 1313.68 424.205 1308.49C425.782 1298.04 427.245 1287.59 428.772 1277.14C390.54 1287.24 349.896 1289.78 311.772 1278.2C309.105 1275.49 317.986 1276.96 319.395 1276.55C284.309 1252.57 294.787 1202.07 297.895 1165.69C317.221 1041.04 324.034 903.118 398.703 796.751C431.006 753.343 478.365 718.975 532.784 711.242L534.293 711.036C550.205 708.914 567.939 708.231 581.852 699.574C597.499 687.083 604.167 664.002 620.628 663.786C626.064 663.715 633.458 670.592 641.416 675.26C642.01 664.99 647.545 656.322 648.767 648.359L648.866 647.678C650.141 638.394 648.394 630.041 659.207 621.173ZM924.495 953.819C889.804 929.719 800.191 941.828 798.14 943.178C793.623 946.149 791.678 946.411 789.235 950.269C786.823 950.589 784.413 950.921 782.005 951.263C777.174 952.841 780.754 958.783 786.334 956.663C782.977 971.138 792.854 981.431 796.787 995.741C798.063 1000.39 796.833 1008.74 796.787 1013.49C797.168 1019.54 803.86 1026.69 802.745 1032.77C798.779 1054.35 777.261 1075.41 786.334 1096.35C792.344 1108.18 810.42 1114.21 822.438 1118.23C847.337 1127.78 890.721 1117.87 905.188 1096.35C912.904 1084.88 921.844 1055.93 926.445 1046.95L927.465 1032.71C929.98 997.299 932.217 959.183 924.495 953.819Z" fill="#FBD4C5"/>
<path fill-rule="evenodd" clip-rule="evenodd" d="M619.345 663.851L629.273 669.943L686.931 698.445C698.109 701.575 703.698 705.326 703.698 709.698V754.217C703.698 760.174 714.187 773.677 735.166 794.723L754.548 775.402L754.114 772.872C752.27 761.972 751.348 754.68 751.348 750.997C751.348 747.037 770.31 732.001 808.233 705.891L824.824 690.271L823.055 684.891C833.285 685.375 844.379 691.675 846.847 699.574C850.961 704.581 851.146 718.649 853.983 725.38C977.425 745.029 996.166 841.267 1011.02 950.525C1030.68 1061.39 1075.3 1172.02 1055.93 1286.11C1058.45 1289.76 1060.44 1293.31 1062.28 1297.53C1066.69 1305.03 1061.01 1315.65 1052.12 1315.24C1040.61 1314.22 1029.21 1312.84 1017.65 1312.41C985.588 1311.3 953.499 1311.43 921.427 1311.84L917.054 1311.9C755.421 1313.91 593.797 1317.87 432.157 1318.93C426.293 1318.93 423.422 1313.68 424.205 1308.49C425.782 1298.04 427.245 1287.59 428.772 1277.14C390.54 1287.24 349.896 1289.78 311.772 1278.2C309.105 1275.49 317.986 1276.96 319.395 1276.55C284.309 1252.57 294.787 1202.07 297.895 1165.69C317.221 1041.04 324.034 903.118 398.703 796.751C431.006 753.343 478.365 718.975 532.784 711.242L534.293 711.036L535.814 710.838C551.327 708.863 568.381 707.956 581.852 699.574C597.086 687.413 603.808 665.213 619.345 663.851ZM757.502 925.156C751.847 925.156 740.265 933.938 722.756 951.502L721.214 952.215C700.049 962.046 686.028 970.574 679.15 977.799L678.905 978.06C671.957 985.513 658.199 1005.33 637.63 1037.52L607.843 1055.13H596.573L588.549 1113.34L607.843 1154.9L651.547 1140.18L722.756 1121.41L763.618 1079.95L786.668 1072.21C783.872 1080.29 782.858 1088.33 786.334 1096.35C792.344 1108.18 810.42 1114.21 822.438 1118.23C847.337 1127.78 890.721 1117.87 905.188 1096.35C912.904 1084.88 921.844 1055.93 926.445 1046.95L927.765 1028.45C930.143 994.302 931.908 958.968 924.495 953.819C889.804 929.719 800.191 941.828 798.14 943.178C793.623 946.149 791.678 946.411 789.235 950.269L787.97 950.439L795.082 940.794L792.564 939.449C774.596 929.92 762.908 925.156 757.502 925.156ZM786.334 956.663C783.12 970.52 792.036 980.546 796.253 993.932L785.479 973.308L785.479 956.931C785.758 956.862 786.043 956.774 786.334 956.663Z" fill="#05051A"/>
<path fill-rule="evenodd" clip-rule="evenodd" d="M614.585 661.698C616.979 659.577 620.524 662.242 619.002 665.107C615.582 671.546 612.074 677.647 607.484 683.339C604.701 686.79 601.72 690.054 598.699 693.282C606.452 699.989 613.101 708.316 619.38 716.12C627.409 726.101 635 736.505 644.013 745.638C652.901 754.646 662.73 760.942 674.614 765.141L677.014 765.974C688.952 770.165 701.711 775.825 708.441 787.128C709.768 789.357 707.096 792.111 704.85 790.72C693.157 783.48 679.418 782.024 666.69 777.24C654.395 772.619 643.677 765.507 634.207 756.43C624.753 747.368 616.815 737.058 608.535 726.966C600.347 716.987 591.531 708.464 581.846 700.021C566.9 710.076 549.84 714.451 532.493 718.748L530.6 719.216C513.232 723.516 495.957 728.51 479.663 735.998C465.297 742.599 451.167 750.482 439.465 761.224C427.043 772.624 417.375 787.184 408.526 801.423C388.732 833.279 374.816 868.179 362.565 903.503C349.823 940.245 339.165 977.723 330.561 1015.65C326.185 1034.94 322.631 1054.36 319.71 1073.93C318.304 1083.35 317.055 1092.79 315.958 1102.25C314.787 1112.36 314.518 1122.75 311.418 1132.47C310.089 1136.63 306.951 1138.36 303.81 1138.22L303.172 1146.19C302.326 1156.83 301.537 1167.47 301.271 1178.18C300.829 1195.98 301.029 1213.72 302.309 1231.48L302.491 1233.9C303.497 1246.87 305.745 1261.43 315.492 1270.92C325.586 1280.75 341.109 1283.84 354.714 1284.02C386.401 1284.43 416.903 1269.46 444.943 1256.33C473.821 1242.8 501.91 1227.78 529.326 1211.5C543.288 1203.21 557.099 1194.64 570.734 1185.82C577.425 1181.49 584.069 1177.09 590.663 1172.61C594.44 1170.05 598.019 1167.24 601.864 1164.97C599.98 1163.22 599.139 1160.46 600.717 1158.05C589.602 1148.4 584.975 1131.19 584.435 1117.25C583.997 1106.01 585.653 1094.8 586.959 1083.66C587.618 1078.04 588.432 1072.43 589.277 1066.84C589.611 1064.63 589.866 1062.27 590.256 1059.94C560.243 1076.43 529.389 1091.12 497.718 1104.17C481.484 1110.86 465.042 1116.87 448.373 1122.38L444.994 1123.49C429.2 1128.66 413.028 1133.55 396.701 1136.5C395.828 1136.66 395.119 1135.37 396.051 1134.96C411.963 1127.94 428.426 1122.02 444.577 1115.55L447.231 1114.47C446.926 1114.45 446.61 1114.41 446.28 1114.33C436.808 1112.05 427.41 1108.52 418.12 1105.56C409.498 1102.8 399.811 1101.08 391.752 1096.92C391.132 1096.6 391.479 1095.74 392.083 1095.7C401.141 1095.07 410.974 1097.71 419.855 1099.26L423.191 1099.85C428.78 1100.83 434.493 1101.89 440.055 1103.27C440.256 1101.41 441.297 1099.54 442.778 1098.44C459.075 1086.37 457.42 1062 459.163 1044.02L460.455 1030.68C462.728 1007.32 465.134 983.969 468.788 960.788C468.983 959.55 470.898 959.905 470.906 961.074C471.094 989.809 468.925 1018.41 467.838 1047.1L467.669 1051.81C467.068 1069.51 466.597 1087.89 455.448 1101.51C457.007 1100.6 459.115 1100.6 460.378 1102.11C461.93 1103.95 462.826 1106.03 462.798 1108.06C472.873 1103.84 482.904 1099.5 492.886 1095.08C524.979 1080.86 556.399 1064.95 586.988 1047.74C590.28 1045.88 593.409 1047.34 595.037 1049.78L595.271 1049.75C595.311 1049.74 595.351 1049.74 595.392 1049.74L595.625 1049.73C595.634 1049.73 595.643 1049.73 595.651 1049.73C599.957 1047.36 605.823 1049.05 609.518 1052.5C609.627 1052.6 609.72 1052.72 609.817 1052.83C614.495 1050.73 618.863 1047.89 622.827 1044.3C630.939 1036.95 637.81 1027.85 643.8 1018.74C654.831 1001.95 664.201 983.277 679.102 969.456C691.209 958.227 706.219 951.236 721.966 946.847C721.9 946.387 722.076 945.897 722.394 945.571C723.203 944.742 723.78 944.455 724.825 944.958C724.908 944.999 724.958 945.055 724.992 945.115L726.528 942.49C727.367 941.065 728.228 939.63 728.527 939.253C730.315 937.002 732.155 934.768 734.023 932.581C737.19 928.878 740.799 925.224 744.978 922.656C754.128 917.035 763.746 920.216 773.154 923.288C778.837 925.145 784.503 927.062 790.177 928.947L790.762 929.139C794.993 930.498 799.944 931.687 801.836 936.169C802.585 937.943 802.701 939.784 802.352 941.57C842.536 931.351 887.167 936.046 926.38 948.042C927.885 948.502 929.388 949.74 929.706 951.366C934.198 974.407 936.2 998.036 934.167 1021.47C932.412 1041.7 927.93 1061.52 919.484 1080.04L919.004 1081.09C911.067 1098.25 898.486 1119.41 879.273 1124.78C867.672 1128.03 854.841 1126.12 843.01 1125.52C831.51 1124.94 819.757 1124.86 808.367 1123.05C798.223 1121.44 789.335 1116.89 783.066 1108.65C777.658 1101.53 774.81 1092.93 772.477 1084.38C771.409 1084.72 770.348 1085.08 769.304 1085.49C764.897 1087.21 761.163 1089.98 757.787 1093.25C750.658 1100.16 745.128 1108.54 737.669 1115.13C730.917 1121.09 723.223 1125.73 714.97 1129.3C697.868 1136.69 679.522 1139.64 661.433 1143.56L660.172 1143.83C646.553 1146.82 632.654 1150.49 620.634 1157.58C620.399 1159.67 619.448 1161.63 617.924 1162.92C620.044 1164.91 620.942 1168.06 619.079 1171.02C613.875 1179.28 604.911 1183.97 596.864 1189.26L596.341 1189.6C588.425 1194.85 580.44 1199.99 572.39 1205.03C556.025 1215.28 539.318 1224.96 522.375 1234.22C495.124 1249.1 467.288 1263.15 438.948 1275.88C440.649 1284.25 440.027 1292.88 441.305 1301.31L441.502 1302.51C442.048 1305.63 441.31 1308.25 439.156 1310.29L438.929 1310.5L438.933 1310.47L438.731 1310.66L438.663 1310.72L438.686 1310.7C438.437 1310.93 438.181 1311.14 437.92 1311.32L437.588 1311.53C435.513 1312.79 432.843 1312.78 430.719 1311.67L430.477 1311.53L430.069 1311.3C427.263 1309.68 425.328 1305.69 426.492 1302.51C429.353 1294.7 430.434 1286.37 433.076 1278.51L430.98 1279.44L428.217 1280.65C398.339 1293.57 365.151 1304.45 332.597 1295.64C318.213 1291.75 304.769 1283.51 297.572 1270.09C290.49 1256.89 289.489 1241.55 289.113 1226.86C288.649 1208.73 289.621 1190.32 292.012 1172.35C293.617 1160.28 295.558 1147.99 298.552 1136.05C297.012 1134.69 295.88 1132.74 295.581 1130.33C294.168 1118.92 296.641 1107.06 298.155 1095.72C299.634 1084.64 301.268 1073.58 303.116 1062.56C306.847 1040.3 311.182 1018.09 316.229 996.092C325.211 956.941 337.072 918.486 351.352 880.95L352.602 877.681C365.798 843.372 381.076 809.795 402.351 779.654C412.528 765.234 423.286 752.16 437.666 741.769C451.138 732.033 466.334 725.023 482.016 719.665C497.715 714.303 513.851 710.71 530.272 708.475C546.949 706.205 564.552 704.813 580.109 697.973C578.141 694.445 579.829 689.682 583.142 687.494C594.288 680.13 604.595 670.55 614.585 661.698ZM971.39 981.92C971.857 981.211 972.966 981.659 972.761 982.498C967.34 1004.71 962.251 1026.96 958.928 1049.59C952.93 1090.44 954.033 1131.83 954.523 1172.98L954.548 1175.11C954.8 1197.27 955.15 1219.44 955.883 1241.6C956.253 1252.8 956.985 1264.1 956.587 1275.31C956.37 1281.39 954.75 1287.13 954.176 1293.14C953.673 1298.39 954.121 1303.72 954.372 1308.98C954.54 1312.48 949.38 1312.33 949.029 1308.98L948.58 1304.65C947.997 1299.17 947.277 1293.73 945.481 1288.48C943.322 1282.18 942.286 1275.98 941.537 1269.36C940.39 1259.21 939.88 1248.96 939.437 1238.75L939.134 1231.68C937.285 1188.97 937.35 1146.07 940.343 1103.41L940.562 1100.36C943.526 1060.04 948.669 1016.47 971.39 981.92ZM855.835 727.773C854.419 727.191 854.915 725.05 856.483 725.423L859.335 726.103C880.229 731.108 900.745 736.53 920.247 745.843C939.762 755.161 956.284 769.072 969.412 786.178C994.932 819.429 1005.54 859.839 1013.91 900.211C1023.21 945.072 1031.68 990.097 1041.07 1034.94L1042.81 1043.3C1051.5 1085.07 1059.7 1126.86 1065.74 1169.13L1066.17 1172.19C1072.26 1215.65 1075.93 1260.62 1069.28 1304.19C1067.96 1312.81 1053.62 1310.67 1054.18 1302.15C1055.8 1277.53 1056.96 1253.03 1055.84 1228.36C1054.72 1203.67 1052.4 1179.1 1048.95 1154.63C1046.05 1134.04 1041.72 1113.71 1037.89 1093.28L1037.29 1090.05C1034.08 1072.68 1030.77 1055.32 1027.47 1037.97L1022.54 1011.98C1015.15 973.065 1007.61 934.118 999.097 895.449L998.592 893.174C990.259 855.972 977.974 817.002 952.979 787.46C927.614 757.479 891.303 742.38 855.835 727.773ZM763.668 1122.37C764.278 1121.01 766.412 1121.16 767.068 1122.37C769.639 1127.11 769.924 1133.17 770.41 1138.52L770.461 1139.07C771.079 1145.6 771.626 1152.16 771.961 1158.71C772.596 1171.15 772.9 1183.58 772.861 1196.03C772.821 1208.79 772.564 1221.54 771.876 1234.29L771.69 1237.7C771.062 1248.78 770.008 1261.13 764.745 1270.82C762.832 1274.34 757.629 1273.3 756.521 1269.74C752.891 1258.09 754.755 1244.27 755.686 1232.33L756.409 1223.01C757.125 1213.7 757.808 1204.38 758.349 1195.05C759.091 1182.29 759.703 1169.52 760.292 1156.75C760.484 1152.6 760.691 1148.46 760.909 1144.31L761.245 1138.09C761.532 1132.89 761.508 1127.18 763.668 1122.37ZM355.521 1138.89L357.127 1137.34C362.06 1132.51 368.294 1125.08 375.587 1125.54C378.495 1125.72 380.348 1128.13 379.745 1131C378.457 1137.11 372.218 1140.29 367.727 1144.02C362.807 1148.11 358.17 1152.48 353.542 1156.89C349.436 1160.81 345.487 1164.83 341.634 1168.98L340.193 1170.54C338.811 1172.05 328.974 1180.95 330.038 1183.26L330.096 1183.36C330.392 1183.8 329.899 1184.41 329.408 1184.25C325.16 1182.91 325.425 1179.27 327.031 1175.58C330.117 1168.49 335.521 1161.94 340.24 1155.88C344.946 1149.85 350.04 1144.22 355.521 1138.89ZM779.062 961.137C775.777 953.373 763.676 953.536 756.806 954C739.506 955.169 720.788 959.546 705.395 967.632C689.436 976.015 678.686 989.447 669.068 1004.3L668.618 1005C659.243 1019.57 650.214 1036.82 635.534 1046.84C628.057 1051.95 619.326 1056.61 610.254 1058.63C609.631 1059.72 608.622 1060.59 607.299 1060.9L606.684 1061.04C604.1 1061.61 600.086 1062.25 596.619 1061.87C596.642 1063.56 596.624 1065.25 596.667 1066.85C596.789 1071.46 596.841 1076.08 596.841 1080.69C596.843 1090.35 596.324 1100.02 596.727 1109.68C597.084 1118.21 598.29 1127.14 602.39 1134.77C605.397 1140.37 609.366 1144.08 614.157 1147.61C625.943 1140.43 639.27 1136.05 652.796 1132.76C669.154 1128.78 685.903 1126.12 701.889 1120.72C709.583 1118.13 716.98 1114.72 723.682 1110.11C730.795 1105.2 736.228 1098.56 741.818 1092.07L742.691 1091.06C748.396 1084.52 754.621 1078.26 762.684 1074.71C769.627 1071.66 778.778 1071.11 784.849 1066.39C788.023 1063.91 788.289 1060.32 788.623 1056.65C784.735 1057.2 780.619 1056.31 776.744 1055.86L774.736 1055.62C771.072 1055.19 767.492 1054.71 763.885 1053.78C763.215 1053.6 763.215 1052.59 763.885 1052.42C768.148 1051.32 772.373 1050.85 776.744 1050.34L777.77 1050.21C781.724 1049.69 785.881 1048.91 789.76 1049.78C790.456 1047.13 791.461 1044.6 792.871 1042.07C794.85 1038.51 798.595 1034.48 799.101 1030.33C799.252 1029.08 798.963 1027.62 798.378 1026.52L798.176 1026.15C797.93 1025.71 797.639 1025.26 797.213 1024.99C797.166 1025.04 797.066 1025.11 796.849 1025.18C793.864 1026.12 791.26 1024.65 789.878 1022.4C784.011 1023.13 777.608 1022.89 772.106 1023.13L766.543 1023.4C760.598 1023.67 754.384 1023.79 748.799 1022.59C748.019 1022.42 747.783 1021.12 748.564 1020.79C755.431 1017.85 763.761 1016.92 771.113 1015.79C775.219 1015.16 779.355 1014.68 783.473 1014.12C786.215 1013.75 789.125 1013.14 791.966 1012.99C799.089 1004.13 795.251 990.138 785.338 986.32C781.727 987.907 778.48 986.984 774.535 986.645C770.597 986.307 766.649 986.078 762.695 986.095C754.772 986.13 746.376 988.214 738.53 987.317C737.254 987.17 736.068 985.472 737.337 984.436C743.342 979.535 751.95 977.937 759.573 976.893L761.154 976.681C763.71 976.346 766.818 975.857 770.042 975.566C770.771 974.144 772.079 973.069 774.044 972.802C774.628 972.722 775.215 972.675 775.801 972.625L775.792 972.567C780.584 972.337 780.376 964.243 779.062 961.137ZM450.993 1112.56C450.908 1112.69 450.815 1112.82 450.717 1112.94L450.565 1113.11L451.353 1112.79L450.993 1112.56ZM862.684 943.788C842.514 941.621 822.315 942.078 802.085 942.66C800.467 947.952 794.835 952.462 789.378 952.632C793.652 959.137 794.093 967.941 791.096 974.84C797.459 977.373 802.941 981.923 806.268 988.403C810.884 997.386 810.28 1007.38 805.719 1015.68C809.612 1019.21 811.909 1024.93 811.679 1030.33C811.422 1036.34 807.837 1041.48 804.858 1046.46C801.639 1051.84 801.531 1056.59 800.542 1062.62C799.095 1071.45 793.141 1076.8 785.48 1080.14L785.887 1081.75C787.862 1089.43 790.319 1097.55 795.965 1103.17C803.226 1110.4 814.492 1110.33 824.087 1110.79L824.549 1110.81C833.335 1111.25 842.117 1111.77 850.899 1112.27L857.487 1112.63C867.599 1113.19 877.31 1113.26 885.565 1106.57C899.042 1095.66 908.281 1077.6 914.129 1061.61C926.403 1028.06 926.549 991.233 920.916 956.285C902.021 950.195 882.416 945.908 862.684 943.788ZM694.945 999.46L695.093 999.471C699.246 999.945 702.099 1003.31 703.115 1007.3C704.591 1013.09 703.867 1018.34 707.418 1023.57C711.071 1028.95 713.317 1033.26 713.848 1039.91C714.066 1042.65 713.966 1045.38 714.575 1048.05L715.017 1049.93C715.486 1051.93 715.869 1053.86 715.636 1056.01C715.423 1057.96 714.469 1059.49 712.504 1060.12C706.101 1062.17 701.157 1057.45 699.503 1051.48C698.074 1046.33 699.982 1040.19 697.966 1035.35C696.849 1032.66 694.789 1030.42 693.625 1027.72C692.472 1025.04 691.893 1022.24 691.708 1019.33C691.357 1013.83 696.225 1007.22 693.509 1002.23C692.931 1001.17 693.586 999.428 694.945 999.46ZM609.892 942.662C614.228 941.781 619.147 939.762 623.423 941.44C625.621 942.304 626.707 944.984 624.85 946.847C621.626 950.079 616.94 950.259 612.597 951.021L612.215 951.09C607.08 952.04 601.936 952.941 596.785 953.795C587.094 955.4 577.38 956.819 567.632 958.025C557.62 959.264 547.58 960.367 537.526 961.197L533.634 961.516C525.141 962.195 516.304 962.708 507.971 961.407C506.76 961.218 506.955 959.455 507.971 959.146C517.1 956.383 527.114 955.642 536.552 954.473C546.586 953.228 556.603 951.913 566.594 950.353C576.569 948.795 586.531 947.123 596.456 945.275C600.942 944.441 605.421 943.57 609.892 942.662ZM766.346 933.79C762.542 932.443 758.355 930.447 754.233 931.115C747.122 932.267 740.794 939.194 735.167 943.756L737.992 943.207C752.452 940.428 771.6 937.434 783.737 946.627C783.768 946.574 783.793 946.521 783.828 946.468C784.807 944.98 785.943 943.819 787.181 942.546C787.3 942.435 787.414 942.319 787.527 942.202L788.195 941.49L786.667 940.961C783.392 939.803 779.512 938.309 778.899 938.09L778.857 938.075C774.681 936.661 770.501 935.263 766.346 933.79ZM647.545 630.716C646.95 623.063 658.861 623.126 659.451 630.716C660.738 647.286 657.009 663.699 648.983 678.226C648.924 678.332 648.859 678.426 648.797 678.526C653.817 681.138 658.894 683.644 664.084 685.884C670.723 688.75 677.487 691.36 684.372 693.574C690.6 695.578 698.273 696.369 703.509 700.539C714.55 709.331 710.402 727.577 708.278 739.404L707.946 741.271C706.889 747.357 706.124 753.601 708.69 759.442C711.43 765.681 716.971 770.309 721.914 774.773L722.912 775.678C727.291 779.668 732.295 784.515 735.507 789.923C738.439 783.861 742.436 778.907 746.662 773.33C749.677 769.35 747.531 768.038 745.365 764.15C743.28 760.408 742.262 756.419 742.914 752.15C744.117 744.266 750.418 738.571 756.69 734.292C764.097 729.241 772.364 725.499 780.021 720.8C795.755 711.146 811.078 700.108 824.883 687.849C825.264 687.51 825.924 687.954 825.619 688.417C814.714 705.004 801.927 719.337 786.212 731.503C779.84 736.436 773.146 740.528 766.407 744.83L764.47 746.073C761.764 747.826 758.389 750.168 757.166 753.152C755.935 756.153 758.56 758.419 759.973 760.905C764.46 768.8 762.295 776.166 756.976 782.861L756.728 783.169C751.442 789.683 747.436 795.741 745.52 804.063C741.403 821.94 747.137 840.561 753.14 857.344L753.377 858.005C756.624 867.051 760.075 876.031 762.896 885.222L763.672 887.763C766.228 896.22 768.321 904.561 765.454 913.254C764.479 916.211 760.446 916.91 758.771 914.127C752.862 904.313 751.389 892.503 747.685 881.713C744.075 871.197 739.93 860.871 736.443 850.312C731.953 836.717 728.948 822.083 730.579 807.823C730.531 807.74 730.478 807.662 730.438 807.574L729.295 805.074C726.178 798.304 723.168 792.392 717.5 786.996C711.588 781.367 705.171 776.384 700.519 769.57C690.414 754.769 696.663 738.304 697.884 722.12L698.024 720.136C698.245 716.775 698.367 712.209 696.172 709.883C693.703 707.265 687.913 706.597 684.637 705.438C676.171 702.442 667.828 698.951 659.882 694.759C652.318 690.769 644.991 686.361 638.169 681.197L634.711 678.596C629.255 674.48 623.598 669.984 619.942 664.381C619.52 663.736 620.237 662.695 621.001 663.004C627.105 665.481 632.682 669.421 638.393 672.849C638.482 672.64 638.585 672.429 638.702 672.217C645.768 659.429 648.674 645.261 647.545 630.716ZM842.528 718.331C844.96 711.662 856.044 712.177 855.602 720.101C855.263 726.189 852.679 731.684 850.315 737.211L850.063 737.803C847.623 743.562 844.805 748.969 841.433 754.247C834.99 764.337 827.443 773.701 819.382 782.538C812.074 790.55 802.482 795.449 791.429 794.635C786.772 794.292 782.071 793.107 777.99 790.781C773.143 788.017 767.879 779.718 761.695 781.728C761.097 781.922 760.539 781.046 761.056 780.631C768.195 774.882 776.298 783.796 783.133 785.944C793.432 789.179 804.001 785.602 810.63 777.276C817.551 768.583 823.921 758.85 829.738 749.385C832.692 744.579 835.387 739.591 837.715 734.45C840.064 729.261 840.598 723.622 842.528 718.331ZM825.927 677.289C825.627 676.368 826.771 675.492 827.58 676.018C832.271 679.072 836.336 683.107 840.663 686.644C845.464 690.568 850.3 694.412 855.211 698.197C862.37 703.716 854.067 713.876 847.765 707.847C839.141 699.6 829.696 688.816 825.927 677.289ZM800.172 645.009C802.078 637.661 813.349 640.691 811.707 647.954L811.653 648.175C808.542 660.172 812.973 672.386 822.432 680.163L822.78 680.445C828.764 685.234 820.286 693.606 814.361 688.863C801.426 678.511 796.045 660.926 800.172 645.009Z" fill="#05051A"/>
<path fill-rule="evenodd" clip-rule="evenodd" d="M894.673 463.003C892.525 444.088 895.305 404.552 895.492 402.15C896.669 386.965 889.569 327.002 876.148 332.527C853.633 314.666 823.646 310.722 795.605 308.838C737.36 304.924 675.399 313.909 630.424 353.189C608.182 373.588 586.529 403.257 588.269 434.149C568.061 463.431 539.572 503.598 564.751 537.831C573.309 548.768 586.912 552.841 597.663 561.124C619.289 578.604 632.857 603.69 654.688 621.066C712.526 673.149 810.736 684.029 867.561 624.789C911.504 581.885 904.398 517.699 896.669 463.003C891.473 426.23 898.864 499.904 894.673 463.003Z" fill="#FBD4C5"/>
<path fill-rule="evenodd" clip-rule="evenodd" d="M717.798 228.625C733.375 225.475 749.37 223.515 765.278 224.105L766.504 224.153C778.473 224.632 793.631 225.693 804.072 232.667C804.672 232.063 805.638 231.753 806.514 232.172C818.922 238.107 832.569 242.398 845.634 246.662C858.638 250.905 872.13 253.706 885.76 254.835C890.888 255.26 895.277 260.809 892.03 265.786C891.257 266.972 890.505 268.17 889.755 269.371C891.009 269.24 892.262 269.105 893.516 268.978C897.64 268.562 901.76 272.973 901.516 276.997C901.363 279.528 901.091 282.029 900.687 284.5C902.258 284.467 903.82 284.703 905.329 285.342C912.968 288.575 912.437 297.694 911.865 304.632C911.072 314.26 907.479 324.458 900.807 331.664C905.789 336.849 909.315 343.041 911.419 350.395C912.944 355.765 913.794 361.485 913.375 367.075L913.241 368.749C912.723 374.815 911.692 381.531 907.337 385.895C905.102 388.145 902.348 388.965 899.722 388.705C901.31 402.685 902.328 416.745 903.286 430.755L903.735 437.451C905.872 469.831 907.478 502.422 907.058 534.855C906.668 565.165 900.691 594.585 882.141 619.195C865.245 641.605 840.988 658.125 813.546 664.405C798.757 667.795 783.659 668.035 768.69 665.875C761.435 664.825 754.131 663.215 747.245 660.675C739.622 657.855 734.143 653.705 729.014 647.485C726.588 644.535 727.756 638.255 732.587 638.845C739.893 639.733 746.562 640.803 753.566 642.968L754.569 643.285C761.546 645.525 768.77 647.195 776.064 647.905C791.003 649.355 806.17 647.895 820.481 643.355C843.782 635.955 863.849 619.465 876.712 598.745C891.98 574.185 893.706 546.305 893.486 518.065C893.249 487.077 892.244 456.07 890.602 425.114L890.322 419.955C889.454 404.025 888.616 388.085 887.878 372.145C887.649 367.145 887.3 362.105 886.67 357.115C880.913 353.735 875.754 349.075 872.391 343.325C865.635 346.125 858.531 348.145 851.993 349.755C836.851 353.487 821.131 354.393 805.718 352.056C801.561 353.777 797.321 355.29 793.016 356.592C791.852 357.109 790.689 357.617 789.526 358.115C779.147 362.565 768.62 366.335 757.664 369.095L754.972 369.768C749.207 371.192 742.944 372.595 736.808 373.035C735.8 373.425 734.712 373.755 733.524 374.045C727.937 375.405 722.138 375.835 716.411 375.355C710.832 374.885 706.8 369.235 709.874 363.945C712.119 360.085 714.385 356.235 716.67 352.395C708.717 355.715 700.505 358.475 692.222 360.815C683.86 363.175 675.378 365.165 666.885 366.995C662.344 367.965 657.785 368.825 653.255 369.795C650.011 370.485 645.032 370.845 642.386 372.985C639.464 375.335 638.635 380.815 637.527 384.195C636.07 388.585 634.703 392.995 633.455 397.455C630.972 406.355 628.936 415.385 627.359 424.505C625.783 433.635 624.724 442.855 624.135 452.105C623.547 461.345 623.806 470.645 622.859 479.845C622.349 484.725 617.121 487.235 613.259 483.825C612.806 483.425 612.349 483.021 611.897 482.612L611.223 481.995C607.919 478.995 604.716 475.815 602.073 472.235C601.594 471.575 601.135 470.885 600.706 470.185C600.636 470.185 600.576 470.165 600.506 470.115L599.773 469.562C591.702 463.543 578.219 455.694 570.35 465.695C567.842 468.881 566.558 472.938 565.493 476.851L563.623 483.856C562.413 488.428 561.275 493.026 560.609 497.705C559.103 508.185 559.861 520.265 567.057 528.665C569.931 532.025 573.892 534.425 578.312 535.055C580.778 535.395 583.213 534.975 585.657 534.665C588.142 534.355 590.536 534.855 593.022 534.615C596.973 534.225 598.7 538.965 597.223 541.945C596.425 543.545 595.486 544.925 594.419 546.095C595.276 546.835 596.095 547.635 596.884 548.475C599.219 549.225 601.313 550.835 602.881 552.965C604.148 554.685 604.806 556.555 604.917 558.525C605.055 559.015 605.175 559.515 605.286 560.025L607.427 563.507C607.898 564.271 608.367 565.025 608.837 565.765C614.286 574.365 620.334 581.645 627.848 588.505C635.083 595.105 642.935 601.015 649.732 608.095L650.533 608.936C656.869 615.627 663.548 623.726 661.068 633.455C660.429 635.955 656.946 637.755 654.672 636.065C647.357 630.625 643.674 622.005 637.468 615.405C631.08 608.605 624.005 602.495 617.6 595.715C611.542 589.315 606.762 582.065 603.16 574.085C601.722 575.675 599.628 576.805 596.724 577.245C591.735 577.995 587.083 575.065 584.909 570.735C583.511 571.355 582.085 571.915 580.647 572.355C573.083 574.675 568.324 566.245 571.178 560.015C572.704 556.675 574.61 553.775 576.976 551.335C569.58 550.315 562.056 546.485 557.197 541.705C545.003 529.695 543.327 511.645 546.071 495.595C547.528 487.085 550.042 478.475 553.306 470.485C553.874 469.095 554.483 467.695 555.151 466.315C554.782 466.305 554.402 466.145 554.163 465.835C551.958 462.815 549.274 460.345 547.637 456.965C546.13 453.865 544.455 450.725 543.266 447.495C540.822 440.885 539.625 433.425 538.826 426.435C537.18 412.125 537.818 397.905 540.004 383.685C543.725 359.465 552.714 336.287 565.957 315.949C565.236 315.569 564.545 315.111 563.901 314.569L563.583 314.291L563.066 313.823C559.287 310.396 559.613 303.973 563.066 300.502L564.157 299.407C565.537 298.032 566.728 296.943 568.959 295.446C569.288 295.225 569.624 295.017 569.965 294.823C568.797 292.661 568.392 290.133 569.205 287.344C572.039 277.628 585.99 277.972 594.832 282.209C604.614 273.46 615.461 265.865 627.219 259.715C655.22 245.075 686.882 234.865 717.798 228.625ZM573.054 484.525C578.283 482.815 585.229 486.405 589.929 488.565C595.886 491.305 600.955 495.355 605.865 499.635C608.31 501.775 608.748 505.275 608.14 508.265C608.079 508.565 608.02 508.875 607.95 509.185C607.301 512.375 603.748 514.885 600.605 514.795C594.029 514.615 590.897 508.925 587.174 504.105C586.735 504.885 586.187 505.605 585.507 506.145L585.048 506.505C583.503 507.684 581.8 508.626 579.759 508.535C578.312 508.465 576.926 508.095 575.648 507.425C572.455 505.735 571.049 501.595 571.916 498.225C572.455 496.105 573.692 494.445 575.309 493.295L574.706 492.882C573.417 491.983 572.241 491.035 571.324 489.636L571.117 489.305H571.197C570.199 487.585 570.849 485.245 573.054 484.525Z" fill="black"/>
<path fill-rule="evenodd" clip-rule="evenodd" d="M742.833 569.758C750.835 553.758 824.224 560.949 824.224 560.949L830.423 611.808C830.423 611.808 795.012 623.19 773.934 620.805C752.855 618.42 734.831 585.758 742.833 569.758Z" fill="white"/>
<path fill-rule="evenodd" clip-rule="evenodd" d="M748.003 596.47C745.468 591.047 797.934 576.256 814.178 586.363C830.422 596.47 825.343 610.256 825.343 610.256C825.343 610.256 757.02 625.84 748.003 596.47Z" fill="#FF8181"/>
<path fill-rule="evenodd" clip-rule="evenodd" d="M738.281 560.29C750.527 546.06 771.152 545.069 788.237 548.627C799.201 550.911 809.876 554.715 821.012 556.125C826.213 556.784 831.47 556.981 836.709 556.884C841.855 556.789 847.009 555.752 852.137 555.945C852.925 555.974 853.223 557.009 852.54 557.43C845.505 561.751 836.028 563.137 827.718 563.982C827.744 564.597 827.781 565.197 827.866 565.706C828.093 567.063 828.3 568.411 828.467 569.777C828.844 572.858 829.266 575.929 829.687 579.004C830.517 585.056 830.778 591.299 832.237 597.245L832.492 598.234C832.83 599.484 832.907 600.611 832.794 601.627L833.132 601.474L834.2 600.957L834.9 600.626C837.454 599.442 839.89 598.58 842.893 598.868C845.179 599.086 847.098 600.645 847.112 603.086C847.169 614.041 832.405 617.564 823.96 619.661L821.483 620.271C810.734 622.893 799.759 625.191 788.703 625.741C770.961 626.622 751.024 621.728 739.418 607.337C728.589 593.91 726.604 573.858 738.281 560.29ZM818.852 606.318C816.99 589.824 796.722 588.917 790.891 599.377C788.304 584.798 750.028 598.117 753.021 601.015C764.365 612.001 781.58 612.99 796.379 610.958C803.916 609.923 811.459 608.238 818.852 606.318ZM796.358 563.088L791.262 562.355L789.255 562.078C776.623 560.387 762.416 559.513 752.03 567.612C748.238 570.568 746.104 574.424 745.307 578.566C755.135 577.109 764.998 575.998 774.891 575.073L777.59 574.825C783.78 574.267 789.967 573.679 796.151 573.062L800.546 572.617L804.939 572.161C806.485 571.999 816.904 571.466 818.863 571.824C819.072 570.064 819.345 566.255 819.787 564.542C812.385 564.793 805.015 564.243 797.656 563.265L796.358 563.088ZM819.814 489.367C827.366 493.957 838.872 504.66 830.748 516.04C821.186 526.073 807.419 514.569 800.634 509.366C794.344 505.334 787.276 515.705 793.112 520.413C842.136 556.708 862.031 490.567 823.634 483.97C819.406 483.243 817.836 487.947 819.814 489.367ZM833.328 508.704L833.691 508.507L833.814 508.432C834.026 508.295 833.891 508.31 833.408 508.477L833.046 508.607V508.863C833.139 508.806 833.238 508.763 833.328 508.704ZM736.617 467.924L736.616 467.699C736.63 461.322 740.344 446.762 749.524 446.762C755.259 446.762 758.741 456.671 759.344 466.886L759.365 467.302C759.631 473.653 757.888 487.534 749.524 487.534C741.072 487.534 736.704 474.387 736.617 467.924ZM871.773 465.924L871.774 465.699C871.76 459.322 868.046 444.762 858.866 444.762C853.274 444.762 849.825 454.182 849.097 464.12L849.046 464.886C848.684 471.022 850.314 485.534 858.866 485.534C867.318 485.534 871.686 472.387 871.773 465.924ZM741.855 403.285C749.347 402.146 759.268 404.31 762.761 411.928C764.317 415.322 762.474 419.075 758.551 419.263C749.07 419.717 740.567 417.607 732.245 423.772C728.664 426.426 725.653 430.1 723.126 433.764L722.17 435.159L721.378 436.308C719.662 438.831 718.038 441.571 718.291 444.615C718.366 445.516 717.445 446.371 716.57 446.335C711.116 446.111 710.529 439.273 711.246 435.166C712.58 427.544 716.269 420.389 721.382 414.626C726.752 408.574 733.841 404.504 741.855 403.285ZM845.044 412.535C850.21 409.214 856.818 407.938 862.87 408.427C874.803 409.388 894.822 419.532 892.187 434.107C891.374 438.602 885.122 440.974 881.438 438.48C877.477 435.799 876.513 431.632 873.565 428.128C871.213 425.329 868.232 423.304 865.04 421.579C861.894 419.878 858.254 418.847 854.684 418.471L854.089 418.414C851.94 418.231 841.088 418.28 842.681 422.331C842.993 423.124 841.813 423.752 841.271 423.152C837.944 419.472 841.712 414.677 845.044 412.535Z" fill="#05051A"/>
<path fill-rule="evenodd" clip-rule="evenodd" d="M850.595 562.879C853.335 565.689 855.965 568.699 858.445 571.809C859.135 576.749 859.295 581.749 858.665 586.909C857.745 594.389 855.705 601.699 852.945 608.719C851.315 608.489 849.705 608.029 848.135 607.309C843.155 605.019 840.375 600.409 837.005 596.339C830.295 588.249 818.055 583.469 809.495 591.859C805.775 595.509 803.395 600.559 800.075 604.569C796.425 608.979 792.325 613.169 788.045 616.969C787.515 617.449 786.965 617.969 786.395 618.479C784.015 615.759 781.675 613.019 779.385 610.239C772.575 601.959 766.695 592.789 763.605 582.449C762.625 579.169 762.015 575.749 761.775 572.299C764.805 568.539 768.265 565.119 772.195 562.289C784.045 553.739 797.695 552.349 811.895 551.609C826.585 550.849 839.815 551.849 850.595 562.879ZM886.435 602.549C885.865 596.829 884.985 590.879 883.685 584.939C878.935 562.899 868.645 540.929 848.015 530.859C838.255 526.089 827.165 524.409 816.645 526.709C798.185 519.799 777.685 526.849 763.155 539.489C746.015 554.399 738.105 577.799 735.445 599.719C733.595 614.969 732.898 635.344 737.225 646.409C741.552 657.474 769.051 687.063 808.305 687.269C864.215 687.562 877.805 649.859 879.455 646.559C886.345 632.839 887.945 617.689 886.435 602.549Z" fill="black"/>
<path fill-rule="evenodd" clip-rule="evenodd" d="M739.95 894.826C742.052 878 761.096 885.093 754.371 887.896C754.235 888.042 754.094 888.185 753.945 888.33C761.636 889.077 761.097 898.109 760.241 903.887C757.223 916.822 737.672 905.054 739.95 894.826Z" fill="#FBD4C5"/>
<path fill-rule="evenodd" clip-rule="evenodd" d="M742.541 1022.55C739.143 1008.17 759.773 1005.78 759.892 1020.8C760.558 1027.11 754.8 1031.22 753.345 1036.71C753.038 1040.28 748.655 1042.79 745.85 1039.81C741.17 1034.83 740.164 1028.07 742.541 1022.55Z" fill="#FBD4C5"/>
<path fill-rule="evenodd" clip-rule="evenodd" d="M742.838 1118.95C761.258 1113.01 756.668 1146.56 744.516 1151.14C737.173 1154.79 734.656 1145.66 735.997 1140.09C731.227 1132.84 735.596 1123.3 742.838 1118.95Z" fill="#FBD4C5"/>
<path fill-rule="evenodd" clip-rule="evenodd" d="M741.762 1248.73C751.851 1239.01 765.368 1256.72 747.074 1269.24C743.755 1275.32 734.683 1271.03 736.226 1264.66L736.207 1263.59C736.072 1258.05 735.526 1251.21 741.762 1248.73Z" fill="#FBD4C5"/>
</g>
<defs>
<clipPath id="clip0_156_531">
<rect width="1372" height="1492" fill="white"/>
</clipPath>
</defs>
</svg>
