<svg width="1691" height="3291" viewBox="0 0 1691 3291" fill="none" xmlns="http://www.w3.org/2000/svg">
<g clip-path="url(#clip0_156_217)">
<g clip-path="url(#clip1_156_217)">
<path fill-rule="evenodd" clip-rule="evenodd" d="M1288.53 3031.69C1294.57 3007.29 1285.69 2987.82 1260.19 2973.45C1257.99 2967.64 1208.7 2948.82 1169.54 2921.18C1134.35 2896.35 1108.83 2862.27 1107.76 2860.38C1107.76 2860.38 1099.85 2841.97 1098.95 2833.67C1094.62 2793.82 1097.13 2767.71 1094.45 2755.31C1112.45 2752.95 1156.69 1584.17 1149.54 1545.43C1161.26 1542.86 1173.68 1540.14 1184.86 1533.53C1185.75 1533.3 1184.28 1530.71 1184.32 1530.22C1212.35 1475.2 1169.36 1288.08 1142.41 1236.28C1163.81 1235.72 1191.99 1232.81 1205.24 1214.94C1211.52 1212.88 1215.47 1209.28 1218.51 1203.5C1222.02 1198 1225.27 1192.22 1228.2 1186.3C1242.46 1156.68 1251.25 1123.79 1246.5 1091.15C1247.41 1090.87 1252.07 1090.84 1252.31 1089.53C1252.76 1081.51 1251.29 1074.44 1248.88 1066.86C1224.4 981.504 1194.92 897.47 1155.96 817.113C1136.44 774.103 1096.05 758.408 1054.19 742.262C1034.06 734.351 1013.92 725.22 992.905 720.038C992.64 718.568 993.895 714.095 991.141 714.459C987.74 715.169 988.411 720.638 987.15 723.707C938.561 683.928 969.374 663.431 940.076 641.645C909.76 625.908 872.788 625.269 839.363 628.675C827.032 629.031 817.165 634.59 814.257 647.004C803.657 672.688 778.82 691.592 751.724 697.387C749.485 693.401 743.329 681.97 739.881 685.579C700.748 686.914 641.415 701.281 604.787 712.03C568.017 721.421 530.819 738.567 521.199 778.523C503.744 849.722 531.514 1142.33 577.064 1198.68L578.545 1198.71C586.62 1206.97 597.596 1213.03 610.034 1217.09C609.755 1243.44 601.452 1269.16 597.32 1294.92C588.017 1341.65 580.867 1388.42 570.504 1435.4C570.458 1440.63 550.741 1512.25 570.18 1497.89C574.192 1499.86 579.107 1502.01 583.428 1503.85C562.776 1550.93 553.326 1626.87 554.79 1685.02C555.156 1719.65 553.724 1749.98 545.957 1785.44C488.494 2085.9 437.83 2757.94 436.639 2766.93C435.544 2775.51 442.815 2822.12 436.639 2834.42C431.158 2845.33 407.778 2838.89 403.305 2843.1C391.69 2862.02 397.008 2874.07 387.481 2892.96C382.595 2897.33 371.671 2906.89 368.087 2913.62C360.832 2920.6 240.677 2999.45 245.547 3011.42C245.547 3011.42 244.999 3017.16 244.815 3018.41C234.571 3078.02 251.629 3077.52 306.819 3086.29C387.441 3100.51 447.695 3073.15 515.831 3036.59C538.473 3021.32 570.655 2992.16 560.18 2957.63C559.891 2955.52 553.678 2919.2 551.214 2900.76C551.214 2900.76 557.891 2885.99 532.047 2887.83C536.297 2883.17 545.634 2822.73 542.449 2814.73C540.426 2794.14 543.567 2775.44 542.573 2754.25C553.399 2755.05 743.466 1853.89 862.684 1797.89C863.421 1803.88 861.991 1815.02 869.935 1816.14C906.81 2103.84 995.47 2748.37 999.541 2749.49C993.431 2782.35 993.616 2858.51 993.502 2891.13C992.567 2892 988.275 2895.83 987.584 2896.77C987.44 2896.52 984.645 2899.32 984.502 2899.39L984.124 2898.52C971.566 2926.84 953.263 2956.01 969.44 2983.76C957.434 2982.89 959.361 3005.99 958.824 3016.63C965.662 3037.43 1160.06 3093.57 1203.51 3096.24C1217.78 3098.73 1284.25 3077.58 1297.04 3074.55C1313.62 3071.45 1297.36 3040.64 1288.53 3031.69Z" fill="#FBD4C5"/>
<path fill-rule="evenodd" clip-rule="evenodd" d="M988.846 2895.58C985.159 2909.37 991.858 2916.26 1008.94 2916.26C1034.57 2916.26 1050.81 2876.88 1063.49 2872.37L1068.41 2870.58C1075.82 2867.86 1088.39 2863.16 1106.11 2856.47C1106.64 2857.74 1107.19 2859.04 1107.76 2860.38C1108.83 2862.27 1134.35 2896.35 1169.54 2921.18C1208.7 2948.82 1257.99 2967.64 1260.19 2973.45C1285.69 2987.82 1294.57 3007.29 1288.53 3031.69C1297.36 3040.64 1313.62 3071.45 1297.04 3074.55C1284.25 3077.58 1217.78 3098.73 1203.51 3096.24C1160.06 3093.57 965.662 3037.43 958.824 3016.63L958.866 3015.64C959.258 3004.63 957.794 2982.92 969.44 2983.76C953.586 2956.56 970.848 2928.01 983.364 2900.22L984.124 2898.52L984.502 2899.39C984.645 2899.31 987.44 2896.52 987.584 2896.77C987.76 2896.53 988.172 2896.1 988.702 2895.58L988.846 2895.58ZM473.841 2870.11L474.015 2870.7C476.97 2880.9 485.055 2916.26 494.593 2916.26C501.082 2916.26 509.087 2912.24 518.61 2904.2L519.71 2903.19C528.071 2895.52 534.821 2890.35 539.959 2887.69C551.15 2888.25 554.902 2892.6 551.214 2900.76L551.527 2903.06C554.165 2922.05 559.903 2955.61 560.18 2957.63C570.655 2992.16 538.473 3021.32 515.831 3036.59C447.695 3073.15 387.441 3100.51 306.819 3086.29L301.955 3085.52C250.63 3077.5 234.878 3076.23 244.815 3018.41L244.884 3017.88C245.108 3016.02 245.547 3011.42 245.547 3011.42C240.677 2999.46 360.832 2920.6 368.087 2913.62C371.671 2906.89 382.595 2897.33 387.481 2892.96C397.008 2874.07 391.69 2862.02 403.305 2843.1C406.447 2840.14 418.916 2842.44 427.959 2840.29C443.21 2842.78 471.128 2861.07 473.841 2870.11Z" fill="#E6E6E6"/>
<path fill-rule="evenodd" clip-rule="evenodd" d="M750.575 695.343L751.724 697.387C779.312 777.883 824.529 821.204 887.375 827.348C950.22 833.493 982.642 813.336 984.641 766.877L991.626 714.447C993.74 714.66 992.657 718.663 992.905 720.038C1013.92 725.219 1034.06 734.35 1054.2 742.262L1060.46 744.684C1100.03 760.046 1137.42 776.253 1155.96 817.112C1194.92 897.469 1224.4 981.504 1248.88 1066.86C1251.29 1074.44 1252.76 1081.51 1252.31 1089.53C1252.07 1090.84 1247.41 1090.87 1246.5 1091.15C1251.26 1123.79 1242.46 1156.68 1228.2 1186.3C1225.27 1192.22 1222.02 1198 1218.51 1203.5C1215.47 1209.28 1211.52 1212.88 1205.24 1214.94C1192 1232.81 1163.81 1235.72 1142.41 1236.28C1169.36 1288.08 1212.35 1475.2 1184.32 1530.22C1184.28 1530.71 1184.89 1544.77 1184 1545C1172.83 1551.61 1152.72 1555.42 1141 1558L1120 1561C1120.76 1566.16 1150.49 1570.05 1150.09 1599.77L570 1617C574.142 1575.68 573.854 1547.96 587 1518L571 1512C567.177 1510.35 573.619 1499.58 570.18 1497.89C550.741 1512.25 570.458 1440.63 570.504 1435.4C580.867 1388.42 588.017 1341.65 597.32 1294.92C601.452 1269.16 609.755 1243.43 610.034 1217.09C597.855 1213.11 587.078 1207.22 579.054 1199.22L578.545 1198.71L577.064 1198.68C531.514 1142.33 503.744 849.722 521.199 778.523C530.819 738.566 568.017 721.421 604.787 712.029L607.012 711.38C643.781 700.712 701.531 686.888 739.881 685.578C742.848 682.474 747.819 690.502 750.575 695.343ZM799.678 1010.19C769.798 1010.19 738.041 1013.72 704.409 1020.77L699.126 1028.21L704.409 1073.02C725.099 1070.86 746.892 1073.76 769.789 1081.71L770.88 1082.1C794.176 1090.34 810.827 1096.68 820.833 1101.09L857.104 1131.63L845.472 1186.16L848.278 1186.29C893.705 1188.33 919.237 1186.05 924.871 1179.44C930.621 1172.7 933.171 1165.88 932.523 1158.98L931.408 1156.32C913.395 1113.13 905.524 1085.36 907.795 1073.02C910.112 1060.42 910.112 1050.55 907.795 1043.4L905.27 1042.09C864.159 1020.82 828.961 1010.19 799.678 1010.19Z" fill="#05051A"/>
<path fill-rule="evenodd" clip-rule="evenodd" d="M822.347 640.011C828.639 639.816 829.84 647.734 825.539 651.017L825.362 651.147C821.695 653.748 819.975 656.074 817.985 660.224C808.282 685.905 780.92 700.634 754.159 695.18C763.454 712.52 769.696 729.302 779.001 746.349C821.845 834.61 962.549 863.323 979.377 742.223C953.595 737.241 938.316 679.261 954.859 661.963L955.306 664.068C960.074 686.778 963.336 710.028 980.551 727.151C981.075 727.304 981.576 727.351 982.07 727.351C982.726 724.242 983.482 721.167 984.423 718.151C986.714 710.792 998.181 712.176 997.859 720.137C1032.19 730.599 1065.19 745.418 1098.02 759.734C1125.33 771.644 1147.65 792.948 1160.37 819.926C1196.02 893.721 1223.25 971.619 1246.99 1049.98C1248.58 1060.57 1266.33 1099.93 1252.01 1103.72C1255.52 1136.14 1246.54 1168.93 1232.66 1198.05C1226.22 1208.99 1221.67 1224.15 1208.73 1228.71C1195.3 1245.59 1170.74 1249.97 1150.29 1251.16C1177.79 1315.91 1215.16 1480.84 1189.89 1545.18C1192.13 1555.74 1163.01 1560.75 1155.22 1563.16C1161.5 1600.69 1160.13 1639.35 1157.42 1677.15C1132.06 1999.56 1127.25 2323.75 1153.93 2646.24C1155.5 2666.34 1157.19 2686.44 1158.98 2706.53L1160.06 2718.58C1161.48 2734.62 1162.69 2750.59 1162.32 2766.76C1162.2 2772.37 1157.55 2775.74 1152.9 2776.03C1137.28 2786 1116.31 2786.08 1098.24 2788.48C1101.43 2805.9 1103.22 2833.07 1108.8 2847.73C1120.43 2844.69 1127.92 2855.53 1116.34 2861.65C1130.6 2869.57 1137.94 2884.72 1149.35 2895.35C1180.72 2882.61 1186.56 2901.65 1160.93 2905.99C1167.9 2911.81 1175.29 2917.18 1182.94 2922.28L1183.48 2922.21C1192.53 2920.83 1209.57 2913.36 1213.85 2923.26C1215.77 2930.43 1206.92 2932.71 1200.51 2933.58C1206.2 2937.16 1211.91 2940.73 1217.62 2944.29C1222.61 2942.09 1227.57 2939.35 1232.66 2937.59C1245.2 2934.8 1246.28 2951.07 1229.92 2951.98C1240.17 2959.56 1254.31 2955.19 1260.87 2965.88C1284.84 2975.56 1296.17 3004.79 1290.57 3028.15C1298.99 3035.64 1304.9 3046.86 1305.58 3058.13C1307.2 3070.21 1297.59 3081.58 1284.57 3084.76C1269.9 3089.64 1255.02 3094.09 1240.18 3098.28L1238.63 3098.82C1226.4 3102.99 1213.04 3106.72 1200.32 3105.99C1124.89 3101.49 1024.31 3070.51 963.935 3031.95C948.877 3020.63 946.244 2992.64 966.968 2983.69C957.418 2966.37 961.981 2953.79 966.029 2934.94C968.84 2922.64 972.657 2910.02 979.566 2898.64C980.179 2897.63 981.653 2897.93 981.735 2898.93C982.639 2911.79 981.438 2924.96 980.48 2937.91L980.375 2939.35C979.517 2951.3 977.581 2955.7 980.822 2967.01C988.581 2995.88 1063.38 3010.29 1092.77 3022.2C1115.85 3029.34 1139.28 3035.75 1163.03 3041.37L1164.77 3041.75C1184.83 3046.16 1205.48 3052.84 1226.6 3049.37C1237.55 3041.41 1253.99 3043.65 1264.76 3034.53C1280.99 3017 1268.23 2991.3 1256.85 2975.37C1245.85 2978.88 1236.45 2969.43 1228.35 2964.44L1228.05 2964.26C1219.78 2959.03 1211.53 2962.69 1203.25 2957.47L1201.38 2957.83C1170.96 2963.63 1147.4 2970.24 1195.92 2952.89C1187.93 2947.89 1179.92 2942.85 1172.15 2937.55C1156.22 2939.47 1138.76 2947.84 1123.94 2948.6C1133.91 2939.31 1147.51 2934.17 1160.33 2929.06C1152.87 2923.4 1145.77 2917.34 1139.42 2910.67L1133.35 2912.18C1096.09 2921.44 1081.44 2924.11 1131.61 2901.54C1121.74 2890.58 1120.14 2874.36 1109.29 2864.06C1091.84 2867.71 1075.81 2875.38 1061.6 2885.29C1055.86 2889.41 1051.53 2894.55 1046.98 2899.69C1025.41 2927.44 992.005 2931.72 981.799 2895.73C981.622 2894.99 982.779 2894.53 983.105 2895.16L983.143 2895.25C988.024 2906.3 1003.77 2915.26 1016.93 2908.39L1017.33 2908.18C1030.19 2901.47 1036.17 2887.79 1046.3 2878.47C1059.98 2866.13 1077.12 2857.85 1094.81 2851.63C1090.52 2835.97 1089.07 2807.44 1089.56 2789.06C1059.78 2790.47 1029.8 2789.03 1000.55 2783.37C1005.24 2817.54 1002.16 2862.01 1004.31 2892.49C1007.42 2902.71 988.48 2909.11 986.466 2898.92C985.353 2865.95 988.578 2818.39 993.6 2781.59L991.498 2781.08C989.515 2780.59 987.431 2779.99 985.73 2779.03C966.956 2781.16 972.077 2733.45 968.925 2720.03C947.744 2424.15 903.127 2130.92 865.21 1836.99C859.952 1834.98 859.019 1828.52 858.15 1823.13C810.37 1855.47 800.848 1920.11 779.46 1970.21C686.053 2229.63 644.319 2503.32 579.581 2770.46L579.937 2770.55C580.191 2770.63 580.193 2770.67 579.662 2770.63L579.54 2770.62V2770.64C583.54 2771.17 586.691 2775.37 584.25 2779.28C576.962 2793.99 556.759 2788.78 543.46 2787.85C544.751 2810.5 539.9 2859.38 542.974 2879.57C559.379 2879.87 560.422 2897.93 562.594 2908.66L562.762 2909.76C565.661 2928.1 575.404 2962.49 568.126 2977.31C579.377 2990.7 571.284 3008.89 559.612 3018.03C547.113 3027.26 531.555 3032.68 517.426 3039.79C450.927 3066.66 386.592 3118.46 305.102 3098.53L301.554 3097.78C244.44 3085.71 228.031 3080.35 239.374 3023.82C234.716 3012.33 234.685 2999.75 241.239 2989.59C252.927 2974.59 272.565 2966.38 288.191 2954.99C314.658 2937.2 342.827 2921.65 368.678 2903.14C367.717 2902.31 369.051 2902 369.835 2902.14C388.079 2887.86 386.372 2863.13 399.1 2845.48C402.283 2836.39 418.356 2834.18 428.941 2835.44C425.634 2818.49 441.789 2741.36 443.841 2795.84L443.84 2796.62C443.88 2805.03 445.257 2833.11 442.781 2838.61C477.915 2849.35 485.491 2883.1 493.01 2910.36L493.494 2910.49C495.894 2911.11 499.108 2911.61 500.309 2913.96C511.607 2906.78 514.764 2892.65 525.706 2885.04C522.637 2882.64 522.475 2878.06 524.041 2874.51C529.137 2855.82 532.192 2808.27 539.89 2787.4C503.721 2781.98 466.874 2779.22 431.55 2769.39C426.96 2773.9 417.54 2772.3 417.91 2764.16C428.85 2586.8 447.666 2409.99 471.385 2233.9C490.887 2069.08 525.195 1906.35 549.092 1742.39L549.294 1719.89C549.939 1652.24 551.746 1583.58 576.97 1519.89C574.75 1518.92 572.55 1517.92 570.38 1516.87C543.029 1528.21 564.578 1459.32 565.584 1446.9C579.025 1374.92 594.858 1302.95 604.953 1230.51C594.371 1226.69 584.6 1221.26 576.449 1213.37C527.031 1173.14 498.383 847.345 516.344 781.838C525.719 740.632 565.448 720.389 603.313 711.075L608.905 709.495C651.195 697.598 694.218 686.818 738.248 684.169C739.816 682.747 744.427 683.156 745.031 684.342C747.789 686.003 750.407 689.246 752.621 692.672C813.735 685.648 797.205 645.699 822.347 640.011ZM968.554 2986.29C959.998 3005.73 971.367 3020.51 990.428 3028.68C1056.43 3059.28 1130.13 3083.88 1205.78 3088.57C1228.86 3082.99 1251.72 3073.76 1275.11 3068.06L1276.12 3067.87C1284.36 3066.36 1288.22 3064.85 1287.52 3056.29L1287.82 3052.83C1288.35 3046.69 1288.79 3040.56 1288.36 3034.41C1281.17 3051.62 1259.63 3061.08 1240.75 3064.56C1210.81 3078.76 1177.28 3064.32 1147.86 3058.23C1100.09 3043.7 996.726 3020.88 968.554 2986.29ZM553.872 2986.7L552.883 2987C544.315 2989.65 535.602 2992.9 525.999 2990.51C483.099 3005.05 441.342 3021.55 399.899 3038.72C355.183 3060.13 283.181 3085.02 244.431 3033.28C250.002 3060.42 242.126 3069.7 279.123 3076.47C337.827 3095.61 384.996 3085.81 433.708 3059.66C469.397 3042.3 507.783 3028.51 542.328 3009.65L542.794 3009.32C549.589 3004.47 557.788 2995.62 553.872 2986.7ZM464.77 2869.87C453.569 2849.21 423.427 2837.86 401.01 2845.48C398.729 2865.41 404.638 2887.72 391.984 2905.02C403.189 2906.99 414.358 2909.25 425.511 2911.59L435.717 2913.75C440.725 2914.85 447.099 2916.73 446.263 2922.04C445.337 2927.91 437.63 2926.12 432.501 2924.64L430.514 2924.06C416.11 2919.82 401.73 2915.49 387.509 2910.65C380.013 2918.9 369.95 2925.37 360.191 2931.62L364.238 2932.08C378.42 2933.67 392.738 2935.12 406.75 2937.99C412.872 2939.8 411.551 2948.15 405.287 2947.48C388.559 2943.12 371.875 2938.18 354.86 2935.05C346.543 2940.55 338.265 2946.08 329.928 2951.55C346.325 2953.92 362.794 2954.14 379.183 2955.54C389.794 2956.52 389.791 2971.02 379.182 2970.18C360.037 2968.43 340.904 2962.76 322.676 2956.33L313.069 2962.64C301.856 2970.01 290.619 2977.36 279.27 2984.55C272.441 2988.9 263.621 2993.04 258.849 2999.34C243.779 3023.68 281.435 3046.94 306.881 3046.55C345.528 3046.97 377.716 3026.9 411.57 3014.89C430.297 3010.25 525.508 2962.58 534.172 2975.13C539.619 2972.51 547.195 2971.57 551.117 2967.26C551.911 2947.33 547.712 2926.45 544.188 2906.34C543.47 2902.83 541.754 2898.63 541.562 2895.02C525.702 2900.87 521.186 2923.01 500.31 2921.13C497.043 2926.35 486.981 2923.91 482.441 2919.77C477.5 2915.26 476.88 2908.91 475.701 2903.25L475.154 2900.65C472.938 2890.23 470.28 2879.56 464.77 2869.87ZM934.732 1179.44L932.18 1180.09C906.203 1186.59 879.028 1191.29 852.332 1189.54C847.717 1207.01 850.123 1248.54 831.352 1255.18C824.939 1257.59 815.289 1255.63 812.349 1249.08C773.522 1248.39 734.423 1244.92 695.594 1242.61C666.365 1240.31 636.039 1240.4 607.902 1231.53C611.311 1248.7 612.485 1265.55 610.577 1283.11C604.013 1357.99 582.406 1430.95 575.164 1505.51L574.831 1509.06L574.621 1508.94C574.621 1509.08 574.611 1509.22 574.6 1509.36C576.71 1509.97 578.82 1510.61 580.92 1511.26C581.67 1510.88 582.691 1511.25 583.23 1511.97C737.866 1560.07 902.003 1580.96 1063.17 1559.79C1091.39 1556.27 1119.42 1551.33 1147.24 1545.48C1147 1542.99 1150.79 1542.34 1151.46 1544.69C1157.63 1543.61 1163.81 1542.43 1169.95 1541.64C1169.21 1539.55 1169.08 1537.29 1169.84 1535.25C1181.82 1499.31 1176.35 1458.33 1172.57 1421.06C1167.75 1363.84 1155.74 1307.7 1146.04 1251.25C1100.12 1249.16 1054.47 1241.67 1008.32 1242.6C1003.46 1255.2 986.514 1265.79 973.247 1258.58C963.879 1253.52 961.105 1242.49 957.345 1233.38C949.912 1215.36 942.322 1197.4 934.732 1179.44ZM740.145 685.877C691.92 700.124 642.512 710.298 594.726 726.11C555.012 736.006 527.901 760.924 526.227 803.42C522.95 894.453 532.93 985.946 547.994 1075.66L548.78 1079.71C557.138 1122.94 564.63 1166.93 580.414 1208.14C603.456 1218.86 629.618 1221.91 654.827 1223.15C691.614 1225.02 728.399 1226.94 765.154 1229.35L793.972 1231.22C802.333 1231.76 813.959 1230.33 820.242 1236.83C820.798 1237.75 821.931 1237.63 822.792 1238.2L822.961 1238.32C823.878 1238.95 824.802 1240.46 826.124 1240.17C828.273 1239.5 829.098 1235.21 829.603 1233.17L829.65 1232.98C832.449 1222.03 834.477 1210.84 837.062 1199.83C842.954 1178.17 845.492 1155.27 854.447 1134.53C841.628 1126.35 829.554 1117 819.2 1105.9L806.715 1101.5C776.848 1091.02 746.644 1080.87 715.514 1074.59C714.768 1081.42 704.962 1085.33 701.305 1078.18C695.243 1059.96 694.119 1040.18 689.939 1021.4C680.45 965.379 669.176 909.562 662.613 853.095C680.707 903.107 690.082 964.491 703.911 1018.54C704.552 1018.17 705.439 1018.39 705.466 1019.27C754.429 1000.75 808.789 1001.51 857.109 1021.16C869.213 1026.01 881.506 1030.37 893.546 1035.38C897.658 1037.7 905.849 1037.56 907.23 1042.64C908.709 1039.19 910.697 1035.96 913.337 1033.79C914.161 1032.09 923.52 1029.06 924.434 1032.42C979.328 1039.95 1032.7 1063.83 1089.18 1059.8C1082.5 1035.4 1083.29 1009.05 1082.84 983.846L1082.98 981.009C1084.14 956.182 1084.98 925.456 1093.4 905.026C1088.01 956.458 1091.92 1007.98 1098.5 1058.93C1138.33 1053.79 1119.99 1076.57 1093.46 1075.72C1039.91 1079.57 990.488 1055.89 941.206 1038.63C914.288 1027.87 911.237 1036.98 912.437 1062.56C912.462 1095.86 927.542 1126.25 941.202 1155.8L947.338 1169.6C957.539 1192.56 967.599 1215.37 977.509 1238.61C1020.81 1224.25 1069.55 1232.13 1114.41 1234.75C1148.63 1239.04 1173.21 1237.52 1202.16 1217.72C1212.61 1197.77 1226.37 1178.84 1231.75 1156.34C1237.99 1135.71 1240.07 1114.1 1241.89 1092.72L1240.25 1086.74C1219.14 1009.99 1195.79 933.62 1163.88 860.519L1162.15 856.491C1151.34 831.175 1140.35 804.609 1118.46 786.876C1081.73 759.753 1036.3 747.723 997.682 723.589L997.435 725.355C993.516 753.039 986.748 781.738 969.029 804.012C936.289 844.214 874.473 845.345 832.576 819.235C788.99 795.136 762.841 750.267 750.119 703.366L749.969 702.851C748.778 698.671 745.463 686.015 740.145 685.877ZM858.511 1137.07C858.484 1151.81 855.575 1166.34 853.607 1180.9C876.266 1176.42 898.858 1173.3 921.144 1167.26C899.435 1159.06 878.339 1149.18 858.511 1137.07ZM803.95 1018.16C770.909 1011.69 737.081 1015.56 704.41 1020.77C707.96 1037.28 712.015 1053.63 715.405 1070.16C727.105 1069.62 838.092 1089.27 825.566 1105.05C841.949 1113.81 857.469 1124.11 873.777 1133.06C890.179 1142.07 907.255 1149.8 924.872 1156.09L923.942 1154.02C908.781 1120.15 894.615 1082.03 906.298 1045.01C890.589 1051.32 869.145 1037.77 853.925 1032.71C837.769 1026.22 821.129 1021.11 803.95 1018.16ZM566.08 887.002C566.19 880.822 585.276 898.541 587.767 900.381L589.273 901.743C607.588 918.365 625.681 936.65 635.886 959.457C636.632 981.872 603.227 927.572 598.596 924.255C588.491 911.249 576.181 899.954 566.08 887.002ZM1094.23 939.762C1089.06 941.462 1103.16 923.948 1108.65 925.226C1110.84 924.907 1112.74 928.077 1110.32 929.167L1109.11 929.698C1103.47 932.145 1097.7 934.234 1094.23 939.762Z" fill="#05051A"/>
<path d="M356.277 2440.53C376.674 2212.02 543.249 1321.94 611.739 1260.31C680.229 1198.68 1051 1272.61 1144.16 1281.34C1237.32 1290.07 1283.24 2603.5 1287.64 2758.45C1293.14 2952.13 1234.15 2745.73 1203.65 2867.52C1173.16 2989.31 1104.67 2919.85 1003.18 2934.53C901.697 2949.2 883.7 2849.91 769.717 2902.24C655.734 2954.58 617.238 2957.02 543.749 2934.53C470.26 2912.03 477.758 2857.74 396.77 2882.68C315.782 2907.62 330.781 2726.17 356.277 2440.53Z" fill="#05051A" stroke="black"/>
<path d="M729 1085C741.4 1070.6 731.167 1027 724.5 1007H914.5C922.667 1055.67 940.6 1156.3 947 1169.5C955 1186 890 1149.5 857.5 1134.5C825 1119.5 713.5 1103 729 1085Z" fill="#05051A"/>
<path d="M898 1182.5L843 1186V1118.5L898 1125.5V1182.5Z" fill="#05051A"/>
</g>
<path fill-rule="evenodd" clip-rule="evenodd" d="M919.734 285.173C1069.93 289.938 1078.99 361.43 1078.99 481.325C1078.99 601.22 1001.07 676.771 972.384 689.963C943.694 703.156 868.151 759.82 799.978 733.708C731.804 707.595 751.546 597.272 751.546 549.869C751.546 502.467 769.539 280.408 919.734 285.173Z" fill="#FBD4C5"/>
<path fill-rule="evenodd" clip-rule="evenodd" d="M774.562 475.445C805.618 348.547 862.31 286.634 944.638 289.707C1068.13 294.315 1066.83 420.451 1059.08 408.95C1054.02 401.436 1018.58 375.187 952.765 330.203L948.697 327.426L774.562 475.445Z" fill="#A58618"/>
<path fill-rule="evenodd" clip-rule="evenodd" d="M848.055 369.348C863.413 355.537 879.918 342.396 897.352 331.307C914.994 320.087 934.263 313.377 955.089 313.217C953.632 314.387 952.245 315.687 950.838 316.896C946.907 320.267 942.985 323.657 939.063 327.037C931.22 333.807 923.356 340.566 915.612 347.447C900.365 361.007 885.067 374.497 869.849 388.087C840.601 414.207 811.983 440.896 783.981 468.357C784.131 467.687 784.291 467.017 784.45 466.348C793.72 427.547 818.937 395.537 848.055 369.348ZM980.664 650.587C953.082 666.017 921.5 666.617 891.832 656.907C874.04 651.098 857.725 642.117 842.456 631.377C829.174 622.027 817.319 611.657 805.574 600.646C795.905 579.277 787.294 557.947 783.261 534.697C779.649 513.827 779.17 492.157 783.361 471.327C814.357 445.777 845.162 420.017 875.926 394.178C891.592 381.017 907.299 367.928 923.196 355.047C931.269 348.507 939.263 341.867 947.305 335.297C948.632 334.217 949.95 333.137 951.277 332.057C967.881 344.237 985.684 354.678 1002.17 367.057C1010.8 373.547 1019.19 380.457 1027.19 387.726C1031.38 391.537 1035.47 395.467 1039.46 399.497C1043.11 403.178 1046.63 408.457 1051.81 409.848C1052.52 410.037 1053.19 410.077 1053.82 409.987C1060.74 470.747 1065.66 536.357 1036 591.537C1023.05 615.607 1004.7 637.127 980.664 650.587ZM968.441 314.907C968.54 314.607 968.611 314.316 968.651 314.037C1008.62 319.257 1042 348.726 1053.03 387.527C1052.07 388.867 1051.54 390.457 1051.74 392.146C1051.84 392.997 1051.94 393.857 1052.04 394.707C1050.68 393.348 1049.27 392.077 1048.07 390.867C1044.09 386.827 1040.01 382.896 1035.82 379.066C1027.25 371.237 1018.35 363.917 1008.97 357.087C992.651 345.207 974.987 334.287 955.538 328.587C956.815 327.537 958.094 326.487 959.381 325.447C963.222 322.316 966.785 319.737 968.441 314.907ZM1035.1 276.925C1010.56 250.055 976.584 230.375 940.8 223.535C906.631 216.995 871.256 221.305 838.976 234.015C771.427 260.615 718.13 319.106 693.173 386.885C678.624 426.375 676.833 471.465 660.603 517.5C644.374 563.535 636.051 565.508 601.125 629.008C566.199 692.508 531.771 731 517.801 806.508C507.323 980.311 537.534 891.564 660.603 933.508C665.266 938.996 673.168 937.061 679.484 937.061C680.025 937.061 680.565 937.073 681.105 937.079C683.002 938.274 684.956 939.354 686.849 940.359C705.978 950.52 725.178 960.57 744.397 970.57C782.677 990.5 820.797 1011.23 859.863 1029.58C877.966 1038.09 897.345 1045.53 917.621 1045.5C936.642 1045.47 953.834 1037.9 968.683 1026.39C985.607 1013.28 999.758 996.63 1013.49 980.311C1018.98 973.779 1024.36 967.17 1029.63 960.47C1039.77 957.08 1049.83 956.09 1058.87 962.63C1066.13 967.88 1092.42 959.389 1092.58 951.508C1092.64 948.71 1143.64 951.465 1185.39 928.508C1241.77 897.508 1150.51 748.91 1130.01 697.508C1109.5 646.106 1107.55 623.508 1107.55 570.008C1107.55 516.508 1100.46 489.675 1098.01 449.625C1094.23 388.245 1077.43 323.285 1035.1 276.925Z" fill="#05051A"/>
<path fill-rule="evenodd" clip-rule="evenodd" d="M965.587 606.927C958.864 604.184 952.866 599.61 948.481 593.766C946.957 591.735 946.561 589.59 946.881 587.628C947.241 585.422 948.546 583.422 950.326 582.081C952.112 580.736 954.345 580.072 956.504 580.41C958.381 580.704 960.248 581.732 961.727 583.862L962.035 584.288C964.642 587.815 968.04 590.709 971.91 592.574C975.641 594.372 979.814 595.211 984.132 594.723C992.356 593.794 998.024 589.347 1004.05 583.307C1004.8 582.544 1005.54 581.758 1006.29 580.959C1006.77 580.235 1007.43 579.769 1008.16 579.525C1008.97 579.253 1009.89 579.269 1010.73 579.562C1011.54 579.845 1012.26 580.381 1012.75 581.095C1013.21 581.773 1013.47 582.611 1013.39 583.574C1012.83 589.833 1009.56 595.42 1004.91 599.806C999.752 604.677 992.909 608.047 986.466 609.229C979.368 610.531 972.136 609.598 965.587 606.927ZM989.814 510.367C997.366 514.957 1008.87 525.661 1000.75 537.04C991.186 547.073 977.418 535.569 970.634 530.366C964.343 526.334 957.275 536.705 963.112 541.413C1012.14 577.708 1032.03 511.568 993.634 504.971C989.406 504.244 987.836 508.947 989.814 510.367ZM901.963 468.147C902.798 457.79 918.57 455.439 920.139 465.687C921.544 474.867 919.89 483.3 915.755 491.565C911.804 499.461 901.874 495.777 901.123 488.587C900.116 478.949 901.444 474.589 901.963 468.147ZM1022.03 463.562C1024.23 460.682 1027.4 458.716 1031.2 459.827C1043.09 463.3 1039.59 480.173 1035.41 488.386C1033.14 492.846 1025.81 493.977 1022.5 490.05C1017.1 483.646 1014.51 470.857 1021.38 464.549C1021.57 464.223 1021.77 463.894 1022.03 463.562ZM915.588 422.831L917.465 422.502C923.273 421.498 930.494 420.533 934.603 425.202C936.782 427.678 937.532 432.28 934.603 434.65C929.451 438.82 923.755 437.204 917.581 437.557C912.493 437.849 907.603 438.691 902.702 440.092C891.95 443.165 883.189 448.775 874.006 454.935C872.801 455.743 871.571 454.202 872.146 453.075C877.447 442.692 887.72 434.163 898.01 428.964C903.502 426.189 909.512 423.887 915.588 422.831ZM1011.19 418.18L1012.63 418.474C1028.27 421.742 1048.58 428.272 1055.99 443.631C1056.27 445.803 1055.97 446.268 1055.73 446.573L1055.65 446.674C1055.45 446.933 1055.29 447.291 1054.35 447.587C1054.09 447.525 1053.82 447.459 1053.56 447.389C1050.16 446.499 1047.48 445.274 1044.88 444.002L1042.06 442.614C1038.79 441.01 1035.49 439.465 1031.99 438.324C1024.53 435.89 1016.85 434.176 1009.06 433.26C1007.37 433.062 1005.74 432.492 1004.46 431.514C1003.24 430.587 1002.31 429.303 1001.89 427.596C1001.34 425.387 1001.5 423.714 1002.68 421.721C1003.57 420.225 1004.85 419.187 1006.31 418.592C1007.8 417.984 1009.5 417.841 1011.19 418.18Z" fill="black"/>
</g>
<defs>
<clipPath id="clip0_156_217">
<rect width="1691" height="3291" fill="white"/>
</clipPath>
<clipPath id="clip1_156_217">
<rect width="1645" height="2500" fill="white" transform="translate(135 634)"/>
</clipPath>
</defs>
</svg>
