<svg width="1691" height="3291" viewBox="0 0 1691 3291" fill="none" xmlns="http://www.w3.org/2000/svg">
<g clip-path="url(#clip0_156_520)">
<path fill-rule="evenodd" clip-rule="evenodd" d="M1029.81 1649.06C1030.74 1653.69 1032.15 1658.7 1033.62 1663.2C1026.31 1670.23 1015.97 1679.65 1008.56 1686.46C1015.89 1641.14 993.567 1599.3 979.902 1556.43C985.056 1549.82 1003.01 1543.06 1002.43 1535.73C1001.04 1508.58 998.999 1478.28 996.052 1444.3C986.075 1338.16 976.148 1227.48 999.696 1121.03C1001.31 1109.46 1003.75 1097.29 1019.27 1097.02C1065.11 1279.46 1027.96 1463.14 1028.97 1646.73L1027.64 1647.92L1029.81 1649.06ZM1204.26 3123.14C1213.93 3119.74 1225.95 3115.51 1227.62 3108.66C1230.38 3089.92 1228.47 3071.5 1226.45 3052.01C1223.26 3018.56 1223.58 2992.56 1214.55 2956.55C1204.89 2923.1 1196.66 2896.96 1206.09 2862.38C1206.84 2852.08 1198.79 2841.61 1193.47 2831.98C1185.94 2817.92 1182.12 2803.29 1176.14 2788.88C1187.89 2786.83 1200.09 2784.01 1211.37 2780.52L1213.27 2787.34C1213.68 2788.84 1214.83 2789.6 1216.67 2789.6C1217.81 2789.6 1220.73 2789.05 1221.16 2786.61C1219.39 2760.27 1216.82 2734.07 1214.13 2707.31C1186.17 2449.58 1143.83 2237.12 1072.72 2025.23C1055.65 1975.6 1038.2 1923.95 1038.08 1870.03C1047.79 1867.95 1058.6 1866.75 1068.5 1868.12C1139 1851.78 1125.07 1702.63 1122.26 1657.99C1127.23 1656.5 1132.8 1654.38 1136.93 1651.55L1138.59 1652.37C1208.61 1478.61 1179.86 1191.32 1163.84 998.183C1153.33 928.76 1168.11 803.356 1106.56 769.05C1056.86 751.45 1007.38 741.558 955.443 729.951C945.825 724.43 933.955 721.279 923.223 717.706L928.767 709.912C936.038 699.667 935.071 679.573 925.56 672.512C919.715 672.836 911.502 678.707 905.916 681.464C897.881 664.85 890.443 647.472 885.105 627.509L883.186 628.196C877.569 571.73 804.352 561.875 763.07 580.744C718.005 605.482 741.476 661.444 720.987 701.842L713.561 691.943C702.093 691.731 677.836 706.765 671.995 712.408C667.813 714.357 670.838 727.476 670.229 732.753C609.774 746.441 527.023 750.199 507.806 818.053C475.836 945.646 480.331 1076.45 444.056 1203.59C406.081 1306.65 350.306 1432.76 349.837 1527.14C348.754 1544.83 346.373 1644.87 361.015 1640.85L370.679 1650.49C357.513 1671.51 367.966 1702.96 373.009 1727.84C385.435 1780.63 409.717 1837.52 461.582 1812.22C517.365 2120.23 657.567 2430.94 609.74 2748.63C609.167 2750.49 610.328 2752.53 612.319 2751.72L614.674 2750.63C620.757 2752.51 628.476 2753.17 634.829 2754.59C629.423 2774.85 626.524 2794.85 623.718 2817.25C620.315 2819.28 621.903 2824.65 621.73 2827.9C570.978 2825.46 542.514 2878.61 506.117 2907.83C482.085 2929.27 454.716 2949.69 424.765 2968.51C400.015 2982.57 379.132 2998.67 382.892 3025.23C382.535 3025.19 374.898 3024.01 374.524 3023.97C363.011 3062.28 400.814 3070.2 439.746 3074.82C534.884 3084.39 616.211 3063.24 726.358 3023.19C739.867 3024.79 750.395 3004.71 752.192 2991.09C753.971 2981.96 748.914 2972.68 752.774 2962.86C766.056 2934.64 772.97 2859.93 754.244 2826.41C747.671 2818.82 739.241 2811.81 740.334 2798.69C740.64 2785.56 741.876 2772.44 740.764 2759.53C763.272 2757.36 785.553 2752.51 805.189 2744.64C808.665 2745.98 812.613 2744.33 812.856 2739.98C816.624 2679.93 821.134 2614.31 822.109 2552.83C826.634 2419.03 796.035 2288.47 772.617 2158.7C770.992 2117.07 763.307 2076.85 760.885 2035.2C758.279 1995.7 757.819 1957.03 755.552 1917.59L769.066 1914.66C881.262 2203.91 969.123 2493.39 1030.62 2776.65C1029.23 2777.84 1025.28 2779.18 1025.44 2781.59C1025.49 2782.88 1025.46 2782.97 1026.34 2783.1C1041.2 2786.08 1055.9 2788.27 1070.62 2789.98C1066.47 2825.33 1088.62 2866.18 1069.02 2899.28C1063.81 2907.26 1063.59 2908.93 1066.78 2914.42C1038.23 2967.56 1020.53 3011.78 1009.06 3059.29L1001.68 3053.04C990.963 3060.82 990.741 3075.52 990.507 3091.05C991.269 3100.1 986.851 3109.58 993.619 3117.19C1009.91 3136.24 1066.7 3143.73 1098.45 3143.84C1136.12 3143.85 1170.74 3137 1204.26 3123.14Z" fill="#FBD4C5"/>
<path fill-rule="evenodd" clip-rule="evenodd" d="M1070.1 2891.97C1069.52 2894.4 1070.7 2906.53 1070.1 2908.71C1063.87 2929.58 1046.25 2938.23 1038.28 2958.32L1034.54 2967.75C1024.47 2993.2 1014.72 3018.77 1008.69 3045.77L1007.68 3050.27C1007.68 3050.27 988.214 3068.94 987.674 3081.85C987.674 3081.85 985.603 3114.71 991.876 3119.45C1037.62 3150.63 1099.47 3149.73 1152.34 3141.54C1173.42 3137.7 1194 3131.28 1213.54 3122.49C1220.92 3119.98 1226.44 3117.33 1229.82 3112.98C1232.69 3109.29 1233.88 3104.38 1233.41 3097.56C1234.63 3085.99 1233.74 3074.94 1232.72 3063.91L1232.24 3058.76C1231.39 3049.45 1230.65 3040.12 1231.11 3030.74C1229.69 2994.36 1218.16 2958.23 1210 2922.72L1201.24 2908.71C1201.24 2908.71 1149.02 2869.28 1130.93 2869.33L1129.18 2869.33C1111.45 2869.23 1070.1 2891.97 1070.1 2891.97ZM737.911 2817.76C727.687 2852.14 712.465 2869.34 692.246 2869.34C661.918 2869.34 657.898 2829.31 634.124 2829.31C634.124 2829.31 614.854 2828.33 594.19 2826.72C573.686 2834.05 556.78 2850.72 540.559 2867.79L531.83 2877.01C522.776 2886.56 513.783 2895.81 504.396 2903.35C479.259 2925.78 452.052 2945.74 423.545 2963.66L421.296 2964.99C410.221 2971.56 398.1 2979.32 389.744 2989.38C383.667 2996.71 379.612 3005.28 379.718 3015.59L379.755 3019.12C379.755 3019.12 370.124 3028.31 370.032 3032.2L370.001 3033.51C369.975 3034.56 375.157 3056.84 383.536 3062.39C395.318 3070.21 438.665 3077.09 440.172 3077.33C536.24 3087.62 633.491 3061.98 722.547 3026.94L726.001 3025.58C726.245 3025.62 726.491 3025.66 726.741 3025.69C733.895 3026.64 740.049 3022.82 744.917 3017.31C751.643 3009.68 756.022 2998.66 757.07 2990.11C757.865 2986.51 755.76 2967.88 757.231 2963.3C769.617 2935.14 771.244 2904.51 769.472 2874.5C769.934 2839.22 762.257 2827.99 755.536 2819.84L753.804 2817.76L737.911 2817.76Z" fill="#E6E6E6"/>
<path fill-rule="evenodd" clip-rule="evenodd" d="M979.405 1561.31L972.618 1566.1C966.288 1570.57 959.877 1575.14 952.712 1580.27L945.272 1585.62L904.103 1615.33C840.845 1660.9 806.642 1684.26 766.516 1708.22L763.188 1710.2L762.757 1710.23C755.787 1710.62 749.692 1707.67 739.96 1700.37L738.957 1699.61L735.096 1696.66L734.176 1695.97L730.679 1693.38L700.819 1671.32C684.9 1659.56 673.977 1651.41 663.836 1643.69L657.918 1639.17L650.34 1633.33L648.781 1633.91C646.751 1634.65 644.492 1634.49 642.858 1633.51L642.639 1633.37L640.518 1631.95L637.812 1634.84L636.1 1636.66C632.395 1640.58 628.662 1644.44 623.647 1649.52L622.466 1650.72L607.945 1665.35L603.607 1669.74C598.024 1675.41 593.903 1679.68 589.845 1684.03L588.739 1685.21L586.535 1687.6L586.125 1687.98L585.606 1688.48C583.803 1690.22 582.092 1692.09 579.693 1694.89L578.988 1695.72L576.634 1698.5L575.419 1699.93C567.881 1708.69 563.367 1712.47 557.097 1714.31L556.765 1714.41L556.203 1714.56L555.984 1714.59C551.492 1715.33 548.358 1713.96 544.413 1709.87L544.13 1709.57L543.85 1709.27L541.282 1706.56C530.943 1695.7 521.337 1686.12 505.48 1670.78L500.033 1665.52L478.004 1644.33L473.534 1640C471.938 1638.45 470.444 1637 468.986 1635.58L466.877 1633.51L460.771 1627.5L458.691 1630.09C457.41 1631.69 454.753 1632.27 452.981 1631.28L452.801 1631.18L448.103 1628.16L448.18 1633.74C448.217 1636.45 448.292 1639.21 448.405 1642.02L448.536 1645.02C449.078 1656.52 450.056 1666.98 452.121 1684.55L452.338 1686.4L454.997 1708.48L455.477 1712.8C462.144 1771.95 473.037 1833.42 488.484 1902.29L489.417 1906.44C499.625 1951.65 509.135 1989.75 527.166 2058.39L531.386 2074.43L545.505 2127.85C561.509 2188.55 571.043 2225.98 580.474 2265.99L581.051 2268.45L582.268 2273.65L583.489 2278.9C594.993 2328.66 604.063 2373.85 611.04 2417.3L611.405 2419.58L612.112 2424.07C629.761 2537.04 632.99 2638.59 619.618 2737.23L619.208 2740.22L618.807 2743.1L621.675 2743.59C678.929 2753.36 733.341 2756.99 785.597 2753.84L787.911 2753.7L789.982 2753.09C793.473 2752.04 796.888 2750.91 800.219 2749.71L801.878 2749.11L803.964 2748.34L803.763 2744.97L803.64 2742.82C801.743 2708.89 802.303 2679.55 805.264 2619.93L805.552 2614.19L806.924 2587.43C807.589 2574.27 808.026 2564.89 808.387 2555.8L808.623 2549.61L808.861 2542.76L808.967 2539.44C810.503 2489.42 809.253 2449.79 804.06 2412.25L803.712 2409.78L803.366 2407.41L802.872 2402.61C799.042 2366.09 794.143 2334.75 783.513 2275.55L781.728 2265.64L777.106 2240.14C765.097 2173.56 759.675 2138.87 755.867 2099.29L755.624 2096.73L755.251 2092.7L753.821 2073.14C751.444 2040.06 750.46 2019.32 750.614 1997.71L750.636 1995.39C750.945 1968.04 753.361 1943.78 758.418 1921.13L758.807 1919.41L758.806 1919.39L759.442 1916.72L759.464 1916.66L760.489 1914.18L758.96 1912.76C749.214 1903.72 740.434 1894.19 732.882 1884.36C728.538 1878.62 738.604 1870.17 743.654 1874.95L743.806 1875.1L753.825 1885.33L748.755 1871.94C745.971 1864.58 743.195 1857.16 740.424 1849.67L738.762 1845.17L738.197 1843.63L740.147 1847.81C797.791 1971.7 849.686 2108.61 898.28 2261.64L899.751 2266.29L901.46 2271.7C947.647 2418.25 988.966 2572.22 1036.73 2769.44L1038.62 2777.24L1040.43 2777.65L1043.03 2778.24C1085.09 2787.52 1127.78 2789.94 1190.26 2788.65L1192.51 2788.6L1194.53 2788.13C1197.29 2787.49 1200.01 2786.81 1202.69 2786.09L1204.69 2785.55L1208.95 2784.37L1208.53 2777.57C1194.06 2548.29 1149.97 2311.5 1077.81 2054.26L1075.61 2046.46L1074.35 2041.86L1067.21 2016.31L1065.82 2011.3C1055.06 1972.36 1050.23 1951.2 1047.08 1926.41L1046.99 1925.63L1046.95 1925.43C1043.79 1909.05 1041.91 1893.43 1041.38 1878.2L1041.33 1876.63L1041.24 1873.54L1038.16 1873.72C1021.61 1874.67 1001.48 1865.41 993.234 1852.78L992.988 1852.4L991.223 1849.6L988.609 1851.63C982.899 1856.07 974.256 1851.73 969.244 1843.37L969.099 1843.12L968.854 1842.63C964.628 1834.1 963.073 1824.26 963.773 1812.93L963.823 1812.17L963.88 1811.41C964.627 1801.89 966.713 1792.27 970.496 1779.12L972.064 1773.7L967.403 1774.44C957.7 1775.96 946.407 1772.26 939.308 1765.38C932.141 1758.43 930.522 1749.76 935.765 1740.99L935.981 1740.63L936.21 1740.27L937.76 1738.92L939.333 1737.57C944.982 1732.73 950.836 1728.03 959.626 1721.19L962.157 1719.23L972.884 1710.94C988.176 1699.08 996.923 1691.91 1005.83 1683.63L1006.25 1683.23L1008.32 1681.29L1008.38 1680.08C1009.2 1663.07 1006.99 1645.8 1002.02 1626.75L1001.58 1625.09L1001.01 1622.99C997.71 1610.97 994.084 1600.4 986.89 1581.19L979.405 1561.31Z" fill="#10375B"/>
<path fill-rule="evenodd" clip-rule="evenodd" d="M371.443 1675.45C382.641 1713.11 392.918 1768.86 421.433 1796.58C430.634 1803.91 441.853 1800.7 452.393 1798.88C445.164 1755.08 439.863 1710.9 435.253 1666.73C412.803 1662.12 391.163 1654.15 371.063 1643.15C365.623 1652.27 369.023 1666.14 371.443 1675.45ZM457.833 1708.23C495.733 2054.59 671.271 2386.61 622.033 2740.71C681.077 2750.79 741.136 2754.99 800.903 2749.78C793.706 2640.4 816.963 2520.65 800.242 2407.86C789.553 2302.12 761.703 2198.86 752.113 2093C747.848 2034.49 742.533 1973.39 756.423 1915.91C756.533 1915.62 756.653 1915.33 756.773 1915.04C747.26 1906.22 738.27 1896.58 730.343 1886.25C723.583 1877.32 738.303 1865.42 745.803 1873.08C735.457 1845.75 725.514 1818.29 715.873 1790.71C865 2091.66 960.524 2442.18 1040.95 2774.81C1095.05 2787.13 1150.73 2786.83 1205.85 2785.35C1190.75 2535 1140.6 2288.34 1072.57 2047.33C1057.35 1991.61 1038.57 1934.93 1041.92 1876.4C1024.17 1879.17 999.873 1869.27 990.303 1854.08C981.593 1860.85 970.913 1852.54 966.323 1844.65C955.722 1823.96 961.577 1798.69 967.723 1777.48C946.07 1780.89 918.959 1760.81 933.774 1738.37C956.665 1718.29 982.79 1701.18 1005.23 1680.02C1007.15 1640.34 991.777 1603.31 977.813 1566.08C907.254 1615.81 838.077 1669.32 763.985 1713.22C751.245 1714.51 740.955 1704.87 731.393 1697.83C704.103 1677.58 676.563 1657.6 649.673 1636.8C646.723 1637.89 643.333 1637.62 640.823 1635.94C623.651 1654.33 605.502 1671.32 588.513 1689.8C578.308 1699.23 570.936 1713.96 556.694 1717.57C550.033 1718.79 545.793 1716.03 541.523 1711.41C515.611 1683.99 487.733 1658.53 460.883 1632.05C458.763 1634.69 454.303 1635.88 451.033 1633.78C451.373 1658.64 454.923 1683.52 457.833 1708.23ZM636.723 2825.15C661.496 2832.3 665.421 2871 694.592 2867.22C713.481 2863.24 728.714 2846.88 733.553 2828.48C732.103 2827.56 731.123 2825.95 731.273 2823.63C732.513 2804.76 733.763 2785.89 735.003 2767.02C702.181 2768.84 669.224 2766.25 636.623 2761.75C637.803 2770.71 638.273 2779.75 638.533 2788.88C638.067 2800.49 641.467 2814.5 636.723 2825.15ZM746.153 2816.66C745.343 2815.49 744.603 2814.28 743.973 2812.98C743.873 2814.48 743.773 2815.98 743.683 2817.47C744.463 2817 745.293 2816.74 746.153 2816.66ZM580.533 2847.2C563.693 2858.67 550.573 2875.01 536.233 2889.28C505.734 2919.64 471.912 2946.68 435.703 2969.92C416.848 2981.64 377.003 2999.37 392.782 3026.88C404.547 3044.21 435.392 3036.13 440.253 3045.85C507.356 3048.61 572.998 3030.26 636.783 3011.47C669.163 3000.89 703.042 2994.72 734.433 2981.27C764.52 2954.91 764.615 2896.95 760.475 2859.78C758.832 2850.99 756.391 2814.99 743.543 2819.52C743.522 2823.12 743.152 2827.97 739.263 2828.98C739.203 2829.26 739.153 2829.55 739.083 2829.83C739.823 2829.59 740.803 2830.13 740.443 2831.02C730.764 2859.84 698.854 2892.29 667.702 2872.09C653.863 2862.35 647.803 2843.5 631.303 2837.39C614.013 2830.98 595.083 2837.29 580.533 2847.2ZM377.263 3025.04C376.833 3025.25 376.383 3025.35 375.923 3025.36C374.603 3028.74 375.253 3042.51 375.503 3044.88C379.571 3065.6 412.195 3069.04 429.492 3072.17C490.265 3081.75 552.075 3075.06 611.363 3059.78C640.303 3052.61 669.083 3044.32 697.173 3034.33C722.131 3026.74 753.003 3014.12 749.903 2982.46C736.002 3001.24 691.507 3006.8 669.184 3014.56C599.032 3035.86 527.858 3058.79 453.823 3059.52C442.607 3059.04 427.107 3062.17 418.693 3053.72C400.853 3051.17 382.343 3041.29 377.263 3025.04ZM1078.14 2820.88C1083.89 2839.03 1090.49 2857.67 1090.67 2876.87C1124.13 2856.99 1166.09 2876.29 1193.81 2898.06C1191.88 2884.47 1200.26 2871.67 1197.98 2858.31C1189.51 2838.16 1178.15 2817.73 1182.18 2794.95C1145.06 2801.29 1107.35 2800.9 1070.1 2797.01C1073.02 2804.87 1075.54 2812.87 1078.14 2820.88ZM1065.34 2931.31C1058.75 2944.25 1054.13 2961.41 1041.48 2969.57C1034.43 2995.66 1026.5 3021.51 1020.36 3047.83C1017.93 3060.36 1014.24 3073.33 1016.06 3086.23C1018.96 3087.03 1020.99 3087.65 1022.59 3089.74C1083.92 3102.81 1151.34 3104.87 1208.02 3074.51C1227.04 3031.99 1212.11 2982.2 1205.64 2938.16C1205.25 2923.74 1195.61 2918.69 1194.46 2904.94C1164.06 2887.44 1116.7 2864.49 1087.87 2895.88C1083.87 2904.79 1081.18 2917.08 1070.88 2920.45C1068.96 2924.05 1067.13 2927.68 1065.34 2931.31ZM1015.09 3086.27C1015.1 3086.29 1015.11 3086.31 1015.14 3086.34C1015.23 3086.33 1015.23 3086.3 1015.09 3086.27ZM996.023 3094.19C996.173 3091.52 997.503 3088.86 999.683 3087.28C998.653 3077.45 1000.6 3067.28 1002.68 3057.68C992.383 3068.9 996.779 3086.66 995.082 3100.63C995.218 3106.2 992.517 3113.3 998.993 3116.17C1019.21 3130.15 1043.72 3136.67 1067.88 3139.48C1120.59 3145.52 1175.39 3135.83 1222.48 3111.32C1228.88 3102.64 1226.67 3080.36 1227.4 3069.14C1223.06 3105.16 1135.23 3115.12 1105.36 3115.42C1088.75 3115.53 996.198 3112.09 996.023 3094.19ZM1051.71 1853.89C1058.72 1853.19 1065.69 1853.68 1072.63 1854.68C1113.71 1826.77 1120.19 1712.28 1126.63 1663.95C1097.24 1671.46 1066.11 1669.44 1037.57 1659.55C1037.04 1664.82 1031.02 1667.54 1027.36 1663.98C1008.01 1698.43 979.061 1726.01 949.193 1750.66C949.543 1749.51 949.793 1751.62 949.353 1750.82C953.157 1759.54 967.126 1755.02 973.733 1761.09C977.973 1764.25 978.863 1769.78 976.163 1773.47C983.31 1793.22 971.948 1817.34 982.643 1836.07C985.046 1838.86 988.174 1840.87 990.243 1844C1004.48 1834.25 1017.45 1854.88 1031.86 1855.78C1031.76 1855.78 1031.66 1855.78 1031.55 1855.77C1033.77 1856.02 1037.33 1855.9 1039.28 1855.62C1043.42 1854.98 1047.54 1854.31 1051.71 1853.89ZM1025.23 1163.78C1022.21 1144.09 1018.69 1124.52 1014.12 1105.14C1008.61 1106.1 1007.38 1118.72 1006.68 1122.44C983.094 1229.18 993.308 1339.03 1003.41 1446.76C1005.86 1475.65 1007.88 1504.59 1009.46 1533.55C1011.5 1546.87 996.187 1551.39 988.013 1558.68C999.383 1595.29 1019 1630.71 1016.68 1669.7C1019.73 1666.9 1022.75 1664.07 1025.75 1661.22C1024.99 1658.77 1024.34 1656.32 1023.79 1653.85C1020.06 1651.91 1018.87 1646.54 1022.07 1643.71C1020.84 1484.06 1050.8 1323.05 1025.23 1163.78ZM731.697 862.273C726.027 852.182 711.019 865.296 720.448 872.613C727.012 877.929 736.109 869.199 731.697 862.273ZM703.946 979.656C697.891 971.78 685.745 980.9 691.036 989.042C697.22 1001.88 709.598 989.199 703.946 979.656ZM684.507 1082.53C672.378 1082.57 675.157 1103.12 686.608 1100.3C696.357 1098 694.751 1082.34 684.507 1082.53ZM674.567 1206.48C671.758 1196.97 657.395 1199.48 657.497 1209.26C657.861 1222.47 677.412 1218.48 674.567 1206.48ZM651.027 1326C647.035 1314.05 631.692 1320.24 632.978 1331.81C631.305 1338.5 644.264 1351.99 646.887 1341.06C650.387 1336.84 652.037 1331.42 651.027 1326ZM626.927 1463.85C626.897 1463.81 626.867 1463.77 626.837 1463.73C618.303 1467.75 625.689 1486.04 633.917 1479.32C641.9 1474.45 636.375 1459 626.927 1463.85ZM615.697 1575.76C605.741 1585.55 621.138 1601.05 630.958 1591.02C640.926 1581.25 625.538 1565.76 615.697 1575.76ZM369.133 1642.1C369.003 1642.39 368.863 1642.68 368.703 1642.95C368.963 1642.73 369.223 1642.51 369.483 1642.29C369.373 1642.23 369.253 1642.17 369.133 1642.1ZM361.123 1414.59C377.374 1350.56 403.52 1289.61 428.974 1228.85C456.48 1148.18 464.545 1062.74 474.373 978.553C479.779 931.057 485.624 883.624 496.563 837.022C505.86 750.15 594.086 740.679 663.273 727.213C663.176 719.795 660.895 711.357 668.334 706.613C675.163 699.676 711.622 678.117 718.823 687.243C721.651 680.365 723.034 672.733 724.373 665.392C725.273 662.495 725.645 652.503 728.792 652.582C729.466 672.141 737.764 700.773 721.113 715.463C731.107 730.696 739.44 749.153 752.613 761.283C752.603 761.272 752.593 761.263 752.583 761.253C753.243 761.682 753.913 762.072 754.603 762.442C754.443 762.312 755.393 762.663 756.173 762.913C757.963 763.254 760.924 762.599 762.753 761.772H762.733C808.09 735.992 852.475 708.383 896.383 680.102C890.107 670.818 881.984 625.309 889.772 619.002C895.218 636.955 900.888 654.968 909.153 671.862C916.313 667.954 927.899 660.926 933.933 670.112C941.543 682.876 943.716 701.382 934.583 714.072C973.835 729.54 1016.17 734.956 1056.69 747.044C1074.35 751.572 1093.05 754.942 1109.62 762.793C1159 790.189 1159.04 857.687 1164.46 907.401C1178.35 1149.39 1222.43 1399.55 1153.41 1636.93C1150.75 1644.22 1146.83 1651.22 1143.78 1658.39C1142.57 1661.23 1139.43 1661.14 1137.36 1659.6C1135.02 1660.99 1132.45 1662.1 1129.76 1663C1134.28 1724.72 1140.41 1837.47 1080.84 1874.27C1076.19 1876.46 1072.03 1875.7 1067.7 1875.16C1060.75 1874.26 1052.52 1874.56 1045.32 1875.91C1054.01 1990.4 1111.66 2095 1133.98 2207.18C1181.82 2396.87 1212.73 2590.76 1228.28 2785.73C1228.84 2797.82 1209.91 2801.17 1206.63 2789.31C1199.79 2791.29 1192.85 2792.94 1185.82 2794.28C1189.49 2803.84 1192.53 2813.5 1196.76 2822.82C1201.38 2833.35 1209.79 2843.05 1212.43 2854.32C1215.59 2872.38 1203.84 2889.28 1210.36 2907.35C1211.59 2927.55 1220.77 2946.56 1223.96 2966.57C1228.94 2991.36 1232.72 3017.04 1231.42 3042.38C1236.58 3060.92 1236.33 3080.14 1235.61 3098.92C1235.23 3105.09 1235.55 3112.9 1230.87 3117.65C1220.55 3125.91 1206.74 3129.43 1194.69 3134.59C1129.74 3155.87 1048.85 3161.83 989.262 3123.41C977.917 3114.41 985.009 3092.22 984.131 3079.06C983.727 3069.02 991.516 3041.23 1005.18 3046.84C1017.15 3000.46 1036.59 2956.52 1059.02 2914.4C1055.44 2908.07 1059.36 2901.86 1062.84 2896.52C1080.1 2869.96 1061.47 2827.58 1063.53 2796.25C1050.65 2794.68 1037.82 2792.6 1025.08 2790.06C1016.37 2788.32 1017.01 2777.49 1022.86 2773.52C959.258 2481.75 870.636 2195.64 762.653 1917.29C764.175 1947.6 765.432 1977.88 766.442 2008.24C767.791 2058.63 777.383 2108.27 779.725 2158.53C803.536 2288.92 833.774 2419.55 829.221 2553.04C828.193 2615.55 823.883 2677.99 819.963 2740.36C819.632 2747.54 813.218 2753.6 805.853 2752.03C787.413 2759.13 767.923 2763.59 748.213 2765.84C750.215 2788.64 739.883 2805.05 759.844 2822.16C777.307 2849.44 773.177 2905.22 768.556 2936.88C766.493 2946.97 762.943 2956.21 759.293 2965.78C756.534 2974.47 761.267 2983.13 759.252 2992.04C757.274 3008.19 744.053 3032.68 725.553 3030.23C619.997 3070.2 497.709 3106.45 386.683 3069.23C378.963 3065.38 370.913 3060.41 368.143 3051.78C365.777 3044.08 362.585 3014.93 375.923 3017.18C377.394 2977.68 423.233 2965.23 449.362 2943.98C485.863 2918.92 518.069 2888.47 548.572 2856.54C566.162 2838.43 588.252 2821.38 614.653 2821.28C614.576 2818.5 615.433 2816.04 617.183 2814.1L617.193 2814.09C619.502 2796.16 621.994 2777.77 626.363 2760.19C622.705 2759.5 618.93 2759.19 615.363 2758.17C608.26 2761.36 601.309 2754.94 602.934 2747.66C614.969 2671.1 615.118 2593.14 608.032 2516.1C586.21 2279.09 499.898 2054.64 456.323 1821.67C398.535 1842.31 377.056 1772.32 366.294 1729.49C361.103 1703.4 349.909 1671.28 364.863 1646.87C321.129 1664.31 350.204 1438.28 361.123 1414.59Z" fill="#05051A"/>
<path fill-rule="evenodd" clip-rule="evenodd" d="M626.327 484.003C628.475 465.088 625.695 425.552 625.508 423.15C624.331 407.965 631.431 348.002 644.852 353.527C667.367 335.666 697.354 331.722 725.395 329.838C783.64 325.924 845.601 334.909 890.576 374.189C912.818 394.588 934.471 424.257 932.731 455.149C952.939 484.431 981.428 524.598 956.249 558.831C947.691 569.768 934.088 573.841 923.337 582.124C901.711 599.604 888.143 624.69 866.312 642.066C808.474 694.149 710.264 705.029 653.439 645.789C609.496 602.885 616.602 538.699 624.331 484.003C629.527 447.23 622.136 520.904 626.327 484.003Z" fill="#FBD4C5"/>
<path fill-rule="evenodd" clip-rule="evenodd" d="M803.202 249.625C787.625 246.475 771.63 244.515 755.722 245.105L754.496 245.153C742.527 245.632 727.369 246.693 716.928 253.667C716.328 253.063 715.362 252.753 714.486 253.172C702.078 259.107 688.431 263.398 675.366 267.662C662.362 271.905 648.87 274.706 635.24 275.835C630.112 276.26 625.723 281.809 628.97 286.786C629.743 287.972 630.495 289.17 631.245 290.371C629.991 290.24 628.738 290.105 627.484 289.978C623.36 289.562 619.24 293.973 619.484 297.997C619.637 300.528 619.909 303.029 620.313 305.5C618.742 305.467 617.18 305.703 615.671 306.342C608.032 309.575 608.563 318.694 609.135 325.632C609.928 335.26 613.521 345.458 620.193 352.664C615.211 357.849 611.685 364.041 609.581 371.395C608.056 376.765 607.206 382.485 607.625 388.075L607.759 389.749C608.277 395.815 609.308 402.531 613.663 406.895C615.898 409.145 618.652 409.965 621.278 409.705C619.69 423.685 618.672 437.745 617.714 451.755L617.265 458.451C615.128 490.831 613.522 523.422 613.942 555.855C614.332 586.165 620.309 615.585 638.859 640.195C655.755 662.605 680.012 679.125 707.454 685.405C722.243 688.795 737.341 689.035 752.31 686.875C759.565 685.825 766.869 684.215 773.755 681.675C781.378 678.855 786.857 674.705 791.986 668.485C794.412 665.535 793.244 659.255 788.413 659.845C781.107 660.733 774.438 661.803 767.434 663.968L766.431 664.285C759.454 666.525 752.23 668.195 744.936 668.905C729.997 670.355 714.83 668.895 700.519 664.355C677.218 656.955 657.151 640.465 644.288 619.745C629.02 595.185 627.294 567.305 627.514 539.065C627.751 508.077 628.756 477.07 630.398 446.114L630.678 440.955C631.546 425.025 632.384 409.085 633.122 393.145C633.351 388.145 633.7 383.105 634.33 378.115C640.087 374.735 645.246 370.075 648.609 364.325C655.365 367.125 662.469 369.145 669.007 370.755C684.149 374.487 699.869 375.393 715.282 373.056C719.439 374.777 723.679 376.29 727.984 377.592C729.148 378.109 730.311 378.617 731.474 379.115C741.853 383.565 752.38 387.335 763.336 390.095L766.028 390.768C771.793 392.192 778.056 393.595 784.192 394.035C785.2 394.425 786.288 394.755 787.476 395.045C793.063 396.405 798.862 396.835 804.589 396.355C810.168 395.885 814.2 390.235 811.126 384.945C808.881 381.085 806.615 377.235 804.33 373.395C812.283 376.715 820.495 379.475 828.778 381.815C837.14 384.175 845.622 386.165 854.115 387.995C858.656 388.965 863.215 389.825 867.745 390.795C870.989 391.485 875.968 391.845 878.614 393.985C881.536 396.335 882.365 401.815 883.473 405.195C884.93 409.585 886.297 413.995 887.545 418.455C890.028 427.355 892.064 436.385 893.641 445.505C895.217 454.635 896.276 463.855 896.865 473.105C897.453 482.345 897.194 491.645 898.141 500.845C898.651 505.725 903.879 508.235 907.741 504.825C908.194 504.425 908.651 504.021 909.103 503.612L909.777 502.995C913.081 499.995 916.284 496.815 918.927 493.235C919.406 492.575 919.865 491.885 920.294 491.185C920.364 491.185 920.424 491.165 920.494 491.115L921.227 490.562C929.298 484.543 942.781 476.694 950.65 486.695C953.158 489.881 954.442 493.938 955.507 497.851L957.377 504.856C958.587 509.428 959.725 514.026 960.391 518.705C961.897 529.185 961.139 541.265 953.943 549.665C951.069 553.025 947.108 555.425 942.688 556.055C940.222 556.395 937.787 555.975 935.343 555.665C932.858 555.355 930.464 555.855 927.978 555.615C924.027 555.225 922.3 559.965 923.777 562.945C924.575 564.545 925.514 565.925 926.581 567.095C925.724 567.835 924.905 568.635 924.116 569.475C921.781 570.225 919.687 571.835 918.119 573.965C916.852 575.685 916.194 577.555 916.083 579.525C915.945 580.015 915.825 580.515 915.714 581.025L913.573 584.507C913.102 585.271 912.633 586.025 912.163 586.765C906.714 595.365 900.666 602.645 893.152 609.505C885.917 616.105 878.065 622.015 871.268 629.095L870.467 629.936C864.131 636.627 857.452 644.726 859.932 654.455C860.571 656.955 864.054 658.755 866.328 657.065C873.643 651.625 877.326 643.005 883.532 636.405C889.92 629.605 896.995 623.495 903.4 616.715C909.458 610.315 914.238 603.065 917.84 595.085C919.278 596.675 921.372 597.805 924.276 598.245C929.265 598.995 933.917 596.065 936.091 591.735C937.489 592.355 938.915 592.915 940.353 593.355C947.917 595.675 952.676 587.245 949.822 581.015C948.296 577.675 946.39 574.775 944.024 572.335C951.42 571.315 958.944 567.485 963.803 562.705C975.997 550.695 977.673 532.645 974.929 516.595C973.472 508.085 970.958 499.475 967.694 491.485C967.126 490.095 966.517 488.695 965.849 487.315C966.218 487.305 966.598 487.145 966.837 486.835C969.042 483.815 971.726 481.345 973.363 477.965C974.87 474.865 976.545 471.725 977.734 468.495C980.178 461.885 981.375 454.425 982.174 447.435C983.82 433.125 983.182 418.905 980.996 404.685C977.275 380.465 968.286 357.287 955.043 336.949C955.764 336.569 956.455 336.111 957.099 335.569L957.417 335.291L957.934 334.823C961.713 331.396 961.387 324.973 957.934 321.502L956.843 320.407C955.463 319.032 954.272 317.943 952.041 316.446C951.712 316.225 951.376 316.017 951.035 315.823C952.203 313.661 952.608 311.133 951.795 308.344C948.961 298.628 935.01 298.972 926.168 303.209C916.386 294.46 905.539 286.865 893.781 280.715C865.78 266.075 834.118 255.865 803.202 249.625ZM947.946 505.525C942.717 503.815 935.771 507.405 931.071 509.565C925.114 512.305 920.045 516.355 915.135 520.635C912.69 522.775 912.252 526.275 912.86 529.265C912.921 529.565 912.98 529.875 913.05 530.185C913.699 533.375 917.252 535.885 920.395 535.795C926.971 535.615 930.103 529.925 933.826 525.105C934.265 525.885 934.813 526.605 935.493 527.145L935.952 527.505C937.497 528.684 939.2 529.626 941.241 529.535C942.688 529.465 944.074 529.095 945.352 528.425C948.545 526.735 949.951 522.595 949.084 519.225C948.545 517.105 947.308 515.445 945.691 514.295L946.294 513.882C947.583 512.983 948.759 512.035 949.676 510.636L949.883 510.305H949.803C950.801 508.585 950.151 506.245 947.946 505.525Z" fill="#05051A"/>
<path fill-rule="evenodd" clip-rule="evenodd" d="M670.405 583.879C667.665 586.689 665.035 589.699 662.555 592.809C661.865 597.749 661.705 602.749 662.335 607.909C663.255 615.389 665.295 622.699 668.055 629.719C669.685 629.489 671.295 629.029 672.865 628.309C677.845 626.019 680.625 621.409 683.995 617.339C690.705 609.249 702.945 604.469 711.505 612.859C715.225 616.509 717.605 621.559 720.925 625.569C724.575 629.979 728.675 634.169 732.955 637.969C733.485 638.449 734.035 638.969 734.605 639.479C736.985 636.759 739.325 634.019 741.615 631.239C748.425 622.959 754.305 613.789 757.395 603.449C758.375 600.169 758.985 596.749 759.225 593.299C756.195 589.539 752.735 586.119 748.805 583.289C736.955 574.739 723.305 573.349 709.105 572.609C694.415 571.849 681.185 572.849 670.405 583.879ZM634.565 623.549C635.135 617.829 636.015 611.879 637.315 605.939C642.065 583.899 652.355 561.929 672.985 551.859C682.745 547.089 693.835 545.409 704.355 547.709C722.815 540.799 743.315 547.849 757.845 560.489C774.985 575.399 782.895 598.799 785.555 620.719C787.405 635.969 788.102 656.344 783.775 667.409C779.448 678.474 751.949 708.063 712.695 708.269C656.785 708.562 643.195 670.859 641.545 667.559C634.655 653.839 633.055 638.689 634.565 623.549Z" fill="black"/>
<path fill-rule="evenodd" clip-rule="evenodd" d="M725.413 606.927C732.136 604.184 738.134 599.61 742.519 593.766C744.043 591.735 744.439 589.59 744.119 587.628C743.759 585.422 742.454 583.422 740.674 582.081C738.888 580.736 736.655 580.072 734.496 580.41C732.619 580.704 730.752 581.732 729.273 583.862L728.965 584.288C726.358 587.815 722.96 590.709 719.09 592.574C715.359 594.372 711.186 595.211 706.868 594.723C698.644 593.794 692.976 589.347 686.951 583.307C686.204 582.544 685.457 581.758 684.706 580.959C684.232 580.235 683.574 579.769 682.843 579.525C682.032 579.253 681.114 579.269 680.274 579.562C679.463 579.845 678.738 580.381 678.253 581.095C677.791 581.773 677.529 582.611 677.614 583.574C678.165 589.833 681.438 595.42 686.086 599.806C691.248 604.677 698.091 608.047 704.534 609.229C711.632 610.531 718.864 609.598 725.413 606.927ZM701.186 510.367C693.634 514.957 682.128 525.661 690.252 537.04C699.814 547.073 713.582 535.569 720.366 530.366C726.657 526.334 733.725 536.705 727.888 541.413C678.864 577.708 658.969 511.568 697.366 504.971C701.594 504.244 703.164 508.947 701.186 510.367ZM789.037 468.147C788.202 457.79 772.43 455.439 770.861 465.687C769.456 474.867 771.11 483.3 775.245 491.565C779.196 499.461 789.126 495.777 789.877 488.587C790.884 478.949 789.556 474.589 789.037 468.147ZM668.973 463.562C666.774 460.682 663.599 458.716 659.795 459.827C647.91 463.3 651.413 480.173 655.587 488.386C657.855 492.846 665.186 493.977 668.499 490.05C673.899 483.646 676.485 470.857 669.62 464.549C669.434 464.223 669.227 463.894 668.973 463.562ZM775.412 422.831L773.535 422.502C767.727 421.498 760.506 420.533 756.397 425.202C754.218 427.678 753.468 432.28 756.397 434.65C761.549 438.82 767.245 437.204 773.419 437.557C778.507 437.849 783.397 438.691 788.298 440.092C799.05 443.165 807.811 448.775 816.994 454.935C818.199 455.743 819.429 454.202 818.854 453.075C813.553 442.692 803.28 434.163 792.99 428.964C787.498 426.189 781.488 423.887 775.412 422.831ZM679.807 418.18L678.37 418.474C662.733 421.742 642.417 428.272 635.012 443.631C634.729 445.803 635.028 446.268 635.27 446.573L635.351 446.674C635.55 446.933 635.71 447.291 636.651 447.587C636.913 447.525 637.176 447.459 637.443 447.389C640.837 446.499 643.523 445.274 646.123 444.002L648.942 442.614C652.212 441.01 655.512 439.465 659.008 438.324C666.47 435.89 674.146 434.176 681.94 433.26C683.63 433.062 685.256 432.492 686.54 431.514C687.758 430.587 688.689 429.303 689.113 427.596C689.663 425.387 689.505 423.714 688.32 421.721C687.428 420.225 686.153 419.187 684.689 418.592C683.196 417.984 681.497 417.841 679.807 418.18Z" fill="#05051A"/>
</g>
<defs>
<clipPath id="clip0_156_520">
<rect width="1691" height="3291" fill="white" transform="matrix(-1 0 0 1 1691 0)"/>
</clipPath>
</defs>
</svg>
