<svg width="1372" height="1492" fill="none" xmlns="http://www.w3.org/2000/svg"><g clip-path="url(#a)"><path fill-rule="evenodd" clip-rule="evenodd" d="M1083.24 670.637c-10.32-27.546-2.57-62.421-23.83-85.214-6.29-3.706-9.63-1.644-12.22 4.818-1.56 8.503-5.22 37.78 7.95 37.766 1.65 18.285.62 36.702-3.44 54.647-9.72-1.512-16.8 3.33-23.89 6.932-5.29 2.685-10.58 4.68-16.97 2.837-26.354-4.504-33.866 22.328-34.186 44.229-.387 10.686-1.423 35.596-6.279 45.965-21.978-44.122-68.136-64.209-112.117-74.127-6.894-1.849-12.777-4.375-17.199-8.692-37.056-14.183-19.254-60.649-36.302-87.354-26.684-31.748-58.73-40.883-99.102-35.442-35.323 3.786-59.334 38.567-57.156 71.397.653 6.699-3.495 13.746-5.935 20.639-24.382 28.281-62.321 40.934-94.952 58.022-108.837 51.563-146.555 90.968-188.85 200.688-19.786 41.281-43.465 81.342-51.329 126.812-9.241 53.57-9.27 108.42-6.053 162.52-6.006.7.53 42.29 5.798 56.7 1.805 4.94 6.13 8.5 11.519 8.41 10.84 5.11 36.291 25.69 47.629 25.01 36.633-2.19 72.241 1.19 107.535-.56 38.183-1.89 75.999-8.79 114.345-7.9 66.872 1.57 18.995 5.41 88.18 8.46 43.675 1.95 203.013-21.17 246.564-17.4 35.424 7.23 51.585-4.95 46.181-40.82-1.998-13.75-8.378-44.33 12.61-45.63 9.928 1.11 18.146 10.73 25.589 16.35 65.69 47.41 132.81 13.27 138.1-64.67 9.96-65.38 23.92-80.82-6.43-146.1-96.02-243.032 48.64-210.013-49.03-323.845-7.63 6.437-5.69-10.744-6.73-14.448Z" fill="#FBD4C5"/><path fill-rule="evenodd" clip-rule="evenodd" d="M1046.75 584.572c5.24-4.992 13.57-3.751 18.68.688 5.2 4.507 8.33 11.593 11 17.701 11.98 27.462 9.19 57.53 15.25 86.261 11.09 5.806 21.1 13.386 28.19 23.584 10.77 15.49 15.88 33.53 10.48 51.889-2.79 9.499-7.53 18.301-10.91 27.597-3.61 9.897-5.82 20.182-6.88 30.632-1.04 10.256-1.18 20.568-.88 30.863.16 5.331.45 10.654.74 15.975.26 4.769 1.13 9.746-.04 14.42l-.15.538c.46-.069.91-.157 1.36-.253 3.86-.834 7.26-2.133 11.29-1.619 3.14.397 4.77 2.937 3.44 5.806a10.47 10.47 0 0 1-2.28 3.189c8.1 58.065 22.25 115.197 31.56 173.077 4.22 26.26 6.79 52.6 5.34 79.18l-.15 2.64c-1.48 24.41-5.11 51.31-17.91 72.66-5.98 10-14.2 18.87-24.16 25.25-4.56 2.93-9.45 5.22-14.76 6.36-27.52 10.63-56.62 8.02-82.57-6.03-11.67-6.31-23.31-13.66-32.84-22.8-4.63-4.43-9.099-10.09-11.84-16.26.01 1.39-.248 2.8.04 4.17l.578 2.7c4.321 20.06 20.792 94.22 21.012 100.45.12 3.35-29.046 3.27-32.212 3.37l-.088.01c-47.237 1.91-94.502.89-141.713-1l-3.727-.16c-50.213-2.06-103.49-7.42-151.089-6.04-35.719-.8-71.443-8.5-107.161-6.69-28.376 1.43-56.675 3.92-84.998 6.07l-.715-5.89c-7.849-64.17-20.158-148.85-14.251-212.33.462-4.97-7.541-4.94-8 0-6.108 65.64 7.262 153.81 15.039 218.82-12.057.88-24.119 1.69-36.195 2.3l-3.079.16c-41.093 1.99-83.506 2.11-123.721-7.03-1.24-.28-1.66-1.48-1.4-2.48-.4.22-1 .1-1.17-.45-4.684-14.97-7.064-53.08-9.187-69.57l-.143-1.08c-2.18-16.02-3.43-32.23-4.33-48.35-1.82-32.25-1.6-64.54.86-96.75 7.83-102.743 39.01-206.54 104.45-289.108 15.82-19.959 33.83-38.221 55.44-52.345 21.2-13.86 44.98-23.623 69.11-31.551 15.95-5.245 32.15-9.733 48.35-14.211.614-.298 1.227-.591 1.843-.879l.927-.429c5.76-2.647 11.43-5.546 17.33-7.901l1.304-.514c8.55-3.324 18.511-6.266 27.766-6.165 14.99-7.318 27.58-18.378 26.36-36.117-.5-7.29 11.3-7.28 11.72 0 1.1 19.367-11.209 33.103-26.9 42.321l.075.074.075.081a75.039 75.039 0 0 0 7.9 7.522c16.94 13.978 38.37 25.582 59.79 33.219 25.13 8.967 50.24 11.652 76.23 4.402 13.59-3.791 26.42-9.636 38.21-17.197 3.6-2.307 7.05-4.778 10.36-7.425-3.13-4.149-5.63-8.617-7.73-13.358-4.219-9.538-7.71-22.459-3.4-32.531 1.06-2.481 5.27-4.013 6.74-.853 4.05 8.647 5.74 17.991 10.46 26.445a65.719 65.719 0 0 0 6.19 9.15c0 .155 17.72 3.092 17.72 3.092 21.42-.01 41.59 7.968 60.54 17.933 11.202 5.892 22.21 12.157 33.187 18.431l21.453 12.268c1.58.901 3.35 1.773 5.12 2.705-2.07-9.908-3.08-20.008-2.4-30.021 1.03-15.103 7.09-31.619 23.14-37 7.59-2.55 16.37-1.764 23.74 1.066 3.4 1.309 7.1 3.044 10.26 5.361 1.53-6.67 7.98-11.671 14.46-13.88 2.1-.719 4.25-1.174 6.43-1.397-.06-1.07-.07-2.153-.05-3.268l.01-.842c.1-4.944.06-9.888-.05-14.821-.2-9.355-.66-18.515-1.64-27.84-.82-7.719-2.24-15.351-3.29-23.039l-.44-3.305c-.89-6.511-2.39-14.619 2.9-19.651Zm-37.27 109.633c-17.519-2.491-25.999 12.698-27.209 27.326-1.09 13.28 1.13 26.598 4.6 39.511 1.3 4.788 2.76 9.518 4.29 14.171 2.46 7.474 5.13 14.937 8.38 22.13.989 2.171 1.989 4.352 3.109 6.446 3.84 3.049 7.12 7.156 10.1 11.103l1.96 2.608.53.703c5.07 6.727 9.4 13.707 12.94 21.296 3.37 7.229 5.88 14.765 7.83 22.458l.48 1.921c1.5 5.92 3.71 12.987 1.04 18.496 5.25 1.57 10.47 2.995 16.05 3.751 7.7 1.047 15.71 1.115 23.48.843 7.51-.266 15.01-.834 22.48-1.607l5.39-.574c.56-.062 1.11-.126 1.67-.194a3.349 3.349 0 0 1-.52-.842c-1.92-4.46-1.67-9.63-1.88-14.427l-.03-.531c-.28-5.321-.45-10.643-.52-15.975-.13-10.003.15-20.036 1.28-29.991.98-8.714 2.51-17.429 4.9-25.891 2.41-8.579 6.09-16.634 9.49-24.874 3.36-8.142 6.13-16.506 5.83-25.387-.19-5.641-1.47-11.128-3.64-16.314a.556.556 0 0 1-.38.126c-6.81-.242-13.26-2.152-19.84-3.761-6.98-1.714-14.13-3.121-21.27-3.955l-1.52-.172c-5.95-.648-12.43-.963-17.93 1.51-5.95 2.686-9.7 8.657-11.96 14.385l-.25.66c-4.02 10.86-3.1 25.356 9.32 30.495 3.85 1.599 12.64 2.578 14.62-2.482.89-2.307-.94-5.718-1.63-7.899-.81-2.599-1.34-5.158-1.28-7.872.05-2.38 1.93-4.176 4.31-4.368l.22-.013c4.34-.184 13.29-5.03 14.16 1.948.17 1.357-.9 2.782-2.03 3.442-2.28 1.308-4.66 2.181-7.14 2.713.34 1.454.82 2.879 1.29 4.295.28-.136.59-.222.92-.252 3.67-.291 7.3.272 10.97.31l2.01.013c2.85.028 5.33.176 8.09 1.606 2.55 1.318 2.1 4.623 0 6.038-5.51 3.703-14.84 1.532-20.58-2.229.25 1.91.13 3.858-.71 5.903-2.48 6.069-9.59 9.093-15.95 9.354-5.65.233-11.05-1.492-15.56-4.517-.92 3.189-2.4 6.253-3.04 9.559-.84 4.342.16 9.421-1.4 13.502-1.56 4.111-7.59 6.863-11.08 2.83-5.11-5.893-3.52-15.228.97-21.199 2.39-3.16 6.73-6.785 11.15-7.357-3.07-2.801-5.53-6.262-7.08-10.082a.555.555 0 0 1-.38.02c-14.37-3.809-22.19-16.43-22.67-29.681a29.146 29.146 0 0 1-3.31 1.987c-2.75 1.435-6.28.174-7.13-2.802-.78-2.772 1.49-6.193 4.68-5.961 1.82.145 3.65.155 5.46-.136.25-.039.49-.086.74-.135.16-1.018.37-2.036.63-3.044-5.43.601-11.11-.262-16.36-1.386-4.519-.96-3.469-7.93 1.08-7.765l.73.031c5.97.278 14.78 1.212 19.9-2.454.9-1.26 1.9-2.453 2.98-3.577.14-.281.26-.581.37-.892 2.75-7.677-10.28-12.058-16.15-12.892Zm42.22-9.781c-7.75 0-15.07 2.453-20.93 9.132 2.09 1.929 3.76 4.168 4.68 6.795a43.737 43.737 0 0 1 9.02-3.558c9.49-2.569 22.47-2.53 30.45 3.781 4.18 3.295-.41 9.208-4.91 8.19-4.03-.911-7.53-2.597-11.76-2.791-3.67-.175-7.27.291-10.79 1.318-5.37 1.571-10.25 4.546-13.84 8.647a25.186 25.186 0 0 0-3.13 4.479c-6.7 12.329-1.65 30.01 7.6 40.159-3.63-11.69-.01-25.475 7.22-35.157 8.71-11.659 21.72-12.981 35.44-11.161l.45.061c13.27 1.813 29.7 4.982 39.62 14.433a54.06 54.06 0 0 0-3.41-6.339c-7.52-12.001-19.99-21.364-32.93-28.043a115.53 115.53 0 0 0-6.54-3.151c-8.29-3.693-17.53-6.795-26.24-6.795Zm4.24-91.583-.03.136c-.01.026-.01.051-.02.077-.46 3.942.62 8.467 1.18 12.444l.07.565c1.16 9.053 2.69 18.117 3.19 27.238.49 8.772.3 17.87-.79 26.604l-.16 1.245c-.64 4.76-1.02 10.343-2.68 15.229 6.38.591 12.76 2.578 18.56 4.692 2.08.765 4.15 1.57 6.21 2.424-2.58-13.291-3.96-26.774-6.76-40.025l-.55-2.637c-3.04-14.659-5.9-29.411-13.77-42.525-1.05-1.745-2.18-3.208-3.46-4.769-.28-.358-.61-.59-.99-.698Z" fill="#05051A"/><path fill-rule="evenodd" clip-rule="evenodd" d="M651 623.994c4.243-10.336 18.586-6.318 16.987 4.541-.957 6.504-.987 11.413-2.487 20.178s-1.766 10.182-5.923 13.66a402.845 402.845 0 0 0 22.957 19.263c8.594 6.68 17.631 12.837 26.972 18.496 8.191 4.963 16.752 9.36 24.473 15.023 7.179 5.265 13.719 11.596 17.047 19.862 3.545 8.802 2.004 17.892-.607 26.688l-.299.994c-2.667 8.715-7.284 19.219-.882 27.43 3.259 4.18 7.997 7.14 12.088 10.481a92.632 92.632 0 0 1 10.179 9.669c6.825 7.563 12.376 16.073 15.879 25.555l.313.862c3.002 8.394 5.197 18.676 1.14 26.918-1.164 2.362-4.918 1.594-5.57-.706-1.474-5.211-1.397-10.669-2.633-15.954-1.286-5.496-3.426-10.713-6.221-15.649-5.408-9.548-12.732-17.705-21.385-24.601l-2.59-2.041c-6.75-5.37-12.952-11.067-14.322-19.954-1.466-9.508 2.464-18.566 4.991-27.565 1.761-6.272 2.336-12.283.433-17.951-2.325 3.678-5.497 7.17-8.006 10.284-4.997 6.205-10.041 12.372-15.072 18.551-5.158 6.335-10.189 12.771-14.98 19.373a1108.609 1108.609 0 0 0-6.376 8.899c-1.589 2.235-3.805 4.468-5.537 6.748.421 1.22.388 2.625-.375 3.624-9.185 12.029-22.251-13.071-25.659-19.412-6.94-12.915-12.105-26.635-19.068-39.547-7.215-13.384-15.431-26.412-24.588-38.632-5.539-7.391-11.747-14.333-16.814-21.959-1.703-2.563-2.943-4.769-2.943-4.769a67.039 67.039 0 0 1-1.271-2.344l-.25.203a2.447 2.447 0 0 1-.132.095c-1.359.913-3.36.465-4.48-.56-3.163-2.893-2.092-6.103.019-9.103l.275-.382c2.582-3.506 4.885-7.213 7.268-10.846l1.492-2.272c4-6.07 8.203-12.18 13.537-17.196a29.132 29.132 0 0 1 8.039-5.36c-.245-.502 1.903-1.528 2.512-1.012 9.077-3.22 10.086-4.662 19.982-3.774" fill="#05051A"/><path fill-rule="evenodd" clip-rule="evenodd" d="M815.048 656.048c.599-.295 1.174-.106 1.557.396.547.715.48 1.411-.19 1.902.895 1.773 1.952 6.214 2.103 6.861a305.319 305.319 0 0 0 1.944 7.83c1.374 5.251 2.578 10.543 3.953 15.795 1.458 5.568 3.195 11.077 5.128 16.506.125.352.262.711.406 1.075l.22.55.054-.083c.393-.602 1.211-.182 1.114.454-.09.58-.211 1.157-.313 1.736l.203.52c1.264 3.298 2.13 6.773-.19 9.684-.868 1.088-1.823 1.733-3.013 1.925-1.908 6.097-4.302 12.081-6.865 17.827l-.751 1.678c-3.77 8.385-7.791 16.66-13.794 23.798-6.554 7.794-15.569 13.115-21.278 21.655-2.656 3.972-4.504 8.149-6.004 12.635l-.564 1.703c-1.065 3.173-2.293 6.249-5.364 8.11-.98.593-2.448.404-3.238-.405-6.297-6.457.295-18.514 4.092-24.765 5.278-8.693 12.917-14.254 20.566-20.813 8.245-7.069 13.504-16.526 18.591-25.842 3.116-5.708 6.124-11.538 9.291-17.271-3.309-2.835-4.368-8.465-5.489-12.379l-.102-.351c-1.853-6.268-3.325-12.699-4.255-19.157-.895-6.211-1.268-12.331-1.032-18.576l.069-1.591" fill="#05051A"/><path fill-rule="evenodd" clip-rule="evenodd" d="M827.35 685.605c-.731-.971.479-2.071 1.482-1.869 6.098 1.223 12.06 4.801 17.534 7.694l.584.307c4.369 2.284 8.765 5.081 11.059 9.518 2.495 4.822 2.29 10.376 1.949 15.616l-.032.491c-.417 6.284-.484 12.813-1.856 18.984-.702 3.158-3.653 4.048-6.176 3.302-3.002 9.188-11.435 15.958-17.595 23.209-7.854 9.243-6.376 21.724-5.555 32.857.332 4.507-5.452 5.788-8.431 3.384l-6.865-5.528a901.798 901.798 0 0 1-3.424-2.775 197.91 197.91 0 0 1-2.9-2.409l-1.432-1.225c-.635-.551-3.436-3.584-4.255-3.71-1.984-.305-6.697 4.762-8.31 6.352l-.204.198c-3.036 2.886-5.779 5.991-8.334 9.284-.47.604-1.389.102-1.053-.597 2.289-4.753 4.952-9.298 8.112-13.552l.639-.847c2.103-2.747 4.926-7.598 8.638-8.409 4.533-.99 9.059 3.416 12.356 5.861l.209.154a322.277 322.277 0 0 1 4.668 3.471c-.162-8.289.918-16.664 5.333-23.807 3.113-5.038 7.777-8.769 11.768-13.098 4.443-4.82 6.763-10.745 10.785-15.765.518-.646 1.232-.994 2.005-1.104.155-4.036.768-8.112 1.242-12.105l.137-1.195c.479-4.338 1.611-9.636-.58-13.698-2.07-3.838-6.818-6.546-10.335-9.15l-2.871-2.158m-206.206-53.548a22.257 22.257 0 0 0-5.109 3.91c-4.901 5.04-8.405 11.311-11.815 17.345-1.836 3.249-3.606 6.534-5.457 9.775a215.512 215.512 0 0 1-2.47 4.199c-.387.641-1.537 1.917-2.107 2.703.633.86 1.288 1.707 1.956 2.545.255.32 17.835 18.884 23.964 26.149 9.384 11.129 17.772 22.885 24.943 35.467 7.022 12.321 12.368 25.366 18.873 37.926 3.256 6.288 6.892 12.532 11.527 17.974.179.212.368.413.551.622 1.768-4.632 6.301-9.592 8.527-12.44l.209-.269c5.049-6.597 10.381-12.996 15.829-19.286a523.26 523.26 0 0 1 15.304-16.89l1.966-2.068c3.641-3.813 8.266-9.517 13.596-12.241a24.72 24.72 0 0 0-1.992-2.927c-4.994-6.325-12.054-10.916-19.02-15.058l-4.517-2.664c-17.028-10.059-33.791-20.584-48.573-33.653-7.821-6.915-15.534-14.159-22.108-22.225l-2.325-2.852" fill="#05051A"/><path d="M747.5 770.365c5.731-16.667 5.833-28.111 4.5-31.988 0 0 16-1.939 34-9.694 18-7.754 33-15.509 33-15.509 1 2.423 2.667 5.17 4 6.301-3.162 5.364-11.992 23.017-19 32.957-9 12.765-14.022 13.571-21.5 21.326-17.2 17.836-14 29.08-13 34.411-5.5-6.3-30.5-13.086-22-37.804Z" fill="#FBD4C5"/><path d="m467.5 1309.32-27-224.4 36-5.34 12 228.77-21 .97Z" fill="#05051A"/><path fill-rule="evenodd" clip-rule="evenodd" d="M749.733 264.173c150.195 4.765 159.255 76.257 159.255 196.152 0 119.895-77.915 195.446-106.605 208.638-28.689 13.193-104.233 69.857-172.406 43.745-68.173-26.113-48.431-136.436-48.431-183.839 0-47.402 17.992-269.461 168.187-264.696Z" fill="#FBD4C5"/><path fill-rule="evenodd" clip-rule="evenodd" d="M604.563 454.445c31.055-126.898 87.747-188.811 170.076-185.738 123.493 4.608 122.191 130.744 114.444 119.243-5.062-7.514-40.501-33.763-106.318-78.747l-4.067-2.777-174.135 148.019Z" fill="#A58618"/><path fill-rule="evenodd" clip-rule="evenodd" d="M678.055 348.348c15.357-13.811 31.862-26.952 49.296-38.041 17.642-11.22 36.911-17.93 57.737-18.09-1.457 1.17-2.844 2.47-4.251 3.679-3.93 3.371-7.853 6.761-11.775 10.141-7.843 6.77-15.707 13.529-23.45 20.41-15.248 13.56-30.546 27.05-45.763 40.64-29.249 26.12-57.867 52.809-85.869 80.27.151-.67.31-1.34.469-2.009 9.271-38.801 34.487-70.811 63.606-97Zm132.609 281.239c-27.582 15.43-59.164 16.03-88.833 6.32-17.792-5.809-34.107-14.79-49.375-25.53-13.282-9.35-25.137-19.72-36.882-30.731-9.67-21.369-18.281-42.699-22.313-65.949-3.612-20.87-4.091-42.54.1-63.37 30.995-25.55 61.8-51.31 92.564-77.149 15.667-13.161 31.374-26.25 47.27-39.131 8.073-6.54 16.067-13.18 24.109-19.75 1.327-1.08 2.646-2.16 3.973-3.24 16.604 12.18 34.406 22.621 50.892 35 8.631 6.49 17.023 13.4 25.016 20.669a325.224 325.224 0 0 1 12.275 11.771c3.652 3.681 7.174 8.96 12.354 10.351a4.98 4.98 0 0 0 2.005.139c6.925 60.76 11.845 126.37-17.822 181.55-12.943 24.07-31.293 45.59-55.333 59.05Zm-12.224-335.68c.1-.3.17-.591.21-.87 39.966 5.22 73.345 34.689 84.381 73.49-.958 1.34-1.487 2.93-1.287 4.619l.299 2.561c-1.367-1.359-2.774-2.63-3.971-3.84a324.988 324.988 0 0 0-12.255-11.801c-8.572-7.829-17.472-15.149-26.853-21.979-16.314-11.88-33.978-22.8-53.427-28.5a583.43 583.43 0 0 1 3.843-3.14c3.841-3.131 7.404-5.71 9.06-10.54Zm66.66-37.982c-24.538-26.87-58.517-46.55-94.3-53.39-34.169-6.54-69.544-2.23-101.825 10.48-67.548 26.6-120.845 85.091-145.803 152.87C508.623 405.375 514.449 416 502.474 471c-11.975 55-5.488 60.492-31.434 145.5-25.945 85.008-25.945 113.5 77.337 223 103.281 109.5 104.887 19.114 184.609 19 72.429-.114 145.434 38.633 175.13-29.5 37.919-87 57.379-102 42.909-173.5-14.469-71.5-23.017-66-23.017-119.5s2.455-67.325 0-107.375c-3.773-61.38-20.577-126.34-62.908-172.7Z" fill="#05051A"/><path fill-rule="evenodd" clip-rule="evenodd" d="M742.832 569.758c8.002-16 81.391-8.809 81.391-8.809l6.199 50.859s-35.41 11.382-56.489 8.997-39.103-35.047-31.101-51.047Z" fill="#fff"/><path fill-rule="evenodd" clip-rule="evenodd" d="M748.003 596.47c-2.534-5.423 49.931-20.214 66.175-10.107s11.165 23.893 11.165 23.893-68.322 15.584-77.34-13.786Z" fill="#FF8181"/><path fill-rule="evenodd" clip-rule="evenodd" d="M738.281 560.29c12.246-14.23 32.871-15.221 49.956-11.663 10.964 2.284 21.639 6.088 32.775 7.498 5.201.659 10.458.856 15.697.759 5.146-.095 10.3-1.132 15.428-.939.788.029 1.086 1.064.403 1.485-7.035 4.321-16.512 5.707-24.822 6.552.026.615.063 1.215.148 1.724a93.05 93.05 0 0 1 .601 4.071c.377 3.081.799 6.152 1.22 9.227.83 6.052 1.091 12.295 2.55 18.241l.255.989c.338 1.25.415 2.377.302 3.393l.338-.153 1.067-.517.7-.331c2.554-1.184 4.991-2.046 7.994-1.758 2.286.218 4.205 1.777 4.219 4.218.057 10.955-14.707 14.478-23.152 16.575l-2.477.61c-10.749 2.622-21.725 4.92-32.78 5.47-17.742.881-37.679-4.013-49.285-18.404-10.829-13.427-12.814-33.479-1.137-47.047Zm80.571 46.028c-1.862-16.494-22.13-17.401-27.961-6.941-2.588-14.579-40.863-1.26-37.87 1.638 11.344 10.986 28.559 11.975 43.358 9.943 7.537-1.035 15.08-2.72 22.473-4.64Zm-22.494-43.23-5.096-.733-2.007-.277c-12.633-1.691-26.839-2.565-37.225 5.534-3.792 2.956-5.926 6.812-6.723 10.954 9.827-1.457 19.691-2.568 29.584-3.493l2.699-.248c6.19-.558 12.377-1.146 18.561-1.763l4.395-.445 4.393-.456c1.546-.162 11.965-.695 13.924-.337.209-1.76.482-5.569.924-7.282-7.402.251-14.772-.299-22.131-1.277l-1.298-.177Zm23.456-73.721c7.552 4.59 19.058 15.293 10.934 26.673-9.562 10.033-23.33-1.471-30.114-6.674-6.291-4.032-13.359 6.339-7.522 11.047 49.024 36.295 68.919-29.846 30.522-36.443-4.228-.727-5.798 3.977-3.82 5.397Zm13.514 19.337.363-.197.123-.075c.212-.137.077-.122-.406.045l-.362.13v.256c.093-.057.192-.1.282-.159Zm-96.711-40.78-.001-.225c.014-6.377 3.728-20.937 12.908-20.937 5.735 0 9.217 9.909 9.82 20.124l.021.416c.266 6.351-1.477 20.232-9.841 20.232-8.452 0-12.82-13.147-12.907-19.61Zm135.156-2 .001-.225c-.014-6.377-3.728-20.937-12.908-20.937-5.592 0-9.042 9.42-9.769 19.358l-.051.766c-.362 6.136 1.268 20.648 9.82 20.648 8.452 0 12.82-13.147 12.907-19.61Zm-129.918-62.639c7.492-1.139 17.413 1.025 20.906 8.643 1.556 3.394-.287 7.147-4.21 7.335-9.481.454-17.984-1.656-26.306 4.509-3.581 2.654-6.593 6.328-9.119 9.992l-.956 1.395-.792 1.149c-1.716 2.523-3.341 5.263-3.087 8.307.075.901-.846 1.756-1.721 1.72-5.454-.224-6.041-7.062-5.324-11.169 1.334-7.622 5.023-14.777 10.136-20.54 5.37-6.052 12.459-10.122 20.473-11.341Zm103.189 9.25c5.166-3.321 11.774-4.597 17.826-4.108 11.933.961 31.952 11.105 29.317 25.68-.813 4.495-7.065 6.867-10.749 4.373-3.961-2.681-4.925-6.848-7.873-10.352-2.352-2.799-5.333-4.824-8.525-6.549-3.146-1.701-6.786-2.732-10.356-3.108l-.595-.057c-2.149-.183-13.001-.134-11.408 3.917.312.793-.868 1.421-1.41.821-3.327-3.68.441-8.475 3.773-10.617Z" fill="#05051A"/></g><defs><clipPath id="a"><path fill="#fff" transform="matrix(-1 0 0 1 1372 0)" d="M0 0h1372v1492H0z"/></clipPath></defs></svg>