<svg xmlns="http://www.w3.org/2000/svg" width="149" height="178" fill="none"><path d="M 75 100.1 C 102.117 100.1 124.1 78.117 124.1 51 C 124.1 23.883 102.117 1.9 75 1.9 C 47.883 1.9 25.9 23.883 25.9 51 C 25.9 78.117 47.883 100.1 75 100.1 Z" fill="rgb(230,230,232)"></path><path d="M 77.518 39.34 L 78.596 46.659 C 78.653 47.067 79.036 47.462 79.443 47.532 L 86.73 48.813 C 87.59 48.966 87.648 49.406 86.87 49.789 L 80.24 53.072 C 79.87 53.257 79.616 53.742 79.673 54.149 L 80.706 61.474 C 80.826 62.334 80.426 62.532 79.82 61.908 L 74.65 56.623 C 74.362 56.33 73.82 56.233 73.45 56.413 L 66.802 59.657 C 66.018 60.04 65.712 59.721 66.113 58.95 L 69.543 52.396 C 69.734 52.033 69.658 51.491 69.371 51.191 L 64.233 45.868 C 63.627 45.243 63.837 44.848 64.692 44.995 L 71.985 46.231 C 72.393 46.301 72.883 46.059 73.075 45.696 L 76.549 39.168 C 76.957 38.397 77.397 38.473 77.524 39.334 Z M 110.834 35.254 L 101.711 44.376 C 101.495 44.593 101.373 45.02 101.437 45.326 C 101.864 47.309 102.075 49.368 102.036 51.484 C 101.788 65.58 90.44 77.31 76.358 77.998 C 60.044 78.795 46.733 65.158 48.053 48.743 C 49.06 36.242 60.624 24.85 73.138 24.021 C 75.947 23.828 78.769 24.073 81.502 24.748 C 81.815 24.824 82.255 24.709 82.484 24.48 L 91.492 15.472 C 92.072 14.892 91.945 14.121 91.186 13.789 C 85.825 11.456 79.858 10.251 73.585 10.461 C 53.548 11.137 35.603 28.681 34.506 48.692 C 33.18 72.828 52.898 92.654 76.996 91.5 C 96.854 90.55 114.538 72.885 115.507 53.027 C 115.806 46.831 114.723 40.915 112.523 35.567 C 112.205 34.788 111.427 34.648 110.834 35.247 Z" fill="rgb(16,55,91)"></path><path d="M 79.412 45.977 L 78.092 37.906 C 78.059 37.71 78.123 37.51 78.264 37.37 L 95.572 20.28 C 95.747 20.106 96.008 20.053 96.237 20.146 C 96.465 20.24 96.615 20.46 96.618 20.707 L 96.771 28.637 C 96.771 28.95 97.013 29.205 97.325 29.237 L 105.339 30.027 C 105.578 30.051 105.782 30.212 105.86 30.439 C 105.938 30.667 105.877 30.919 105.702 31.085 L 88.069 47.775 C 87.926 47.911 87.727 47.97 87.533 47.935 L 79.903 46.481 C 79.649 46.434 79.452 46.233 79.411 45.978 Z" fill="rgb(165,134,24)"></path><path d="M 37.153 120.121 L 38.683 121.643 L 37.153 123.183 L 35.623 121.643 Z M 34.017 120.121 L 35.567 121.643 L 34.017 123.183 L 32.505 121.643 Z M 39.973 134 C 39.386 134 38.873 133.923 38.433 133.768 C 38.014 133.626 37.637 133.38 37.338 133.054 C 37.048 132.732 36.825 132.321 36.67 131.82 C 36.335 132.105 35.956 132.334 35.548 132.497 C 35.146 132.642 34.722 132.714 34.295 132.71 C 33.293 132.71 32.458 132.438 31.79 131.894 C 31.123 131.35 30.789 130.555 30.789 129.51 C 30.789 128.935 30.915 128.418 31.169 127.96 C 31.429 127.503 31.779 127.095 32.217 126.736 C 32.687 126.362 33.201 126.047 33.748 125.799 C 34.343 125.522 34.957 125.286 35.585 125.094 L 35.52 124.648 L 37.617 124.222 L 38.489 130.131 C 38.544 130.533 38.696 130.864 38.943 131.124 C 39.191 131.378 39.546 131.504 40.01 131.504 L 40.289 131.504 L 40.289 134 Z M 36.197 129.074 C 36.197 128.987 36.191 128.891 36.179 128.786 C 36.166 128.677 36.147 128.568 36.123 128.461 L 35.947 127.385 C 35.569 127.515 35.207 127.657 34.861 127.812 C 34.539 127.947 34.229 128.109 33.934 128.294 C 33.695 128.438 33.482 128.62 33.303 128.833 C 33.159 128.997 33.076 129.207 33.071 129.426 C 33.071 129.717 33.179 129.946 33.396 130.113 C 33.618 130.274 33.909 130.354 34.268 130.354 C 34.571 130.354 34.871 130.308 35.168 130.215 C 35.443 130.134 35.694 129.988 35.9 129.788 C 36.095 129.603 36.203 129.343 36.197 129.074 Z M 39.908 131.504 L 40.65 131.504 L 40.65 134 L 39.908 134 Z M 43.285 135.243 L 44.815 136.765 L 43.285 138.305 L 41.755 136.765 Z M 40.149 135.243 L 41.699 136.765 L 40.149 138.305 L 38.637 136.765 Z M 41.912 134 L 40.428 134 L 40.428 131.504 L 41.912 131.504 C 42.413 131.504 42.753 131.353 42.932 131.05 C 43.118 130.747 43.211 130.36 43.211 129.89 C 43.211 129.476 43.161 129.024 43.063 128.536 C 42.972 128.049 42.876 127.564 42.775 127.079 L 45.048 126.495 C 45.165 127.057 45.258 127.617 45.326 128.174 C 45.394 128.724 45.428 129.25 45.428 129.751 C 45.428 130.561 45.32 131.288 45.103 131.931 C 44.887 132.568 44.523 133.072 44.009 133.443 C 43.495 133.814 42.797 134 41.912 134 Z M 47.506 121.04 L 49.835 121.04 L 49.835 129.593 C 49.835 130.292 49.94 130.787 50.15 131.078 C 50.367 131.362 50.781 131.504 51.394 131.504 L 51.626 131.504 L 51.626 134 L 51.394 134 C 50.051 134 49.068 133.651 48.444 132.952 C 47.819 132.253 47.506 131.192 47.506 129.77 Z M 57.192 121.448 L 58.797 123.053 L 57.192 124.658 L 55.587 123.053 Z M 57.229 128.276 C 56.926 128.276 56.589 128.291 56.218 128.322 C 55.853 128.353 55.478 128.415 55.095 128.508 C 55.38 128.829 55.685 129.151 56.014 129.473 C 56.348 129.794 56.632 130.063 56.867 130.28 L 57.22 130.595 L 57.433 130.41 C 57.575 130.286 57.755 130.122 57.971 129.918 C 58.211 129.698 58.446 129.472 58.676 129.241 C 58.924 128.993 59.153 128.749 59.363 128.508 C 58.991 128.416 58.613 128.354 58.231 128.322 C 57.898 128.293 57.563 128.278 57.229 128.276 Z M 57.219 126.003 C 57.709 126.003 58.222 126.04 58.759 126.114 C 59.276 126.182 59.785 126.297 60.281 126.458 C 60.758 126.606 61.144 126.801 61.441 127.042 C 61.744 127.283 61.895 127.574 61.895 127.914 C 61.895 128.075 61.84 128.27 61.728 128.499 C 61.607 128.755 61.465 129 61.302 129.231 C 60.928 129.759 60.519 130.261 60.077 130.734 C 59.867 130.963 59.675 131.161 59.502 131.328 C 59.786 131.409 60.062 131.458 60.328 131.477 C 60.594 131.495 60.838 131.504 61.06 131.504 L 62.508 131.504 L 62.508 134 L 61.07 134 C 60.388 134.003 59.709 133.922 59.047 133.759 C 58.411 133.595 57.798 133.355 57.22 133.044 C 56.783 133.271 56.323 133.448 55.847 133.573 C 55.326 133.717 54.796 133.825 54.26 133.898 C 53.716 133.966 53.206 134 52.73 134 L 51.264 134 L 51.264 131.504 L 53.369 131.504 C 53.636 131.498 53.911 131.483 54.195 131.458 C 54.486 131.427 54.736 131.381 54.947 131.319 C 54.749 131.127 54.558 130.929 54.372 130.725 C 54.162 130.496 53.948 130.252 53.732 129.992 C 53.522 129.726 53.326 129.466 53.147 129.213 C 52.99 128.981 52.847 128.739 52.72 128.489 C 52.609 128.26 52.553 128.069 52.553 127.914 C 52.553 127.574 52.702 127.283 52.999 127.042 C 53.295 126.801 53.679 126.606 54.149 126.458 C 54.645 126.298 55.154 126.183 55.67 126.114 C 56.184 126.042 56.701 126.005 57.22 126.003 Z M 62.137 131.504 L 62.851 131.504 C 63.519 131.504 63.949 131.344 64.141 131.022 C 64.332 130.694 64.428 130.221 64.428 129.603 L 64.428 121.04 L 66.757 121.04 L 66.757 129.779 C 66.757 131.17 66.447 132.222 65.829 132.933 C 65.217 133.644 64.221 134 62.842 134 L 62.137 134 Z M 71.674 121.04 L 71.674 133.991 L 69.354 133.991 L 69.354 121.04 Z M 83.855 130.113 C 83.855 129.958 83.818 129.754 83.744 129.5 C 83.688 129.281 83.613 129.067 83.521 128.86 L 81.731 124.862 L 83.79 123.869 L 86.054 129.12 C 86.258 129.596 86.44 130.014 86.601 130.373 C 86.761 130.731 86.938 131.01 87.13 131.208 C 87.319 131.404 87.582 131.512 87.854 131.504 L 88.244 131.504 L 88.244 134 L 87.854 134 C 87.384 134 86.981 133.941 86.647 133.824 C 86.329 133.706 86.034 133.533 85.775 133.313 C 85.517 133.085 85.284 132.83 85.08 132.553 C 84.771 132.866 84.418 133.132 84.031 133.341 C 83.615 133.568 83.168 133.733 82.705 133.833 C 82.152 133.944 81.589 133.997 81.025 133.991 C 80.505 133.991 80.057 133.972 79.68 133.935 C 79.299 133.896 78.92 133.831 78.548 133.74 L 78.548 131.254 C 78.932 131.34 79.328 131.409 79.736 131.458 C 80.144 131.507 80.527 131.532 80.886 131.532 C 81.4 131.532 81.882 131.489 82.334 131.402 C 82.785 131.31 83.15 131.161 83.428 130.957 C 83.703 130.765 83.864 130.448 83.855 130.113 Z M 87.872 134 L 87.872 131.504 L 89.486 131.504 L 89.486 131.31 C 89.486 130.703 89.551 130.066 89.681 129.398 C 89.805 128.75 90.01 128.12 90.293 127.524 C 90.549 126.971 90.931 126.485 91.407 126.105 C 91.871 125.74 92.44 125.558 93.114 125.558 C 93.695 125.558 94.193 125.7 94.607 125.984 C 95.022 126.263 95.34 126.643 95.563 127.125 C 95.786 127.602 95.897 128.146 95.897 128.758 C 95.895 129.342 95.785 129.921 95.572 130.465 C 95.354 131.026 95.054 131.551 94.682 132.024 C 94.311 132.493 93.877 132.909 93.392 133.258 C 92.91 133.598 92.406 133.833 91.88 133.963 C 91.948 134.179 92.047 134.402 92.177 134.631 C 92.307 134.86 92.461 135.079 92.641 135.29 C 92.82 135.506 93.011 135.695 93.216 135.855 C 93.422 134.723 93.943 133.672 94.719 132.822 C 95.076 132.429 95.5 132.102 95.971 131.857 C 96.412 131.626 96.902 131.505 97.4 131.504 L 97.706 131.504 L 97.706 134 L 97.381 134 C 96.973 134 96.63 134.053 96.351 134.158 C 96.093 134.253 95.866 134.417 95.693 134.631 C 95.514 134.867 95.387 135.139 95.322 135.429 C 95.243 135.804 95.205 136.187 95.21 136.57 C 95.21 136.724 95.214 136.882 95.22 137.043 L 95.257 137.544 L 93.727 138.982 C 93.074 138.659 92.473 138.24 91.945 137.739 C 91.385 137.223 90.898 136.633 90.498 135.985 C 90.11 135.375 89.828 134.704 89.663 134 L 87.873 134 Z M 93.03 127.96 C 92.79 127.96 92.582 128.066 92.409 128.276 C 92.216 128.523 92.068 128.803 91.973 129.102 C 91.857 129.458 91.773 129.824 91.723 130.196 C 91.673 130.586 91.648 130.957 91.648 131.31 L 91.648 131.514 C 92.056 131.489 92.428 131.356 92.761 131.115 C 93.101 130.867 93.374 130.552 93.578 130.168 C 93.78 129.785 93.886 129.358 93.884 128.925 C 93.884 128.622 93.804 128.387 93.643 128.22 C 93.488 128.046 93.263 127.951 93.03 127.96 Z M 103.3 128.276 C 102.997 128.276 102.66 128.291 102.289 128.322 C 101.911 128.355 101.536 128.417 101.167 128.508 C 101.451 128.829 101.757 129.151 102.085 129.473 C 102.419 129.794 102.703 130.063 102.938 130.28 L 103.291 130.595 L 103.504 130.41 C 103.647 130.286 103.826 130.122 104.042 129.918 C 104.265 129.714 104.5 129.488 104.748 129.241 C 104.995 128.993 105.224 128.749 105.434 128.508 C 105.062 128.416 104.684 128.354 104.302 128.322 C 103.969 128.293 103.634 128.278 103.3 128.276 Z M 103.291 126.003 C 103.78 126.003 104.293 126.04 104.831 126.114 C 105.348 126.182 105.857 126.297 106.353 126.458 C 106.829 126.606 107.215 126.801 107.512 127.042 C 107.815 127.283 107.967 127.574 107.967 127.914 C 107.967 128.075 107.911 128.27 107.8 128.499 C 107.679 128.755 107.536 129 107.373 129.231 C 106.999 129.759 106.59 130.261 106.148 130.734 C 105.938 130.963 105.746 131.161 105.573 131.328 C 105.858 131.409 106.133 131.458 106.399 131.477 C 106.665 131.495 106.909 131.504 107.132 131.504 L 108.579 131.504 L 108.579 134 L 107.141 134 C 106.436 134 105.762 133.92 105.119 133.759 C 104.483 133.595 103.869 133.355 103.291 133.044 C 102.854 133.271 102.394 133.448 101.918 133.573 C 101.405 133.715 100.876 133.824 100.332 133.898 C 99.787 133.966 99.277 134 98.801 134 L 97.335 134 L 97.335 131.504 L 99.44 131.504 C 99.707 131.498 99.982 131.483 100.267 131.458 C 100.557 131.427 100.808 131.381 101.018 131.319 C 100.82 131.127 100.629 130.929 100.443 130.725 C 100.224 130.486 100.01 130.241 99.803 129.992 C 99.593 129.726 99.398 129.466 99.218 129.213 C 99.061 128.981 98.918 128.739 98.791 128.489 C 98.681 128.26 98.625 128.069 98.625 127.914 C 98.625 127.574 98.773 127.283 99.07 127.042 C 99.367 126.801 99.75 126.606 100.22 126.458 C 100.696 126.303 101.204 126.188 101.742 126.114 C 102.286 126.04 102.802 126.003 103.291 126.003 Z M 114.275 128.962 C 114.009 128.962 113.768 129.052 113.552 129.231 C 113.341 129.411 113.153 129.63 112.986 129.89 C 112.834 130.128 112.697 130.376 112.578 130.632 C 112.757 130.806 112.93 130.957 113.097 131.087 C 113.27 131.211 113.431 131.316 113.58 131.402 C 113.779 131.519 113.99 131.613 114.21 131.681 C 114.408 131.736 114.582 131.764 114.73 131.764 C 115.083 131.764 115.336 131.647 115.491 131.412 C 115.652 131.177 115.732 130.892 115.732 130.558 C 115.732 130.119 115.602 129.745 115.342 129.436 C 115.083 129.12 114.727 128.962 114.275 128.962 Z M 114.721 134.213 C 114.308 134.216 113.898 134.153 113.505 134.028 C 113.112 133.899 112.735 133.725 112.383 133.508 C 112.006 133.273 111.643 133.016 111.297 132.738 C 111.069 132.979 110.837 133.196 110.602 133.388 C 110.355 133.579 110.08 133.73 109.785 133.833 C 109.476 133.944 109.086 134 108.616 134 L 108.208 134 L 108.208 131.504 L 108.57 131.504 C 108.898 131.504 109.185 131.387 109.433 131.152 C 109.68 130.917 109.918 130.614 110.147 130.243 C 110.376 129.865 110.611 129.47 110.852 129.055 C 111.099 128.635 111.375 128.236 111.678 127.858 C 111.973 127.488 112.335 127.176 112.745 126.94 C 113.153 126.705 113.638 126.587 114.201 126.587 C 114.962 126.587 115.621 126.77 116.177 127.135 C 116.732 127.484 117.181 127.978 117.476 128.563 C 117.779 129.157 117.931 129.807 117.931 130.512 C 117.931 131.229 117.81 131.866 117.569 132.423 C 117.328 132.979 116.969 133.419 116.493 133.74 C 116.023 134.056 115.432 134.213 114.721 134.213 Z M 14.698 162.348 L 6.981 162.348 L 5.744 166 L 0.47 166 L 7.952 145.323 L 13.784 145.323 L 21.267 166 L 15.935 166 Z M 13.402 158.459 L 10.839 150.89 L 8.306 158.459 Z M 28.58 144.203 L 28.58 166 L 23.544 166 L 23.544 144.203 Z M 44.896 153.57 L 44.896 157.753 L 31.936 157.753 L 31.936 153.57 Z M 63.043 151.862 C 62.68 151.184 62.114 150.638 61.423 150.3 C 60.735 149.927 59.921 149.741 58.978 149.741 C 57.348 149.741 56.042 150.281 55.06 151.361 C 54.079 152.421 53.588 153.845 53.588 155.632 C 53.588 157.537 54.098 159.029 55.119 160.109 C 56.16 161.169 57.584 161.7 59.39 161.7 C 60.627 161.7 61.668 161.385 62.513 160.757 C 63.377 160.129 64.005 159.225 64.398 158.047 L 58.006 158.047 L 58.006 154.336 L 68.963 154.336 L 68.963 159.019 C 68.59 160.276 67.952 161.444 67.049 162.524 C 66.165 163.604 65.036 164.478 63.661 165.146 C 62.287 165.813 60.736 166.147 59.007 166.147 C 56.965 166.147 55.139 165.705 53.529 164.822 C 51.962 163.942 50.668 162.648 49.789 161.081 C 48.904 159.49 48.463 157.674 48.463 155.632 C 48.463 153.59 48.904 151.773 49.788 150.183 C 50.656 148.607 51.953 147.31 53.528 146.442 C 55.119 145.539 56.936 145.087 58.978 145.087 C 61.452 145.087 63.534 145.686 65.222 146.884 C 66.931 148.081 68.06 149.741 68.61 151.862 Z M 81.856 149.387 C 83.742 149.387 85.254 150.016 86.392 151.272 C 87.532 152.51 88.101 154.218 88.101 156.398 L 88.101 166 L 83.094 166 L 83.094 157.075 C 83.094 155.975 82.809 155.121 82.239 154.513 C 81.669 153.904 80.904 153.599 79.942 153.599 C 78.98 153.599 78.214 153.904 77.644 154.513 C 77.074 155.121 76.79 155.975 76.79 157.075 L 76.79 166 L 71.753 166 L 71.753 144.203 L 76.79 144.203 L 76.79 151.773 C 77.3 151.047 77.998 150.467 78.881 150.035 C 79.765 149.603 80.757 149.387 81.856 149.387 Z M 90.6 157.753 C 90.6 156.064 90.914 154.581 91.542 153.305 C 92.19 152.028 93.064 151.047 94.163 150.359 C 95.263 149.672 96.491 149.328 97.845 149.328 C 99.004 149.328 100.015 149.564 100.879 150.035 C 101.763 150.507 102.44 151.125 102.912 151.891 L 102.912 149.564 L 107.949 149.564 L 107.949 166 L 102.912 166 L 102.912 163.673 C 102.421 164.439 101.733 165.057 100.85 165.529 C 99.986 166 98.975 166.236 97.816 166.236 C 96.481 166.236 95.263 165.892 94.163 165.205 C 93.063 164.498 92.19 163.506 91.542 162.23 C 90.914 160.934 90.6 159.441 90.6 157.753 Z M 102.912 157.782 C 102.912 156.525 102.558 155.534 101.851 154.807 C 101.202 154.097 100.28 153.7 99.318 153.717 C 98.317 153.717 97.463 154.081 96.756 154.807 C 96.068 155.514 95.725 156.496 95.725 157.753 C 95.725 159.009 96.068 160.011 96.755 160.757 C 97.463 161.484 98.317 161.847 99.318 161.847 C 100.32 161.847 101.164 161.484 101.851 160.757 C 102.558 160.03 102.912 159.039 102.912 157.782 Z M 128.382 149.564 L 118.073 173.806 L 112.653 173.806 L 116.423 165.44 L 109.737 149.564 L 115.363 149.564 L 119.162 159.844 L 122.933 149.564 Z M 129.202 157.753 C 129.202 156.064 129.516 154.581 130.144 153.305 C 130.792 152.028 131.666 151.047 132.766 150.359 C 133.865 149.672 135.093 149.328 136.448 149.328 C 137.606 149.328 138.618 149.564 139.482 150.035 C 140.365 150.507 141.043 151.125 141.514 151.891 L 141.514 149.564 L 146.551 149.564 L 146.551 166 L 141.514 166 L 141.514 163.673 C 141.023 164.439 140.336 165.057 139.452 165.529 C 138.588 166 137.577 166.236 136.418 166.236 C 135.083 166.236 133.865 165.892 132.766 165.205 C 131.666 164.498 130.792 163.506 130.144 162.23 C 129.516 160.934 129.202 159.441 129.202 157.753 Z M 141.514 157.782 C 141.514 156.525 141.16 155.534 140.454 154.807 C 139.805 154.097 138.882 153.7 137.92 153.717 C 136.919 153.717 136.065 154.081 135.358 154.807 C 134.671 155.514 134.327 156.496 134.327 157.753 C 134.327 159.009 134.671 160.011 135.358 160.757 C 136.065 161.484 136.919 161.847 137.92 161.847 C 138.922 161.847 139.766 161.484 140.454 160.757 C 141.16 160.03 141.514 159.039 141.514 157.782 Z" fill="rgb(230,230,232)"></path></svg>